G04 #@! TF.GenerationSoftware,KiCad,Pcbnew,(6.0.5)*
G04 #@! TF.CreationDate,2023-07-08T11:50:08+08:00*
G04 #@! TF.ProjectId,panel,70616e65-6c2e-46b6-9963-61645f706362,rev?*
G04 #@! TF.SameCoordinates,Original*
G04 #@! TF.FileFunction,Paste,Top*
G04 #@! TF.FilePolarity,Positive*
%FSLAX46Y46*%
G04 Gerber Fmt 4.6, Leading zero omitted, Abs format (unit mm)*
G04 Created by KiCad (PCBNEW (6.0.5)) date 2023-07-08 11:50:08*
%MOMM*%
%LPD*%
G01*
G04 APERTURE LIST*
G04 Aperture macros list*
%AMRoundRect*
0 Rectangle with rounded corners*
0 $1 Rounding radius*
0 $2 $3 $4 $5 $6 $7 $8 $9 X,Y pos of 4 corners*
0 Add a 4 corners polygon primitive as box body*
4,1,4,$2,$3,$4,$5,$6,$7,$8,$9,$2,$3,0*
0 Add four circle primitives for the rounded corners*
1,1,$1+$1,$2,$3*
1,1,$1+$1,$4,$5*
1,1,$1+$1,$6,$7*
1,1,$1+$1,$8,$9*
0 Add four rect primitives between the rounded corners*
20,1,$1+$1,$2,$3,$4,$5,0*
20,1,$1+$1,$4,$5,$6,$7,0*
20,1,$1+$1,$6,$7,$8,$9,0*
20,1,$1+$1,$8,$9,$2,$3,0*%
G04 Aperture macros list end*
%ADD10R,1.220000X2.200000*%
%ADD11R,2.170000X2.200000*%
%ADD12RoundRect,0.135000X-0.135000X-0.185000X0.135000X-0.185000X0.135000X0.185000X-0.135000X0.185000X0*%
%ADD13RoundRect,0.135000X0.185000X-0.135000X0.185000X0.135000X-0.185000X0.135000X-0.185000X-0.135000X0*%
%ADD14R,5.000000X2.600000*%
%ADD15RoundRect,0.200000X0.275000X-0.200000X0.275000X0.200000X-0.275000X0.200000X-0.275000X-0.200000X0*%
%ADD16RoundRect,0.250000X-0.625000X0.312500X-0.625000X-0.312500X0.625000X-0.312500X0.625000X0.312500X0*%
%ADD17RoundRect,0.250000X-0.450000X0.262500X-0.450000X-0.262500X0.450000X-0.262500X0.450000X0.262500X0*%
%ADD18RoundRect,0.140000X-0.170000X0.140000X-0.170000X-0.140000X0.170000X-0.140000X0.170000X0.140000X0*%
%ADD19R,1.800000X2.500000*%
%ADD20R,0.250000X0.360000*%
%ADD21RoundRect,0.140000X0.140000X0.170000X-0.140000X0.170000X-0.140000X-0.170000X0.140000X-0.170000X0*%
%ADD22RoundRect,0.225000X-0.225000X-0.250000X0.225000X-0.250000X0.225000X0.250000X-0.225000X0.250000X0*%
%ADD23R,3.100000X3.500000*%
%ADD24RoundRect,0.150000X0.825000X0.150000X-0.825000X0.150000X-0.825000X-0.150000X0.825000X-0.150000X0*%
%ADD25R,0.600000X0.800000*%
%ADD26R,0.650000X0.400000*%
%ADD27RoundRect,0.150000X-0.512500X-0.150000X0.512500X-0.150000X0.512500X0.150000X-0.512500X0.150000X0*%
G04 APERTURE END LIST*
D10*
X140879969Y-51499997D03*
D11*
X143184969Y-51499997D03*
D12*
X189099969Y-93714995D03*
X190119969Y-93714995D03*
D10*
X159979969Y-82799995D03*
D11*
X162284969Y-82799995D03*
D10*
X112229969Y-22799998D03*
D11*
X114534969Y-22799998D03*
D10*
X112229969Y-31499998D03*
D11*
X114534969Y-31499998D03*
D10*
X150429969Y-91499995D03*
D11*
X152734969Y-91499995D03*
D13*
X187069969Y-53794997D03*
X187069969Y-52774997D03*
D10*
X121779969Y-27199998D03*
D11*
X124084969Y-27199998D03*
D14*
X102344969Y-68749996D03*
D10*
X169529969Y-51499997D03*
D11*
X171834969Y-51499997D03*
D10*
X140879969Y-71499996D03*
D11*
X143184969Y-71499996D03*
D10*
X112229969Y-55899997D03*
D11*
X114534969Y-55899997D03*
D10*
X121779969Y-47199997D03*
D11*
X124084969Y-47199997D03*
D15*
X189039969Y-117374994D03*
X189039969Y-115724994D03*
D10*
X131329969Y-47199997D03*
D11*
X133634969Y-47199997D03*
D10*
X169529969Y-71499996D03*
D11*
X171834969Y-71499996D03*
D16*
X183989969Y-55012497D03*
D17*
X183989969Y-55539997D03*
D16*
X183989969Y-57937497D03*
D17*
X183989969Y-57364997D03*
D10*
X159979969Y-42799997D03*
D11*
X162284969Y-42799997D03*
D12*
X187039969Y-111864994D03*
X188059969Y-111864994D03*
D14*
X102344969Y-28749998D03*
D18*
X110259969Y-50429997D03*
X110259969Y-51389997D03*
D19*
X184539969Y-72624996D03*
X184539969Y-68624996D03*
D10*
X131329969Y-51499997D03*
D11*
X133634969Y-51499997D03*
D10*
X112229969Y-27199998D03*
D11*
X114534969Y-27199998D03*
D10*
X112229969Y-115899994D03*
D11*
X114534969Y-115899994D03*
D10*
X179079969Y-107199994D03*
D11*
X181384969Y-107199994D03*
D10*
X179079969Y-51499997D03*
D11*
X181384969Y-51499997D03*
D12*
X187039969Y-51864997D03*
X188059969Y-51864997D03*
D10*
X169529969Y-22799998D03*
D11*
X171834969Y-22799998D03*
D10*
X169529969Y-107199994D03*
D11*
X171834969Y-107199994D03*
D13*
X187069969Y-33794998D03*
X187069969Y-32774998D03*
D10*
X121779969Y-67199996D03*
D11*
X124084969Y-67199996D03*
D10*
X131329969Y-31499998D03*
D11*
X133634969Y-31499998D03*
D10*
X150429969Y-42799997D03*
D11*
X152734969Y-42799997D03*
D20*
X196639969Y-32004998D03*
X196639969Y-32844998D03*
D10*
X140879969Y-75899996D03*
D11*
X143184969Y-75899996D03*
D12*
X103559969Y-91339995D03*
X104579969Y-91339995D03*
D10*
X159979969Y-55899997D03*
D11*
X162284969Y-55899997D03*
D10*
X112229969Y-75899996D03*
D11*
X114534969Y-75899996D03*
D21*
X190059969Y-52744997D03*
X189099969Y-52744997D03*
D22*
X185964969Y-115924994D03*
X187514969Y-115924994D03*
D10*
X140879969Y-115899994D03*
D11*
X143184969Y-115899994D03*
D23*
X190014969Y-23774998D03*
X185414969Y-23774998D03*
D15*
X189039969Y-37374998D03*
X189039969Y-35724998D03*
D10*
X179079969Y-35899998D03*
D11*
X181384969Y-35899998D03*
D10*
X169529969Y-27199998D03*
D11*
X171834969Y-27199998D03*
D10*
X150429969Y-35899998D03*
D11*
X152734969Y-35899998D03*
D10*
X131329969Y-91499995D03*
D11*
X133634969Y-91499995D03*
D10*
X131329969Y-115899994D03*
D11*
X133634969Y-115899994D03*
D15*
X189039969Y-97374995D03*
X189039969Y-95724995D03*
D10*
X150429969Y-31499998D03*
D11*
X152734969Y-31499998D03*
D18*
X110259969Y-110429994D03*
X110259969Y-111389994D03*
D10*
X169529969Y-35899998D03*
D11*
X171834969Y-35899998D03*
D10*
X121779969Y-75899996D03*
D11*
X124084969Y-75899996D03*
D10*
X150429969Y-107199994D03*
D11*
X152734969Y-107199994D03*
D24*
X108944969Y-76504996D03*
X108944969Y-75234996D03*
X108944969Y-73964996D03*
X108944969Y-72694996D03*
X103994969Y-72694996D03*
X103994969Y-73964996D03*
X103994969Y-75234996D03*
X103994969Y-76504996D03*
D10*
X121779969Y-102799994D03*
D11*
X124084969Y-102799994D03*
D25*
X191579969Y-50524997D03*
X191579969Y-52924997D03*
D12*
X103559969Y-71339996D03*
X104579969Y-71339996D03*
D10*
X150429969Y-67199996D03*
D11*
X152734969Y-67199996D03*
D10*
X121779969Y-107199994D03*
D11*
X124084969Y-107199994D03*
D10*
X121779969Y-91499995D03*
D11*
X124084969Y-91499995D03*
D10*
X131329969Y-95899995D03*
D11*
X133634969Y-95899995D03*
D12*
X187039969Y-71864996D03*
X188059969Y-71864996D03*
D26*
X192439969Y-76549996D03*
X192439969Y-75899996D03*
X192439969Y-75249996D03*
X190539969Y-75249996D03*
X190539969Y-76549996D03*
D10*
X112229969Y-91499995D03*
D11*
X114534969Y-91499995D03*
D18*
X191099969Y-28384998D03*
X191099969Y-29344998D03*
D10*
X112229969Y-51499997D03*
D11*
X114534969Y-51499997D03*
D10*
X169529969Y-87199995D03*
D11*
X171834969Y-87199995D03*
D18*
X188009969Y-92784995D03*
X188009969Y-93744995D03*
D10*
X179079969Y-71499996D03*
D11*
X181384969Y-71499996D03*
D10*
X121779969Y-42799997D03*
D11*
X124084969Y-42799997D03*
D10*
X159979969Y-87199995D03*
D11*
X162284969Y-87199995D03*
D10*
X131329969Y-75899996D03*
D11*
X133634969Y-75899996D03*
D10*
X112229969Y-42799997D03*
D11*
X114534969Y-42799997D03*
D10*
X159979969Y-71499996D03*
D11*
X162284969Y-71499996D03*
D18*
X110259969Y-30429998D03*
X110259969Y-31389998D03*
D10*
X112229969Y-111499994D03*
D11*
X114534969Y-111499994D03*
D10*
X140879969Y-35899998D03*
D11*
X143184969Y-35899998D03*
D21*
X109739969Y-97779995D03*
X108779969Y-97779995D03*
D10*
X131329969Y-22799998D03*
D11*
X133634969Y-22799998D03*
D10*
X169529969Y-47199997D03*
D11*
X171834969Y-47199997D03*
D10*
X179079969Y-31499998D03*
D11*
X181384969Y-31499998D03*
D24*
X108944969Y-56504997D03*
X108944969Y-55234997D03*
X108944969Y-53964997D03*
X108944969Y-52694997D03*
X103994969Y-52694997D03*
X103994969Y-53964997D03*
X103994969Y-55234997D03*
X103994969Y-56504997D03*
D10*
X140879969Y-91499995D03*
D11*
X143184969Y-91499995D03*
D10*
X169529969Y-102799994D03*
D11*
X171834969Y-102799994D03*
D10*
X150429969Y-51499997D03*
D11*
X152734969Y-51499997D03*
D10*
X150429969Y-111499994D03*
D11*
X152734969Y-111499994D03*
D14*
X102344969Y-108749994D03*
D10*
X140879969Y-102799994D03*
D11*
X143184969Y-102799994D03*
D10*
X179079969Y-67199996D03*
D11*
X181384969Y-67199996D03*
D18*
X110259969Y-70429996D03*
X110259969Y-71389996D03*
D10*
X179079969Y-22799998D03*
D11*
X181384969Y-22799998D03*
D10*
X121779969Y-71499996D03*
D11*
X124084969Y-71499996D03*
D26*
X192439969Y-36549998D03*
X192439969Y-35899998D03*
X192439969Y-35249998D03*
X190539969Y-35249998D03*
X190539969Y-36549998D03*
D10*
X179079969Y-42799997D03*
D11*
X181384969Y-42799997D03*
D10*
X169529969Y-91499995D03*
D11*
X171834969Y-91499995D03*
D10*
X169529969Y-115899994D03*
D11*
X171834969Y-115899994D03*
D20*
X196639969Y-92004995D03*
X196639969Y-92844995D03*
D10*
X169529969Y-95899995D03*
D11*
X171834969Y-95899995D03*
D10*
X150429969Y-95899995D03*
D11*
X152734969Y-95899995D03*
D10*
X159979969Y-51499997D03*
D11*
X162284969Y-51499997D03*
D10*
X159979969Y-47199997D03*
D11*
X162284969Y-47199997D03*
D21*
X190059969Y-72744996D03*
X189099969Y-72744996D03*
D12*
X189099969Y-53714997D03*
X190119969Y-53714997D03*
D10*
X159979969Y-107199994D03*
D11*
X162284969Y-107199994D03*
D13*
X187069969Y-73794996D03*
X187069969Y-72774996D03*
D25*
X191579969Y-30524998D03*
X191579969Y-32924998D03*
D10*
X159979969Y-91499995D03*
D11*
X162284969Y-91499995D03*
D10*
X140879969Y-22799998D03*
D11*
X143184969Y-22799998D03*
D10*
X159979969Y-95899995D03*
D11*
X162284969Y-95899995D03*
D19*
X184539969Y-112624994D03*
X184539969Y-108624994D03*
D10*
X131329969Y-102799994D03*
D11*
X133634969Y-102799994D03*
D23*
X190014969Y-83774995D03*
X185414969Y-83774995D03*
D10*
X131329969Y-82799995D03*
D11*
X133634969Y-82799995D03*
D12*
X103559969Y-31339998D03*
X104579969Y-31339998D03*
D10*
X140879969Y-55899997D03*
D11*
X143184969Y-55899997D03*
D23*
X190014969Y-103774994D03*
X185414969Y-103774994D03*
D10*
X131329969Y-67199996D03*
D11*
X133634969Y-67199996D03*
D27*
X187427469Y-88624995D03*
X187427469Y-89574995D03*
X187427469Y-90524995D03*
X189702469Y-90524995D03*
X189702469Y-89574995D03*
X189702469Y-88624995D03*
D10*
X121779969Y-55899997D03*
D11*
X124084969Y-55899997D03*
D25*
X191579969Y-70524996D03*
X191579969Y-72924996D03*
D12*
X103559969Y-51339997D03*
X104579969Y-51339997D03*
D27*
X187427469Y-28624998D03*
X187427469Y-29574998D03*
X187427469Y-30524998D03*
X189702469Y-30524998D03*
X189702469Y-29574998D03*
X189702469Y-28624998D03*
D10*
X179079969Y-62799996D03*
D11*
X181384969Y-62799996D03*
D19*
X184539969Y-92624995D03*
X184539969Y-88624995D03*
D18*
X188009969Y-32784998D03*
X188009969Y-33744998D03*
D13*
X187069969Y-113794994D03*
X187069969Y-112774994D03*
D10*
X140879969Y-111499994D03*
D11*
X143184969Y-111499994D03*
D27*
X187427469Y-48624997D03*
X187427469Y-49574997D03*
X187427469Y-50524997D03*
X189702469Y-50524997D03*
X189702469Y-49574997D03*
X189702469Y-48624997D03*
D16*
X183989969Y-115012494D03*
D17*
X183989969Y-115539994D03*
D16*
X183989969Y-117937494D03*
D17*
X183989969Y-117364994D03*
D10*
X140879969Y-87199995D03*
D11*
X143184969Y-87199995D03*
D18*
X191099969Y-68384996D03*
X191099969Y-69344996D03*
X191099969Y-108384994D03*
X191099969Y-109344994D03*
X191099969Y-88384995D03*
X191099969Y-89344995D03*
D10*
X112229969Y-71499996D03*
D11*
X114534969Y-71499996D03*
D10*
X179079969Y-82799995D03*
D11*
X181384969Y-82799995D03*
D10*
X169529969Y-75899996D03*
D11*
X171834969Y-75899996D03*
D10*
X140879969Y-62799996D03*
D11*
X143184969Y-62799996D03*
D10*
X140879969Y-42799997D03*
D11*
X143184969Y-42799997D03*
D26*
X192439969Y-116549994D03*
X192439969Y-115899994D03*
X192439969Y-115249994D03*
X190539969Y-115249994D03*
X190539969Y-116549994D03*
D23*
X190014969Y-43774997D03*
X185414969Y-43774997D03*
D10*
X112229969Y-95899995D03*
D11*
X114534969Y-95899995D03*
D10*
X179079969Y-87199995D03*
D11*
X181384969Y-87199995D03*
D27*
X187427469Y-108624994D03*
X187427469Y-109574994D03*
X187427469Y-110524994D03*
X189702469Y-110524994D03*
X189702469Y-109574994D03*
X189702469Y-108624994D03*
D10*
X150429969Y-62799996D03*
D11*
X152734969Y-62799996D03*
D10*
X121779969Y-22799998D03*
D11*
X124084969Y-22799998D03*
D10*
X150429969Y-75899996D03*
D11*
X152734969Y-75899996D03*
D10*
X179079969Y-111499994D03*
D11*
X181384969Y-111499994D03*
D10*
X159979969Y-35899998D03*
D11*
X162284969Y-35899998D03*
D10*
X131329969Y-87199995D03*
D11*
X133634969Y-87199995D03*
D10*
X131329969Y-27199998D03*
D11*
X133634969Y-27199998D03*
D25*
X191579969Y-110524994D03*
X191579969Y-112924994D03*
D22*
X185964969Y-95924995D03*
X187514969Y-95924995D03*
D10*
X169529969Y-67199996D03*
D11*
X171834969Y-67199996D03*
D15*
X189039969Y-57374997D03*
X189039969Y-55724997D03*
D22*
X185964969Y-55924997D03*
X187514969Y-55924997D03*
D24*
X108944969Y-116504994D03*
X108944969Y-115234994D03*
X108944969Y-113964994D03*
X108944969Y-112694994D03*
X103994969Y-112694994D03*
X103994969Y-113964994D03*
X103994969Y-115234994D03*
X103994969Y-116504994D03*
D10*
X159979969Y-67199996D03*
D11*
X162284969Y-67199996D03*
D10*
X112229969Y-35899998D03*
D11*
X114534969Y-35899998D03*
D25*
X191579969Y-90524995D03*
X191579969Y-92924995D03*
D10*
X150429969Y-87199995D03*
D11*
X152734969Y-87199995D03*
D19*
X184539969Y-52624997D03*
X184539969Y-48624997D03*
D18*
X110259969Y-90429995D03*
X110259969Y-91389995D03*
D13*
X187069969Y-93794995D03*
X187069969Y-92774995D03*
D10*
X159979969Y-22799998D03*
D11*
X162284969Y-22799998D03*
D10*
X159979969Y-27199998D03*
D11*
X162284969Y-27199998D03*
D21*
X190059969Y-92744995D03*
X189099969Y-92744995D03*
D10*
X179079969Y-47199997D03*
D11*
X181384969Y-47199997D03*
D10*
X112229969Y-87199995D03*
D11*
X114534969Y-87199995D03*
D10*
X121779969Y-82799995D03*
D11*
X124084969Y-82799995D03*
D10*
X112229969Y-67199996D03*
D11*
X114534969Y-67199996D03*
D10*
X169529969Y-55899997D03*
D11*
X171834969Y-55899997D03*
D10*
X179079969Y-75899996D03*
D11*
X181384969Y-75899996D03*
D22*
X185964969Y-35924998D03*
X187514969Y-35924998D03*
D10*
X159979969Y-75899996D03*
D11*
X162284969Y-75899996D03*
D26*
X192439969Y-96549995D03*
X192439969Y-95899995D03*
X192439969Y-95249995D03*
X190539969Y-95249995D03*
X190539969Y-96549995D03*
D10*
X150429969Y-71499996D03*
D11*
X152734969Y-71499996D03*
D10*
X159979969Y-102799994D03*
D11*
X162284969Y-102799994D03*
D10*
X140879969Y-82799995D03*
D11*
X143184969Y-82799995D03*
D10*
X112229969Y-47199997D03*
D11*
X114534969Y-47199997D03*
D24*
X108944969Y-36504998D03*
X108944969Y-35234998D03*
X108944969Y-33964998D03*
X108944969Y-32694998D03*
X103994969Y-32694998D03*
X103994969Y-33964998D03*
X103994969Y-35234998D03*
X103994969Y-36504998D03*
D20*
X196639969Y-52004997D03*
X196639969Y-52844997D03*
D21*
X190059969Y-112744994D03*
X189099969Y-112744994D03*
D10*
X150429969Y-82799995D03*
D11*
X152734969Y-82799995D03*
D10*
X140879969Y-27199998D03*
D11*
X143184969Y-27199998D03*
D10*
X121779969Y-51499997D03*
D11*
X124084969Y-51499997D03*
D10*
X150429969Y-55899997D03*
D11*
X152734969Y-55899997D03*
D14*
X102344969Y-88749995D03*
D10*
X121779969Y-31499998D03*
D11*
X124084969Y-31499998D03*
D24*
X108944969Y-96504995D03*
X108944969Y-95234995D03*
X108944969Y-93964995D03*
X108944969Y-92694995D03*
X103994969Y-92694995D03*
X103994969Y-93964995D03*
X103994969Y-95234995D03*
X103994969Y-96504995D03*
D17*
X183989969Y-35539998D03*
D16*
X183989969Y-35012498D03*
D17*
X183989969Y-37364998D03*
D16*
X183989969Y-37937498D03*
D10*
X121779969Y-35899998D03*
D11*
X124084969Y-35899998D03*
D14*
X102344969Y-48749997D03*
D21*
X109739969Y-117779994D03*
X108779969Y-117779994D03*
D19*
X184539969Y-32624998D03*
X184539969Y-28624998D03*
D10*
X121779969Y-87199995D03*
D11*
X124084969Y-87199995D03*
D27*
X187427469Y-68624996D03*
X187427469Y-69574996D03*
X187427469Y-70524996D03*
X189702469Y-70524996D03*
X189702469Y-69574996D03*
X189702469Y-68624996D03*
D10*
X140879969Y-107199994D03*
D11*
X143184969Y-107199994D03*
D10*
X140879969Y-95899995D03*
D11*
X143184969Y-95899995D03*
D10*
X169529969Y-82799995D03*
D11*
X171834969Y-82799995D03*
D10*
X169529969Y-111499994D03*
D11*
X171834969Y-111499994D03*
D10*
X121779969Y-95899995D03*
D11*
X124084969Y-95899995D03*
D18*
X188009969Y-52784997D03*
X188009969Y-53744997D03*
D17*
X183989969Y-95539995D03*
D16*
X183989969Y-95012495D03*
X183989969Y-97937495D03*
D17*
X183989969Y-97364995D03*
D10*
X169529969Y-42799997D03*
D11*
X171834969Y-42799997D03*
D15*
X189039969Y-77374996D03*
X189039969Y-75724996D03*
D12*
X189099969Y-73714996D03*
X190119969Y-73714996D03*
D21*
X190059969Y-32744998D03*
X189099969Y-32744998D03*
D18*
X191099969Y-48384997D03*
X191099969Y-49344997D03*
D10*
X112229969Y-107199994D03*
D11*
X114534969Y-107199994D03*
D10*
X179079969Y-95899995D03*
D11*
X181384969Y-95899995D03*
D10*
X179079969Y-115899994D03*
D11*
X181384969Y-115899994D03*
D10*
X131329969Y-55899997D03*
D11*
X133634969Y-55899997D03*
D10*
X159979969Y-62799996D03*
D11*
X162284969Y-62799996D03*
D10*
X169529969Y-31499998D03*
D11*
X171834969Y-31499998D03*
D10*
X140879969Y-31499998D03*
D11*
X143184969Y-31499998D03*
D10*
X131329969Y-71499996D03*
D11*
X133634969Y-71499996D03*
D20*
X196639969Y-72004996D03*
X196639969Y-72844996D03*
D10*
X131329969Y-62799996D03*
D11*
X133634969Y-62799996D03*
D21*
X109739969Y-77779996D03*
X108779969Y-77779996D03*
D18*
X188009969Y-112784994D03*
X188009969Y-113744994D03*
D10*
X121779969Y-62799996D03*
D11*
X124084969Y-62799996D03*
D10*
X131329969Y-107199994D03*
D11*
X133634969Y-107199994D03*
D10*
X159979969Y-111499994D03*
D11*
X162284969Y-111499994D03*
D10*
X112229969Y-102799994D03*
D11*
X114534969Y-102799994D03*
D20*
X196639969Y-112004994D03*
X196639969Y-112844994D03*
D10*
X112229969Y-82799995D03*
D11*
X114534969Y-82799995D03*
D12*
X187039969Y-31864998D03*
X188059969Y-31864998D03*
D10*
X179079969Y-55899997D03*
D11*
X181384969Y-55899997D03*
D10*
X131329969Y-111499994D03*
D11*
X133634969Y-111499994D03*
D10*
X169529969Y-62799996D03*
D11*
X171834969Y-62799996D03*
D23*
X190014969Y-63774996D03*
X185414969Y-63774996D03*
D10*
X150429969Y-22799998D03*
D11*
X152734969Y-22799998D03*
D12*
X103559969Y-111339994D03*
X104579969Y-111339994D03*
D22*
X185964969Y-75924996D03*
X187514969Y-75924996D03*
D16*
X183989969Y-75012496D03*
D17*
X183989969Y-75539996D03*
D16*
X183989969Y-77937496D03*
D17*
X183989969Y-77364996D03*
D10*
X131329969Y-42799997D03*
D11*
X133634969Y-42799997D03*
D10*
X179079969Y-102799994D03*
D11*
X181384969Y-102799994D03*
D12*
X187039969Y-91864995D03*
X188059969Y-91864995D03*
D10*
X112229969Y-62799996D03*
D11*
X114534969Y-62799996D03*
D10*
X179079969Y-91499995D03*
D11*
X181384969Y-91499995D03*
D12*
X189099969Y-33714998D03*
X190119969Y-33714998D03*
D10*
X121779969Y-111499994D03*
D11*
X124084969Y-111499994D03*
D10*
X140879969Y-67199996D03*
D11*
X143184969Y-67199996D03*
D26*
X192439969Y-56549997D03*
X192439969Y-55899997D03*
X192439969Y-55249997D03*
X190539969Y-55249997D03*
X190539969Y-56549997D03*
D10*
X150429969Y-102799994D03*
D11*
X152734969Y-102799994D03*
D10*
X179079969Y-27199998D03*
D11*
X181384969Y-27199998D03*
D10*
X131329969Y-35899998D03*
D11*
X133634969Y-35899998D03*
D10*
X150429969Y-47199997D03*
D11*
X152734969Y-47199997D03*
D18*
X188009969Y-72784996D03*
X188009969Y-73744996D03*
D10*
X159979969Y-115899994D03*
D11*
X162284969Y-115899994D03*
D10*
X150429969Y-115899994D03*
D11*
X152734969Y-115899994D03*
D21*
X109739969Y-37779998D03*
X108779969Y-37779998D03*
X109739969Y-57779997D03*
X108779969Y-57779997D03*
D10*
X121779969Y-115899994D03*
D11*
X124084969Y-115899994D03*
D10*
X140879969Y-47199997D03*
D11*
X143184969Y-47199997D03*
D10*
X150429969Y-27199998D03*
D11*
X152734969Y-27199998D03*
D10*
X159979969Y-31499998D03*
D11*
X162284969Y-31499998D03*
D12*
X189099969Y-113714994D03*
X190119969Y-113714994D03*
M02*
