G04 #@! TF.GenerationSoftware,KiCad,Pcbnew,(6.0.5)*
G04 #@! TF.CreationDate,2023-06-23T17:04:20+08:00*
G04 #@! TF.ProjectId,panel,70616e65-6c2e-46b6-9963-61645f706362,rev?*
G04 #@! TF.SameCoordinates,Original*
G04 #@! TF.FileFunction,Profile,NP*
%FSLAX46Y46*%
G04 Gerber Fmt 4.6, Leading zero omitted, Abs format (unit mm)*
G04 Created by KiCad (PCBNEW (6.0.5)) date 2023-06-23 17:04:20*
%MOMM*%
%LPD*%
G01*
G04 APERTURE LIST*
G04 #@! TA.AperFunction,Profile*
%ADD10C,0.100000*%
G04 #@! TD*
G04 APERTURE END LIST*
D10*
X197702590Y-85449688D02*
X197686157Y-85412785D01*
X196164149Y-23062082D02*
X195872256Y-22749631D01*
X99038645Y-46125813D02*
X99038558Y-46126054D01*
X196916726Y-115941741D02*
X196939175Y-115908157D01*
X99391931Y-105258622D02*
X99374878Y-105295242D01*
X102190347Y-98180573D02*
X102190550Y-98180728D01*
X197961291Y-93852293D02*
X197961378Y-93852052D01*
X98531525Y-91437455D02*
X98531542Y-91437676D01*
X189870169Y-119977725D02*
X189886931Y-119976635D01*
X197866673Y-105845088D02*
X197866578Y-105844851D01*
X198233636Y-52913503D02*
X198320941Y-52494930D01*
X194677711Y-78258924D02*
X195018335Y-78000466D01*
X98843393Y-113282366D02*
X98966726Y-113691146D01*
X197417429Y-35102817D02*
X197417546Y-35102590D01*
X198443420Y-71566325D02*
X198443443Y-71566071D01*
X196355254Y-56691766D02*
X196355420Y-56691571D01*
X198468890Y-31098689D02*
X198469966Y-31057508D01*
X198272595Y-87189351D02*
X198272538Y-87189102D01*
X193360681Y-60174211D02*
X193353551Y-60095774D01*
X101279459Y-82597947D02*
X101250655Y-82626269D01*
X99319359Y-54601331D02*
X99503629Y-54986502D01*
X196645663Y-96323834D02*
X196669800Y-96291442D01*
X192782174Y-20674145D02*
X192744729Y-20658987D01*
X103498313Y-99359241D02*
X103528158Y-99432163D01*
X100539784Y-76589316D02*
X100539946Y-76589513D01*
X101981399Y-81977797D02*
X101949853Y-82003030D01*
X100354428Y-83654066D02*
X100354273Y-83654270D01*
X197810944Y-34252845D02*
X197811037Y-34252607D01*
X198443443Y-111566069D02*
X198446581Y-111525795D01*
X98530355Y-31419758D02*
X98530374Y-31420202D01*
X103528158Y-59432165D02*
X103554353Y-59506475D01*
X195506144Y-82395845D02*
X195505953Y-82395675D01*
X191735410Y-119668342D02*
X191735656Y-119668272D01*
X100255818Y-116217868D02*
X100514390Y-116557651D01*
X196191302Y-63092677D02*
X196191135Y-63092484D01*
X104698167Y-119506061D02*
X105105122Y-119635291D01*
X191445195Y-20245681D02*
X191444946Y-20245619D01*
X190058187Y-20026540D02*
X190057933Y-20026517D01*
X197881286Y-45883026D02*
X197881197Y-45882786D01*
X195018335Y-118000464D02*
X195018537Y-118000306D01*
X99811205Y-44466724D02*
X99601531Y-44839367D01*
X198431343Y-48153622D02*
X198431318Y-48153368D01*
X195749281Y-117351834D02*
X195749461Y-117351653D01*
X99832036Y-44431816D02*
X99811333Y-44466503D01*
X197280172Y-84613698D02*
X197260057Y-84578665D01*
X103108672Y-21209984D02*
X103108452Y-21210114D01*
X101592283Y-22305710D02*
X101592094Y-22305882D01*
X198469969Y-51057246D02*
X198470032Y-48617290D01*
X99503742Y-94986728D02*
X99522072Y-95022655D01*
X192624850Y-119374738D02*
X192625087Y-119374643D01*
X198160276Y-66734537D02*
X198160206Y-66734291D01*
X197188602Y-115511602D02*
X197188731Y-115511381D01*
X194399849Y-81530605D02*
X194090695Y-81335202D01*
X98843323Y-93282121D02*
X98843393Y-93282367D01*
X100953180Y-42934122D02*
X100925862Y-42963880D01*
X101592283Y-62305708D02*
X101592094Y-62305880D01*
X103415311Y-100799359D02*
X103373914Y-100866400D01*
X98531525Y-111437454D02*
X98531542Y-111437675D01*
X102606116Y-98473576D02*
X102890441Y-98652953D01*
X195377245Y-97699377D02*
X195377439Y-97699210D01*
X99746276Y-75433532D02*
X99968857Y-75797908D01*
X193653165Y-79057346D02*
X193700983Y-78994763D01*
X198160206Y-46734292D02*
X198037505Y-46324692D01*
X194644711Y-58282664D02*
X194677505Y-58259077D01*
X198361470Y-87649063D02*
X198281239Y-87229074D01*
X198024768Y-86285815D02*
X197881286Y-85883024D01*
X98529968Y-28920873D02*
X98529968Y-31402246D01*
X103297220Y-59021592D02*
X103344039Y-59084967D01*
X196916726Y-75941743D02*
X196939175Y-75908159D01*
X193174520Y-20844765D02*
X192782410Y-20674244D01*
X103556523Y-20967856D02*
X103556294Y-20967969D01*
X103589913Y-100361848D02*
X103569976Y-100438077D01*
X197686157Y-45412787D02*
X197686050Y-45412555D01*
X198399286Y-111991878D02*
X198399316Y-111991624D01*
X190946804Y-20141724D02*
X190946552Y-20141682D01*
X197502073Y-25026293D02*
X197483776Y-24990278D01*
X197607894Y-94719712D02*
X197608005Y-94719481D01*
X98574282Y-31906222D02*
X98633788Y-32329035D01*
X99025254Y-46164467D02*
X98895662Y-46571936D01*
X196164149Y-83062079D02*
X195872256Y-82749628D01*
X102322431Y-21719033D02*
X102322225Y-21719185D01*
X198361515Y-87649314D02*
X198361470Y-87649063D01*
X198431318Y-68153367D02*
X198426801Y-68113223D01*
X100514547Y-116557852D02*
X100539784Y-116589314D01*
X193921376Y-78770323D02*
X193983078Y-78721373D01*
X99302781Y-54564283D02*
X99319252Y-54601099D01*
X98843323Y-53282123D02*
X98843393Y-53282369D01*
X194783145Y-61799970D02*
X194433859Y-61553340D01*
X98529972Y-48920611D02*
X98529968Y-48920872D01*
X197502186Y-25026523D02*
X197502073Y-25026293D01*
X195018335Y-58000467D02*
X195018537Y-58000309D01*
X198394093Y-32031943D02*
X198399286Y-31991882D01*
X196467001Y-103419839D02*
X196466839Y-103419641D01*
X100329986Y-43686871D02*
X100083355Y-44036154D01*
X197811037Y-74252605D02*
X197961291Y-73852294D01*
X198115604Y-73367130D02*
X198115672Y-73366883D01*
X98671670Y-47523424D02*
X98605879Y-47945913D01*
X198272538Y-87189102D02*
X198170939Y-86773764D01*
X98556493Y-108412033D02*
X98553355Y-108452307D01*
X98766356Y-27064356D02*
X98766300Y-27064606D01*
X196046580Y-57044172D02*
X196046755Y-57043986D01*
X98678947Y-107483426D02*
X98671713Y-107523169D01*
X198399316Y-71991626D02*
X198443420Y-71566325D01*
X195843575Y-42720460D02*
X195536088Y-42423341D01*
X103595548Y-79658530D02*
X103610446Y-79735901D01*
X191280598Y-119780663D02*
X191280847Y-119780605D01*
X197037602Y-104213205D02*
X197037466Y-104212989D01*
X100842502Y-36945982D02*
X100842674Y-36946170D01*
X193751842Y-38934627D02*
X193805616Y-38877081D01*
X195152168Y-22088580D02*
X194815948Y-21824414D01*
X98678947Y-87483427D02*
X98671713Y-87523170D01*
X195050280Y-117974911D02*
X195377245Y-117699376D01*
X195183483Y-42114501D02*
X195152367Y-42088740D01*
X198368077Y-47689176D02*
X198361515Y-47649316D01*
X197795786Y-54290288D02*
X197810944Y-54252844D01*
X101981601Y-101977639D02*
X101981399Y-101977796D01*
X101250655Y-22626272D02*
X101250475Y-22626454D01*
X101823046Y-117891266D02*
X101854139Y-117916954D01*
X98633827Y-112329283D02*
X98640466Y-112369066D01*
X196751004Y-63792420D02*
X196750852Y-63792215D01*
X195183678Y-102114664D02*
X195183483Y-102114498D01*
X198281239Y-87229074D02*
X198281188Y-87228823D01*
X195872079Y-102749442D02*
X195843756Y-102720637D01*
X193386540Y-40329546D02*
X193371686Y-40252199D01*
X98529968Y-31402246D02*
X98529971Y-31402468D01*
X99726006Y-115398366D02*
X99746146Y-115433310D01*
X191240876Y-119789306D02*
X191241127Y-119789255D01*
X198426769Y-108112968D02*
X198368116Y-107689426D01*
X198160276Y-26734539D02*
X198160206Y-26734293D01*
X100953356Y-102933933D02*
X100953180Y-102934119D01*
X104374850Y-20603465D02*
X103979924Y-20767352D01*
X98775674Y-107024783D02*
X98775612Y-107025031D01*
X99138216Y-74169736D02*
X99138311Y-74169973D01*
X100925692Y-22964071D02*
X100644682Y-23286343D01*
X194113474Y-78632867D02*
X194256721Y-78545672D01*
X195018335Y-98000465D02*
X195018537Y-98000307D01*
X99302679Y-54564049D02*
X99302781Y-54564283D01*
X193360681Y-40174212D02*
X193353551Y-40095775D01*
X189590548Y-20001077D02*
X189549360Y-20000002D01*
X98556493Y-28412037D02*
X98553355Y-28452311D01*
X194783145Y-81799969D02*
X194433859Y-81553339D01*
X98671670Y-67523423D02*
X98605879Y-67945912D01*
X198233636Y-112913500D02*
X198320941Y-112494927D01*
X99503742Y-34986731D02*
X99522072Y-35022658D01*
X196191135Y-63092484D02*
X196164322Y-63062269D01*
X197702691Y-105449922D02*
X197702590Y-105449687D01*
X99123556Y-94131887D02*
X99123645Y-94132126D01*
X198320990Y-72494678D02*
X198328224Y-72454935D01*
X98730293Y-72828434D02*
X98832598Y-73242977D01*
X193653165Y-39057348D02*
X193700983Y-38994765D01*
X193921376Y-58770324D02*
X193983078Y-58721374D01*
X102572351Y-78451053D02*
X102605902Y-78473438D01*
X194783145Y-101799968D02*
X194433859Y-101553338D01*
X197188731Y-35511385D02*
X197398405Y-35138742D01*
X101854139Y-57916957D02*
X101854338Y-57917117D01*
X101981399Y-21977800D02*
X101949853Y-22003033D01*
X101592283Y-82305707D02*
X101592094Y-82305879D01*
X193386540Y-100329543D02*
X193371686Y-100252196D01*
X198399316Y-31991628D02*
X198443420Y-31566327D01*
X102605902Y-38473440D02*
X102606116Y-38473579D01*
X99204249Y-85687582D02*
X99204150Y-85687818D01*
X102605902Y-58473439D02*
X102606116Y-58473578D01*
X103618345Y-80206899D02*
X103606049Y-80284726D01*
X195749461Y-57351656D02*
X196046580Y-57044172D01*
X98966726Y-73691148D02*
X98966803Y-73691391D01*
X100618755Y-83317650D02*
X100618594Y-83317850D01*
X198361470Y-107649062D02*
X198281239Y-107229073D01*
X198468555Y-88582973D02*
X198468539Y-88582757D01*
X192586915Y-119389351D02*
X192587155Y-119389262D01*
X99582390Y-64875518D02*
X99392042Y-65258393D01*
X193653165Y-99057345D02*
X193700983Y-98994762D01*
X102222915Y-58204798D02*
X102223121Y-58204947D01*
X101163032Y-117286724D02*
X101163214Y-117286904D01*
X99968857Y-75797908D02*
X99968993Y-75798124D01*
X196916581Y-95941952D02*
X196916726Y-95941742D01*
X198281239Y-107229073D02*
X198281188Y-107228822D01*
X100231922Y-36184749D02*
X100232069Y-36184958D01*
X195872079Y-62749444D02*
X195843756Y-62720639D01*
X101250475Y-102626450D02*
X100953356Y-102933933D01*
X197686157Y-25412788D02*
X197686050Y-25412556D01*
X101949853Y-42003032D02*
X101949656Y-42003194D01*
X103554353Y-79506474D02*
X103576835Y-79581991D01*
X194677505Y-118259074D02*
X194677711Y-118258922D01*
X196191302Y-23092679D02*
X196191135Y-23092486D01*
X100842674Y-96946167D02*
X101134543Y-97257816D01*
X103628662Y-99892380D02*
X103631935Y-99971105D01*
X98678996Y-67483177D02*
X98678947Y-67483428D01*
X198328266Y-52454684D02*
X198394057Y-52032195D01*
X194047129Y-98675539D02*
X194113474Y-98632866D01*
X198469966Y-111057504D02*
X198469969Y-111057243D01*
X193494527Y-59328973D02*
X193529088Y-59258201D01*
X198037429Y-106324445D02*
X198024851Y-106286056D01*
X100354273Y-43654272D02*
X100330136Y-43686664D01*
X98605879Y-27945914D02*
X98605843Y-27946167D01*
X198328266Y-32454685D02*
X198394057Y-32032196D01*
X198024768Y-106285814D02*
X197881286Y-105883023D01*
X195536088Y-82423339D02*
X195535902Y-82423164D01*
X103176758Y-41111673D02*
X103120182Y-41166513D01*
X193363992Y-39781391D02*
X193376310Y-39703600D01*
X100618594Y-103317849D02*
X100354428Y-103654065D01*
X103019454Y-58743578D02*
X103080386Y-58793533D01*
X190946552Y-20141682D02*
X190524059Y-20075897D01*
X99601409Y-104839588D02*
X99582506Y-104875289D01*
X196939175Y-55908160D02*
X196939314Y-55907946D01*
X196916581Y-75941953D02*
X196916726Y-75941743D01*
X98979435Y-93729694D02*
X98979518Y-93729935D01*
X101854338Y-57917117D02*
X102190347Y-58180575D01*
X101500728Y-57610837D02*
X101822851Y-57891103D01*
X103247320Y-38960616D02*
X103297220Y-39021593D01*
X198468539Y-88582757D02*
X198431343Y-88153620D01*
X100354273Y-83654270D02*
X100330136Y-83686662D01*
X98640466Y-112369066D02*
X98640511Y-112369317D01*
X98531542Y-91437676D02*
X98569625Y-91865642D01*
X99582506Y-24875293D02*
X99582390Y-24875520D01*
X190356988Y-119934842D02*
X190780526Y-119876185D01*
X197483776Y-84990275D02*
X197483657Y-84990049D01*
X101470796Y-117583422D02*
X101500538Y-117610664D01*
X194783352Y-21800122D02*
X194783145Y-21799972D01*
X196492235Y-63451387D02*
X196467001Y-63419841D01*
X197259927Y-84578445D02*
X197037602Y-84213206D01*
X103793179Y-119140305D02*
X103793409Y-119140415D01*
X196774738Y-83825424D02*
X196774591Y-83825214D01*
X103410485Y-118950369D02*
X103410713Y-118950485D01*
X196466839Y-23419645D02*
X196191302Y-23092679D01*
X193529088Y-59258201D02*
X193567112Y-59189227D01*
X100539784Y-96589315D02*
X100539946Y-96589512D01*
X101981399Y-101977796D02*
X101949853Y-102003029D01*
X100644682Y-23286343D02*
X100644516Y-23286538D01*
X101134543Y-37257819D02*
X101134719Y-37258003D01*
X104854440Y-20432615D02*
X104816052Y-20445193D01*
X195050083Y-97975075D02*
X195050280Y-97974912D01*
X195152168Y-102088576D02*
X194815948Y-101824410D01*
X98553339Y-88452563D02*
X98531057Y-88879148D01*
X99832170Y-104431595D02*
X99832036Y-104431813D01*
X99123645Y-74132127D02*
X99138216Y-74169736D01*
X101134543Y-117257815D02*
X101134719Y-117257999D01*
X98730293Y-52828435D02*
X98832598Y-53242978D01*
X106055326Y-119858657D02*
X106477235Y-119924270D01*
X100060761Y-64069947D02*
X100060621Y-64070161D01*
X197702590Y-65449689D02*
X197686157Y-65412786D01*
X99601409Y-24839592D02*
X99582506Y-24875293D01*
X193842623Y-81141593D02*
X193786997Y-81085835D01*
X102956121Y-98696701D02*
X103019454Y-98743576D01*
X103194459Y-98902183D02*
X103247320Y-98960613D01*
X193353551Y-80095773D02*
X193350314Y-80017079D01*
X98843393Y-53282369D02*
X98966726Y-53691149D01*
X100514390Y-56557654D02*
X100514547Y-56557855D01*
X103247320Y-78960614D02*
X103297220Y-79021591D01*
X197188602Y-55511605D02*
X197188731Y-55511384D01*
X98574282Y-111906218D02*
X98633788Y-112329031D01*
X196381181Y-76660455D02*
X196381342Y-76660256D01*
X99811333Y-104466500D02*
X99811205Y-104466721D01*
X99302679Y-34564050D02*
X99302781Y-34564284D01*
X102223121Y-118204944D02*
X102572141Y-118450907D01*
X195720293Y-97380335D02*
X195720477Y-97380158D01*
X98671670Y-107523421D02*
X98605879Y-107945910D01*
X198328224Y-72454935D02*
X198328266Y-72454683D01*
X195183678Y-62114666D02*
X195183483Y-62114500D01*
X100514547Y-36557856D02*
X100539784Y-36589318D01*
X193405205Y-40406063D02*
X193386540Y-40329546D01*
X99025254Y-106164464D02*
X98895662Y-106571933D01*
X99038645Y-66125812D02*
X99038558Y-66126053D01*
X195407842Y-37672228D02*
X195720293Y-37380338D01*
X189549360Y-20000002D02*
X189549099Y-19999999D01*
X98574250Y-91905966D02*
X98574282Y-91906219D01*
X103281419Y-60993927D02*
X103230547Y-61054096D01*
X197625057Y-54682863D02*
X197625162Y-54682630D01*
X198024851Y-106286056D02*
X198024768Y-106285814D01*
X99391931Y-85258623D02*
X99374878Y-85295243D01*
X99319359Y-74601330D02*
X99503629Y-74986501D01*
X195843756Y-82720638D02*
X195843575Y-82720458D01*
X196939175Y-35908161D02*
X196939314Y-35907947D01*
X194025078Y-61291418D02*
X193961810Y-61244512D01*
X103373914Y-100866400D02*
X103329247Y-100931309D01*
X99991031Y-115832206D02*
X100231922Y-116184745D01*
X106477235Y-119924270D02*
X106477488Y-119924306D01*
X99188992Y-105725261D02*
X99188899Y-105725499D01*
X198399316Y-91991625D02*
X198443420Y-91566324D01*
X99811205Y-84466722D02*
X99601531Y-84839365D01*
X193608505Y-39122222D02*
X193653165Y-39057348D01*
X103830216Y-119157522D02*
X104221873Y-119327571D01*
X197811037Y-34252607D02*
X197961291Y-33852296D01*
X195050083Y-77975076D02*
X195050280Y-77974913D01*
X98600621Y-87986479D02*
X98556516Y-88411780D01*
X194291109Y-118523513D02*
X194644501Y-118282807D01*
X194677711Y-38258926D02*
X195018335Y-38000468D01*
X103631304Y-100049895D02*
X103626770Y-100128557D01*
X198431343Y-88153620D02*
X198431318Y-88153366D01*
X191405375Y-20236307D02*
X190986798Y-20149007D01*
X98979435Y-73729695D02*
X98979518Y-73729936D01*
X101500538Y-77610666D02*
X101500728Y-77610836D01*
X196774738Y-63825425D02*
X196774591Y-63825215D01*
X196046755Y-77043985D02*
X196074074Y-77014227D01*
X98966803Y-113691389D02*
X98979435Y-113729693D01*
X100953356Y-62933935D02*
X100953180Y-62934121D01*
X195050083Y-57975077D02*
X195050280Y-57974914D01*
X194256938Y-38545538D02*
X194290895Y-38523658D01*
X198469966Y-71057506D02*
X198469969Y-71057245D01*
X98843393Y-93282367D02*
X98966726Y-93691147D01*
X196492235Y-23451389D02*
X196467001Y-23419843D01*
X196164322Y-103062267D02*
X196164149Y-103062078D01*
X198426801Y-108113221D02*
X198426769Y-108112968D01*
X193684364Y-80966404D02*
X193637607Y-80903024D01*
X198399316Y-51991627D02*
X198443420Y-51566326D01*
X193350314Y-60017080D02*
X193350978Y-59938323D01*
X99746276Y-55433533D02*
X99968857Y-55797909D01*
X98531057Y-68879149D02*
X98531047Y-68879410D01*
X99188992Y-65725263D02*
X99188899Y-65725501D01*
X98678996Y-27483179D02*
X98678947Y-27483430D01*
X197502073Y-45026292D02*
X197483776Y-44990277D01*
X195407653Y-77672399D02*
X195407842Y-77672226D01*
X101250655Y-82626269D02*
X101250475Y-82626451D01*
X103518905Y-100587105D02*
X103487895Y-100659540D01*
X194290895Y-118523654D02*
X194291109Y-118523513D01*
X100618755Y-63317651D02*
X100618594Y-63317851D01*
X196355420Y-56691571D02*
X196381181Y-56660456D01*
X194644711Y-38282665D02*
X194677505Y-38259078D01*
X99968857Y-115797906D02*
X99968993Y-115798122D01*
X192344176Y-20508643D02*
X192343936Y-20508556D01*
X198368116Y-87689427D02*
X198368077Y-87689174D01*
X99832036Y-24431817D02*
X99811333Y-24466504D01*
X198446581Y-31525799D02*
X198446598Y-31525544D01*
X197881197Y-25882787D02*
X197866673Y-25845092D01*
X100953180Y-102934119D02*
X100925862Y-102963877D01*
X99038558Y-106126051D02*
X99025334Y-106164221D01*
X197866578Y-65844853D02*
X197702691Y-65449924D01*
X100618594Y-23317853D02*
X100354428Y-23654069D01*
X98529968Y-71402244D02*
X98529971Y-71402466D01*
X101163214Y-97286905D02*
X101470610Y-97583248D01*
X99374878Y-85295243D02*
X99374773Y-85295476D01*
X197866673Y-85845089D02*
X197866578Y-85844852D01*
X194400063Y-81530744D02*
X194399849Y-81530605D01*
X195720477Y-77380159D02*
X195749281Y-77351836D01*
X98529971Y-31402468D02*
X98530355Y-31419758D01*
X193360681Y-80174210D02*
X193353551Y-80095773D01*
X196774591Y-63825215D02*
X196751004Y-63792420D01*
X196939314Y-35907947D02*
X197167766Y-35546511D01*
X197881286Y-85883024D02*
X197881197Y-85882784D01*
X195535902Y-102423163D02*
X195506144Y-102395844D01*
X196466839Y-43419644D02*
X196191302Y-43092678D01*
X195050280Y-77974913D02*
X195377245Y-77699378D01*
X193734201Y-101027390D02*
X193684364Y-100966403D01*
X98640466Y-52369069D02*
X98640511Y-52369320D01*
X103002104Y-118722177D02*
X103002325Y-118722304D01*
X99522072Y-75022656D02*
X99522191Y-75022882D01*
X101500538Y-97610665D02*
X101500728Y-97610835D01*
X99811205Y-64466723D02*
X99601531Y-64839366D01*
X190057933Y-20026517D02*
X190017658Y-20023379D01*
X193463512Y-79401368D02*
X193494527Y-79328972D01*
X198104274Y-113406169D02*
X198104349Y-113405924D01*
X193371686Y-40252199D02*
X193360681Y-40174212D01*
X198233580Y-72913752D02*
X198233636Y-72913502D01*
X197625057Y-114682860D02*
X197625162Y-114682627D01*
X198368077Y-107689173D02*
X198361515Y-107649313D01*
X100539946Y-116589511D02*
X100815525Y-116915652D01*
X190780526Y-119876185D02*
X190780779Y-119876147D01*
X196774591Y-43825216D02*
X196751004Y-43792421D01*
X103464893Y-79287888D02*
X103498313Y-79359242D01*
X195050280Y-57974914D02*
X195377245Y-57699379D01*
X99811333Y-24466504D02*
X99811205Y-24466725D01*
X99503629Y-74986501D02*
X99503742Y-74986729D01*
X99319359Y-34601332D02*
X99503629Y-34986503D01*
X196669800Y-36291445D02*
X196669950Y-36291238D01*
X103576835Y-99581990D02*
X103595548Y-99658529D01*
X197961291Y-33852296D02*
X197961378Y-33852055D01*
X101622497Y-42278896D02*
X101592283Y-42305709D01*
X197037466Y-104212989D02*
X197015587Y-104179031D01*
X198104349Y-93405925D02*
X198115604Y-93367129D01*
X193553790Y-40769714D02*
X193516934Y-40700109D01*
X99811333Y-44466503D02*
X99811205Y-44466724D01*
X198426801Y-48113224D02*
X198426769Y-48112971D01*
X103829983Y-119157417D02*
X103830216Y-119157522D01*
X98895587Y-66572180D02*
X98884332Y-66610976D01*
X103344039Y-99084965D02*
X103387661Y-99150580D01*
X197483776Y-24990278D02*
X197483657Y-24990052D01*
X99991031Y-55832209D02*
X100231922Y-56184748D01*
X195720293Y-57380337D02*
X195720477Y-57380160D01*
X197961378Y-113852051D02*
X197974602Y-113813881D01*
X103415311Y-40799362D02*
X103373914Y-40866403D01*
X102999233Y-61267455D02*
X102935158Y-61313309D01*
X98671713Y-67523171D02*
X98671670Y-67523423D01*
X197961291Y-73852294D02*
X197961378Y-73852053D01*
X102190550Y-38180731D02*
X102222915Y-38204799D01*
X193479884Y-118991722D02*
X193856009Y-118788362D01*
X193376310Y-79703598D02*
X193392466Y-79626512D01*
X198233636Y-32913504D02*
X198320941Y-32494931D01*
X103595548Y-39658532D02*
X103610446Y-39735903D01*
X194090695Y-81335202D02*
X194025078Y-81291417D01*
X197866673Y-65845090D02*
X197866578Y-65844853D01*
X99038558Y-26126055D02*
X99025334Y-26164225D01*
X193443643Y-119010138D02*
X193479657Y-118991841D01*
X197188602Y-75511604D02*
X197188731Y-75511383D01*
X102223121Y-98204945D02*
X102572141Y-98450908D01*
X100815693Y-36915849D02*
X100842502Y-36945982D01*
X198469666Y-108600222D02*
X198469647Y-108599790D01*
X99138311Y-34169975D02*
X99302679Y-34564050D01*
X194113474Y-98632866D02*
X194256721Y-98545671D01*
X101981399Y-41977799D02*
X101949853Y-42003032D01*
X98966726Y-113691146D02*
X98966803Y-113691389D01*
X196669950Y-36291238D02*
X196916581Y-35941955D01*
X102935158Y-41313310D02*
X102868785Y-41356001D01*
X98775612Y-67025033D02*
X98766356Y-67064354D01*
X102572351Y-118451051D02*
X102605902Y-118473436D01*
X195018537Y-78000308D02*
X195050083Y-77975076D01*
X98895662Y-26571937D02*
X98895587Y-26572182D01*
X99319252Y-114601096D02*
X99319359Y-114601328D01*
X99188992Y-85725262D02*
X99188899Y-85725500D01*
X99746146Y-75433312D02*
X99746276Y-75433532D01*
X197625057Y-94682861D02*
X197625162Y-94682628D01*
X103518905Y-40587108D02*
X103487895Y-40659543D01*
X198272595Y-27189354D02*
X198272538Y-27189105D01*
X103427978Y-79218278D02*
X103464893Y-79287888D01*
X198320941Y-72494929D02*
X198320990Y-72494678D01*
X198272595Y-107189350D02*
X198272538Y-107189101D01*
X101134543Y-77257817D02*
X101134719Y-77258001D01*
X193567112Y-99189225D02*
X193608505Y-99122219D01*
X106015141Y-119851353D02*
X106015392Y-119851402D01*
X194433859Y-101553338D02*
X194433648Y-101553193D01*
X99025334Y-26164225D02*
X99025254Y-26164468D01*
X196164322Y-63062269D02*
X196164149Y-63062080D01*
X197417546Y-35102590D02*
X197607894Y-34719715D01*
X197188731Y-75511383D02*
X197398405Y-75138740D01*
X189886931Y-119976635D02*
X189887146Y-119976619D01*
X195050280Y-97974912D02*
X195377245Y-97699377D01*
X198368077Y-87689174D02*
X198361515Y-87649314D01*
X98678996Y-107483175D02*
X98678947Y-107483426D01*
X198470032Y-68617289D02*
X198470030Y-68617073D01*
X100255666Y-96217664D02*
X100255818Y-96217869D01*
X98569625Y-71865643D02*
X98569651Y-71865897D01*
X193856233Y-118788238D02*
X193891264Y-118768123D01*
X102606116Y-58473578D02*
X102890441Y-58652955D01*
X198024851Y-86286057D02*
X198024768Y-86285815D01*
X99123645Y-54132128D02*
X99138216Y-54169737D01*
X198394057Y-92032193D02*
X198394093Y-92031940D01*
X191280847Y-119780605D02*
X191696182Y-119679005D01*
X198394057Y-72032194D02*
X198394093Y-72031941D01*
X197974602Y-73813883D02*
X197974682Y-73813640D01*
X198104349Y-113405924D02*
X198115604Y-113367128D01*
X101250475Y-42626453D02*
X100953356Y-42933936D01*
X198170939Y-86773764D02*
X198170875Y-86773517D01*
X198446581Y-71525797D02*
X198446598Y-71525542D01*
X102355225Y-41695445D02*
X102322431Y-41719032D01*
X196191302Y-83092676D02*
X196191135Y-83092483D01*
X197686050Y-65412554D02*
X197502186Y-65026521D01*
X193805616Y-98877078D02*
X193862173Y-98822266D01*
X193751842Y-78934625D02*
X193805616Y-78877079D01*
X193529088Y-39258202D02*
X193567112Y-39189228D01*
X98640511Y-112369317D02*
X98721522Y-112788542D01*
X102956121Y-38696704D02*
X103019454Y-38743579D01*
X98529972Y-108920608D02*
X98529968Y-108920869D01*
X101592094Y-102305878D02*
X101279643Y-102597769D01*
X198468539Y-28582760D02*
X198431343Y-28153623D01*
X98600621Y-47986481D02*
X98556516Y-48411782D01*
X193856009Y-118788362D02*
X193856233Y-118788238D01*
X101592283Y-102305706D02*
X101592094Y-102305878D01*
X198037505Y-86324690D02*
X198037429Y-86324446D01*
X100231922Y-76184747D02*
X100232069Y-76184956D01*
X100618755Y-43317652D02*
X100618594Y-43317852D01*
X197280296Y-64613922D02*
X197280172Y-64613699D01*
X98531047Y-108879408D02*
X98529972Y-108920608D01*
X195183483Y-22114502D02*
X195152367Y-22088741D01*
X101279643Y-62597771D02*
X101279459Y-62597948D01*
X98884332Y-46610977D02*
X98884264Y-46611224D01*
X103528158Y-99432163D02*
X103554353Y-99506473D01*
X198037429Y-66324447D02*
X198024851Y-66286058D01*
X194433859Y-41553341D02*
X194433648Y-41553196D01*
X195843575Y-102720457D02*
X195536088Y-102423338D01*
X103518905Y-80587106D02*
X103487895Y-80659541D01*
X196355420Y-76691570D02*
X196381181Y-76660455D01*
X198160276Y-86734536D02*
X198160206Y-86734290D01*
X193392466Y-59626513D02*
X193412419Y-59550322D01*
X195377439Y-57699212D02*
X195407653Y-57672400D01*
X98600650Y-47986227D02*
X98600621Y-47986481D01*
X102190347Y-38180576D02*
X102190550Y-38180731D01*
X196492392Y-103451587D02*
X196492235Y-103451385D01*
X194025078Y-41291419D02*
X193961810Y-41244513D01*
X99990890Y-95831994D02*
X99991031Y-95832207D01*
X99188899Y-85725500D02*
X99038645Y-86125811D01*
X99391931Y-25258626D02*
X99374878Y-25295246D01*
X195843756Y-42720640D02*
X195843575Y-42720460D01*
X103618345Y-40206901D02*
X103606049Y-40284728D01*
X197961378Y-53852054D02*
X197974602Y-53813884D01*
X190483745Y-20070668D02*
X190483491Y-20070638D01*
X195843756Y-62720639D02*
X195843575Y-62720459D01*
X102890441Y-58652955D02*
X102956121Y-58696703D01*
X197398405Y-95138739D02*
X197398527Y-95138515D01*
X99392042Y-25258395D02*
X99391931Y-25258626D01*
X196750852Y-83792214D02*
X196492392Y-83451588D01*
X98556516Y-108411779D02*
X98556493Y-108412033D01*
X101470796Y-77583424D02*
X101500538Y-77610666D01*
X103621494Y-79813915D02*
X103628662Y-79892381D01*
X195843575Y-62720459D02*
X195536088Y-62423340D01*
X198443443Y-51566072D02*
X198446581Y-51525798D01*
X99991031Y-75832208D02*
X100231922Y-76184747D01*
X195152367Y-42088740D02*
X195152168Y-42088579D01*
X103979689Y-20767453D02*
X103942786Y-20783886D01*
X198469647Y-48599793D02*
X198468555Y-48582975D01*
X198468555Y-108582972D02*
X198468539Y-108582756D01*
X104659568Y-119492710D02*
X104659808Y-119492796D01*
X99968993Y-75798124D02*
X99990890Y-75831995D01*
X100083355Y-64036153D02*
X100083210Y-64036363D01*
X98671670Y-87523422D02*
X98605879Y-87945911D01*
X193363992Y-79781389D02*
X193376310Y-79703598D01*
X193700983Y-58994764D02*
X193751842Y-58934626D01*
X98678996Y-47483178D02*
X98678947Y-47483429D01*
X103589913Y-40361851D02*
X103569976Y-40438080D01*
X102572351Y-58451054D02*
X102605902Y-58473439D01*
X197280296Y-44613923D02*
X197280172Y-44613700D01*
X100354428Y-43654068D02*
X100354273Y-43654272D01*
X193862173Y-78822267D02*
X193921376Y-78770323D01*
X100925862Y-62963879D02*
X100925692Y-62964069D01*
X98730293Y-92828433D02*
X98832598Y-93242976D01*
X102605902Y-98473437D02*
X102606116Y-98473576D01*
X101163214Y-57286907D02*
X101470610Y-57583250D01*
X99522191Y-75022882D02*
X99725882Y-75398145D01*
X103576835Y-79581991D02*
X103595548Y-79658530D01*
X102322225Y-61719183D02*
X101981601Y-61977641D01*
X193020248Y-119210654D02*
X193057151Y-119194222D01*
X99374773Y-105295475D02*
X99204249Y-105687581D01*
X103621494Y-59813916D02*
X103628662Y-59892382D01*
X198431343Y-28153623D02*
X198431318Y-28153369D01*
X197259927Y-24578448D02*
X197037602Y-24213209D01*
X99204150Y-45687820D02*
X99188992Y-45725264D01*
X196645508Y-96324037D02*
X196645663Y-96323834D01*
X100330136Y-83686662D02*
X100329986Y-83686869D01*
X99811333Y-64466502D02*
X99811205Y-64466723D01*
X98832662Y-33243226D02*
X98843323Y-33282124D01*
X100231922Y-56184748D02*
X100232069Y-56184957D01*
X193363992Y-99781388D02*
X193376310Y-99703597D01*
X98569625Y-91865642D02*
X98569651Y-91865896D01*
X100842674Y-36946170D02*
X101134543Y-37257819D01*
X196355254Y-96691764D02*
X196355420Y-96691569D01*
X98531047Y-88879409D02*
X98529972Y-88920609D01*
X198115672Y-33366885D02*
X198224262Y-32953323D01*
X101163032Y-77286726D02*
X101163214Y-77286906D01*
X197188602Y-35511606D02*
X197188731Y-35511385D01*
X98531047Y-68879410D02*
X98529972Y-68920610D01*
X99025254Y-86164465D02*
X98895662Y-86571934D01*
X102355225Y-21695446D02*
X102322431Y-21719033D01*
X106643203Y-20043237D02*
X106642949Y-20043268D01*
X197686050Y-45412555D02*
X197502186Y-45026522D01*
X193392466Y-79626512D02*
X193412419Y-79550321D01*
X192587155Y-119389262D02*
X192624850Y-119374738D01*
X196645663Y-76323835D02*
X196669800Y-76291443D01*
X198368077Y-27689177D02*
X198361515Y-27649317D01*
X103546287Y-60513226D02*
X103518905Y-60587107D01*
X100514390Y-96557652D02*
X100514547Y-96557853D01*
X195749461Y-77351655D02*
X196046580Y-77044171D01*
X99302679Y-74564048D02*
X99302781Y-74564282D01*
X194290895Y-38523658D02*
X194291109Y-38523517D01*
X98843323Y-33282124D02*
X98843393Y-33282370D01*
X103610446Y-79735901D02*
X103621494Y-79813915D01*
X98884264Y-66611223D02*
X98775674Y-67024785D01*
X197167900Y-95546290D02*
X197188602Y-95511603D01*
X104815810Y-20445275D02*
X104413021Y-20588757D01*
X100330136Y-23686665D02*
X100329986Y-23686872D01*
X193862173Y-38822269D02*
X193921376Y-38770325D01*
X107112954Y-20001480D02*
X107112739Y-20001496D01*
X101500728Y-97610835D02*
X101822851Y-97891101D01*
X103606049Y-40284728D02*
X103589913Y-40361851D01*
X101854139Y-37916958D02*
X101854338Y-37917118D01*
X193608505Y-99122219D02*
X193653165Y-99057345D01*
X99832036Y-104431813D02*
X99811333Y-104466500D01*
X98530355Y-51419757D02*
X98530374Y-51420201D01*
X103247320Y-98960613D02*
X103297220Y-99021590D01*
X192305765Y-20495333D02*
X192305522Y-20495252D01*
X197608005Y-34719484D02*
X197625057Y-34682864D01*
X193371686Y-80252197D02*
X193360681Y-80174210D01*
X99601531Y-104839364D02*
X99601409Y-104839588D01*
X197260057Y-104578664D02*
X197259927Y-104578444D01*
X100330136Y-63686663D02*
X100329986Y-63686870D01*
X198469966Y-31057508D02*
X198469969Y-31057247D01*
X194047129Y-78675540D02*
X194113474Y-78632867D01*
X193921376Y-38770325D02*
X193983078Y-38721375D01*
X99522072Y-55022657D02*
X99522191Y-55022883D01*
X197188731Y-55511384D02*
X197398405Y-55138741D01*
X195535902Y-82423164D02*
X195506144Y-82395845D01*
X98529972Y-88920609D02*
X98529968Y-88920870D01*
X197417429Y-95102814D02*
X197417546Y-95102587D01*
X100925692Y-42964070D02*
X100644682Y-43286342D01*
X100842674Y-76946168D02*
X101134543Y-77257817D01*
X106942703Y-119973528D02*
X106982913Y-119976657D01*
X197866578Y-45844854D02*
X197702691Y-45449925D01*
X98574250Y-71905967D02*
X98574282Y-71906220D01*
X197015445Y-64178819D02*
X196774738Y-63825425D01*
X100255818Y-56217871D02*
X100514390Y-56557654D01*
X101279459Y-22597950D02*
X101250655Y-22626272D01*
X196355254Y-116691763D02*
X196355420Y-116691568D01*
X101250655Y-102626268D02*
X101250475Y-102626450D01*
X103060958Y-81218481D02*
X102999233Y-81267454D01*
X194290895Y-98523655D02*
X194291109Y-98523514D01*
X195407842Y-57672227D02*
X195720293Y-57380337D01*
X98529968Y-68920871D02*
X98529968Y-71402244D01*
X196355420Y-36691572D02*
X196381181Y-36660457D01*
X98600650Y-67986226D02*
X98600621Y-67986480D01*
X98605843Y-27946167D02*
X98600650Y-27986228D01*
X101163032Y-57286727D02*
X101163214Y-57286907D01*
X196191135Y-103092482D02*
X196164322Y-103062267D01*
X189852944Y-119978110D02*
X189869738Y-119977744D01*
X99188992Y-45725264D02*
X99188899Y-45725502D01*
X197037466Y-24212993D02*
X197015587Y-24179035D01*
X98979435Y-33729697D02*
X98979518Y-33729938D01*
X98895587Y-26572182D02*
X98884332Y-26610978D01*
X195720477Y-37380161D02*
X195749281Y-37351838D01*
X101823046Y-77891268D02*
X101854139Y-77916956D01*
X198115672Y-73366883D02*
X198224262Y-72953321D01*
X193427637Y-80481559D02*
X193405205Y-80406061D01*
X197037602Y-84213206D02*
X197037466Y-84212990D01*
X107409032Y-119998900D02*
X107409294Y-119998910D01*
X98633788Y-32329035D02*
X98633827Y-32329287D01*
X195749281Y-97351835D02*
X195749461Y-97351654D01*
X194256721Y-118545670D02*
X194256938Y-118545534D01*
X198160276Y-106734535D02*
X198160206Y-106734289D01*
X197015587Y-44179034D02*
X197015445Y-44178820D01*
X191696182Y-119679005D02*
X191696430Y-119678941D01*
X103060958Y-61218482D02*
X102999233Y-61267455D01*
X102742998Y-21432573D02*
X102709041Y-21454453D01*
X99522191Y-95022881D02*
X99725882Y-95398144D01*
X102572351Y-98451052D02*
X102605902Y-98473437D01*
X98569625Y-111865641D02*
X98569651Y-111865895D01*
X100618594Y-63317851D02*
X100354428Y-63654067D01*
X101822851Y-117891100D02*
X101823046Y-117891266D01*
X194256938Y-118545534D02*
X194290895Y-118523654D01*
X196074074Y-37014229D02*
X196074244Y-37014039D01*
X197417429Y-55102816D02*
X197417546Y-55102589D01*
X103464893Y-39287890D02*
X103498313Y-39359244D01*
X105719090Y-20197504D02*
X105303755Y-20299104D01*
X98553339Y-28452566D02*
X98531057Y-28879151D01*
X98721574Y-52788795D02*
X98730235Y-52828187D01*
X98530374Y-71420200D02*
X98531525Y-71437456D01*
X99319252Y-94601097D02*
X99319359Y-94601329D01*
X100330136Y-43686664D02*
X100329986Y-43686871D01*
X198399286Y-91991879D02*
X198399316Y-91991625D01*
X193483570Y-40628765D02*
X193453780Y-40555856D01*
X102223121Y-78204946D02*
X102572141Y-78450909D01*
X198468555Y-48582975D02*
X198468539Y-48582759D01*
X100330136Y-103686661D02*
X100329986Y-103686868D01*
X101134719Y-37258003D02*
X101163032Y-37286728D01*
X103281419Y-80993926D02*
X103230547Y-81054095D01*
X103060958Y-41218483D02*
X102999233Y-41267456D01*
X196074074Y-57014228D02*
X196074244Y-57014038D01*
X101622497Y-22278897D02*
X101592283Y-22305710D01*
X101622691Y-42278729D02*
X101622497Y-42278896D01*
X98530374Y-51420201D02*
X98531525Y-51437457D01*
X103628662Y-59892382D02*
X103631935Y-59971107D01*
X196074244Y-57014038D02*
X196355254Y-56691766D01*
X99991031Y-95832207D02*
X100231922Y-96184746D01*
X100953180Y-62934121D02*
X100925862Y-62963879D01*
X196381181Y-36660457D02*
X196381342Y-36660258D01*
X98832598Y-33242979D02*
X98832662Y-33243226D01*
X105303755Y-20299104D02*
X105303507Y-20299168D01*
X100953180Y-22934123D02*
X100925862Y-22963881D01*
X193453780Y-100555853D02*
X193427637Y-100481558D01*
X106219411Y-20101924D02*
X106219158Y-20101962D01*
X197015445Y-24178821D02*
X196774738Y-23825427D01*
X98633788Y-112329031D02*
X98633827Y-112329283D01*
X193734201Y-41027393D02*
X193684364Y-40966406D01*
X106517740Y-119929514D02*
X106942448Y-119973505D01*
X195377439Y-97699210D02*
X195407653Y-97672398D01*
X195749461Y-37351657D02*
X196046580Y-37044173D01*
X101949656Y-42003194D02*
X101622691Y-42278729D01*
X100231922Y-96184746D02*
X100232069Y-96184955D01*
X100255666Y-116217663D02*
X100255818Y-116217868D01*
X193786997Y-61085836D02*
X193734201Y-61027392D01*
X196669800Y-76291443D02*
X196669950Y-76291236D01*
X197811037Y-94252604D02*
X197961291Y-93852293D01*
X98832662Y-93243223D02*
X98843323Y-93282121D01*
X98553339Y-48452565D02*
X98531057Y-48879150D01*
X197866578Y-105844851D02*
X197702691Y-105449922D01*
X195720477Y-117380157D02*
X195749281Y-117351834D01*
X99522072Y-95022655D02*
X99522191Y-95022881D01*
X99123645Y-34132129D02*
X99138216Y-34169738D01*
X99968857Y-35797910D02*
X99968993Y-35798126D01*
X198361470Y-27649066D02*
X198281239Y-27229077D01*
X194291109Y-98523514D02*
X194644501Y-98282808D01*
X198446581Y-111525795D02*
X198446598Y-111525540D01*
X98605843Y-47946166D02*
X98600650Y-47986227D01*
X103194459Y-58902185D02*
X103247320Y-58960615D01*
X194038192Y-21302024D02*
X194003504Y-21281321D01*
X197795687Y-74290523D02*
X197795786Y-74290287D01*
X98678947Y-27483430D02*
X98671713Y-27523173D01*
X196916581Y-115941951D02*
X196916726Y-115941741D01*
X103297220Y-79021591D02*
X103344039Y-79084966D01*
X191696430Y-119678941D02*
X191735410Y-119668342D01*
X99123556Y-54131889D02*
X99123645Y-54132128D01*
X196645663Y-116323833D02*
X196669800Y-116291441D01*
X193553790Y-100769711D02*
X193516934Y-100700106D01*
X101622497Y-102278893D02*
X101592283Y-102305706D01*
X195505953Y-82395675D02*
X195183678Y-82114665D01*
X99374878Y-105295242D02*
X99374773Y-105295475D01*
X99374773Y-65295477D02*
X99204249Y-65687583D01*
X193516934Y-40700109D02*
X193483570Y-40628765D01*
X193355541Y-39859696D02*
X193363992Y-39781391D01*
X102572351Y-38451055D02*
X102605902Y-38473440D01*
X193412419Y-99550320D02*
X193436120Y-99475211D01*
X100083210Y-24036365D02*
X100060761Y-24069949D01*
X103453336Y-60730351D02*
X103415311Y-60799361D01*
X196381181Y-96660454D02*
X196381342Y-96660255D01*
X106179299Y-20108525D02*
X106179047Y-20108570D01*
X100060761Y-104069945D02*
X100060621Y-104070159D01*
X197810944Y-74252843D02*
X197811037Y-74252605D01*
X197417546Y-115102586D02*
X197607894Y-114719711D01*
X99522191Y-35022884D02*
X99725882Y-35398147D01*
X106219158Y-20101962D02*
X106179299Y-20108525D01*
X198361515Y-27649317D02*
X198361470Y-27649066D01*
X197961378Y-33852055D02*
X197974602Y-33813885D01*
X102999233Y-101267453D02*
X102935158Y-101313307D01*
X198160206Y-66734291D02*
X198037505Y-66324691D01*
X99204150Y-65687819D02*
X99188992Y-65725263D01*
X103060958Y-101218480D02*
X102999233Y-101267453D01*
X197417546Y-55102589D02*
X197607894Y-54719714D01*
X194038410Y-21302158D02*
X194038192Y-21302024D01*
X198224262Y-52953322D02*
X198224324Y-52953074D01*
X100539946Y-96589512D02*
X100815525Y-96915653D01*
X196355254Y-76691765D02*
X196355420Y-76691570D01*
X197280296Y-24613924D02*
X197280172Y-24613701D01*
X194003283Y-21281193D02*
X193630636Y-21071521D01*
X197625162Y-94682628D02*
X197795687Y-94290522D01*
X104259741Y-119342875D02*
X104659568Y-119492710D01*
X193751842Y-98934624D02*
X193805616Y-98877078D01*
X101470796Y-57583425D02*
X101500538Y-57610667D01*
X198443420Y-51566326D02*
X198443443Y-51566072D01*
X193427637Y-100481558D02*
X193405205Y-100406060D01*
X98979518Y-53729937D02*
X99123556Y-54131889D01*
X198394057Y-52032195D02*
X198394093Y-52031942D01*
X198328266Y-112454681D02*
X198394057Y-112032192D01*
X98895662Y-46571936D02*
X98895587Y-46572181D01*
X193371686Y-60252198D02*
X193360681Y-60174211D01*
X99319252Y-74601098D02*
X99319359Y-74601330D01*
X99392042Y-85258392D02*
X99391931Y-85258623D01*
X99726006Y-75398368D02*
X99746146Y-75433312D01*
X98569651Y-71865897D02*
X98574250Y-71905967D01*
X101279459Y-42597949D02*
X101250655Y-42626271D01*
X98640511Y-32369321D02*
X98721522Y-32788546D01*
X198443420Y-111566323D02*
X198443443Y-111566069D01*
X98605879Y-67945912D02*
X98605843Y-67946165D01*
X102868785Y-101355998D02*
X102743215Y-101432433D01*
X98569651Y-31865899D02*
X98574250Y-31905969D01*
X196916726Y-35941745D02*
X196939175Y-35908161D01*
X100232069Y-96184955D02*
X100255666Y-96217664D01*
X101981601Y-81977640D02*
X101981399Y-81977797D01*
X103194459Y-78902184D02*
X103247320Y-78960614D01*
X191405625Y-20236363D02*
X191405375Y-20236307D01*
X99025334Y-46164224D02*
X99025254Y-46164467D01*
X198233636Y-92913501D02*
X198320941Y-92494928D01*
X196939314Y-55907946D02*
X197167766Y-55546510D01*
X198446581Y-51525798D02*
X198446598Y-51525543D01*
X98553355Y-108452307D02*
X98553339Y-108452562D01*
X103453336Y-40730352D02*
X103415311Y-40799362D01*
X194256721Y-78545672D02*
X194256938Y-78545536D01*
X103374603Y-118931400D02*
X103374827Y-118931522D01*
X103373914Y-60866402D02*
X103329247Y-60931311D01*
X100329986Y-103686868D02*
X100083355Y-104036151D01*
X100644516Y-103286534D02*
X100618755Y-103317649D01*
X99025334Y-86164222D02*
X99025254Y-86164465D01*
X197417546Y-95102587D02*
X197607894Y-94719712D01*
X198446598Y-31525544D02*
X198468880Y-31098949D01*
X196466839Y-103419641D02*
X196191302Y-103092675D01*
X98730293Y-112828432D02*
X98832598Y-113242975D01*
X98633827Y-92329284D02*
X98640466Y-92369067D01*
X98640466Y-72369068D02*
X98640511Y-72369319D01*
X102743215Y-61432435D02*
X102742998Y-61432571D01*
X197702590Y-25449691D02*
X197686157Y-25412788D01*
X103138769Y-38846447D02*
X103194459Y-38902186D01*
X98832598Y-53242978D02*
X98832662Y-53243225D01*
X196492235Y-43451388D02*
X196467001Y-43419842D01*
X99522191Y-55022883D02*
X99725882Y-55398146D01*
X100255666Y-56217666D02*
X100255818Y-56217871D01*
X197398527Y-55138517D02*
X197417429Y-55102816D01*
X101279459Y-102597946D02*
X101250655Y-102626268D01*
X98556493Y-88412034D02*
X98553355Y-88452308D01*
X101163214Y-77286906D02*
X101470610Y-77583249D01*
X103621494Y-39813917D02*
X103628662Y-39892383D01*
X104259503Y-119342782D02*
X104259741Y-119342875D01*
X101134719Y-57258002D02*
X101163032Y-57286727D01*
X196751004Y-103792418D02*
X196750852Y-103792213D01*
X98766300Y-107064602D02*
X98678996Y-107483175D01*
X197167766Y-35546511D02*
X197167900Y-35546293D01*
X102890441Y-78652954D02*
X102956121Y-78696702D01*
X99374878Y-45295245D02*
X99374773Y-45295478D01*
X103143704Y-21189869D02*
X103108672Y-21209984D01*
X195749281Y-37351838D02*
X195749461Y-37351657D01*
X198469647Y-108599790D02*
X198468555Y-108582972D01*
X195872256Y-82749628D02*
X195872079Y-82749443D01*
X101500538Y-117610664D02*
X101500728Y-117610834D01*
X98775612Y-27025035D02*
X98766356Y-27064356D01*
X193436120Y-99475211D02*
X193463512Y-99401367D01*
X99968857Y-95797907D02*
X99968993Y-95798123D01*
X194113474Y-38632869D02*
X194256721Y-38545674D01*
X197881286Y-105883023D02*
X197881197Y-105882783D01*
X198399286Y-51991881D02*
X198399316Y-51991627D01*
X198272538Y-107189101D02*
X198170939Y-106773763D01*
X198037505Y-106324689D02*
X198037429Y-106324445D01*
X98775612Y-47025034D02*
X98766356Y-47064355D01*
X100644516Y-63286536D02*
X100618755Y-63317651D01*
X198469969Y-31057247D02*
X198470032Y-28617291D01*
X194433648Y-41553196D02*
X194400063Y-41530746D01*
X197502186Y-65026521D02*
X197502073Y-65026291D01*
X195720477Y-57380160D02*
X195749281Y-57351837D01*
X197015587Y-104179031D02*
X197015445Y-104178817D01*
X105303507Y-20299168D02*
X105264527Y-20309767D01*
X196191302Y-43092678D02*
X196191135Y-43092485D01*
X198469969Y-111057243D02*
X198470032Y-108617287D01*
X194400063Y-21530747D02*
X194399849Y-21530608D01*
X197398527Y-35138518D02*
X197417429Y-35102817D01*
X98640511Y-92369318D02*
X98721522Y-92788543D01*
X103080386Y-58793533D02*
X103138769Y-58846446D01*
X99138216Y-114169734D02*
X99138311Y-114169971D01*
X193921376Y-98770322D02*
X193983078Y-98721372D01*
X103329247Y-100931309D02*
X103281419Y-100993925D01*
X194291109Y-38523517D02*
X194644501Y-38282811D01*
X102572141Y-118450907D02*
X102572351Y-118451051D01*
X193376310Y-59703599D02*
X193392466Y-59626513D01*
X198426769Y-28112972D02*
X198368116Y-27689430D01*
X197974682Y-113813638D02*
X198104274Y-113406169D01*
X196074074Y-77014227D02*
X196074244Y-77014037D01*
X197037602Y-64213207D02*
X197037466Y-64212991D01*
X99811333Y-84466501D02*
X99811205Y-84466722D01*
X98895662Y-86571934D02*
X98895587Y-86572179D01*
X193608505Y-79122220D02*
X193653165Y-79057346D01*
X100815525Y-36915656D02*
X100815693Y-36915849D01*
X98640466Y-32369070D02*
X98640511Y-32369321D01*
X197881197Y-45882786D02*
X197866673Y-45845091D01*
X196774738Y-43825426D02*
X196774591Y-43825216D01*
X196046755Y-97043984D02*
X196074074Y-97014226D01*
X194815948Y-61824412D02*
X194815745Y-61824257D01*
X198115672Y-113366881D02*
X198224262Y-112953319D01*
X197625162Y-114682627D02*
X197795687Y-114290521D01*
X101500728Y-37610838D02*
X101822851Y-37891104D01*
X103610446Y-59735902D02*
X103621494Y-59813916D01*
X103621494Y-99813914D02*
X103628662Y-99892380D01*
X103595548Y-99658529D02*
X103610446Y-99735900D01*
X98671713Y-47523172D02*
X98671670Y-47523424D01*
X102709041Y-21454453D02*
X102708828Y-21454594D01*
X198320990Y-52494679D02*
X198328224Y-52454936D01*
X99038558Y-86126052D02*
X99025334Y-86164222D01*
X196467001Y-43419842D02*
X196466839Y-43419644D01*
X103120182Y-81166511D02*
X103060958Y-81218481D01*
X197502073Y-105026289D02*
X197483776Y-104990274D01*
X195152168Y-82088577D02*
X194815948Y-81824411D01*
X99503742Y-114986727D02*
X99522072Y-115022654D01*
X98531525Y-31437458D02*
X98531542Y-31437679D01*
X195183483Y-62114500D02*
X195152367Y-62088739D01*
X194399849Y-101530604D02*
X194090695Y-101335201D01*
X103427978Y-99218277D02*
X103464893Y-99287887D01*
X197702691Y-85449923D02*
X197702590Y-85449688D01*
X193684364Y-100966403D02*
X193637607Y-100903023D01*
X99138216Y-94169735D02*
X99138311Y-94169972D01*
X98569651Y-111865895D02*
X98574250Y-111905965D01*
X197398405Y-55138741D02*
X197398527Y-55138517D01*
X197795687Y-34290525D02*
X197795786Y-34290289D01*
X195536088Y-102423338D02*
X195535902Y-102423163D01*
X196645508Y-36324040D02*
X196645663Y-36323837D01*
X99302781Y-34564284D02*
X99319252Y-34601100D01*
X197188731Y-115511381D02*
X197398405Y-115138738D01*
X195018335Y-38000468D02*
X195018537Y-38000310D01*
X98569625Y-51865644D02*
X98569651Y-51865898D01*
X98529971Y-91402465D02*
X98530355Y-91419755D01*
X198115604Y-53367131D02*
X198115672Y-53366884D01*
X193436120Y-59475213D02*
X193463512Y-59401369D01*
X99503629Y-94986500D02*
X99503742Y-94986728D01*
X103554353Y-59506475D02*
X103576835Y-59581992D01*
X197866673Y-25845092D02*
X197866578Y-25844855D01*
X102322225Y-21719185D02*
X101981601Y-21977643D01*
X197608005Y-74719482D02*
X197625057Y-74682862D01*
X193453780Y-40555856D02*
X193427637Y-40481561D01*
X197974602Y-113813881D02*
X197974682Y-113813638D01*
X100514547Y-96557853D02*
X100539784Y-96589315D01*
X191735656Y-119668272D02*
X192145253Y-119545570D01*
X98966803Y-73691391D02*
X98979435Y-73729695D01*
X193436120Y-79475212D02*
X193463512Y-79401368D01*
X102999233Y-81267454D02*
X102935158Y-81313308D01*
X102742998Y-101432569D02*
X102709041Y-101454449D01*
X98843393Y-73282368D02*
X98966726Y-73691148D01*
X103589913Y-80361849D02*
X103569976Y-80438078D01*
X98531525Y-51437457D02*
X98531542Y-51437678D01*
X197398405Y-115138738D02*
X197398527Y-115138514D01*
X98895587Y-106572178D02*
X98884332Y-106610974D01*
X198399286Y-31991882D02*
X198399316Y-31991628D01*
X99811205Y-104466721D02*
X99601531Y-104839364D01*
X193567112Y-59189227D02*
X193608505Y-59122221D01*
X195152367Y-22088741D02*
X195152168Y-22088580D01*
X99503629Y-114986499D02*
X99503742Y-114986727D01*
X99503629Y-34986503D02*
X99503742Y-34986731D01*
X195505953Y-102395674D02*
X195183678Y-102114664D01*
X197795687Y-54290524D02*
X197795786Y-54290288D01*
X101854338Y-117917114D02*
X102190347Y-118180572D01*
X98979518Y-33729938D02*
X99123556Y-34131890D01*
X101981601Y-21977643D02*
X101981399Y-21977800D01*
X193700983Y-98994762D02*
X193751842Y-98934624D01*
X193350978Y-99938321D02*
X193355541Y-99859693D01*
X98721522Y-112788542D02*
X98721574Y-112788792D01*
X100842502Y-56945981D02*
X100842674Y-56946169D01*
X103546287Y-100513224D02*
X103518905Y-100587105D01*
X193842623Y-41141595D02*
X193786997Y-41085837D01*
X99123645Y-94132126D02*
X99138216Y-94169735D01*
X98832598Y-93242976D02*
X98832662Y-93243223D01*
X103387661Y-99150580D02*
X103427978Y-99218277D01*
X104659808Y-119492796D02*
X104697925Y-119505981D01*
X196669950Y-116291234D02*
X196916581Y-115941951D01*
X196381342Y-116660254D02*
X196645508Y-116324036D01*
X102190347Y-78180574D02*
X102190550Y-78180729D01*
X198394057Y-112032192D02*
X198394093Y-112031939D01*
X195018537Y-38000310D02*
X195050083Y-37975078D01*
X105719339Y-20197446D02*
X105719090Y-20197504D01*
X194815948Y-101824410D02*
X194815745Y-101824255D01*
X99746276Y-35433534D02*
X99968857Y-35797910D01*
X193900941Y-101194527D02*
X193842623Y-101141592D01*
X100925862Y-42963880D02*
X100925692Y-42964070D01*
X197167766Y-75546509D02*
X197167900Y-75546291D01*
X198024768Y-26285818D02*
X197881286Y-25883027D01*
X99123556Y-114131886D02*
X99123645Y-114132125D01*
X196492392Y-83451588D02*
X196492235Y-83451386D01*
X101823046Y-37891270D02*
X101854139Y-37916958D01*
X98531542Y-51437678D02*
X98569625Y-51865644D01*
X195749461Y-117351653D02*
X196046580Y-117044169D01*
X198361515Y-107649313D02*
X198361470Y-107649062D01*
X100083210Y-84036362D02*
X100060761Y-84069946D01*
X195018335Y-78000466D02*
X195018537Y-78000308D01*
X103019454Y-78743577D02*
X103080386Y-78793532D01*
X196916726Y-55941744D02*
X196939175Y-55908160D01*
X102743215Y-41432436D02*
X102742998Y-41432572D01*
X98553339Y-68452564D02*
X98531057Y-68879149D01*
X102743215Y-101432433D02*
X102742998Y-101432569D01*
X198368116Y-27689430D02*
X198368077Y-27689177D01*
X100644516Y-83286535D02*
X100618755Y-83317650D01*
X98721574Y-112788792D02*
X98730235Y-112828184D01*
X106179047Y-20108570D02*
X105759061Y-20188803D01*
X193529088Y-99258199D02*
X193567112Y-99189225D01*
X198446598Y-71525542D02*
X198468880Y-71098947D01*
X99038645Y-106125810D02*
X99038558Y-106126051D01*
X194433648Y-21553197D02*
X194400063Y-21530747D01*
X198320990Y-92494677D02*
X198328224Y-92454934D01*
X100060761Y-44069948D02*
X100060621Y-44070162D01*
X103230547Y-41054097D02*
X103176758Y-41111673D01*
X192782410Y-20674244D02*
X192782174Y-20674145D01*
X196669950Y-56291237D02*
X196916581Y-55941954D01*
X98895587Y-46572181D02*
X98884332Y-46610977D01*
X198320941Y-32494931D02*
X198320990Y-32494680D01*
X99204150Y-25687821D02*
X99188992Y-25725265D01*
X196046580Y-77044171D02*
X196046755Y-77043985D01*
X103606049Y-80284726D02*
X103589913Y-80361849D01*
X195505953Y-42395677D02*
X195183678Y-42114667D01*
X192625087Y-119374643D02*
X193020013Y-119210755D01*
X103528158Y-79432164D02*
X103554353Y-79506474D01*
X197795786Y-74290287D02*
X197810944Y-74252843D01*
X197608005Y-54719483D02*
X197625057Y-54682863D01*
X196074244Y-97014036D02*
X196355254Y-96691764D01*
X103528158Y-39432166D02*
X103554353Y-39506476D01*
X98895662Y-66571935D02*
X98895587Y-66572180D01*
X198468555Y-68582974D02*
X198468539Y-68582758D01*
X103143927Y-21189745D02*
X103143704Y-21189869D01*
X195018537Y-118000306D02*
X195050083Y-117975074D01*
X198399286Y-71991880D02*
X198399316Y-71991626D01*
X198037505Y-26324693D02*
X198037429Y-26324449D01*
X103080386Y-78793532D02*
X103138769Y-78846445D01*
X105557372Y-119754942D02*
X105557620Y-119755004D01*
X194644501Y-98282808D02*
X194644711Y-98282662D01*
X101250655Y-42626271D02*
X101250475Y-42626453D01*
X193355541Y-59859695D02*
X193363992Y-59781390D01*
X100232069Y-76184956D02*
X100255666Y-76217665D01*
X99025254Y-26164468D02*
X98895662Y-26571937D01*
X193594047Y-40837408D02*
X193553790Y-40769714D01*
X98531047Y-48879411D02*
X98529972Y-48920611D01*
X195183678Y-22114668D02*
X195183483Y-22114502D01*
X195843575Y-82720458D02*
X195536088Y-82423339D01*
X100060761Y-84069946D02*
X100060621Y-84070160D01*
X194291109Y-78523515D02*
X194644501Y-78282809D01*
X196751004Y-83792419D02*
X196750852Y-83792214D01*
X102572141Y-58450910D02*
X102572351Y-58451054D01*
X197866578Y-25844855D02*
X197702691Y-25449926D01*
X102709041Y-81454450D02*
X102708828Y-81454591D01*
X99601531Y-44839367D02*
X99601409Y-44839591D01*
X198470032Y-88617288D02*
X198470030Y-88617072D01*
X197795786Y-114290285D02*
X197810944Y-114252841D01*
X99503629Y-54986502D02*
X99503742Y-54986730D01*
X99319252Y-34601100D02*
X99319359Y-34601332D01*
X102222915Y-38204799D02*
X102223121Y-38204948D01*
X100618594Y-83317850D02*
X100354428Y-83654066D01*
X195407842Y-117672224D02*
X195720293Y-117380334D01*
X193862173Y-98822266D02*
X193921376Y-98770322D01*
X98633788Y-92329032D02*
X98633827Y-92329284D01*
X197260057Y-24578668D02*
X197259927Y-24578448D01*
X198281239Y-67229075D02*
X198281188Y-67228824D01*
X194644501Y-38282811D02*
X194644711Y-38282665D01*
X194783352Y-81800119D02*
X194783145Y-81799969D01*
X102743215Y-21432437D02*
X102742998Y-21432573D01*
X99138311Y-94169972D02*
X99302679Y-94564047D01*
X196191135Y-23092486D02*
X196164322Y-23062271D01*
X193211604Y-20862034D02*
X193211374Y-20861923D01*
X103487895Y-80659541D02*
X103453336Y-80730350D01*
X198233580Y-52913753D02*
X198233636Y-52913503D01*
X194815745Y-41824258D02*
X194783352Y-41800121D01*
X98884332Y-106610974D02*
X98884264Y-106611221D01*
X103019454Y-38743579D02*
X103080386Y-38793534D01*
X198160276Y-46734538D02*
X198160206Y-46734292D01*
X193516934Y-100700106D02*
X193483570Y-100628762D01*
X100618755Y-103317649D02*
X100618594Y-103317849D01*
X198281188Y-67228824D02*
X198272595Y-67189352D01*
X193355541Y-79859694D02*
X193363992Y-79781389D01*
X98979518Y-113729934D02*
X99123556Y-114131886D01*
X100953356Y-82933934D02*
X100953180Y-82934120D01*
X100514390Y-76557653D02*
X100514547Y-76557854D01*
X193479657Y-118991841D02*
X193479884Y-118991722D01*
X194783352Y-101800118D02*
X194783145Y-101799968D01*
X197686157Y-105412784D02*
X197686050Y-105412552D01*
X197810944Y-54252844D02*
X197811037Y-54252606D01*
X101949853Y-62003031D02*
X101949656Y-62003193D01*
X100539784Y-56589317D02*
X100539946Y-56589514D01*
X193412419Y-39550323D02*
X193436120Y-39475214D01*
X100231922Y-116184745D02*
X100232069Y-116184954D01*
X198426769Y-88112969D02*
X198368116Y-87689427D01*
X100644682Y-103286339D02*
X100644516Y-103286534D01*
X101822851Y-97891101D02*
X101823046Y-97891267D01*
X198468890Y-91098686D02*
X198469966Y-91057505D01*
X198224324Y-32953075D02*
X198233580Y-32913754D01*
X197167900Y-55546292D02*
X197188602Y-55511605D01*
X198037505Y-46324692D02*
X198037429Y-46324448D01*
X103230547Y-81054095D02*
X103176758Y-81111671D01*
X99302781Y-114564280D02*
X99319252Y-114601096D01*
X98721522Y-72788544D02*
X98721574Y-72788794D01*
X104221873Y-119327571D02*
X104222109Y-119327669D01*
X100644682Y-63286341D02*
X100644516Y-63286536D01*
X103498313Y-79359242D02*
X103528158Y-79432164D01*
X194783352Y-41800121D02*
X194783145Y-41799971D01*
X198426769Y-48112971D02*
X198368116Y-47689429D01*
X194256938Y-98545535D02*
X194290895Y-98523655D01*
X98966803Y-93691390D02*
X98979435Y-93729694D01*
X194644501Y-78282809D02*
X194644711Y-78282663D01*
X99204249Y-65687583D02*
X99204150Y-65687819D01*
X198443420Y-31566327D02*
X198443443Y-31566073D01*
X98556516Y-28411783D02*
X98556493Y-28412037D01*
X194003504Y-21281321D02*
X194003283Y-21281193D01*
X198394093Y-52031942D02*
X198399286Y-51991881D01*
X103626770Y-40128560D02*
X103618345Y-40206901D01*
X197974682Y-53813641D02*
X198104274Y-53406172D01*
X197502186Y-105026519D02*
X197502073Y-105026289D01*
X100232069Y-56184957D02*
X100255666Y-56217666D01*
X102190550Y-118180727D02*
X102222915Y-118204795D01*
X195749281Y-57351837D02*
X195749461Y-57351656D01*
X196381181Y-56660456D02*
X196381342Y-56660257D01*
X198468880Y-31098949D02*
X198468890Y-31098689D01*
X103464893Y-59287889D02*
X103498313Y-59359243D01*
X195872079Y-42749445D02*
X195843756Y-42720640D01*
X101279643Y-102597769D02*
X101279459Y-102597946D01*
X192184127Y-119532833D02*
X192586915Y-119389351D01*
X103194459Y-38902186D02*
X103247320Y-38960616D01*
X197167900Y-75546291D02*
X197188602Y-75511604D01*
X197398527Y-75138516D02*
X197417429Y-75102815D01*
X98671713Y-87523170D02*
X98671670Y-87523422D01*
X195720293Y-37380338D02*
X195720477Y-37380161D01*
X98884332Y-66610976D02*
X98884264Y-66611223D01*
X98766300Y-87064603D02*
X98678996Y-87483176D01*
X103410713Y-118950485D02*
X103793179Y-119140305D01*
X101823046Y-57891269D02*
X101854139Y-57916957D01*
X102708828Y-61454592D02*
X102355435Y-61695297D01*
X198037505Y-66324691D02*
X198037429Y-66324447D01*
X103618345Y-60206900D02*
X103606049Y-60284727D01*
X101981601Y-41977642D02*
X101981399Y-41977799D01*
X196916581Y-55941954D02*
X196916726Y-55941744D01*
X198170875Y-46773519D02*
X198160276Y-46734538D01*
X196074074Y-117014225D02*
X196074244Y-117014035D01*
X101622691Y-82278727D02*
X101622497Y-82278894D01*
X194815745Y-61824257D02*
X194783352Y-61800120D01*
X193637607Y-60903025D02*
X193594047Y-60837407D01*
X99725882Y-95398144D02*
X99726006Y-95398367D01*
X102742998Y-61432571D02*
X102709041Y-61454451D01*
X194025078Y-81291417D02*
X193961810Y-81244511D01*
X102868785Y-81355999D02*
X102743215Y-81432434D01*
X193637607Y-40903026D02*
X193594047Y-40837408D01*
X198104274Y-73406171D02*
X198104349Y-73405926D01*
X99374878Y-25295246D02*
X99374773Y-25295479D01*
X99832036Y-84431814D02*
X99811333Y-84466501D01*
X195377245Y-117699376D02*
X195377439Y-117699209D01*
X191241127Y-119789255D02*
X191280598Y-119780663D01*
X103120182Y-61166512D02*
X103060958Y-61218482D01*
X102605902Y-78473438D02*
X102606116Y-78473577D01*
X197483657Y-64990050D02*
X197280296Y-64613922D01*
X103297220Y-99021590D02*
X103344039Y-99084965D01*
X98574250Y-31905969D02*
X98574282Y-31906222D01*
X103297220Y-39021593D02*
X103344039Y-39084968D01*
X98531057Y-48879150D02*
X98531047Y-48879411D01*
X198426769Y-68112970D02*
X198368116Y-67689428D01*
X103569976Y-100438077D02*
X103546287Y-100513224D01*
X98600621Y-107986478D02*
X98556516Y-108411779D01*
X197625057Y-34682864D02*
X197625162Y-34682631D01*
X100354428Y-23654069D02*
X100354273Y-23654273D01*
X198115672Y-53366884D02*
X198224262Y-52953322D01*
X102708828Y-101454590D02*
X102355435Y-101695295D01*
X98569625Y-31865645D02*
X98569651Y-31865899D01*
X103576835Y-39581993D02*
X103595548Y-39658532D01*
X193494527Y-79328972D02*
X193529088Y-79258200D01*
X198320941Y-52494930D02*
X198320990Y-52494679D01*
X198272595Y-67189352D02*
X198272538Y-67189103D01*
X98884264Y-26611225D02*
X98775674Y-27024787D01*
X103329247Y-40931312D02*
X103281419Y-40993928D01*
X195377439Y-37699213D02*
X195407653Y-37672401D01*
X98730293Y-32828436D02*
X98832598Y-33242979D01*
X101470610Y-77583249D02*
X101470796Y-77583424D01*
X195872256Y-62749629D02*
X195872079Y-62749444D01*
X100815693Y-76915847D02*
X100842502Y-76945980D01*
X193405205Y-80406061D02*
X193386540Y-80329544D01*
X195152367Y-62088739D02*
X195152168Y-62088578D01*
X196381342Y-76660256D02*
X196645508Y-76324038D01*
X99123556Y-74131888D02*
X99123645Y-74132127D01*
X194047129Y-38675542D02*
X194113474Y-38632869D01*
X198170875Y-106773516D02*
X198160276Y-106734535D01*
X197037466Y-44212992D02*
X197015587Y-44179034D01*
X100815525Y-116915652D02*
X100815693Y-116915845D01*
X198170939Y-46773766D02*
X198170875Y-46773519D01*
X193983078Y-98721372D02*
X194047129Y-98675539D01*
X198272538Y-67189103D02*
X198170939Y-66773765D01*
X193392466Y-99626511D02*
X193412419Y-99550320D01*
X197974602Y-53813884D02*
X197974682Y-53813641D01*
X198170939Y-106773763D02*
X198170875Y-106773516D01*
X196750852Y-23792217D02*
X196492392Y-23451591D01*
X98556493Y-48412036D02*
X98553355Y-48452310D01*
X103628662Y-79892381D02*
X103631935Y-79971106D01*
X198468890Y-51098688D02*
X198469966Y-51057507D01*
X193594711Y-21052496D02*
X193594483Y-21052379D01*
X195377439Y-117699209D02*
X195407653Y-117672397D01*
X196645663Y-56323836D02*
X196669800Y-56291444D01*
X101470610Y-57583250D02*
X101470796Y-57583425D01*
X103569976Y-40438080D02*
X103546287Y-40513227D01*
X100842502Y-116945978D02*
X100842674Y-116946166D01*
X101500728Y-117610834D02*
X101822851Y-117891100D01*
X102572141Y-78450909D02*
X102572351Y-78451053D01*
X197483657Y-84990049D02*
X197280296Y-84613921D01*
X103518905Y-60587107D02*
X103487895Y-60659542D01*
X198104274Y-93406170D02*
X198104349Y-93405925D01*
X198361515Y-47649316D02*
X198361470Y-47649065D01*
X198024768Y-66285816D02*
X197881286Y-65883025D01*
X106477488Y-119924306D02*
X106517486Y-119929484D01*
X198431318Y-28153369D02*
X198426801Y-28113225D01*
X198446598Y-51525543D02*
X198468880Y-51098948D01*
X102355435Y-101695295D02*
X102355225Y-101695442D01*
X198469966Y-51057507D02*
X198469969Y-51057246D01*
X102190550Y-78180729D02*
X102222915Y-78204797D01*
X197974682Y-33813642D02*
X198104274Y-33406173D01*
X190356734Y-119934873D02*
X190356988Y-119934842D01*
X194113474Y-58632868D02*
X194256721Y-58545673D01*
X197702590Y-105449687D02*
X197686157Y-105412784D01*
X193553790Y-80769712D02*
X193516934Y-80700107D01*
X103626770Y-80128558D02*
X103618345Y-80206899D01*
X104222109Y-119327669D02*
X104259503Y-119342782D01*
X193405205Y-60406062D02*
X193386540Y-60329545D01*
X195407653Y-57672400D02*
X195407842Y-57672227D01*
X103176758Y-81111671D02*
X103120182Y-81166511D01*
X98605843Y-67946165D02*
X98600650Y-67986226D01*
X192145253Y-119545570D02*
X192145497Y-119545494D01*
X105596883Y-119764234D02*
X105597132Y-119764289D01*
X103626770Y-60128559D02*
X103618345Y-60206900D01*
X193350978Y-59938323D02*
X193355541Y-59859695D01*
X196492235Y-83451386D02*
X196467001Y-83419840D01*
X100842502Y-96945979D02*
X100842674Y-96946167D01*
X106683600Y-20038695D02*
X106683346Y-20038720D01*
X195505953Y-22395678D02*
X195183678Y-22114668D01*
X105758810Y-20188854D02*
X105719339Y-20197446D01*
X102322431Y-101719029D02*
X102322225Y-101719181D01*
X194433859Y-61553340D02*
X194433648Y-61553195D01*
X98574250Y-51905968D02*
X98574282Y-51906221D01*
X98966803Y-53691392D02*
X98979435Y-53729696D01*
X193350978Y-79938322D02*
X193355541Y-79859694D01*
X100539784Y-116589314D02*
X100539946Y-116589511D01*
X190524059Y-20075897D02*
X190523806Y-20075861D01*
X197811037Y-54252606D02*
X197961291Y-53852295D01*
X198470030Y-48617074D02*
X198469666Y-48600225D01*
X99725882Y-35398147D02*
X99726006Y-35398370D01*
X198320941Y-112494927D02*
X198320990Y-112494676D01*
X197037602Y-44213208D02*
X197037466Y-44212992D01*
X100083210Y-104036361D02*
X100060761Y-104069945D01*
X198320941Y-92494928D02*
X198320990Y-92494677D01*
X102956121Y-78696702D02*
X103019454Y-78743577D01*
X100060621Y-84070160D02*
X99832170Y-84431596D01*
X193483570Y-80628763D02*
X193453780Y-80555854D01*
X106942448Y-119973505D02*
X106942703Y-119973528D01*
X102742998Y-81432570D02*
X102709041Y-81454450D01*
X99582506Y-104875289D02*
X99582390Y-104875516D01*
X193842623Y-61141594D02*
X193786997Y-61085836D01*
X98553355Y-28452311D02*
X98553339Y-28452566D01*
X102190550Y-58180730D02*
X102222915Y-58204798D01*
X99392042Y-105258391D02*
X99391931Y-105258622D01*
X196939314Y-115907943D02*
X197167766Y-115546507D01*
X198272595Y-47189353D02*
X198272538Y-47189104D01*
X103108452Y-21210114D02*
X102743215Y-21432437D01*
X107130200Y-20000369D02*
X107129768Y-20000388D01*
X198037429Y-86324446D02*
X198024851Y-86286057D01*
X194677505Y-38259078D02*
X194677711Y-38258926D01*
X197417546Y-75102588D02*
X197607894Y-74719713D01*
X198104349Y-33405928D02*
X198115604Y-33367132D01*
X100083355Y-24036155D02*
X100083210Y-24036365D01*
X103626770Y-100128557D02*
X103618345Y-100206898D01*
X103387661Y-59150582D02*
X103427978Y-59218279D01*
X102190347Y-118180572D02*
X102190550Y-118180727D01*
X107147046Y-20000005D02*
X107130200Y-20000369D01*
X198469966Y-91057505D02*
X198469969Y-91057244D01*
X193412419Y-59550322D02*
X193436120Y-59475213D01*
X98556493Y-68412035D02*
X98553355Y-68452309D01*
X99990890Y-55831996D02*
X99991031Y-55832209D01*
X101622497Y-62278895D02*
X101592283Y-62305708D01*
X194290895Y-78523656D02*
X194291109Y-78523515D01*
X101470610Y-117583247D02*
X101470796Y-117583422D01*
X195506144Y-102395844D02*
X195505953Y-102395674D01*
X102967454Y-118701534D02*
X103002104Y-118722177D01*
X103080386Y-98793531D02*
X103138769Y-98846444D01*
X197625057Y-74682862D02*
X197625162Y-74682629D01*
X98569651Y-91865896D02*
X98574250Y-91905966D01*
X98678947Y-67483428D02*
X98671713Y-67523171D01*
X101854338Y-37917118D02*
X102190347Y-38180576D01*
X190986547Y-20148958D02*
X190946804Y-20141724D01*
X98730235Y-112828184D02*
X98730293Y-112828432D01*
X198224262Y-72953321D02*
X198224324Y-72953073D01*
X99391931Y-45258625D02*
X99374878Y-45295245D01*
X191444946Y-20245619D02*
X191405625Y-20236363D01*
X98721522Y-92788543D02*
X98721574Y-92788793D01*
X197015445Y-84178818D02*
X196774738Y-83825424D01*
X196046755Y-37043987D02*
X196074074Y-37014229D01*
X99038558Y-66126053D02*
X99025334Y-66164223D01*
X99582506Y-64875291D02*
X99582390Y-64875518D01*
X194399849Y-41530607D02*
X194090695Y-41335204D01*
X106982913Y-119976657D02*
X106983168Y-119976674D01*
X196774591Y-83825214D02*
X196751004Y-83792419D01*
X198361470Y-47649065D02*
X198281239Y-47229076D01*
X103589913Y-60361850D02*
X103569976Y-60438079D01*
X103453336Y-100730349D02*
X103415311Y-100799359D01*
X193961810Y-81244511D02*
X193900941Y-81194528D01*
X198469666Y-88600223D02*
X198469647Y-88599791D01*
X99582390Y-84875517D02*
X99392042Y-85258392D01*
X98600650Y-87986225D02*
X98600621Y-87986479D01*
X103373914Y-40866403D02*
X103329247Y-40931312D01*
X102322225Y-41719184D02*
X101981601Y-41977642D01*
X193350978Y-39938324D02*
X193355541Y-39859696D01*
X193751842Y-58934626D02*
X193805616Y-58877080D01*
X98633788Y-72329033D02*
X98633827Y-72329285D01*
X198104274Y-53406172D02*
X198104349Y-53405927D01*
X195872256Y-102749627D02*
X195872079Y-102749442D01*
X101250475Y-82626451D02*
X100953356Y-82933934D01*
X193057151Y-119194222D02*
X193057383Y-119194115D01*
X101163214Y-37286908D02*
X101470610Y-37583251D01*
X98633827Y-72329285D02*
X98640466Y-72369068D01*
X197881286Y-65883025D02*
X197881197Y-65882785D01*
X194815745Y-81824256D02*
X194783352Y-81800119D01*
X100255666Y-36217667D02*
X100255818Y-36217872D01*
X101134719Y-97258000D02*
X101163032Y-97286725D01*
X98531057Y-28879151D02*
X98531047Y-28879412D01*
X106642949Y-20043268D02*
X106219411Y-20101924D01*
X99123556Y-34131890D02*
X99123645Y-34132129D01*
X102355435Y-61695297D02*
X102355225Y-61695444D01*
X198468880Y-111098945D02*
X198468890Y-111098685D01*
X103329247Y-60931311D02*
X103281419Y-60993927D01*
X100815693Y-96915846D02*
X100842502Y-96945979D01*
X98721574Y-32788796D02*
X98730235Y-32828188D01*
X197686050Y-105412552D02*
X197502186Y-105026519D01*
X197607894Y-74719713D02*
X197608005Y-74719482D01*
X196191302Y-103092675D02*
X196191135Y-103092482D01*
X193353551Y-100095772D02*
X193350314Y-100017078D01*
X101279643Y-42597772D02*
X101279459Y-42597949D01*
X101949853Y-22003033D02*
X101949656Y-22003195D01*
X101134719Y-77258001D02*
X101163032Y-77286726D01*
X99188899Y-45725502D02*
X99038645Y-46125813D01*
X99374773Y-45295478D02*
X99204249Y-45687584D01*
X190316337Y-119939415D02*
X190316591Y-119939390D01*
X197866673Y-45845091D02*
X197866578Y-45844854D01*
X102890441Y-98652953D02*
X102956121Y-98696701D01*
X198170875Y-86773517D02*
X198160276Y-86734536D01*
X99391931Y-65258624D02*
X99374878Y-65295244D01*
X98531057Y-88879148D02*
X98531047Y-88879409D01*
X193516934Y-80700107D02*
X193483570Y-80628763D01*
X198361515Y-67649315D02*
X198361470Y-67649064D01*
X198446581Y-91525796D02*
X198446598Y-91525541D01*
X106983168Y-119976674D02*
X107409032Y-119998900D01*
X98721522Y-32788546D02*
X98721574Y-32788796D01*
X194433859Y-81553339D02*
X194433648Y-81553194D01*
X193862173Y-58822268D02*
X193921376Y-58770324D01*
X198024768Y-46285817D02*
X197881286Y-45883026D01*
X99725882Y-115398143D02*
X99726006Y-115398366D01*
X101250475Y-62626452D02*
X100953356Y-62933935D01*
X194815948Y-81824411D02*
X194815745Y-81824256D01*
X100618594Y-43317852D02*
X100354428Y-43654068D01*
X99990890Y-35831997D02*
X99991031Y-35832210D01*
X103080386Y-38793534D02*
X103138769Y-38846447D01*
X196074244Y-77014037D02*
X196355254Y-76691765D01*
X103569976Y-60438079D02*
X103546287Y-60513226D01*
X198368116Y-67689428D02*
X198368077Y-67689175D01*
X196939175Y-95908158D02*
X196939314Y-95907944D01*
X100644682Y-83286340D02*
X100644516Y-83286535D01*
X193494527Y-39328974D02*
X193529088Y-39258202D01*
X100539946Y-36589515D02*
X100815525Y-36915656D01*
X98775674Y-67024785D02*
X98775612Y-67025033D01*
X198468880Y-91098946D02*
X198468890Y-91098686D01*
X198469647Y-28599794D02*
X198468555Y-28582976D01*
X103793409Y-119140415D02*
X103829983Y-119157417D01*
X198328266Y-72454683D02*
X198394057Y-72032194D01*
X99968993Y-95798123D02*
X99990890Y-95831994D01*
X99968993Y-115798122D02*
X99990890Y-115831993D01*
X189869738Y-119977744D02*
X189870169Y-119977725D01*
X193608505Y-59122221D02*
X193653165Y-59057347D01*
X198394057Y-32032196D02*
X198394093Y-32031943D01*
X101854338Y-97917115D02*
X102190347Y-98180573D01*
X198470032Y-108617287D02*
X198470030Y-108617071D01*
X195050083Y-37975078D02*
X195050280Y-37974915D01*
X197502186Y-85026520D02*
X197502073Y-85026290D01*
X101500538Y-37610668D02*
X101500728Y-37610838D01*
X197686157Y-65412786D02*
X197686050Y-65412554D01*
X196492392Y-63451589D02*
X196492235Y-63451387D01*
X196046580Y-117044169D02*
X196046755Y-117043983D01*
X100842674Y-56946169D02*
X101134543Y-57257818D01*
X101592094Y-62305880D02*
X101279643Y-62597771D01*
X198468880Y-51098948D02*
X198468890Y-51098688D01*
X197280296Y-104613920D02*
X197280172Y-104613697D01*
X100083355Y-44036154D02*
X100083210Y-44036364D01*
X197702691Y-65449924D02*
X197702590Y-65449689D01*
X98730235Y-92828185D02*
X98730293Y-92828433D01*
X194256721Y-58545673D02*
X194256938Y-58545537D01*
X193350314Y-100017078D02*
X193350978Y-99938321D01*
X196466839Y-63419643D02*
X196191302Y-63092677D01*
X98640511Y-72369319D02*
X98721522Y-72788544D01*
X193786997Y-81085835D02*
X193734201Y-81027391D01*
X98843323Y-73282122D02*
X98843393Y-73282368D01*
X194815948Y-21824414D02*
X194815745Y-21824259D01*
X101470610Y-37583251D02*
X101470796Y-37583426D01*
X98884332Y-86610975D02*
X98884264Y-86611222D01*
X195843756Y-22720641D02*
X195843575Y-22720461D01*
X193653165Y-59057347D02*
X193700983Y-58994764D01*
X193436120Y-39475214D02*
X193463512Y-39401370D01*
X98766356Y-87064353D02*
X98766300Y-87064603D01*
X198104349Y-53405927D02*
X198115604Y-53367131D01*
X98530355Y-71419756D02*
X98530374Y-71420200D01*
X98531542Y-31437679D02*
X98569625Y-31865645D01*
X102322431Y-41719032D02*
X102322225Y-41719184D01*
X102355435Y-81695296D02*
X102355225Y-81695443D01*
X102605902Y-118473436D02*
X102606116Y-118473575D01*
X99188899Y-25725503D02*
X99038645Y-26125814D01*
X99319252Y-54601099D02*
X99319359Y-54601331D01*
X197702691Y-25449926D02*
X197702590Y-25449691D01*
X196645508Y-76324038D02*
X196645663Y-76323835D01*
X103120182Y-41166513D02*
X103060958Y-41218483D01*
X100060621Y-64070161D02*
X99832170Y-64431597D01*
X191897804Y-20365589D02*
X191859007Y-20354335D01*
X195749461Y-97351654D02*
X196046580Y-97044170D01*
X198272538Y-47189104D02*
X198170939Y-46773766D01*
X193594047Y-100837405D02*
X193553790Y-100769711D01*
X101854139Y-77916956D02*
X101854338Y-77917116D01*
X102709041Y-21454453D02*
X102709041Y-21454453D01*
X196191135Y-83092483D02*
X196164322Y-83062268D01*
X102322225Y-81719182D02*
X101981601Y-81977640D01*
X193057383Y-119194115D02*
X193443414Y-119010251D01*
X198281239Y-27229077D02*
X198281188Y-27228826D01*
X197280172Y-64613699D02*
X197260057Y-64578666D01*
X197259927Y-64578446D02*
X197037602Y-64213207D01*
X99522072Y-115022654D02*
X99522191Y-115022880D01*
X198431318Y-88153366D02*
X198426801Y-88113222D01*
X103487895Y-100659540D02*
X103453336Y-100730349D01*
X193516934Y-60700108D02*
X193483570Y-60628764D01*
X198368116Y-47689429D02*
X198368077Y-47689176D01*
X98775674Y-27024787D02*
X98775612Y-27025035D01*
X198470032Y-48617290D02*
X198470030Y-48617074D01*
X99038645Y-26125814D02*
X99038558Y-26126055D01*
X191898049Y-20365664D02*
X191897804Y-20365589D01*
X196645663Y-36323837D02*
X196669800Y-36291445D01*
X98832662Y-113243222D02*
X98843323Y-113282120D01*
X197795786Y-34290289D02*
X197810944Y-34252845D01*
X193961810Y-101244510D02*
X193900941Y-101194527D01*
X189549099Y-19999999D02*
X107147262Y-20000003D01*
X99832170Y-44431598D02*
X99832036Y-44431816D01*
X195535902Y-42423166D02*
X195506144Y-42395847D01*
X196381342Y-96660255D02*
X196645508Y-96324037D01*
X198368077Y-67689175D02*
X198361515Y-67649315D01*
X197961378Y-73852053D02*
X197974602Y-73813883D01*
X198024851Y-26286060D02*
X198024768Y-26285818D01*
X102935158Y-101313307D02*
X102868785Y-101355998D01*
X100329986Y-23686872D02*
X100083355Y-24036155D01*
X99204249Y-105687581D02*
X99204150Y-105687817D01*
X189852728Y-119978112D02*
X189852944Y-119978110D01*
X106683346Y-20038720D02*
X106643203Y-20043237D01*
X193961810Y-61244512D02*
X193900941Y-61194529D01*
X197502073Y-85026290D02*
X197483776Y-84990275D01*
X103556294Y-20967969D02*
X103520279Y-20986267D01*
X105597132Y-119764289D02*
X106015141Y-119851353D01*
X190523806Y-20075861D02*
X190483745Y-20070668D01*
X196074244Y-117014035D02*
X196355254Y-116691763D01*
X102956121Y-58696703D02*
X103019454Y-58743578D01*
X190820638Y-119869584D02*
X190820890Y-119869539D01*
X99025334Y-66164223D02*
X99025254Y-66164466D01*
X198426801Y-68113223D02*
X198426769Y-68112970D01*
X195407842Y-97672225D02*
X195720293Y-97380335D01*
X101622691Y-22278730D02*
X101622497Y-22278897D01*
X98529968Y-108920869D02*
X98529968Y-111402242D01*
X195872256Y-22749631D02*
X195872079Y-22749446D01*
X101949656Y-82003192D02*
X101622691Y-82278727D01*
X197502186Y-45026522D02*
X197502073Y-45026292D01*
X197483776Y-64990276D02*
X197483657Y-64990050D01*
X198468539Y-68582758D02*
X198431343Y-68153621D01*
X98979435Y-53729696D02*
X98979518Y-53729937D01*
X103942786Y-20783886D02*
X103942554Y-20783993D01*
X101134719Y-117257999D02*
X101163032Y-117286724D01*
X193786997Y-41085837D02*
X193734201Y-41027393D01*
X102708828Y-41454593D02*
X102355435Y-41695298D01*
X99138311Y-74169973D02*
X99302679Y-74564048D01*
X197015587Y-84179032D02*
X197015445Y-84178818D01*
X197810944Y-94252842D02*
X197811037Y-94252604D01*
X98884264Y-86611222D02*
X98775674Y-87024784D01*
X198281188Y-107228822D02*
X198272595Y-107189350D01*
X102190347Y-58180575D02*
X102190550Y-58180730D01*
X194047129Y-58675541D02*
X194113474Y-58632868D01*
X98884264Y-46611224D02*
X98775674Y-47024786D01*
X103610446Y-39735903D02*
X103621494Y-39813917D01*
X196074244Y-37014039D02*
X196355254Y-36691767D01*
X195535902Y-22423167D02*
X195506144Y-22395848D01*
X101949853Y-102003029D02*
X101949656Y-102003191D01*
X197961291Y-113852292D02*
X197961378Y-113852051D01*
X198115672Y-93366882D02*
X198224262Y-92953320D01*
X103498313Y-39359244D02*
X103528158Y-39432166D01*
X102355435Y-41695298D02*
X102355225Y-41695445D01*
X193453780Y-80555854D02*
X193427637Y-80481559D01*
X193983078Y-38721375D02*
X194047129Y-38675542D01*
X196355254Y-36691767D02*
X196355420Y-36691572D01*
X106055074Y-119858615D02*
X106055326Y-119858657D01*
X196046580Y-97044170D02*
X196046755Y-97043984D01*
X103606049Y-100284725D02*
X103589913Y-100361848D01*
X194815948Y-41824413D02*
X194815745Y-41824258D01*
X98600621Y-67986480D02*
X98556516Y-68411781D01*
X101822851Y-37891104D02*
X101823046Y-37891270D01*
X98531525Y-71437456D02*
X98531542Y-71437677D01*
X196751004Y-23792422D02*
X196750852Y-23792217D01*
X98531542Y-111437675D02*
X98569625Y-111865641D01*
X194256721Y-38545674D02*
X194256938Y-38545538D01*
X198320990Y-32494680D02*
X198328224Y-32454937D01*
X100644516Y-43286537D02*
X100618755Y-43317652D01*
X196669800Y-56291444D02*
X196669950Y-56291237D01*
X98600650Y-107986224D02*
X98600621Y-107986478D01*
X193700983Y-38994765D02*
X193751842Y-38934627D01*
X100354273Y-63654271D02*
X100330136Y-63686663D01*
X197686157Y-85412785D02*
X197686050Y-85412553D01*
X102355225Y-81695443D02*
X102322431Y-81719030D01*
X99302679Y-114564046D02*
X99302781Y-114564280D01*
X103631935Y-79971106D02*
X103631304Y-80049896D01*
X103631304Y-80049896D02*
X103626770Y-80128558D01*
X195050083Y-117975074D02*
X195050280Y-117974911D01*
X100083210Y-44036364D02*
X100060761Y-44069948D01*
X99038558Y-46126054D02*
X99025334Y-46164224D01*
X101279459Y-62597948D02*
X101250655Y-62626270D01*
X98671670Y-27523425D02*
X98605879Y-27945914D01*
X102868785Y-41356001D02*
X102743215Y-41432436D01*
X198224324Y-92953072D02*
X198233580Y-92913751D01*
X195720293Y-77380336D02*
X195720477Y-77380159D01*
X193360681Y-100174209D02*
X193353551Y-100095772D01*
X197483657Y-44990051D02*
X197280296Y-44613923D01*
X196046755Y-57043986D02*
X196074074Y-57014228D01*
X101981399Y-61977798D02*
X101949853Y-62003031D01*
X101949656Y-102003191D02*
X101622691Y-102278726D01*
X197398405Y-35138742D02*
X197398527Y-35138518D01*
X100539784Y-36589318D02*
X100539946Y-36589515D01*
X101822851Y-77891102D02*
X101823046Y-77891268D01*
X195152367Y-82088738D02*
X195152168Y-82088577D01*
X195152168Y-42088579D02*
X194815948Y-41824413D01*
X192305522Y-20495252D02*
X191898049Y-20365664D01*
X198224262Y-92953320D02*
X198224324Y-92953072D01*
X101592094Y-22305882D02*
X101279643Y-22597773D01*
X198328224Y-92454934D02*
X198328266Y-92454682D01*
X101949656Y-22003195D02*
X101622691Y-22278730D01*
X98569651Y-51865898D02*
X98574250Y-51905968D01*
X195843756Y-102720637D02*
X195843575Y-102720457D01*
X197280172Y-104613697D02*
X197260057Y-104578664D01*
X193734201Y-61027392D02*
X193684364Y-60966405D01*
X98605879Y-87945911D02*
X98605843Y-87946164D01*
X100925862Y-22963881D02*
X100925692Y-22964071D01*
X194400063Y-61530745D02*
X194399849Y-61530606D01*
X103281419Y-100993925D02*
X103230547Y-101054094D01*
X99601531Y-64839366D02*
X99601409Y-64839590D01*
X196750852Y-63792215D02*
X196492392Y-63451589D01*
X98529972Y-68920610D02*
X98529968Y-68920871D01*
X102606116Y-78473577D02*
X102890441Y-78652954D01*
X195377245Y-37699380D02*
X195377439Y-37699213D01*
X100255818Y-96217869D02*
X100514390Y-96557652D01*
X190820890Y-119869539D02*
X191240876Y-119789306D01*
X98766300Y-47064605D02*
X98678996Y-47483178D01*
X98766356Y-47064355D02*
X98766300Y-47064605D01*
X103487895Y-60659542D02*
X103453336Y-60730351D01*
X193594047Y-60837407D02*
X193553790Y-60769713D01*
X107450671Y-119999984D02*
X107450933Y-119999987D01*
X196939175Y-75908159D02*
X196939314Y-75907945D01*
X98721574Y-72788794D02*
X98730235Y-72828186D01*
X98766300Y-67064604D02*
X98678996Y-67483177D01*
X98775612Y-87025032D02*
X98766356Y-87064353D01*
X98979518Y-93729935D02*
X99123556Y-94131887D01*
X194256721Y-98545671D02*
X194256938Y-98545535D01*
X197188731Y-95511382D02*
X197398405Y-95138739D01*
X100539946Y-56589514D02*
X100815525Y-56915655D01*
X101592094Y-42305881D02*
X101279643Y-42597772D01*
X193891484Y-118767993D02*
X194256721Y-118545670D01*
X102606116Y-118473575D02*
X102967236Y-118701401D01*
X195843575Y-22720461D02*
X195536088Y-22423342D01*
X193376310Y-99703597D02*
X193392466Y-99626511D01*
X103230547Y-61054096D02*
X103176758Y-61111672D01*
X193637607Y-80903024D02*
X193594047Y-80837406D01*
X198468890Y-71098687D02*
X198469966Y-71057506D01*
X193211374Y-20861923D02*
X193174753Y-20844870D01*
X102935158Y-81313308D02*
X102868785Y-81355999D01*
X102190550Y-98180728D02*
X102222915Y-98204796D01*
X103019454Y-98743576D02*
X103080386Y-98793531D01*
X106517486Y-119929484D02*
X106517740Y-119929514D01*
X195872079Y-82749443D02*
X195843756Y-82720638D01*
X198470032Y-28617291D02*
X198470030Y-28617075D01*
X100815525Y-56915655D02*
X100815693Y-56915848D01*
X198037429Y-26324449D02*
X198024851Y-26286060D01*
X194399849Y-61530606D02*
X194090695Y-61335203D01*
X103606049Y-60284727D02*
X103589913Y-60361850D01*
X99746146Y-35433314D02*
X99746276Y-35433534D01*
X98529971Y-111402464D02*
X98530355Y-111419754D01*
X102222915Y-118204795D02*
X102223121Y-118204944D01*
X103387661Y-79150581D02*
X103427978Y-79218278D01*
X193463512Y-39401370D02*
X193494527Y-39328974D01*
X194644711Y-78282663D02*
X194677505Y-78259076D01*
X195749281Y-77351836D02*
X195749461Y-77351655D01*
X197974602Y-33813885D02*
X197974682Y-33813642D01*
X193684364Y-60966405D02*
X193637607Y-60903025D01*
X193805616Y-38877081D02*
X193862173Y-38822269D01*
X198431318Y-48153368D02*
X198426801Y-48113224D01*
X98671713Y-107523169D02*
X98671670Y-107523421D01*
X102708828Y-81454591D02*
X102355435Y-81695296D01*
X196916726Y-95941742D02*
X196939175Y-95908158D01*
X103387661Y-39150583D02*
X103427978Y-39218280D01*
X102222915Y-78204797D02*
X102223121Y-78204946D01*
X99392042Y-65258393D02*
X99391931Y-65258624D01*
X102606116Y-38473579D02*
X102890441Y-38652956D01*
X99302679Y-94564047D02*
X99302781Y-94564281D01*
X190986798Y-20149007D02*
X190986547Y-20148958D01*
X197167900Y-115546289D02*
X197188602Y-115511602D01*
X198368116Y-107689426D02*
X198368077Y-107689173D01*
X194291109Y-58523516D02*
X194644501Y-58282810D01*
X99025334Y-106164221D02*
X99025254Y-106164464D01*
X98979518Y-73729936D02*
X99123556Y-74131888D01*
X101854338Y-77917116D02*
X102190347Y-78180574D01*
X193594483Y-21052379D02*
X193211604Y-20862034D01*
X198115604Y-33367132D02*
X198115672Y-33366885D01*
X195407653Y-37672401D02*
X195407842Y-37672228D01*
X98671713Y-27523173D02*
X98671670Y-27523425D01*
X196645508Y-116324036D02*
X196645663Y-116323833D01*
X98766356Y-67064354D02*
X98766300Y-67064604D01*
X198469666Y-48600225D02*
X198469647Y-48599793D01*
X99746146Y-55433313D02*
X99746276Y-55433533D01*
X98721574Y-92788793D02*
X98730235Y-92828185D01*
X195183678Y-42114667D02*
X195183483Y-42114501D01*
X98556516Y-48411782D02*
X98556493Y-48412036D01*
X103595548Y-59658531D02*
X103610446Y-59735902D01*
X195505953Y-62395676D02*
X195183678Y-62114666D01*
X99319359Y-114601328D02*
X99503629Y-114986499D01*
X103618345Y-100206898D02*
X103606049Y-100284725D01*
X198115604Y-93367129D02*
X198115672Y-93366882D01*
X195018537Y-58000309D02*
X195050083Y-57975077D01*
X193961810Y-41244513D02*
X193900941Y-41194530D01*
X99990890Y-75831995D02*
X99991031Y-75832208D01*
X104697925Y-119505981D02*
X104698167Y-119506061D01*
X197398405Y-75138740D02*
X197398527Y-75138516D01*
X193630636Y-21071521D02*
X193630412Y-21071398D01*
X98574282Y-71906220D02*
X98633788Y-72329033D01*
X195377245Y-77699378D02*
X195377439Y-77699211D01*
X197417429Y-115102813D02*
X197417546Y-115102586D01*
X103631935Y-59971107D02*
X103631304Y-60049897D01*
X98966726Y-33691150D02*
X98966803Y-33691393D01*
X197811037Y-114252603D02*
X197961291Y-113852292D01*
X195377439Y-77699211D02*
X195407653Y-77672399D01*
X99503742Y-54986730D02*
X99522072Y-55022657D01*
X102709041Y-61454451D02*
X102708828Y-61454592D01*
X98530374Y-111420198D02*
X98531525Y-111437454D01*
X99188899Y-65725501D02*
X99038645Y-66125812D01*
X194644711Y-118282661D02*
X194677505Y-118259074D01*
X197502073Y-65026291D02*
X197483776Y-64990276D01*
X196164149Y-103062078D02*
X195872256Y-102749627D01*
X107112739Y-20001496D02*
X106683600Y-20038695D01*
X98966726Y-53691149D02*
X98966803Y-53691392D01*
X197398527Y-115138514D02*
X197417429Y-115102813D01*
X195536088Y-42423341D02*
X195535902Y-42423166D01*
X100060621Y-104070159D02*
X99832170Y-104431595D01*
X101163214Y-117286904D02*
X101470610Y-117583247D01*
X100329986Y-63686870D02*
X100083355Y-64036153D01*
X193376310Y-39703600D02*
X193392466Y-39626514D01*
X98730235Y-32828188D02*
X98730293Y-32828436D01*
X198320990Y-112494676D02*
X198328224Y-112454933D01*
X193353551Y-40095775D02*
X193350314Y-40017081D01*
X100083355Y-84036152D02*
X100083210Y-84036362D01*
X102223121Y-58204947D02*
X102572141Y-58450910D01*
X195872079Y-22749446D02*
X195843756Y-22720641D01*
X101163032Y-37286728D02*
X101163214Y-37286908D01*
X99123645Y-114132125D02*
X99138216Y-114169734D01*
X98556516Y-68411781D02*
X98556493Y-68412035D01*
X196669950Y-96291235D02*
X196916581Y-95941952D01*
X99991031Y-35832210D02*
X100231922Y-36184749D01*
X195536088Y-62423340D02*
X195535902Y-62423165D01*
X198160206Y-106734289D02*
X198037505Y-106324689D01*
X98633788Y-52329034D02*
X98633827Y-52329286D01*
X98979435Y-113729693D02*
X98979518Y-113729934D01*
X196916581Y-35941955D02*
X196916726Y-35941745D01*
X190780779Y-119876147D02*
X190820638Y-119869584D01*
X99582390Y-24875520D02*
X99392042Y-25258395D01*
X192744729Y-20658987D02*
X192744491Y-20658894D01*
X103120182Y-101166510D02*
X103060958Y-101218480D01*
X198233580Y-92913751D02*
X198233636Y-92913501D01*
X198170875Y-26773520D02*
X198160276Y-26734539D01*
X197167766Y-95546508D02*
X197167900Y-95546290D01*
X198328224Y-112454933D02*
X198328266Y-112454681D01*
X198233580Y-112913750D02*
X198233636Y-112913500D01*
X194677505Y-98259075D02*
X194677711Y-98258923D01*
X198224324Y-112953071D02*
X198233580Y-112913750D01*
X103281419Y-40993928D02*
X103230547Y-41054097D01*
X198115604Y-113367128D02*
X198115672Y-113366881D01*
X193483570Y-100628762D02*
X193453780Y-100555853D01*
X195872256Y-42749630D02*
X195872079Y-42749445D01*
X102572141Y-38450911D02*
X102572351Y-38451055D01*
X99601531Y-24839368D02*
X99601409Y-24839592D01*
X98529968Y-88920870D02*
X98529968Y-91402243D01*
X99746146Y-115433310D02*
X99746276Y-115433530D01*
X101250475Y-22626454D02*
X100953356Y-22933937D01*
X198470030Y-28617075D02*
X198469666Y-28600226D01*
X100255818Y-36217872D02*
X100514390Y-36557655D01*
X99503742Y-74986729D02*
X99522072Y-75022656D01*
X194090695Y-101335201D02*
X194025078Y-101291416D01*
X104854684Y-20432538D02*
X104854440Y-20432615D01*
X195720477Y-97380158D02*
X195749281Y-97351835D01*
X193805616Y-78877079D02*
X193862173Y-78822267D01*
X197961378Y-93852052D02*
X197974602Y-93813882D01*
X198468555Y-28582976D02*
X198468539Y-28582760D01*
X100815693Y-56915848D02*
X100842502Y-56945981D01*
X101500728Y-77610836D02*
X101822851Y-77891102D01*
X98895587Y-86572179D02*
X98884332Y-86610975D01*
X99582390Y-44875519D02*
X99392042Y-45258394D01*
X198469647Y-88599791D02*
X198468555Y-88582973D01*
X103487895Y-40659543D02*
X103453336Y-40730352D01*
X195506144Y-42395847D02*
X195505953Y-42395677D01*
X98832598Y-113242975D02*
X98832662Y-113243222D01*
X194783352Y-61800120D02*
X194783145Y-61799970D01*
X196381342Y-56660257D02*
X196645508Y-56324039D01*
X195018537Y-98000307D02*
X195050083Y-97975075D01*
X198224262Y-112953319D02*
X198224324Y-112953071D01*
X102743215Y-81432434D02*
X102742998Y-81432570D01*
X193983078Y-58721374D02*
X194047129Y-58675541D01*
X197280296Y-84613921D02*
X197280172Y-84613698D01*
X99601409Y-64839590D02*
X99582506Y-64875291D01*
X103520053Y-20986385D02*
X103143927Y-21189745D01*
X98600621Y-27986482D02*
X98556516Y-28411783D01*
X197795687Y-94290522D02*
X197795786Y-94290286D01*
X197015445Y-104178817D02*
X196774738Y-103825423D01*
X193483570Y-60628764D02*
X193453780Y-60555855D01*
X196774591Y-23825217D02*
X196751004Y-23792422D01*
X198443443Y-31566073D02*
X198446581Y-31525799D01*
X194644501Y-118282807D02*
X194644711Y-118282661D01*
X196164149Y-43062081D02*
X195872256Y-42749630D01*
X98605843Y-87946164D02*
X98600650Y-87986225D01*
X98530355Y-91419755D02*
X98530374Y-91420199D01*
X190017403Y-20023363D02*
X189590809Y-20001087D01*
X99832170Y-84431596D02*
X99832036Y-84431814D01*
X193353551Y-60095774D02*
X193350314Y-60017080D01*
X193900941Y-81194528D02*
X193842623Y-81141593D01*
X101279643Y-82597770D02*
X101279459Y-82597947D01*
X99968993Y-55798125D02*
X99990890Y-55831996D01*
X99601409Y-44839591D02*
X99582506Y-44875292D01*
X194677505Y-58259077D02*
X194677711Y-58258925D01*
X193463512Y-99401367D02*
X193494527Y-99328971D01*
X198281239Y-47229076D02*
X198281188Y-47228825D01*
X98721522Y-52788545D02*
X98721574Y-52788795D01*
X103230547Y-101054094D02*
X103176758Y-101111670D01*
X198394093Y-112031939D02*
X198399286Y-111991878D01*
X193494527Y-99328971D02*
X193529088Y-99258199D01*
X101470610Y-97583248D02*
X101470796Y-97583423D01*
X100618755Y-23317653D02*
X100618594Y-23317853D01*
X99990890Y-115831993D02*
X99991031Y-115832206D01*
X197037466Y-64212991D02*
X197015587Y-64179033D01*
X98574250Y-111905965D02*
X98574282Y-111906218D01*
X107129768Y-20000388D02*
X107112954Y-20001480D01*
X198281188Y-87228823D02*
X198272595Y-87189351D01*
X102572141Y-98450908D02*
X102572351Y-98451052D01*
X193900941Y-41194530D02*
X193842623Y-41141595D01*
X196750852Y-43792216D02*
X196492392Y-43451590D01*
X193405205Y-100406060D02*
X193386540Y-100329543D01*
X190483491Y-20070638D02*
X190058187Y-20026540D01*
X101592283Y-42305709D02*
X101592094Y-42305881D01*
X101250655Y-62626270D02*
X101250475Y-62626452D01*
X194025078Y-101291416D02*
X193961810Y-101244510D01*
X193363992Y-59781390D02*
X193376310Y-59703599D01*
X100083210Y-64036363D02*
X100060761Y-64069947D01*
X98640466Y-92369067D02*
X98640511Y-92369318D01*
X105105122Y-119635291D02*
X105105366Y-119635365D01*
X98843393Y-33282370D02*
X98966726Y-33691150D01*
X103002325Y-118722304D02*
X103374603Y-118931400D01*
X100842674Y-116946166D02*
X101134543Y-117257815D01*
X197015587Y-24179035D02*
X197015445Y-24178821D01*
X103427978Y-59218279D02*
X103464893Y-59287889D01*
X98574282Y-51906221D02*
X98633788Y-52329034D01*
X194256938Y-58545537D02*
X194290895Y-58523657D01*
X98530355Y-111419754D02*
X98530374Y-111420198D01*
X99038645Y-86125811D02*
X99038558Y-86126052D01*
X103344039Y-39084968D02*
X103387661Y-39150583D01*
X102355225Y-101695442D02*
X102322431Y-101719029D01*
X103576835Y-59581992D02*
X103595548Y-59658531D01*
X194677711Y-98258923D02*
X195018335Y-98000465D01*
X100354428Y-63654067D02*
X100354273Y-63654271D01*
X103631935Y-39971108D02*
X103631304Y-40049898D01*
X195536088Y-22423342D02*
X195535902Y-22423167D01*
X196191135Y-43092485D02*
X196164322Y-43062270D01*
X197686050Y-25412556D02*
X197502186Y-25026523D01*
X192145497Y-119545494D02*
X192183885Y-119532916D01*
X102967236Y-118701401D02*
X102967454Y-118701534D01*
X103546287Y-80513225D02*
X103518905Y-80587106D01*
X198233636Y-72913502D02*
X198320941Y-72494929D01*
X195152168Y-62088578D02*
X194815948Y-61824412D01*
X196466839Y-83419642D02*
X196191302Y-83092676D01*
X103247320Y-58960615D02*
X103297220Y-59021592D01*
X98775612Y-107025031D02*
X98766356Y-107064352D01*
X197483657Y-24990052D02*
X197280296Y-24613924D01*
X198399316Y-111991624D02*
X198443420Y-111566323D01*
X99832170Y-24431599D02*
X99832036Y-24431817D01*
X101822851Y-57891103D02*
X101823046Y-57891269D01*
X195183678Y-82114665D02*
X195183483Y-82114499D01*
X99188899Y-105725499D02*
X99038645Y-106125810D01*
X194090695Y-41335204D02*
X194025078Y-41291419D01*
X197167900Y-35546293D02*
X197188602Y-35511606D01*
X193443414Y-119010251D02*
X193443643Y-119010138D01*
X99204249Y-45687584D02*
X99204150Y-45687820D01*
X198224262Y-32953323D02*
X198224324Y-32953075D01*
X98766300Y-27064606D02*
X98678996Y-27483179D01*
X193891264Y-118768123D02*
X193891484Y-118767993D01*
X196751004Y-43792421D02*
X196750852Y-43792216D01*
X98553355Y-68452309D02*
X98553339Y-68452564D01*
X193567112Y-39189228D02*
X193608505Y-39122222D01*
X104413021Y-20588757D02*
X104412782Y-20588846D01*
X198469969Y-91057244D02*
X198470032Y-88617288D01*
X193350314Y-80017079D02*
X193350978Y-79938322D01*
X194400063Y-101530743D02*
X194399849Y-101530604D01*
X197417429Y-75102815D02*
X197417546Y-75102588D01*
X105759061Y-20188803D02*
X105758810Y-20188854D01*
X101622691Y-102278726D02*
X101622497Y-102278893D01*
X193594047Y-80837406D02*
X193553790Y-80769712D01*
X197608005Y-94719481D02*
X197625057Y-94682861D01*
X101854139Y-117916954D02*
X101854338Y-117917114D01*
X98605879Y-47945913D02*
X98605843Y-47946166D01*
X198468880Y-71098947D02*
X198468890Y-71098687D01*
X100354428Y-103654065D02*
X100354273Y-103654269D01*
X99968993Y-35798126D02*
X99990890Y-35831997D01*
X100815693Y-116915845D02*
X100842502Y-116945978D01*
X99582506Y-84875290D02*
X99582390Y-84875517D01*
X99746146Y-95433311D02*
X99746276Y-95433531D01*
X102709041Y-101454449D02*
X102708828Y-101454590D01*
X191859007Y-20354335D02*
X191858760Y-20354267D01*
X195183483Y-102114498D02*
X195152367Y-102088737D01*
X193020013Y-119210755D02*
X193020248Y-119210654D01*
X103373914Y-80866401D02*
X103329247Y-80931310D01*
X195407653Y-97672398D02*
X195407842Y-97672225D01*
X197280172Y-44613700D02*
X197260057Y-44578667D01*
X98605843Y-107946163D02*
X98600650Y-107986224D01*
X99582390Y-104875516D02*
X99392042Y-105258391D01*
X195407653Y-117672397D02*
X195407842Y-117672224D01*
X194399849Y-21530608D02*
X194038410Y-21302158D01*
X103176758Y-61111672D02*
X103120182Y-61166512D01*
X196355420Y-96691569D02*
X196381181Y-96660454D01*
X198394093Y-92031940D02*
X198399286Y-91991879D01*
X193386540Y-60329545D02*
X193371686Y-60252198D01*
X98529971Y-71402466D02*
X98530355Y-71419756D01*
X102322431Y-61719031D02*
X102322225Y-61719183D01*
X198468890Y-111098685D02*
X198469966Y-111057504D01*
X197037466Y-84212990D02*
X197015587Y-84179032D01*
X198431343Y-68153621D02*
X198431318Y-68153367D01*
X98531047Y-28879412D02*
X98529972Y-28920612D01*
X197015587Y-64179033D02*
X197015445Y-64178819D01*
X198468539Y-48582759D02*
X198431343Y-48153622D01*
X196774738Y-23825427D02*
X196774591Y-23825217D01*
X198224324Y-52953074D02*
X198233580Y-52913753D01*
X100925692Y-102964067D02*
X100644682Y-103286339D01*
X99522191Y-115022880D02*
X99725882Y-115398143D01*
X100815525Y-96915653D02*
X100815693Y-96915846D01*
X196492392Y-23451591D02*
X196492235Y-23451389D01*
X98775674Y-47024786D02*
X98775612Y-47025034D01*
X196750852Y-103792213D02*
X196492392Y-103451587D01*
X103498313Y-59359243D02*
X103528158Y-59432165D01*
X102709041Y-41454452D02*
X102708828Y-41454593D01*
X194433859Y-21553342D02*
X194433648Y-21553197D01*
X197483657Y-104990048D02*
X197280296Y-104613920D01*
X193983078Y-78721373D02*
X194047129Y-78675540D01*
X193412419Y-79550321D02*
X193436120Y-79475212D01*
X103415311Y-60799361D02*
X103373914Y-60866402D01*
X197974602Y-93813882D02*
X197974682Y-93813639D01*
X196164149Y-63062080D02*
X195872256Y-62749629D01*
X195183483Y-82114499D02*
X195152367Y-82088738D01*
X198468539Y-108582756D02*
X198431343Y-108153619D01*
X198394093Y-72031941D02*
X198399286Y-71991880D01*
X197702691Y-45449925D02*
X197702590Y-45449690D01*
X103631304Y-40049898D02*
X103626770Y-40128560D01*
X195720293Y-117380334D02*
X195720477Y-117380157D01*
X105105366Y-119635365D02*
X105144106Y-119646587D01*
X193529088Y-79258200D02*
X193567112Y-79189226D01*
X100255666Y-76217665D02*
X100255818Y-76217870D01*
X100232069Y-116184954D02*
X100255666Y-116217663D01*
X101134543Y-97257816D02*
X101134719Y-97258000D01*
X198024851Y-46286059D02*
X198024768Y-46285817D01*
X100060761Y-24069949D02*
X100060621Y-24070163D01*
X102355225Y-61695444D02*
X102322431Y-61719031D01*
X103554353Y-39506476D02*
X103576835Y-39581993D01*
X198446598Y-111525540D02*
X198468880Y-111098945D01*
X193567112Y-79189226D02*
X193608505Y-79122220D01*
X193392466Y-39626514D02*
X193412419Y-39550323D01*
X194783145Y-41799971D02*
X194433859Y-41553341D01*
X195152367Y-102088737D02*
X195152168Y-102088576D01*
X98574282Y-91906219D02*
X98633788Y-92329032D01*
X197608005Y-114719480D02*
X197625057Y-114682860D01*
X102890441Y-38652956D02*
X102956121Y-38696704D01*
X98531542Y-71437677D02*
X98569625Y-71865643D01*
X100842502Y-76945980D02*
X100842674Y-76946168D01*
X100354273Y-103654269D02*
X100330136Y-103686661D01*
X195050280Y-37974915D02*
X195377245Y-37699380D01*
X98529968Y-48920872D02*
X98529968Y-51402245D01*
X98531057Y-108879147D02*
X98531047Y-108879408D01*
X105264281Y-20309837D02*
X104854684Y-20432538D01*
X196046580Y-37044173D02*
X196046755Y-37043987D01*
X198361470Y-67649064D02*
X198281239Y-67229075D01*
X197795687Y-114290521D02*
X197795786Y-114290285D01*
X98605879Y-107945910D02*
X98605843Y-107946163D01*
X197167766Y-55546510D02*
X197167900Y-55546292D01*
X105144106Y-119646587D02*
X105144352Y-119646654D01*
X196046755Y-117043983D02*
X196074074Y-117014225D01*
X198328266Y-92454682D02*
X198394057Y-92032193D01*
X99374773Y-25295479D02*
X99204249Y-25687585D01*
X198170875Y-66773518D02*
X198160276Y-66734537D01*
X198104274Y-33406173D02*
X198104349Y-33405928D01*
X98678947Y-47483429D02*
X98671713Y-47523172D01*
X191858760Y-20354267D02*
X191445195Y-20245681D01*
X196939314Y-75907945D02*
X197167766Y-75546509D01*
X196467001Y-83419840D02*
X196466839Y-83419642D01*
X196669950Y-76291236D02*
X196916581Y-75941953D01*
X198469969Y-71057245D02*
X198470032Y-68617289D01*
X193427637Y-60481560D02*
X193405205Y-60406062D01*
X99832036Y-64431815D02*
X99811333Y-64466502D01*
X104816052Y-20445193D02*
X104815810Y-20445275D01*
X196381342Y-36660258D02*
X196645508Y-36324040D01*
X198469666Y-28600226D02*
X198469647Y-28599794D01*
X194290895Y-58523657D02*
X194291109Y-58523516D01*
X100232069Y-36184958D02*
X100255666Y-36217667D01*
X100539946Y-76589513D02*
X100815525Y-76915654D01*
X103628662Y-39892383D02*
X103631935Y-39971108D01*
X100514547Y-76557854D02*
X100539784Y-76589316D01*
X193734201Y-81027391D02*
X193684364Y-80966404D01*
X197974682Y-93813639D02*
X198104274Y-93406170D01*
X198426801Y-88113222D02*
X198426769Y-88112969D01*
X100644516Y-23286538D02*
X100618755Y-23317653D01*
X99319359Y-94601329D02*
X99503629Y-94986500D01*
X107409294Y-119998910D02*
X107450671Y-119999984D01*
X99138216Y-54169737D02*
X99138311Y-54169974D01*
X98529971Y-51402467D02*
X98530355Y-51419757D01*
X193553790Y-60769713D02*
X193516934Y-60700108D01*
X103453336Y-80730350D02*
X103415311Y-80799360D01*
X197260057Y-64578666D02*
X197259927Y-64578446D01*
X98895662Y-106571933D02*
X98895587Y-106572178D01*
X198024851Y-66286058D02*
X198024768Y-66285816D01*
X194400063Y-41530746D02*
X194399849Y-41530607D01*
X193842623Y-101141592D02*
X193786997Y-101085834D01*
X100815525Y-76915654D02*
X100815693Y-76915847D01*
X194433648Y-101553193D02*
X194400063Y-101530743D01*
X198170939Y-26773767D02*
X198170875Y-26773520D01*
X197961291Y-53852295D02*
X197961378Y-53852054D01*
X99138311Y-54169974D02*
X99302679Y-54564049D01*
X101981601Y-61977641D02*
X101981399Y-61977798D01*
X99726006Y-35398370D02*
X99746146Y-35433314D01*
X101134543Y-57257818D02*
X101134719Y-57258002D01*
X196467001Y-63419841D02*
X196466839Y-63419643D01*
X198470030Y-108617071D02*
X198469666Y-108600222D01*
X98553339Y-108452562D02*
X98531057Y-108879147D01*
X102999233Y-41267456D02*
X102935158Y-41313310D01*
X198160206Y-26734293D02*
X198037505Y-26324693D01*
X98766356Y-107064352D02*
X98766300Y-107064602D01*
X102223121Y-38204948D02*
X102572141Y-38450911D01*
X197625162Y-54682630D02*
X197795687Y-54290524D01*
X99138216Y-34169738D02*
X99138311Y-34169975D01*
X105264527Y-20309767D02*
X105264281Y-20309837D01*
X98966803Y-33691393D02*
X98979435Y-33729697D01*
X193174753Y-20844870D02*
X193174520Y-20844765D01*
X194783145Y-21799972D02*
X194433859Y-21553342D01*
X106015392Y-119851402D02*
X106055074Y-119858615D01*
X102935158Y-61313309D02*
X102868785Y-61356000D01*
X98530374Y-31420202D02*
X98531525Y-31437458D01*
X197259927Y-104578444D02*
X197037602Y-104213205D01*
X197702590Y-45449690D02*
X197686157Y-45412787D01*
X198160206Y-86734290D02*
X198037505Y-86324690D01*
X98553355Y-88452308D02*
X98553339Y-88452563D01*
X194815745Y-101824255D02*
X194783352Y-101800118D01*
X101949853Y-82003030D02*
X101949656Y-82003192D01*
X103546287Y-40513227D02*
X103518905Y-40587108D01*
X98633827Y-32329287D02*
X98640466Y-32369070D01*
X197260057Y-44578667D02*
X197259927Y-44578447D01*
X103569976Y-80438078D02*
X103546287Y-80513225D01*
X98600650Y-27986228D02*
X98600621Y-27986482D01*
X194677505Y-78259076D02*
X194677711Y-78258924D01*
X100644682Y-43286342D02*
X100644516Y-43286537D01*
X100514547Y-56557855D02*
X100539784Y-56589317D01*
X103464893Y-99287887D02*
X103498313Y-99359241D01*
X196669800Y-116291441D02*
X196669950Y-116291234D01*
X193371686Y-100252196D02*
X193360681Y-100174209D01*
X98529972Y-28920612D02*
X98529968Y-28920873D01*
X101949656Y-62003193D02*
X101622691Y-62278728D01*
X98640511Y-52369320D02*
X98721522Y-52788545D01*
X103138769Y-58846446D02*
X103194459Y-58902185D01*
X99725882Y-55398146D02*
X99726006Y-55398369D01*
X197607894Y-114719711D02*
X197608005Y-114719480D01*
X99138311Y-114169971D02*
X99302679Y-114564046D01*
X197483776Y-104990274D02*
X197483657Y-104990048D01*
X100354273Y-23654273D02*
X100330136Y-23686665D01*
X98730235Y-52828187D02*
X98730293Y-52828435D01*
X103138769Y-78846445D02*
X103194459Y-78902184D01*
X193700983Y-78994763D02*
X193751842Y-78934625D01*
X99811205Y-24466725D02*
X99601531Y-24839368D01*
X198469666Y-68600224D02*
X198469647Y-68599792D01*
X98775674Y-87024784D02*
X98775612Y-87025032D01*
X196774591Y-103825213D02*
X196751004Y-103792418D01*
X196645508Y-56324039D02*
X196645663Y-56323836D01*
X197625162Y-34682631D02*
X197795687Y-34290525D01*
X193463512Y-59401369D02*
X193494527Y-59328973D01*
X193805616Y-58877080D02*
X193862173Y-58822268D01*
X102708828Y-21454594D02*
X102355435Y-21695299D01*
X100925692Y-82964068D02*
X100644682Y-83286340D01*
X196164322Y-43062270D02*
X196164149Y-43062081D01*
X98553355Y-48452310D02*
X98553339Y-48452565D01*
X103329247Y-80931310D02*
X103281419Y-80993926D01*
X192183885Y-119532916D02*
X192184127Y-119532833D01*
X103979924Y-20767352D02*
X103979689Y-20767453D01*
X197607894Y-34719715D02*
X197608005Y-34719484D01*
X103942554Y-20783993D02*
X103556523Y-20967856D01*
X189887146Y-119976619D02*
X190316337Y-119939415D01*
X198272538Y-27189105D02*
X198170939Y-26773767D01*
X98730235Y-72828186D02*
X98730293Y-72828434D01*
X194090695Y-61335203D02*
X194025078Y-61291418D01*
X101592094Y-82305879D02*
X101279643Y-82597770D01*
X103344039Y-59084967D02*
X103387661Y-59150582D01*
X99374773Y-85295476D02*
X99204249Y-85687582D01*
X101470796Y-97583423D02*
X101500538Y-97610665D01*
X103427978Y-39218280D02*
X103464893Y-39287890D01*
X194256938Y-78545536D02*
X194290895Y-78523656D01*
X196164322Y-83062268D02*
X196164149Y-83062079D01*
X198470030Y-88617072D02*
X198469666Y-88600223D01*
X193427637Y-40481561D02*
X193405205Y-40406063D01*
X197015445Y-44178820D02*
X196774738Y-43825426D01*
X198470030Y-68617073D02*
X198469666Y-68600224D01*
X198037429Y-46324448D02*
X198024851Y-46286059D01*
X197686050Y-85412553D02*
X197502186Y-85026520D01*
X196939314Y-95907944D02*
X197167766Y-95546508D01*
X194815745Y-21824259D02*
X194783352Y-21800122D01*
X197188602Y-95511603D02*
X197188731Y-95511382D01*
X100514390Y-116557651D02*
X100514547Y-116557852D01*
X197810944Y-114252841D02*
X197811037Y-114252603D01*
X196774738Y-103825423D02*
X196774591Y-103825213D01*
X196381181Y-116660453D02*
X196381342Y-116660254D01*
X198426801Y-28113225D02*
X198426769Y-28112972D01*
X197259927Y-44578447D02*
X197037602Y-44213208D01*
X101622691Y-62278728D02*
X101622497Y-62278895D01*
X100925692Y-62964069D02*
X100644682Y-63286341D01*
X99968857Y-55797909D02*
X99968993Y-55798125D01*
X193350314Y-40017081D02*
X193350978Y-39938324D01*
X192343936Y-20508556D02*
X192305765Y-20495333D01*
X99746276Y-95433531D02*
X99968857Y-95797907D01*
X198233580Y-32913754D02*
X198233636Y-32913504D01*
X197881197Y-85882784D02*
X197866673Y-85845089D01*
X99204150Y-85687818D02*
X99188992Y-85725262D01*
X98556516Y-88411780D02*
X98556493Y-88412034D01*
X198224324Y-72953073D02*
X198233580Y-72913752D01*
X98678996Y-87483176D02*
X98678947Y-87483427D01*
X194677711Y-58258925D02*
X195018335Y-58000467D01*
X193355541Y-99859693D02*
X193363992Y-99781388D01*
X100514390Y-36557655D02*
X100514547Y-36557856D01*
X193630412Y-21071398D02*
X193594711Y-21052496D01*
X98530374Y-91420199D02*
X98531525Y-91437455D01*
X196492235Y-103451385D02*
X196467001Y-103419839D01*
X102322431Y-81719030D02*
X102322225Y-81719182D01*
X103631304Y-60049897D02*
X103626770Y-60128559D01*
X101279643Y-22597773D02*
X101279459Y-22597950D01*
X103631935Y-99971105D02*
X103631304Y-100049895D01*
X103520279Y-20986267D02*
X103520053Y-20986385D01*
X190017658Y-20023379D02*
X190017403Y-20023363D01*
X99726006Y-55398369D02*
X99746146Y-55433313D01*
X105557620Y-119755004D02*
X105596883Y-119764234D01*
X103554353Y-99506473D02*
X103576835Y-99581990D01*
X104412782Y-20588846D02*
X104375087Y-20603370D01*
X102868785Y-61356000D02*
X102743215Y-61432435D01*
X107450933Y-119999987D02*
X189852728Y-119978112D01*
X198281188Y-47228825D02*
X198272595Y-47189353D01*
X101854139Y-97916955D02*
X101854338Y-97917115D01*
X105144352Y-119646654D02*
X105557372Y-119754942D01*
X98966726Y-93691147D02*
X98966803Y-93691390D01*
X103344039Y-79084966D02*
X103387661Y-79150581D01*
X197795786Y-94290286D02*
X197810944Y-94252842D01*
X198431318Y-108153365D02*
X198426801Y-108113221D01*
X98884264Y-106611221D02*
X98775674Y-107024783D01*
X189590809Y-20001087D02*
X189590548Y-20001077D01*
X101823046Y-97891267D02*
X101854139Y-97916955D01*
X193386540Y-80329544D02*
X193371686Y-80252197D01*
X197881286Y-25883027D02*
X197881197Y-25882787D01*
X99374878Y-65295244D02*
X99374773Y-65295477D01*
X99302781Y-94564281D02*
X99319252Y-94601097D01*
X99601409Y-84839589D02*
X99582506Y-84875290D01*
X100060621Y-44070162D02*
X99832170Y-44431598D01*
X197483776Y-44990277D02*
X197483657Y-44990051D01*
X190316591Y-119939390D02*
X190356734Y-119934873D01*
X99832170Y-64431597D02*
X99832036Y-64431815D01*
X99302781Y-74564282D02*
X99319252Y-74601098D01*
X103415311Y-80799360D02*
X103373914Y-80866401D01*
X193637607Y-100903023D02*
X193594047Y-100837405D01*
X198443443Y-91566070D02*
X198446581Y-91525796D01*
X197881197Y-65882785D02*
X197866673Y-65845090D01*
X195535902Y-62423165D02*
X195506144Y-62395846D01*
X195377245Y-57699379D02*
X195377439Y-57699212D01*
X194433648Y-61553195D02*
X194400063Y-61530745D01*
X195407842Y-77672226D02*
X195720293Y-77380336D01*
X101163032Y-97286725D02*
X101163214Y-97286905D01*
X102355435Y-21695299D02*
X102355225Y-21695446D01*
X196164322Y-23062271D02*
X196164149Y-23062082D01*
X192744491Y-20658894D02*
X192344176Y-20508643D01*
X100255818Y-76217870D02*
X100514390Y-76557653D01*
X193453780Y-60555855D02*
X193427637Y-60481560D01*
X197866578Y-85844852D02*
X197702691Y-85449923D01*
X99025254Y-66164466D02*
X98895662Y-66571935D01*
X99204249Y-25687585D02*
X99204150Y-25687821D01*
X99188992Y-25725265D02*
X99188899Y-25725503D01*
X100925862Y-102963877D02*
X100925692Y-102964067D01*
X98884332Y-26610978D02*
X98884264Y-26611225D01*
X102222915Y-98204796D02*
X102223121Y-98204945D01*
X196939175Y-115908157D02*
X196939314Y-115907943D01*
X194433648Y-81553194D02*
X194400063Y-81530744D01*
X99746276Y-115433530D02*
X99968857Y-115797906D01*
X99726006Y-95398367D02*
X99746146Y-95433311D01*
X104375087Y-20603370D02*
X104374850Y-20603465D01*
X100329986Y-83686869D02*
X100083355Y-84036152D01*
X197167766Y-115546507D02*
X197167900Y-115546289D01*
X198443420Y-91566324D02*
X198443443Y-91566070D01*
X103374827Y-118931522D02*
X103410485Y-118950369D01*
X107147262Y-20000003D02*
X107147046Y-20000005D01*
X100925862Y-82963878D02*
X100925692Y-82964068D01*
X198328224Y-32454937D02*
X198328266Y-32454685D01*
X194644501Y-58282810D02*
X194644711Y-58282664D01*
X198170939Y-66773765D02*
X198170875Y-66773518D01*
X197607894Y-54719714D02*
X197608005Y-54719483D01*
X99601531Y-84839365D02*
X99601409Y-84839589D01*
X100060621Y-24070163D02*
X99832170Y-24431599D01*
X194677711Y-118258922D02*
X195018335Y-118000464D01*
X198443443Y-71566071D02*
X198446581Y-71525797D01*
X99725882Y-75398145D02*
X99726006Y-75398368D01*
X101470796Y-37583426D02*
X101500538Y-37610668D01*
X98843323Y-113282120D02*
X98843393Y-113282366D01*
X197280172Y-24613701D02*
X197260057Y-24578668D01*
X198104349Y-73405926D02*
X198115604Y-73367130D01*
X98529968Y-111402242D02*
X98529971Y-111402464D01*
X99392042Y-45258394D02*
X99391931Y-45258625D01*
X99522072Y-35022658D02*
X99522191Y-35022884D01*
X198469647Y-68599792D02*
X198468555Y-68582974D01*
X197625162Y-74682629D02*
X197795687Y-74290523D01*
X103138769Y-98846444D02*
X103194459Y-98902183D01*
X101500538Y-57610667D02*
X101500728Y-57610837D01*
X195506144Y-62395846D02*
X195505953Y-62395676D01*
X198446598Y-91525541D02*
X198468880Y-91098946D01*
X102322225Y-101719181D02*
X101981601Y-101977639D01*
X198431343Y-108153619D02*
X198431318Y-108153365D01*
X193900941Y-61194529D02*
X193842623Y-61141594D01*
X101622497Y-82278894D02*
X101592283Y-82305707D01*
X194644711Y-98282662D02*
X194677505Y-98259075D01*
X100953356Y-42933936D02*
X100953180Y-42934122D01*
X196492392Y-43451590D02*
X196492235Y-43451388D01*
X193786997Y-101085834D02*
X193734201Y-101027390D01*
X98832598Y-73242977D02*
X98832662Y-73243224D01*
X99204150Y-105687817D02*
X99188992Y-105725261D01*
X195506144Y-22395848D02*
X195505953Y-22395678D01*
X197974682Y-73813640D02*
X198104274Y-73406171D01*
X196669800Y-96291442D02*
X196669950Y-96291235D01*
X98832662Y-73243224D02*
X98843323Y-73282122D01*
X98529968Y-91402243D02*
X98529971Y-91402465D01*
X193684364Y-40966406D02*
X193637607Y-40903026D01*
X196074074Y-97014226D02*
X196074244Y-97014036D01*
X103610446Y-99735900D02*
X103621494Y-99813914D01*
X100083355Y-104036151D02*
X100083210Y-104036361D01*
X103176758Y-101111670D02*
X103120182Y-101166510D01*
X99582506Y-44875292D02*
X99582390Y-44875519D01*
X198328224Y-52454936D02*
X198328266Y-52454684D01*
X198281188Y-27228826D02*
X198272595Y-27189354D01*
X196355420Y-116691568D02*
X196381181Y-116660453D01*
X196467001Y-23419843D02*
X196466839Y-23419645D01*
X197037602Y-24213209D02*
X197037466Y-24212993D01*
X197398527Y-95138515D02*
X197417429Y-95102814D01*
X100953180Y-82934120D02*
X100925862Y-82963878D01*
X197881197Y-105882783D02*
X197866673Y-105845088D01*
X98529968Y-51402245D02*
X98529971Y-51402467D01*
X98832662Y-53243225D02*
X98843323Y-53282123D01*
X197260057Y-84578665D02*
X197259927Y-84578445D01*
X98633827Y-52329286D02*
X98640466Y-52369069D01*
X102742998Y-41432572D02*
X102709041Y-41454452D01*
X100953356Y-22933937D02*
X100953180Y-22934123D01*
M02*
