G04 #@! TF.GenerationSoftware,KiCad,Pcbnew,(6.0.5)*
G04 #@! TF.CreationDate,2023-07-06T01:01:49+08:00*
G04 #@! TF.ProjectId,panel,70616e65-6c2e-46b6-9963-61645f706362,rev?*
G04 #@! TF.SameCoordinates,Original*
G04 #@! TF.FileFunction,Other,Comment*
%FSLAX46Y46*%
G04 Gerber Fmt 4.6, Leading zero omitted, Abs format (unit mm)*
G04 Created by KiCad (PCBNEW (6.0.5)) date 2023-07-06 01:01:49*
%MOMM*%
%LPD*%
G01*
G04 APERTURE LIST*
%ADD10C,0.125000*%
%ADD11C,0.150000*%
G04 APERTURE END LIST*
D10*
X103951397Y-59726190D02*
X104118064Y-60226190D01*
X104284730Y-59726190D01*
X104451397Y-60035714D02*
X104832349Y-60035714D01*
X105356159Y-60178571D02*
X105332349Y-60202380D01*
X105260921Y-60226190D01*
X105213302Y-60226190D01*
X105141873Y-60202380D01*
X105094254Y-60154761D01*
X105070445Y-60107142D01*
X105046635Y-60011904D01*
X105046635Y-59940476D01*
X105070445Y-59845238D01*
X105094254Y-59797619D01*
X105141873Y-59750000D01*
X105213302Y-59726190D01*
X105260921Y-59726190D01*
X105332349Y-59750000D01*
X105356159Y-59773809D01*
X105570445Y-59726190D02*
X105570445Y-60130952D01*
X105594254Y-60178571D01*
X105618064Y-60202380D01*
X105665683Y-60226190D01*
X105760921Y-60226190D01*
X105808540Y-60202380D01*
X105832349Y-60178571D01*
X105856159Y-60130952D01*
X105856159Y-59726190D01*
X106022826Y-59726190D02*
X106308540Y-59726190D01*
X106165683Y-60226190D02*
X106165683Y-59726190D01*
X103951397Y-39726190D02*
X104118064Y-40226190D01*
X104284730Y-39726190D01*
X104451397Y-40035714D02*
X104832349Y-40035714D01*
X105356159Y-40178571D02*
X105332349Y-40202380D01*
X105260921Y-40226190D01*
X105213302Y-40226190D01*
X105141873Y-40202380D01*
X105094254Y-40154761D01*
X105070445Y-40107142D01*
X105046635Y-40011904D01*
X105046635Y-39940476D01*
X105070445Y-39845238D01*
X105094254Y-39797619D01*
X105141873Y-39750000D01*
X105213302Y-39726190D01*
X105260921Y-39726190D01*
X105332349Y-39750000D01*
X105356159Y-39773809D01*
X105570445Y-39726190D02*
X105570445Y-40130952D01*
X105594254Y-40178571D01*
X105618064Y-40202380D01*
X105665683Y-40226190D01*
X105760921Y-40226190D01*
X105808540Y-40202380D01*
X105832349Y-40178571D01*
X105856159Y-40130952D01*
X105856159Y-39726190D01*
X106022826Y-39726190D02*
X106308540Y-39726190D01*
X106165683Y-40226190D02*
X106165683Y-39726190D01*
X103951397Y-99726190D02*
X104118064Y-100226190D01*
X104284730Y-99726190D01*
X104451397Y-100035714D02*
X104832349Y-100035714D01*
X105356159Y-100178571D02*
X105332349Y-100202380D01*
X105260921Y-100226190D01*
X105213302Y-100226190D01*
X105141873Y-100202380D01*
X105094254Y-100154761D01*
X105070445Y-100107142D01*
X105046635Y-100011904D01*
X105046635Y-99940476D01*
X105070445Y-99845238D01*
X105094254Y-99797619D01*
X105141873Y-99750000D01*
X105213302Y-99726190D01*
X105260921Y-99726190D01*
X105332349Y-99750000D01*
X105356159Y-99773809D01*
X105570445Y-99726190D02*
X105570445Y-100130952D01*
X105594254Y-100178571D01*
X105618064Y-100202380D01*
X105665683Y-100226190D01*
X105760921Y-100226190D01*
X105808540Y-100202380D01*
X105832349Y-100178571D01*
X105856159Y-100130952D01*
X105856159Y-99726190D01*
X106022826Y-99726190D02*
X106308540Y-99726190D01*
X106165683Y-100226190D02*
X106165683Y-99726190D01*
X103951397Y-79726190D02*
X104118064Y-80226190D01*
X104284730Y-79726190D01*
X104451397Y-80035714D02*
X104832349Y-80035714D01*
X105356159Y-80178571D02*
X105332349Y-80202380D01*
X105260921Y-80226190D01*
X105213302Y-80226190D01*
X105141873Y-80202380D01*
X105094254Y-80154761D01*
X105070445Y-80107142D01*
X105046635Y-80011904D01*
X105046635Y-79940476D01*
X105070445Y-79845238D01*
X105094254Y-79797619D01*
X105141873Y-79750000D01*
X105213302Y-79726190D01*
X105260921Y-79726190D01*
X105332349Y-79750000D01*
X105356159Y-79773809D01*
X105570445Y-79726190D02*
X105570445Y-80130952D01*
X105594254Y-80178571D01*
X105618064Y-80202380D01*
X105665683Y-80226190D01*
X105760921Y-80226190D01*
X105808540Y-80202380D01*
X105832349Y-80178571D01*
X105856159Y-80130952D01*
X105856159Y-79726190D01*
X106022826Y-79726190D02*
X106308540Y-79726190D01*
X106165683Y-80226190D02*
X106165683Y-79726190D01*
D11*
X109090109Y-30039998D02*
G75*
G03*
X109090109Y-30039998I-1430140J0D01*
G01*
X195789969Y-90049995D02*
G75*
G03*
X195789969Y-90049995I-1450000J0D01*
G01*
X109090109Y-90039995D02*
G75*
G03*
X109090109Y-90039995I-1430140J0D01*
G01*
X109090109Y-70039996D02*
G75*
G03*
X109090109Y-70039996I-1430140J0D01*
G01*
X195789969Y-30049998D02*
G75*
G03*
X195789969Y-30049998I-1450000J0D01*
G01*
X109090109Y-110039994D02*
G75*
G03*
X109090109Y-110039994I-1430140J0D01*
G01*
X195789969Y-50049997D02*
G75*
G03*
X195789969Y-50049997I-1450000J0D01*
G01*
X195789969Y-70049996D02*
G75*
G03*
X195789969Y-70049996I-1450000J0D01*
G01*
X109090109Y-50039997D02*
G75*
G03*
X109090109Y-50039997I-1430140J0D01*
G01*
X195789969Y-110049994D02*
G75*
G03*
X195789969Y-110049994I-1450000J0D01*
G01*
M02*
