%FSLAX45Y45*%
G04 Gerber Fmt 4.5, Leading zero omitted, Abs format (unit mm)*
G04 Created by KiCad (PCBNEW (6.0.5)) date 2023-06-21 18:05:15*
%MOMM*%
%LPD*%
G01*
G04 APERTURE LIST*
%ADD10C,0.400000*%
%TA.AperFunction,Profile*%
%ADD11C,0.100000*%
%TD*%
%TA.AperFunction,Profile*%
%ADD12C,0.400000*%
%TD*%
%ADD13C,0.200000*%
%ADD14C,0.130000*%
G04 APERTURE END LIST*
D10*
X20492051Y-3889476D02*
X20558717Y-4089476D01*
X20625384Y-3889476D01*
X20692051Y-4013285D02*
X20844432Y-4013285D01*
X21053955Y-4070428D02*
X21044432Y-4079952D01*
X21015860Y-4089476D01*
X20996813Y-4089476D01*
X20968241Y-4079952D01*
X20949194Y-4060904D01*
X20939670Y-4041857D01*
X20930146Y-4003762D01*
X20930146Y-3975190D01*
X20939670Y-3937095D01*
X20949194Y-3918047D01*
X20968241Y-3899000D01*
X20996813Y-3889476D01*
X21015860Y-3889476D01*
X21044432Y-3899000D01*
X21053955Y-3908523D01*
X21139670Y-3889476D02*
X21139670Y-4051381D01*
X21149194Y-4070428D01*
X21158717Y-4079952D01*
X21177765Y-4089476D01*
X21215860Y-4089476D01*
X21234908Y-4079952D01*
X21244432Y-4070428D01*
X21253955Y-4051381D01*
X21253955Y-3889476D01*
X21320622Y-3889476D02*
X21434908Y-3889476D01*
X21377765Y-4089476D02*
X21377765Y-3889476D01*
X20492051Y-7889476D02*
X20558717Y-8089476D01*
X20625384Y-7889476D01*
X20692051Y-8013285D02*
X20844432Y-8013285D01*
X21053955Y-8070428D02*
X21044432Y-8079952D01*
X21015860Y-8089476D01*
X20996813Y-8089476D01*
X20968241Y-8079952D01*
X20949194Y-8060904D01*
X20939670Y-8041857D01*
X20930146Y-8003762D01*
X20930146Y-7975190D01*
X20939670Y-7937095D01*
X20949194Y-7918047D01*
X20968241Y-7899000D01*
X20996813Y-7889476D01*
X21015860Y-7889476D01*
X21044432Y-7899000D01*
X21053955Y-7908523D01*
X21139670Y-7889476D02*
X21139670Y-8051381D01*
X21149194Y-8070428D01*
X21158717Y-8079952D01*
X21177765Y-8089476D01*
X21215860Y-8089476D01*
X21234908Y-8079952D01*
X21244432Y-8070428D01*
X21253955Y-8051381D01*
X21253955Y-7889476D01*
X21320622Y-7889476D02*
X21434908Y-7889476D01*
X21377765Y-8089476D02*
X21377765Y-7889476D01*
X20492051Y-3890476D02*
X20558717Y-4090476D01*
X20625384Y-3890476D01*
X20692051Y-4014285D02*
X20844432Y-4014285D01*
X21053955Y-4071428D02*
X21044432Y-4080952D01*
X21015860Y-4090476D01*
X20996813Y-4090476D01*
X20968241Y-4080952D01*
X20949194Y-4061904D01*
X20939670Y-4042857D01*
X20930146Y-4004762D01*
X20930146Y-3976190D01*
X20939670Y-3938095D01*
X20949194Y-3919047D01*
X20968241Y-3900000D01*
X20996813Y-3890476D01*
X21015860Y-3890476D01*
X21044432Y-3900000D01*
X21053955Y-3909523D01*
X21139670Y-3890476D02*
X21139670Y-4052381D01*
X21149194Y-4071428D01*
X21158717Y-4080952D01*
X21177765Y-4090476D01*
X21215860Y-4090476D01*
X21234908Y-4080952D01*
X21244432Y-4071428D01*
X21253955Y-4052381D01*
X21253955Y-3890476D01*
X21320622Y-3890476D02*
X21434908Y-3890476D01*
X21377765Y-4090476D02*
X21377765Y-3890476D01*
X20492051Y-7890476D02*
X20558717Y-8090476D01*
X20625384Y-7890476D01*
X20692051Y-8014285D02*
X20844432Y-8014285D01*
X21053955Y-8071428D02*
X21044432Y-8080952D01*
X21015860Y-8090476D01*
X20996813Y-8090476D01*
X20968241Y-8080952D01*
X20949194Y-8061904D01*
X20939670Y-8042857D01*
X20930146Y-8004762D01*
X20930146Y-7976190D01*
X20939670Y-7938095D01*
X20949194Y-7919047D01*
X20968241Y-7900000D01*
X20996813Y-7890476D01*
X21015860Y-7890476D01*
X21044432Y-7900000D01*
X21053955Y-7909523D01*
X21139670Y-7890476D02*
X21139670Y-8052381D01*
X21149194Y-8071428D01*
X21158717Y-8080952D01*
X21177765Y-8090476D01*
X21215860Y-8090476D01*
X21234908Y-8080952D01*
X21244432Y-8071428D01*
X21253955Y-8052381D01*
X21253955Y-7890476D01*
X21320622Y-7890476D02*
X21434908Y-7890476D01*
X21377765Y-8090476D02*
X21377765Y-7890476D01*
X20492051Y-5889476D02*
X20558717Y-6089476D01*
X20625384Y-5889476D01*
X20692051Y-6013285D02*
X20844432Y-6013285D01*
X21053955Y-6070428D02*
X21044432Y-6079952D01*
X21015860Y-6089476D01*
X20996813Y-6089476D01*
X20968241Y-6079952D01*
X20949194Y-6060904D01*
X20939670Y-6041857D01*
X20930146Y-6003762D01*
X20930146Y-5975190D01*
X20939670Y-5937095D01*
X20949194Y-5918047D01*
X20968241Y-5899000D01*
X20996813Y-5889476D01*
X21015860Y-5889476D01*
X21044432Y-5899000D01*
X21053955Y-5908523D01*
X21139670Y-5889476D02*
X21139670Y-6051381D01*
X21149194Y-6070428D01*
X21158717Y-6079952D01*
X21177765Y-6089476D01*
X21215860Y-6089476D01*
X21234908Y-6079952D01*
X21244432Y-6070428D01*
X21253955Y-6051381D01*
X21253955Y-5889476D01*
X21320622Y-5889476D02*
X21434908Y-5889476D01*
X21377765Y-6089476D02*
X21377765Y-5889476D01*
X20492051Y-9889476D02*
X20558717Y-10089476D01*
X20625384Y-9889476D01*
X20692051Y-10013285D02*
X20844432Y-10013285D01*
X21053955Y-10070428D02*
X21044432Y-10079952D01*
X21015860Y-10089476D01*
X20996813Y-10089476D01*
X20968241Y-10079952D01*
X20949194Y-10060904D01*
X20939670Y-10041857D01*
X20930146Y-10003762D01*
X20930146Y-9975190D01*
X20939670Y-9937095D01*
X20949194Y-9918047D01*
X20968241Y-9899000D01*
X20996813Y-9889476D01*
X21015860Y-9889476D01*
X21044432Y-9899000D01*
X21053955Y-9908524D01*
X21139670Y-9889476D02*
X21139670Y-10051381D01*
X21149194Y-10070428D01*
X21158717Y-10079952D01*
X21177765Y-10089476D01*
X21215860Y-10089476D01*
X21234908Y-10079952D01*
X21244432Y-10070428D01*
X21253955Y-10051381D01*
X21253955Y-9889476D01*
X21320622Y-9889476D02*
X21434908Y-9889476D01*
X21377765Y-10089476D02*
X21377765Y-9889476D01*
X20492051Y-9890476D02*
X20558717Y-10090476D01*
X20625384Y-9890476D01*
X20692051Y-10014285D02*
X20844432Y-10014285D01*
X21053955Y-10071428D02*
X21044432Y-10080952D01*
X21015860Y-10090476D01*
X20996813Y-10090476D01*
X20968241Y-10080952D01*
X20949194Y-10061904D01*
X20939670Y-10042857D01*
X20930146Y-10004762D01*
X20930146Y-9976190D01*
X20939670Y-9938095D01*
X20949194Y-9919047D01*
X20968241Y-9900000D01*
X20996813Y-9890476D01*
X21015860Y-9890476D01*
X21044432Y-9900000D01*
X21053955Y-9909524D01*
X21139670Y-9890476D02*
X21139670Y-10052381D01*
X21149194Y-10071428D01*
X21158717Y-10080952D01*
X21177765Y-10090476D01*
X21215860Y-10090476D01*
X21234908Y-10080952D01*
X21244432Y-10071428D01*
X21253955Y-10052381D01*
X21253955Y-9890476D01*
X21320622Y-9890476D02*
X21434908Y-9890476D01*
X21377765Y-10090476D02*
X21377765Y-9890476D01*
X20492051Y-5890476D02*
X20558717Y-6090476D01*
X20625384Y-5890476D01*
X20692051Y-6014285D02*
X20844432Y-6014285D01*
X21053955Y-6071428D02*
X21044432Y-6080952D01*
X21015860Y-6090476D01*
X20996813Y-6090476D01*
X20968241Y-6080952D01*
X20949194Y-6061904D01*
X20939670Y-6042857D01*
X20930146Y-6004762D01*
X20930146Y-5976190D01*
X20939670Y-5938095D01*
X20949194Y-5919047D01*
X20968241Y-5900000D01*
X20996813Y-5890476D01*
X21015860Y-5890476D01*
X21044432Y-5900000D01*
X21053955Y-5909523D01*
X21139670Y-5890476D02*
X21139670Y-6052381D01*
X21149194Y-6071428D01*
X21158717Y-6080952D01*
X21177765Y-6090476D01*
X21215860Y-6090476D01*
X21234908Y-6080952D01*
X21244432Y-6071428D01*
X21253955Y-6052381D01*
X21253955Y-5890476D01*
X21320622Y-5890476D02*
X21434908Y-5890476D01*
X21377765Y-6090476D02*
X21377765Y-5890476D01*
D11*
X9983217Y-8443160D02*
X9983204Y-8443181D01*
X19501834Y-5800047D02*
X19501854Y-5800031D01*
X10182305Y-11789127D02*
X10185414Y-11791695D01*
X19607407Y-7701423D02*
X19607424Y-7701404D01*
X10425950Y-11934278D02*
X10425974Y-11934287D01*
X9889559Y-6657218D02*
X9888433Y-6661098D01*
X9896673Y-7369115D02*
X9896680Y-7369139D01*
X19823364Y-7291350D02*
X19832094Y-7249493D01*
X19693918Y-3590816D02*
X19693931Y-3590795D01*
X10514435Y-11964665D02*
X10555737Y-11975494D01*
X19370098Y-3899476D02*
X19375184Y-3893463D01*
X19518348Y-8211450D02*
X19515237Y-8208874D01*
X19478335Y-10180012D02*
X19478315Y-10179997D01*
X10084250Y-9694598D02*
X10084267Y-9694617D01*
X10362149Y-5981392D02*
X10362866Y-5989238D01*
X19666980Y-11629144D02*
X19666995Y-11629123D01*
X19836152Y-2764932D02*
X19836147Y-2764907D01*
X9860062Y-2798648D02*
X9855652Y-2841178D01*
X19373420Y-6102739D02*
X19368436Y-6096640D01*
X19750207Y-10502629D02*
X19748378Y-10499027D01*
X19811567Y-3336688D02*
X19822426Y-3295332D01*
X10032999Y-10368687D02*
X10008336Y-10403615D01*
X9902525Y-10616446D02*
X9889566Y-10657193D01*
X19675085Y-4379222D02*
X19649239Y-4345159D01*
X19703760Y-6421321D02*
X19703747Y-6421299D01*
X9867171Y-2752317D02*
X9867167Y-2752343D01*
X9960141Y-4483959D02*
X9958251Y-4487529D01*
X19356711Y-5918923D02*
X19360851Y-5912222D01*
X19572029Y-5738034D02*
X19572048Y-5738016D01*
X9876630Y-10706460D02*
X9867900Y-10748318D01*
X19832822Y-7245493D02*
X19832827Y-7245468D01*
D12*
X9552997Y-4000000D02*
X20147003Y-4000000D01*
D11*
X19847003Y-8861729D02*
X19847003Y-8861707D01*
X10338766Y-3915058D02*
X10342798Y-3921828D01*
X19335031Y-10001708D02*
X19335098Y-9993832D01*
X10116303Y-11728672D02*
X10116321Y-11728690D01*
X19762516Y-9468263D02*
X19779569Y-9429052D01*
X19832822Y-3245494D02*
X19832827Y-3245468D01*
X19619130Y-2309268D02*
X19619114Y-2309249D01*
X19616415Y-8306208D02*
X19587226Y-8274963D01*
X19728017Y-6461370D02*
X19726006Y-6457867D01*
X10559688Y-11976423D02*
X10559713Y-11976429D01*
X19346351Y-9940137D02*
X19349453Y-9932897D01*
X19846967Y-6860022D02*
X19846965Y-6859979D01*
X19638134Y-11666025D02*
X19664551Y-11632404D01*
X19739841Y-3513874D02*
X19739853Y-3513852D01*
X19832094Y-9249493D02*
X19832099Y-9249468D01*
X10314393Y-2118975D02*
X10314370Y-2118987D01*
X10341531Y-10079936D02*
X10337391Y-10086640D01*
X10289044Y-9865295D02*
X10295612Y-9869670D01*
X19839929Y-7199188D02*
X19839932Y-7199163D01*
X9939193Y-6525862D02*
X9937488Y-6529524D01*
X9883260Y-5324298D02*
X9883266Y-5324323D01*
X9856963Y-7186564D02*
X9856965Y-7186590D01*
X9852997Y-9140247D02*
X9853036Y-9141976D01*
X19693918Y-7590816D02*
X19693931Y-7590794D01*
X19768616Y-4541279D02*
X19768605Y-4541256D01*
X19803743Y-2632445D02*
X19802485Y-2628606D01*
X9889559Y-10657218D02*
X9888433Y-10661097D01*
X19392138Y-3877032D02*
X19398308Y-3872137D01*
X10260612Y-9847358D02*
X10289044Y-9865295D01*
X19392138Y-5877032D02*
X19398308Y-5872137D01*
X10257235Y-3845105D02*
X10260590Y-3847344D01*
X9930278Y-7456428D02*
X9931925Y-7460110D01*
X9853154Y-3143768D02*
X9856963Y-3186564D01*
X19836152Y-4764932D02*
X19836147Y-4764907D01*
X10116321Y-9728691D02*
X10147061Y-9758325D01*
X19338654Y-6032954D02*
X19337169Y-6025220D01*
X10345334Y-10073035D02*
X10341531Y-10079936D01*
X19823358Y-3291375D02*
X19823364Y-3291350D01*
X19649224Y-10345139D02*
X19646700Y-10341984D01*
X19619130Y-10309268D02*
X19619114Y-10309248D01*
X19822426Y-11295332D02*
X19822432Y-11295307D01*
X9853036Y-5141976D02*
X9853037Y-5142020D01*
X19846889Y-5109869D02*
X19846997Y-5105751D01*
X19344341Y-11901025D02*
X19344364Y-11901014D01*
X19443365Y-6155319D02*
X19440006Y-6153074D01*
X19402508Y-8129142D02*
X19396181Y-8124451D01*
X19518368Y-4211467D02*
X19518348Y-4211450D01*
X10441302Y-2058876D02*
X10441278Y-2058885D01*
X9883266Y-5324323D02*
X9884332Y-5328212D01*
X10235523Y-2169545D02*
X10232243Y-2171903D01*
X19836147Y-10764906D02*
X19828124Y-10722907D01*
X9931936Y-9460133D02*
X9950363Y-9498650D01*
X19768605Y-4541256D02*
X19750219Y-4502652D01*
X19345378Y-10055585D02*
X19342764Y-10048156D01*
X9853105Y-6887941D02*
X9852997Y-6892061D01*
X19550614Y-6239585D02*
X19550595Y-6239568D01*
X19649239Y-8345159D02*
X19649224Y-8345139D01*
X10235523Y-8169544D02*
X10232243Y-8171903D01*
X10257214Y-3845091D02*
X10257235Y-3845105D01*
X9888433Y-6661098D02*
X9888426Y-6661122D01*
X19337169Y-6025220D02*
X19336068Y-6017421D01*
X19337631Y-7970360D02*
X19339247Y-7962651D01*
X19779579Y-3429029D02*
X19781094Y-3425284D01*
X19478315Y-2179997D02*
X19443386Y-2155334D01*
X10113454Y-3725782D02*
X10113472Y-3725800D01*
X19380562Y-9887708D02*
X19386217Y-9882227D01*
X19827260Y-8718935D02*
X19827254Y-8718910D01*
X19425672Y-9854567D02*
X19425694Y-9854554D01*
X19336068Y-6017421D02*
X19335355Y-6009577D01*
X19378700Y-10108583D02*
X19373420Y-10102739D01*
X9853106Y-10887915D02*
X9853105Y-10887941D01*
X9876630Y-8706460D02*
X9867900Y-8748318D01*
X19741755Y-11510259D02*
X19760789Y-11471971D01*
X19828119Y-8722882D02*
X19827260Y-8718935D01*
X19481575Y-4182426D02*
X19478335Y-4180012D01*
X9852997Y-4892061D02*
X9852997Y-4892087D01*
X19811560Y-5336713D02*
X19811567Y-5336688D01*
X10363130Y-10004990D02*
X10362677Y-10012856D01*
X19844660Y-7152554D02*
X19846888Y-7109895D01*
X19429111Y-11852351D02*
X19464450Y-11828281D01*
X10306096Y-10121848D02*
X10299923Y-10126745D01*
X19770269Y-4544993D02*
X19770259Y-4544969D01*
X10289044Y-3865296D02*
X10295612Y-3869670D01*
X19842680Y-2811322D02*
X19842677Y-2811297D01*
X19677459Y-8382521D02*
X19675100Y-8379242D01*
X19844660Y-9152554D02*
X19846888Y-9109895D01*
X10008321Y-10403636D02*
X10006076Y-10406995D01*
X19797468Y-5381364D02*
X19810427Y-5340617D01*
X19584358Y-6272046D02*
X19553609Y-6242334D01*
X19803751Y-8632469D02*
X19803743Y-8632445D01*
X10441278Y-2058885D02*
X10437509Y-2060337D01*
D12*
X9552997Y-6000000D02*
X20147003Y-6000000D01*
D11*
X10092569Y-8296407D02*
X10064468Y-8328634D01*
X10113472Y-5725800D02*
X10116303Y-5728673D01*
X9884332Y-11328212D02*
X9884339Y-11328237D01*
X10338766Y-9915058D02*
X10342798Y-9921828D01*
X19604658Y-3704417D02*
X19604676Y-3704399D01*
X10299923Y-4126746D02*
X10293516Y-4131331D01*
X19797468Y-7381364D02*
X19810427Y-7340617D01*
X10358991Y-8036185D02*
X10356998Y-8043808D01*
X19779579Y-5429029D02*
X19781094Y-5425284D01*
X10286879Y-8135600D02*
X10274322Y-8143243D01*
X19425694Y-11854553D02*
X19429090Y-11852365D01*
X9860062Y-8798648D02*
X9855652Y-8841178D01*
X19515237Y-2208874D02*
X19515217Y-2208858D01*
X9981121Y-8446672D02*
X9960153Y-8483937D01*
X19335098Y-5993832D02*
X19335554Y-5985969D01*
X10064468Y-4328634D02*
X10064452Y-4328654D01*
X10125048Y-6262645D02*
X10095336Y-6293393D01*
X9974615Y-3543331D02*
X9974628Y-3543353D01*
X9888433Y-10661097D02*
X9888426Y-10661122D01*
X10035427Y-8365427D02*
X10033014Y-8368666D01*
X9974615Y-9543331D02*
X9974628Y-9543353D01*
X19822426Y-3295332D02*
X19822432Y-3295307D01*
X19750207Y-6502629D02*
X19748378Y-6499028D01*
X10081553Y-9691565D02*
X10081569Y-9691585D01*
X10116303Y-3728673D02*
X10116321Y-3728691D01*
X19802477Y-10628581D02*
X19788129Y-10588302D01*
X19339247Y-3962651D02*
X19341242Y-3955032D01*
X19811560Y-3336713D02*
X19811567Y-3336688D01*
X19336399Y-7978139D02*
X19337631Y-7970360D01*
X10299923Y-6126745D02*
X10293516Y-6131331D01*
X19464471Y-3828266D02*
X19467751Y-3825908D01*
X19386217Y-7882227D02*
X19392138Y-7877032D01*
X9853036Y-9141976D02*
X9853037Y-9142020D01*
X10270883Y-8145459D02*
X10235544Y-8169530D01*
X9853105Y-4887941D02*
X9852997Y-4892061D01*
X19796129Y-9385229D02*
X19796138Y-9385205D01*
X10342798Y-9921828D02*
X10346489Y-9928789D01*
X10313877Y-9884644D02*
X10319446Y-9890218D01*
X10348790Y-4065954D02*
X10345334Y-4073035D01*
X19816021Y-6673429D02*
X19803751Y-6632469D01*
X9867895Y-4748343D02*
X9867171Y-4752317D01*
X10232243Y-2171903D02*
X10232223Y-2171919D01*
X10317676Y-4111167D02*
X10312018Y-4116651D01*
X10084267Y-3694617D02*
X10113454Y-3725782D01*
X19842677Y-10811297D02*
X19836812Y-10768943D01*
X19762506Y-9468286D02*
X19762516Y-9468263D01*
X19467751Y-7825908D02*
X19467771Y-7825892D01*
X10092586Y-2296388D02*
X10092569Y-2296407D01*
X10621916Y-2010196D02*
X10617930Y-2010852D01*
X19786667Y-6584509D02*
X19786658Y-6584485D01*
X9983204Y-2443182D02*
X9981133Y-2446650D01*
X10465957Y-11949271D02*
X10465981Y-11949280D01*
X9856963Y-11186564D02*
X9856965Y-11186589D01*
X19836147Y-2764907D02*
X19828124Y-2722908D01*
X9920425Y-2568759D02*
X9920415Y-2568782D01*
X10095318Y-2293412D02*
X10092586Y-2296388D01*
X19760801Y-11471948D02*
X19762506Y-11468286D01*
X10092586Y-8296388D02*
X10092569Y-8296407D01*
X9857425Y-11190596D02*
X9857428Y-11190622D01*
X10035443Y-4365407D02*
X10035427Y-4365427D01*
X9981133Y-8446650D02*
X9981121Y-8446672D01*
X19440006Y-4153075D02*
X19439985Y-4153061D01*
X19844658Y-11152580D02*
X19844660Y-11152554D01*
X9897952Y-3372994D02*
X9912356Y-3413189D01*
X10198140Y-10197780D02*
X10194985Y-10200303D01*
X19234394Y-2050856D02*
X19230577Y-2049533D01*
X9884339Y-7328237D02*
X9896673Y-7369115D01*
X10222312Y-11820494D02*
X10257214Y-11845091D01*
X10222292Y-5820480D02*
X10222312Y-5820495D01*
X19839406Y-7203219D02*
X19839409Y-7203194D01*
X19505008Y-7797508D02*
X19505028Y-7797491D01*
X9852997Y-11140246D02*
X9853036Y-11141975D01*
X19587226Y-8274963D02*
X19587208Y-8274944D01*
X19550614Y-4239585D02*
X19550595Y-4239568D01*
X9877567Y-8702478D02*
X9877561Y-8702503D01*
X19760801Y-3471948D02*
X19762506Y-3468286D01*
X19846888Y-9109895D02*
X19846889Y-9109869D01*
X9950374Y-11498673D02*
X9952207Y-11502265D01*
X19587226Y-6274963D02*
X19587208Y-6274944D01*
X19505028Y-3797491D02*
X19537725Y-3769938D01*
X19728017Y-2461370D02*
X19726006Y-2457867D01*
X19355379Y-4076971D02*
X19351693Y-4070011D01*
X19398308Y-9872137D02*
X19404713Y-9867554D01*
X19574946Y-7735165D02*
X19604658Y-7704417D01*
X19811560Y-11336713D02*
X19811567Y-11336688D01*
X10306096Y-6121848D02*
X10299923Y-6126745D01*
X19750219Y-6502652D02*
X19750207Y-6502629D01*
X9855334Y-10845256D02*
X9853106Y-10887915D01*
X9888426Y-6661122D02*
X9877567Y-6702478D01*
X10341531Y-8079936D02*
X10337391Y-8086640D01*
X19321160Y-2086203D02*
X19321137Y-2086192D01*
X19375184Y-5893463D02*
X19380562Y-5887708D01*
X9950374Y-9498673D02*
X9952207Y-9502266D01*
X19822426Y-5295332D02*
X19822432Y-5295307D01*
X19810427Y-11340617D02*
X19810435Y-11340592D01*
X10159228Y-8230571D02*
X10159209Y-8230588D01*
X10260612Y-3847358D02*
X10289044Y-3865296D01*
X9852997Y-2892087D02*
X9852997Y-3140225D01*
X10308039Y-3879353D02*
X10313877Y-3884645D01*
X9937477Y-6529548D02*
X9920425Y-6568758D01*
X10711274Y-2000150D02*
X10668360Y-2003869D01*
X19844344Y-7156607D02*
X19844658Y-7152580D01*
X9937477Y-8529548D02*
X9920425Y-8568758D01*
X19797460Y-7381388D02*
X19797468Y-7381364D01*
X19439985Y-4153061D02*
X19409070Y-4133520D01*
X9950374Y-5498673D02*
X9952207Y-5502266D01*
X19832094Y-5249493D02*
X19832099Y-5249468D01*
X10064452Y-2328654D02*
X10061876Y-2331765D01*
X19505028Y-9797491D02*
X19537725Y-9769938D01*
X19584358Y-8272046D02*
X19553609Y-8242334D01*
X10008336Y-2403616D02*
X10008321Y-2403637D01*
X10232243Y-8171903D02*
X10232223Y-8171918D01*
X19478315Y-8179997D02*
X19443386Y-8155334D01*
X19317475Y-2084487D02*
X19317452Y-2084476D01*
X10647749Y-11992431D02*
X10651749Y-11992948D01*
X19748366Y-4499005D02*
X19728030Y-4461392D01*
X19718873Y-3551138D02*
X19739841Y-3513874D01*
X10198160Y-8197764D02*
X10198140Y-8197780D01*
X19839406Y-9203219D02*
X19839409Y-9203194D01*
X19214550Y-11954549D02*
X19218389Y-11953292D01*
X10317676Y-6111167D02*
X10312018Y-6116651D01*
X19619114Y-8309248D02*
X19616432Y-8306227D01*
X19796129Y-11385229D02*
X19796138Y-11385205D01*
X10092586Y-6296388D02*
X10092569Y-6296407D01*
X19750207Y-4502629D02*
X19748378Y-4499028D01*
X9864051Y-3236932D02*
X9872152Y-3278855D01*
X9867900Y-2748318D02*
X9867895Y-2748343D01*
X19373420Y-10102739D02*
X19368436Y-10096640D01*
X19439985Y-8153060D02*
X19409070Y-8133520D01*
X19666980Y-7629144D02*
X19666995Y-7629124D01*
X9867167Y-10752342D02*
X9860588Y-10794591D01*
X9876636Y-8706435D02*
X9876630Y-8706460D01*
X19140563Y-2023636D02*
X19140538Y-2023631D01*
X9860062Y-10798648D02*
X9855652Y-10841178D01*
X9972588Y-5539815D02*
X9972601Y-5539837D01*
X19335355Y-6009577D02*
X19335031Y-6001708D01*
X9856965Y-5186590D02*
X9857425Y-5190597D01*
X9853105Y-2887941D02*
X9852997Y-2892061D01*
X9860065Y-8798623D02*
X9860062Y-8798648D01*
X10051439Y-5655765D02*
X10051455Y-5655785D01*
X19365317Y-3905735D02*
X19370098Y-3899476D01*
X19675085Y-6379221D02*
X19649239Y-6345159D01*
X10008321Y-6403636D02*
X10006076Y-6406995D01*
X10182285Y-5789110D02*
X10182305Y-5789127D01*
X9883266Y-7324322D02*
X9884332Y-7328212D01*
X19802485Y-6628606D02*
X19802477Y-6628582D01*
X19847003Y-6861729D02*
X19847003Y-6861707D01*
X19846967Y-2860023D02*
X19846965Y-2859979D01*
X9939204Y-8525839D02*
X9939193Y-8525862D01*
X19409070Y-10133520D02*
X19402508Y-10129142D01*
X19677459Y-6382521D02*
X19675100Y-6379242D01*
X9981133Y-2446650D02*
X9981121Y-2446673D01*
X9931936Y-7460133D02*
X9950363Y-7498650D01*
X10341531Y-6079936D02*
X10337391Y-6086640D01*
X19338654Y-10032954D02*
X19337169Y-10025220D01*
X19515217Y-10208858D02*
X19481595Y-10182441D01*
X19389126Y-11876812D02*
X19389148Y-11876799D01*
X9930268Y-9456405D02*
X9930278Y-9456428D01*
X10232223Y-4171918D02*
X10198160Y-4197764D01*
X9864047Y-9236907D02*
X9864051Y-9236932D01*
X19464450Y-3828281D02*
X19464471Y-3828266D01*
X19478335Y-8180012D02*
X19478315Y-8179997D01*
X19336068Y-10017421D02*
X19335355Y-10009577D01*
X9902533Y-6616422D02*
X9902525Y-6616447D01*
X10198160Y-6197764D02*
X10198140Y-6197780D01*
X10092569Y-4296407D02*
X10064468Y-4328634D01*
X9853106Y-2887915D02*
X9853105Y-2887941D01*
X9863383Y-5232929D02*
X9864047Y-5236907D01*
X19839929Y-11199188D02*
X19839932Y-11199162D01*
X19429111Y-9852351D02*
X19464450Y-9828281D01*
X9884339Y-3328237D02*
X9896673Y-3369115D01*
X19666995Y-7629124D02*
X19691658Y-7594195D01*
X10300210Y-11872218D02*
X10300233Y-11872230D01*
X10219055Y-3818073D02*
X10222292Y-3820480D01*
X9852997Y-3140225D02*
X9852997Y-3140247D01*
X10270904Y-6145445D02*
X10270883Y-6145459D01*
X19693931Y-11590794D02*
X19716777Y-11554651D01*
X10127964Y-8259777D02*
X10127946Y-8259795D01*
X19386217Y-9882227D02*
X19392138Y-9877032D01*
X19635542Y-11669157D02*
X19638118Y-11666045D01*
X10349831Y-5935924D02*
X10352816Y-5943216D01*
X10061859Y-2331785D02*
X10035443Y-2365407D01*
X19725993Y-10457844D02*
X19703760Y-10421321D01*
X19587208Y-4274945D02*
X19584376Y-4272064D01*
X19836147Y-6764906D02*
X19828124Y-6722907D01*
X9913822Y-7416974D02*
X9913831Y-7416997D01*
X19375184Y-7893462D02*
X19380562Y-7887708D01*
X19844342Y-3156633D02*
X19844344Y-3156607D01*
X19584376Y-4272064D02*
X19584358Y-4272046D01*
X10194966Y-10200319D02*
X10162269Y-10227873D01*
X9877567Y-4702479D02*
X9877561Y-4702503D01*
X10125066Y-8262627D02*
X10125048Y-8262645D01*
X9853105Y-8887941D02*
X9852997Y-8892061D01*
X19718860Y-11551160D02*
X19718873Y-11551138D01*
X19844658Y-5152580D02*
X19844660Y-5152554D01*
X10061859Y-8331785D02*
X10035443Y-8365407D01*
X10162269Y-2227873D02*
X10162250Y-2227890D01*
X9852997Y-8892087D02*
X9852997Y-9140224D01*
X10116303Y-9728673D02*
X10116321Y-9728691D01*
X9867167Y-4752342D02*
X9860588Y-4794591D01*
X19515237Y-6208874D02*
X19515217Y-6208858D01*
X19425694Y-5854554D02*
X19429090Y-5852366D01*
X19691658Y-5594195D02*
X19691673Y-5594174D01*
X9958251Y-6487529D02*
X9958239Y-6487552D01*
X19340521Y-6040606D02*
X19338654Y-6032954D01*
X19467771Y-11825892D02*
X19501834Y-11800046D01*
X10329722Y-3902159D02*
X10334404Y-3908497D01*
X19846854Y-2858276D02*
X19843134Y-2815362D01*
X19779569Y-7429052D02*
X19779579Y-7429029D01*
X19703747Y-8421299D02*
X19701559Y-8417903D01*
X19844658Y-9152580D02*
X19844660Y-9152554D01*
X19839929Y-9199188D02*
X19839932Y-9199163D01*
X9999089Y-7583199D02*
X9999103Y-7583221D01*
X19846997Y-7105724D02*
X19847003Y-6861729D01*
X9903856Y-6612605D02*
X9902533Y-6616422D01*
X19810435Y-5340593D02*
X19811560Y-5336713D01*
X19348357Y-8062876D02*
X19345378Y-8055585D01*
X10257235Y-5845105D02*
X10260590Y-5847344D01*
X19607407Y-5701423D02*
X19607424Y-5701404D01*
X9913831Y-3416997D02*
X9930268Y-3456405D01*
X10319446Y-9890218D02*
X10324732Y-9896061D01*
X19351693Y-6070011D02*
X19348357Y-6062876D01*
X19515217Y-2208858D02*
X19481595Y-2182441D01*
X10711295Y-2000148D02*
X10711274Y-2000150D01*
X19411347Y-7863287D02*
X19425672Y-7854567D01*
X10150054Y-3761067D02*
X10150073Y-3761084D01*
X10061876Y-4331765D02*
X10061859Y-4331785D01*
X10198160Y-4197764D02*
X10198140Y-4197780D01*
X19638118Y-5666046D02*
X19638134Y-5666026D01*
X19828124Y-2722908D02*
X19828119Y-2722883D01*
X9903865Y-10612581D02*
X9903856Y-10612605D01*
X10051455Y-9655785D02*
X10053978Y-9658932D01*
X10162269Y-8227873D02*
X10162250Y-8227889D01*
X19844344Y-3156607D02*
X19844658Y-3152580D01*
X10162269Y-4227873D02*
X10162250Y-4227890D01*
X19464450Y-7828281D02*
X19464471Y-7828266D01*
X10147061Y-11758325D02*
X10147080Y-11758342D01*
X9972601Y-7539837D02*
X9974615Y-7543331D01*
X19803751Y-4632469D02*
X19803743Y-4632445D01*
X10514411Y-11964659D02*
X10514435Y-11964665D01*
X19505008Y-5797508D02*
X19505028Y-5797491D01*
X19716777Y-5554651D02*
X19716790Y-5554629D01*
X9877561Y-6702503D02*
X9876636Y-6706435D01*
X19843134Y-10815362D02*
X19843132Y-10815337D01*
X10150054Y-5761067D02*
X10150073Y-5761084D01*
X19346351Y-7940137D02*
X19349453Y-7932897D01*
X10147080Y-7758342D02*
X10150054Y-7761067D01*
X9857428Y-11190622D02*
X9863379Y-11232903D01*
X10023207Y-3618496D02*
X10025567Y-3621767D01*
X19827260Y-6718935D02*
X19827254Y-6718910D01*
X10260612Y-11847357D02*
X10296724Y-11870140D01*
X10150073Y-3761084D02*
X10182285Y-3789110D01*
X10150054Y-11761066D02*
X10150073Y-11761083D01*
X19607424Y-11701403D02*
X19635525Y-11669176D01*
X19846888Y-11109895D02*
X19846889Y-11109869D01*
X10053995Y-9658951D02*
X10081553Y-9691565D01*
X9897944Y-7372969D02*
X9897952Y-7372994D01*
X9902525Y-2616447D02*
X9889566Y-2657194D01*
X10328142Y-10099393D02*
X10323055Y-10105409D01*
X19035699Y-11993484D02*
X19078053Y-11987618D01*
X19574928Y-9735184D02*
X19574946Y-9735165D01*
X9856965Y-9186590D02*
X9857425Y-9190597D01*
X9860065Y-6798623D02*
X9860062Y-6798648D01*
X19607407Y-9701423D02*
X19607424Y-9701404D01*
X19360851Y-7912222D02*
X19365317Y-7905735D01*
X9857428Y-3190622D02*
X9863379Y-3232903D01*
X19429111Y-3852352D02*
X19464450Y-3828281D01*
X10162250Y-2227890D02*
X10159228Y-2230571D01*
X19396181Y-6124451D02*
X19390094Y-6119453D01*
X19518368Y-2211467D02*
X19518348Y-2211450D01*
X19827254Y-2718911D02*
X19817094Y-2677377D01*
X19726006Y-8457867D02*
X19725993Y-8457845D01*
X19425672Y-11854567D02*
X19425694Y-11854553D01*
X19604676Y-11704398D02*
X19607407Y-11701422D01*
X9857425Y-3190597D02*
X9857428Y-3190622D01*
X9920415Y-8568782D02*
X9918899Y-8572526D01*
X19846856Y-8858297D02*
X19846854Y-8858276D01*
X10324732Y-7896061D02*
X10329722Y-7902159D01*
X10219035Y-11818057D02*
X10219055Y-11818073D01*
X19572029Y-7738034D02*
X19572048Y-7738016D01*
X9876630Y-4706461D02*
X9867900Y-4748318D01*
X10092569Y-6296407D02*
X10064468Y-6328634D01*
X19396181Y-4124451D02*
X19390094Y-4119453D01*
X10235544Y-2169530D02*
X10235523Y-2169545D01*
X19788120Y-6588278D02*
X19786667Y-6584509D01*
X19619114Y-4309249D02*
X19616432Y-4306227D01*
X19607424Y-3701404D02*
X19635525Y-3669177D01*
X19635525Y-5669177D02*
X19635542Y-5669157D01*
X19817088Y-10677352D02*
X19816028Y-10673454D01*
X19817094Y-4677377D02*
X19817088Y-4677352D01*
X19440006Y-10153074D02*
X19439985Y-10153060D01*
X9912356Y-9413189D02*
X9912365Y-9413213D01*
X10351891Y-10058711D02*
X10348790Y-10065954D01*
X19649239Y-2345159D02*
X19649224Y-2345139D01*
X19817088Y-2677352D02*
X19816028Y-2673454D01*
X19572048Y-5738016D02*
X19574928Y-5735184D01*
X9996899Y-11579812D02*
X9999089Y-11583199D01*
X10198140Y-4197780D02*
X10194985Y-4200303D01*
X19425672Y-7854567D02*
X19425694Y-7854554D01*
X10356998Y-10043808D02*
X10354629Y-10051322D01*
X19478315Y-6179997D02*
X19443386Y-6155334D01*
X19816028Y-6673454D02*
X19816021Y-6673429D01*
X10323055Y-4105410D02*
X10317676Y-4111167D01*
X9896673Y-5369115D02*
X9896680Y-5369139D01*
X19810435Y-9340593D02*
X19811560Y-9336713D01*
X19703747Y-10421299D02*
X19701559Y-10417903D01*
X19760801Y-5471948D02*
X19762506Y-5468286D01*
X19832827Y-9245468D02*
X19839406Y-9203219D01*
X19810435Y-11340592D02*
X19811560Y-11336713D01*
X19760789Y-9471971D02*
X19760801Y-9471948D01*
X10714726Y-2000000D02*
X10714705Y-2000000D01*
X19440006Y-8153074D02*
X19439985Y-8153060D01*
X19802485Y-4628606D02*
X19802477Y-4628582D01*
X10150073Y-5761084D02*
X10182285Y-5789110D01*
X10033014Y-8368666D02*
X10032999Y-8368687D01*
X10061876Y-2331765D02*
X10061859Y-2331785D01*
X9855334Y-4845257D02*
X9853106Y-4887915D01*
X9939204Y-4525839D02*
X9939193Y-4525863D01*
X19836812Y-2768943D02*
X19836808Y-2768918D01*
X19768605Y-6541255D02*
X19750219Y-6502652D01*
X9872152Y-5278855D02*
X9872157Y-5278880D01*
X10064452Y-4328654D02*
X10061876Y-4331765D01*
X19587226Y-2274963D02*
X19587208Y-2274945D01*
X19822432Y-11295307D02*
X19823358Y-11291375D01*
X18986974Y-11997774D02*
X18987017Y-11997772D01*
X9863379Y-3232903D02*
X9863383Y-3232929D01*
X19716790Y-5554629D02*
X19718860Y-5551161D01*
X10232223Y-8171918D02*
X10198160Y-8197764D01*
X19360851Y-9912222D02*
X19365317Y-9905735D01*
X9853037Y-9142020D02*
X9853153Y-9143746D01*
X19402508Y-4129142D02*
X19396181Y-4124451D01*
X10147080Y-11758342D02*
X10150054Y-11761066D01*
X19425672Y-5854567D02*
X19425694Y-5854554D01*
X19844658Y-7152580D02*
X19844660Y-7152554D01*
X9896680Y-3369139D02*
X9897944Y-3372970D01*
X19839932Y-9199163D02*
X19844342Y-9156632D01*
X19574928Y-3735184D02*
X19574946Y-3735166D01*
X10422211Y-11932767D02*
X10425950Y-11934278D01*
X19515237Y-4208874D02*
X19515217Y-4208858D01*
X10301945Y-7874358D02*
X10308039Y-7879353D01*
X10125048Y-8262645D02*
X10095336Y-8293393D01*
X10051455Y-11655785D02*
X10053978Y-11658931D01*
X9876630Y-6706460D02*
X9867900Y-6748318D01*
X19404713Y-7867554D02*
X19411347Y-7863287D01*
X19762516Y-5468263D02*
X19779569Y-5429052D01*
X19739853Y-7513852D02*
X19741743Y-7510281D01*
X19770259Y-2544969D02*
X19768616Y-2541279D01*
X10095318Y-6293412D02*
X10092586Y-6296388D01*
X19638134Y-9666026D02*
X19664551Y-9632404D01*
X19796129Y-3385230D02*
X19796138Y-3385205D01*
X10481581Y-2044527D02*
X10441302Y-2058876D01*
X19464450Y-11828281D02*
X19464471Y-11828266D01*
X10081569Y-5691585D02*
X10084250Y-5694598D01*
X9920415Y-10568782D02*
X9918899Y-10572526D01*
X10397969Y-2076745D02*
X10394279Y-2078389D01*
X19842677Y-4811297D02*
X19836812Y-4768943D01*
X19781104Y-9425260D02*
X19796129Y-9385229D01*
X19839929Y-5199188D02*
X19839932Y-5199163D01*
X19403841Y-2130216D02*
X19403819Y-2130202D01*
X19666980Y-5629144D02*
X19666995Y-5629124D01*
X10150073Y-7761084D02*
X10182285Y-7789110D01*
X10127964Y-2259777D02*
X10127946Y-2259795D01*
X19335031Y-8001708D02*
X19335098Y-7993832D01*
X10006076Y-8406995D02*
X10006062Y-8407016D01*
X19839409Y-5203194D02*
X19839929Y-5199188D01*
X10051439Y-9655765D02*
X10051455Y-9655785D01*
X19797460Y-11381388D02*
X19797468Y-11381364D01*
X19843132Y-6815337D02*
X19842680Y-6811322D01*
X9876636Y-2706436D02*
X9876630Y-2706461D01*
X19836812Y-10768943D02*
X19836808Y-10768917D01*
X19836152Y-10764931D02*
X19836147Y-10764906D01*
X19464471Y-5828266D02*
X19467751Y-5825908D01*
X10361045Y-5973590D02*
X10362149Y-5981392D01*
X10337391Y-6086640D02*
X10332925Y-6093131D01*
X10361835Y-4020690D02*
X10360605Y-4028473D01*
X10194966Y-4200319D02*
X10162269Y-4227873D01*
X9867895Y-2748343D02*
X9867171Y-2752317D01*
X9860584Y-2794617D02*
X9860065Y-2798623D01*
X19363041Y-2107140D02*
X19359471Y-2105250D01*
X19392138Y-9877032D02*
X19398308Y-9872137D01*
X19768616Y-6541279D02*
X19768605Y-6541255D01*
X10053978Y-5658932D02*
X10053995Y-5658951D01*
X19750207Y-8502629D02*
X19748378Y-8499028D01*
X19646700Y-6341984D02*
X19646684Y-6341964D01*
X10526453Y-2030977D02*
X10526428Y-2030984D01*
X10185434Y-3791712D02*
X10219035Y-3818058D01*
X9913822Y-9416974D02*
X9913831Y-9416997D01*
X9852997Y-5140225D02*
X9852997Y-5140247D01*
X19501834Y-7800047D02*
X19501854Y-7800031D01*
X19005793Y-2002652D02*
X19001766Y-2002338D01*
X10713020Y-2000037D02*
X10712977Y-2000039D01*
X10032999Y-8368687D02*
X10008336Y-8403615D01*
X9958239Y-8487552D02*
X9939204Y-8525839D01*
X10023207Y-5618496D02*
X10025567Y-5621767D01*
X10289044Y-5865295D02*
X10295612Y-5869670D01*
X10306096Y-4121848D02*
X10299923Y-4126746D01*
X9974615Y-7543331D02*
X9974628Y-7543353D01*
X10023192Y-9618475D02*
X10023207Y-9618496D01*
X9974628Y-3543353D02*
X9996886Y-3579791D01*
X19540765Y-3767240D02*
X19540784Y-3767223D01*
X10363194Y-5997111D02*
X10363130Y-6004990D01*
X10051439Y-7655765D02*
X10051455Y-7655785D01*
X9855649Y-8841203D02*
X9855336Y-8845231D01*
X18959081Y-2000109D02*
X18959055Y-2000108D01*
X10023207Y-9618496D02*
X10025567Y-9621766D01*
X19001740Y-2002336D02*
X18959081Y-2000109D01*
X9855336Y-6845231D02*
X9855334Y-6845256D01*
X19607424Y-5701404D02*
X19635525Y-5669177D01*
X9930268Y-3456405D02*
X9930278Y-3456428D01*
X10352816Y-5943216D02*
X10355435Y-5950647D01*
X9983204Y-4443182D02*
X9981133Y-4446650D01*
X9864051Y-11236932D02*
X9872152Y-11278854D01*
X9867171Y-10752317D02*
X9867167Y-10752342D01*
X9912365Y-7413213D02*
X9913822Y-7416974D01*
X19770259Y-8544969D02*
X19768616Y-8541279D01*
X9952219Y-5502288D02*
X9972588Y-5539815D01*
X19788120Y-10588278D02*
X19786667Y-10584509D01*
X19693931Y-5590795D02*
X19716777Y-5554651D01*
X9981133Y-4446650D02*
X9981121Y-4446672D01*
D12*
X9552997Y-3999000D02*
X20147003Y-3999000D01*
D11*
X10051455Y-7655785D02*
X10053978Y-7658932D01*
X19638134Y-3666026D02*
X19664551Y-3632404D01*
X19635542Y-7669157D02*
X19638118Y-7666045D01*
X19336399Y-3978139D02*
X19337631Y-3970360D01*
X19649224Y-8345139D02*
X19646700Y-8341984D01*
X9864047Y-3236907D02*
X9864051Y-3236932D01*
X10182305Y-5789127D02*
X10185414Y-5791696D01*
X19144520Y-2024568D02*
X19144495Y-2024562D01*
X10025567Y-9621766D02*
X10025582Y-9621787D01*
X19638118Y-11666045D02*
X19638134Y-11666025D01*
X19847003Y-10861729D02*
X19847003Y-10861707D01*
X19846889Y-9109869D02*
X19846997Y-9105751D01*
X9974615Y-11543331D02*
X9974628Y-11543353D01*
X19832822Y-9245493D02*
X19832827Y-9245468D01*
X19726006Y-6457867D02*
X19725993Y-6457845D01*
X9897952Y-5372994D02*
X9912356Y-5413189D01*
X10319446Y-5890218D02*
X10324732Y-5896061D01*
X10664295Y-2004327D02*
X10621941Y-2010192D01*
X10095318Y-4293412D02*
X10092586Y-4296388D01*
X19823358Y-9291375D02*
X19823364Y-9291350D01*
X9853153Y-11143745D02*
X9853154Y-11143768D01*
X10328142Y-4099393D02*
X10323055Y-4105410D01*
X9999103Y-9583221D02*
X10023192Y-9618475D01*
X9999103Y-11583221D02*
X10023192Y-11618474D01*
X9883260Y-7324298D02*
X9883266Y-7324322D01*
X10222312Y-5820495D02*
X10257214Y-5845091D01*
X19345378Y-8055585D02*
X19342764Y-8048156D01*
X10185414Y-11791695D02*
X10185434Y-11791711D01*
X10360605Y-10028473D02*
X10358991Y-10036185D01*
X19748366Y-6499005D02*
X19728030Y-6461392D01*
X10337391Y-4086640D02*
X10332925Y-4093131D01*
X19786658Y-8584485D02*
X19770269Y-8544992D01*
X10293516Y-8131331D02*
X10286879Y-8135600D01*
X19677474Y-8382542D02*
X19677459Y-8382521D01*
X10355435Y-7950647D02*
X10357684Y-7958199D01*
X19760789Y-11471971D02*
X19760801Y-11471948D01*
X9873029Y-9282843D02*
X9883260Y-9324298D01*
X10571909Y-2019750D02*
X10530376Y-2029910D01*
X19802477Y-8628582D02*
X19788129Y-8588302D01*
X10150054Y-9761067D02*
X10150073Y-9761084D01*
X19467771Y-3825893D02*
X19501834Y-3800047D01*
X10219035Y-7818057D02*
X10219055Y-7818073D01*
X10092569Y-2296407D02*
X10064468Y-2328634D01*
X19338654Y-8032954D02*
X19337169Y-8025220D01*
X10051455Y-3655786D02*
X10053978Y-3658932D01*
X9896673Y-3369115D02*
X9896680Y-3369139D01*
X19816021Y-8673429D02*
X19803751Y-8632469D01*
X9930278Y-5456428D02*
X9931925Y-5460110D01*
X19839932Y-11199162D02*
X19844342Y-11156632D01*
X10235523Y-6169544D02*
X10232243Y-6171903D01*
X9983204Y-8443181D02*
X9981133Y-8446650D01*
X19001766Y-2002338D02*
X19001740Y-2002336D01*
X19335554Y-7985969D02*
X19336399Y-7978139D01*
X10095336Y-10293393D02*
X10095318Y-10293412D01*
X19750207Y-2502629D02*
X19748378Y-2499028D01*
X9960141Y-2483959D02*
X9958251Y-2487529D01*
X19760801Y-9471948D02*
X19762506Y-9468286D01*
X10555737Y-11975494D02*
X10555762Y-11975500D01*
X9958251Y-4487529D02*
X9958239Y-4487552D01*
X19305738Y-11919411D02*
X19344341Y-11901025D01*
X10274300Y-8143257D02*
X10270904Y-8145445D01*
X10150073Y-9761084D02*
X10182285Y-9789110D01*
X9889559Y-4657218D02*
X9888433Y-4661098D01*
X19748378Y-6499028D02*
X19748366Y-6499005D01*
X19505008Y-11797507D02*
X19505028Y-11797491D01*
X19478335Y-4180012D02*
X19478315Y-4179997D01*
X10053978Y-7658932D02*
X10053995Y-7658951D01*
X9867900Y-4748318D02*
X9867895Y-4748343D01*
X9896673Y-9369115D02*
X9896680Y-9369139D01*
X10222292Y-3820480D02*
X10222312Y-3820495D01*
X10235544Y-10169530D02*
X10235523Y-10169544D01*
X10329722Y-5902159D02*
X10334404Y-5908497D01*
X9872157Y-5278880D02*
X9873024Y-5282819D01*
X10081553Y-5691565D02*
X10081569Y-5691585D01*
X9855652Y-8841178D02*
X9855649Y-8841203D01*
X19409070Y-6133520D02*
X19402508Y-6129142D01*
X10185414Y-7791696D02*
X10185434Y-7791712D01*
X9902525Y-8616447D02*
X9889566Y-8657193D01*
X19384262Y-8114159D02*
X19378700Y-8108583D01*
X19342764Y-6048156D02*
X19340521Y-6040606D01*
X9896673Y-11369115D02*
X9896680Y-11369139D01*
X19403819Y-2130202D02*
X19400350Y-2128132D01*
X19604676Y-9704398D02*
X19607407Y-9701423D01*
X19716777Y-3554651D02*
X19716790Y-3554629D01*
X19832827Y-3245468D02*
X19839406Y-3203220D01*
X19691673Y-11594174D02*
X19693918Y-11590816D01*
X19768605Y-2541256D02*
X19750219Y-2502652D01*
X10023192Y-5618475D02*
X10023207Y-5618496D01*
X19781104Y-7425260D02*
X19796129Y-7385229D01*
X19411347Y-9863287D02*
X19425672Y-9854567D01*
X10219035Y-9818057D02*
X10219055Y-9818073D01*
X9855336Y-4845231D02*
X9855334Y-4845257D01*
X9913822Y-5416974D02*
X9913831Y-5416997D01*
X10745093Y-11999999D02*
X18985273Y-11997811D01*
X19701559Y-10417903D02*
X19701545Y-10417882D01*
X19230552Y-2049525D02*
X19189805Y-2036566D01*
X9983217Y-2443160D02*
X9983204Y-2443182D01*
X19537744Y-7769921D02*
X19540765Y-7767240D01*
X19760789Y-7471971D02*
X19760801Y-7471948D01*
X19214525Y-11954557D02*
X19214550Y-11954549D01*
X9960153Y-6483937D02*
X9960141Y-6483959D01*
X10064452Y-10328653D02*
X10061876Y-10331765D01*
X19788129Y-6588302D02*
X19788120Y-6588278D01*
X19846888Y-3109895D02*
X19846889Y-3109869D01*
X19505008Y-9797508D02*
X19505028Y-9797491D01*
X10313877Y-7884644D02*
X10319446Y-7890218D01*
X9937488Y-8529524D02*
X9937477Y-8529548D01*
X19796129Y-5385230D02*
X19796138Y-5385205D01*
X19770259Y-10544969D02*
X19768616Y-10541278D01*
X19540765Y-11767240D02*
X19540784Y-11767222D01*
X19604658Y-5704417D02*
X19604676Y-5704399D01*
X19846888Y-7109895D02*
X19846889Y-7109869D01*
X10025582Y-5621787D02*
X10051439Y-5655765D01*
X9952207Y-3502266D02*
X9952219Y-3502288D01*
X19739853Y-3513852D02*
X19741743Y-3510282D01*
X19786658Y-10584485D02*
X19770269Y-10544992D01*
X10185414Y-5791696D02*
X10185434Y-5791712D01*
X10198140Y-2197780D02*
X10194985Y-2200303D01*
X10289044Y-7865295D02*
X10295612Y-7869670D01*
X19429090Y-9852366D02*
X19429111Y-9852351D01*
X19836808Y-4768918D02*
X19836152Y-4764932D01*
X10257214Y-5845091D02*
X10257235Y-5845105D01*
X9888426Y-4661122D02*
X9877567Y-4702479D01*
X19664566Y-11632383D02*
X19666980Y-11629144D01*
X19847003Y-4861729D02*
X19847003Y-4861707D01*
X19185876Y-2035427D02*
X19144520Y-2024568D01*
X19811560Y-7336713D02*
X19811567Y-7336688D01*
X10352005Y-2098639D02*
X10314393Y-2118975D01*
X10306096Y-8121848D02*
X10299923Y-8126745D01*
X9853037Y-11142020D02*
X9853153Y-11143745D01*
X19832094Y-11249493D02*
X19832099Y-11249468D01*
X19537725Y-5769938D02*
X19537744Y-5769921D01*
X19505008Y-3797508D02*
X19505028Y-3797491D01*
X10313877Y-5884645D02*
X10319446Y-5890218D01*
X9877567Y-6702478D02*
X9877561Y-6702503D01*
X10257214Y-11845091D02*
X10257235Y-11845105D01*
X19846997Y-9105724D02*
X19847003Y-8861729D01*
X19691673Y-7594174D02*
X19693918Y-7590816D01*
X9867895Y-6748343D02*
X9867171Y-6752317D01*
X19339247Y-9962651D02*
X19341242Y-9955032D01*
X19392138Y-7877032D02*
X19398308Y-7872137D01*
X19741755Y-9510259D02*
X19760789Y-9471971D01*
X19649239Y-6345159D02*
X19649224Y-6345139D01*
X10232243Y-6171903D02*
X10232223Y-6171918D01*
X19587226Y-10274963D02*
X19587208Y-10274944D01*
X10332925Y-4093131D02*
X10328142Y-4099393D01*
X9853153Y-5143746D02*
X9853154Y-5143768D01*
X19278241Y-2067424D02*
X19278217Y-2067414D01*
X19666995Y-9629124D02*
X19691658Y-9594195D01*
X10382998Y-11915742D02*
X10383022Y-11915752D01*
X10526428Y-2030984D02*
X10485468Y-2043254D01*
X10127946Y-4259795D02*
X10125066Y-4262627D01*
X19386217Y-3882227D02*
X19392138Y-3877032D01*
X19317452Y-2084476D02*
X19278241Y-2067424D01*
X9996899Y-7579812D02*
X9999089Y-7583199D01*
X19748378Y-10499027D02*
X19748366Y-10499005D01*
X9863379Y-9232903D02*
X9863383Y-9232928D01*
X9920425Y-4568758D02*
X9920415Y-4568782D01*
X19340521Y-10040606D02*
X19338654Y-10032954D01*
X10359555Y-3965853D02*
X10361045Y-3973590D01*
X10469817Y-11950606D02*
X10510512Y-11963529D01*
X9912356Y-5413189D02*
X9912365Y-5413213D01*
X19337169Y-4025220D02*
X19336068Y-4017421D01*
X10605507Y-11985861D02*
X10605533Y-11985866D01*
X9876630Y-2706461D02*
X9867900Y-2748318D01*
X19340521Y-4040606D02*
X19338654Y-4032955D01*
X19796138Y-5385205D02*
X19797460Y-5381388D01*
X19385601Y-11878836D02*
X19385623Y-11878824D01*
X19404713Y-9867554D02*
X19411347Y-9863287D01*
X10008321Y-8403636D02*
X10006076Y-8406995D01*
X10053995Y-11658951D02*
X10081553Y-11691565D01*
X19781104Y-3425261D02*
X19796129Y-3385230D01*
X19518368Y-10211466D02*
X19518348Y-10211450D01*
X19846997Y-3105751D02*
X19846997Y-3105725D01*
X19836808Y-2768918D02*
X19836152Y-2764932D01*
X10081553Y-7691565D02*
X10081569Y-7691585D01*
X19572029Y-3738034D02*
X19572048Y-3738016D01*
X19478335Y-6180012D02*
X19478315Y-6179997D01*
X19052406Y-2007590D02*
X19052381Y-2007586D01*
X19274449Y-2065889D02*
X19234418Y-2050864D01*
X9889566Y-10657193D02*
X9889559Y-10657218D01*
X19094680Y-2014172D02*
X19094655Y-2014168D01*
X10159209Y-4230588D02*
X10127964Y-4259777D01*
X19832099Y-11249468D02*
X19832822Y-11245493D01*
X19537725Y-9769938D02*
X19537744Y-9769921D01*
X19409070Y-4133520D02*
X19402508Y-4129142D01*
X19779569Y-9429052D02*
X19779579Y-9429029D01*
X19827254Y-8718910D02*
X19817094Y-8677376D01*
X10006076Y-6406995D02*
X10006062Y-6407016D01*
X9867171Y-8752317D02*
X9867167Y-8752342D01*
X19404713Y-3867554D02*
X19411347Y-3863287D01*
X10621941Y-2010192D02*
X10621916Y-2010196D01*
X10362866Y-5989238D02*
X10363194Y-5997111D01*
X19336068Y-4017421D02*
X19335355Y-4009577D01*
X9897944Y-11372969D02*
X9897952Y-11372993D01*
X19847003Y-8861707D02*
X19846967Y-8860022D01*
X19550595Y-10239567D02*
X19518368Y-10211466D01*
X19505028Y-7797491D02*
X19537725Y-7769938D01*
X9853036Y-3141976D02*
X9853037Y-3142020D01*
X19842680Y-6811322D02*
X19842677Y-6811297D01*
X9950363Y-9498650D02*
X9950374Y-9498673D01*
X19031659Y-11993939D02*
X19035673Y-11993487D01*
X19718873Y-5551138D02*
X19739841Y-5513874D01*
X19836812Y-4768943D02*
X19836808Y-4768918D01*
X19540784Y-7767223D02*
X19572029Y-7738034D01*
X9852997Y-6892061D02*
X9852997Y-6892087D01*
X19518368Y-6211467D02*
X19518348Y-6211450D01*
X10334404Y-9908497D02*
X10338766Y-9915058D01*
X10125048Y-2262645D02*
X10095336Y-2293394D01*
X9888433Y-8661098D02*
X9888426Y-8661122D01*
X19537744Y-5769921D02*
X19540765Y-5767240D01*
X19398308Y-5872137D02*
X19404713Y-5867554D01*
X19635525Y-3669177D02*
X19635542Y-3669157D01*
X19762506Y-11468286D02*
X19762516Y-11468263D01*
X10235544Y-6169530D02*
X10235523Y-6169544D01*
X10035427Y-4365427D02*
X10033014Y-4368666D01*
X19781094Y-3425284D02*
X19781104Y-3425261D01*
X19741743Y-9510281D02*
X19741755Y-9510259D01*
X19619114Y-10309248D02*
X19616432Y-10306227D01*
X19649224Y-4345139D02*
X19646700Y-4341984D01*
X19677474Y-6382542D02*
X19677459Y-6382521D01*
X19664566Y-3632384D02*
X19666980Y-3629144D01*
X10559713Y-11976429D02*
X10601514Y-11985135D01*
X19429090Y-5852366D02*
X19429111Y-5852352D01*
X19788129Y-4588303D02*
X19788120Y-4588279D01*
X19728030Y-6461392D02*
X19728017Y-6461370D01*
X10651774Y-11992951D02*
X10694245Y-11997350D01*
X10053978Y-11658931D02*
X10053995Y-11658951D01*
X19607424Y-7701404D02*
X19635525Y-7669176D01*
X19701545Y-8417882D02*
X19677474Y-8382542D01*
X10257214Y-7845091D02*
X10257235Y-7845105D01*
X19439985Y-6153061D02*
X19409070Y-6133520D01*
X9996886Y-7579791D02*
X9996899Y-7579812D01*
X10084267Y-5694617D02*
X10113454Y-5725782D01*
X19335098Y-9993832D02*
X19335554Y-9985969D01*
X19718873Y-7551138D02*
X19739841Y-7513874D01*
X9920425Y-10568758D02*
X9920415Y-10568782D01*
X9974628Y-7543353D02*
X9996886Y-7579791D01*
X10358991Y-4036185D02*
X10356998Y-4043808D01*
X9903865Y-8612581D02*
X9903856Y-8612605D01*
X19478315Y-10179997D02*
X19443386Y-10155334D01*
X19677474Y-2382543D02*
X19677459Y-2382522D01*
X19810435Y-3340593D02*
X19811560Y-3336713D01*
X19788129Y-10588302D02*
X19788120Y-10588278D01*
X9931936Y-3460133D02*
X9950363Y-3498650D01*
X9853037Y-5142020D02*
X9853153Y-5143746D01*
X10116321Y-5728691D02*
X10147061Y-5758325D01*
X9950363Y-11498650D02*
X9950374Y-11498673D01*
X19816028Y-8673454D02*
X19816021Y-8673429D01*
X19360851Y-3912222D02*
X19365317Y-3905735D01*
X19540784Y-3767223D02*
X19572029Y-3738034D01*
X10270883Y-2145459D02*
X10235544Y-2169530D01*
X19467751Y-5825908D02*
X19467771Y-5825892D01*
X19844660Y-11152554D02*
X19846888Y-11109895D01*
X10355652Y-2096786D02*
X10355629Y-2096797D01*
X19339247Y-5962651D02*
X19341242Y-5955032D01*
X10053995Y-5658951D02*
X10081553Y-5691565D01*
X9860584Y-4794617D02*
X9860065Y-4798623D01*
X19616415Y-6306208D02*
X19587226Y-6274963D01*
X19786658Y-6584485D02*
X19770269Y-6544992D01*
X19803743Y-8632445D02*
X19802485Y-8628606D01*
X19811567Y-5336688D02*
X19822426Y-5295332D01*
X19638134Y-7666026D02*
X19664551Y-7632404D01*
X19846854Y-8858276D02*
X19843134Y-8815362D01*
X9939193Y-10525862D02*
X9937488Y-10529524D01*
X19467751Y-9825908D02*
X19467771Y-9825892D01*
X19402508Y-6129142D02*
X19396181Y-6124451D01*
X19616415Y-2306208D02*
X19587226Y-2274963D01*
X19349453Y-9932897D02*
X19352909Y-9925820D01*
X10232243Y-10171903D02*
X10232223Y-10171918D01*
X19836147Y-4764907D02*
X19828124Y-4722908D01*
X19378700Y-4108584D02*
X19373420Y-4102739D01*
X10328142Y-8099393D02*
X10323055Y-8105409D01*
X19501834Y-11800046D02*
X19501854Y-11800031D01*
X10125066Y-2262627D02*
X10125048Y-2262645D01*
X19365317Y-7905735D02*
X19370098Y-7899476D01*
X10064468Y-8328634D02*
X10064452Y-8328653D01*
X10314370Y-2118987D02*
X10310867Y-2120998D01*
X19703760Y-10421321D02*
X19703747Y-10421299D01*
X19691658Y-3594195D02*
X19691673Y-3594174D01*
X10310845Y-2121011D02*
X10274322Y-2143244D01*
X19574946Y-9735165D02*
X19604658Y-9704417D01*
X9860584Y-8794616D02*
X9860065Y-8798623D01*
X19726006Y-10457866D02*
X19725993Y-10457844D01*
X10301945Y-5874358D02*
X10308039Y-5879353D01*
X19739841Y-7513874D02*
X19739853Y-7513852D01*
X10355435Y-3950648D02*
X10357684Y-3958199D01*
X9867895Y-8748343D02*
X9867171Y-8752317D01*
X10485444Y-2043261D02*
X10481605Y-2044519D01*
X19781094Y-7425284D02*
X19781104Y-7425260D01*
X19803751Y-10632469D02*
X19803743Y-10632445D01*
X19169643Y-11967894D02*
X19173541Y-11966834D01*
X9913831Y-5416997D02*
X9930268Y-5456405D01*
X19779569Y-3429052D02*
X19779579Y-3429029D01*
X19443386Y-4155334D02*
X19443365Y-4155320D01*
X19342764Y-10048156D02*
X19340521Y-10040606D01*
X10337483Y-11893152D02*
X10341049Y-11895037D01*
X10293516Y-10131331D02*
X10286879Y-10135600D01*
X10341071Y-11895048D02*
X10379318Y-11914030D01*
X10125066Y-6262627D02*
X10125048Y-6262645D01*
X9937477Y-10529548D02*
X9920425Y-10568758D01*
X10363194Y-9997111D02*
X10363130Y-10004990D01*
X9897944Y-5372970D02*
X9897952Y-5372994D01*
X10150073Y-11761083D02*
X10182285Y-11789110D01*
X19716777Y-9554651D02*
X19716790Y-9554629D01*
X10270883Y-10145459D02*
X10235544Y-10169530D01*
X19703760Y-4421321D02*
X19703747Y-4421299D01*
X9857428Y-7190622D02*
X9863379Y-7232903D01*
X19693918Y-11590816D02*
X19693931Y-11590794D01*
X19823364Y-3291350D02*
X19832094Y-3249493D01*
X19677474Y-10382542D02*
X19677459Y-10382521D01*
X19846965Y-6859979D02*
X19846856Y-6858297D01*
X10116321Y-11728690D02*
X10147061Y-11758325D01*
X9867895Y-10748343D02*
X9867171Y-10752317D01*
X10363130Y-8004990D02*
X10362677Y-8012856D01*
X9952207Y-5502266D02*
X9952219Y-5502288D01*
X10299923Y-10126745D02*
X10293516Y-10131331D01*
X10647724Y-11992427D02*
X10647749Y-11992431D01*
X19537725Y-3769938D02*
X19537744Y-3769921D01*
X19703747Y-2421299D02*
X19701559Y-2417904D01*
X19635542Y-5669157D02*
X19638118Y-5666046D01*
X19725993Y-2457845D02*
X19703760Y-2421321D01*
X10745067Y-11999998D02*
X10745093Y-11999999D01*
X10081569Y-11691584D02*
X10084250Y-11694598D01*
X19693931Y-7590794D02*
X19716777Y-7554651D01*
X19218389Y-11953292D02*
X19218413Y-11953283D01*
X9996886Y-9579791D02*
X9996899Y-9579812D01*
X19816021Y-10673429D02*
X19803751Y-10632469D01*
X19518348Y-2211450D02*
X19515237Y-2208874D01*
X19748378Y-8499028D02*
X19748366Y-8499005D01*
X10185434Y-5791712D02*
X10219035Y-5818057D01*
X10194985Y-6200303D02*
X10194966Y-6200319D01*
X19604658Y-9704417D02*
X19604676Y-9704398D01*
X10354629Y-10051322D02*
X10351891Y-10058711D01*
X19741755Y-7510259D02*
X19760789Y-7471971D01*
X10361835Y-6020690D02*
X10360605Y-6028473D01*
X10270904Y-8145445D02*
X10270883Y-8145459D01*
X19675085Y-2379222D02*
X19649239Y-2345159D01*
X10575881Y-2018885D02*
X10571934Y-2019745D01*
X19467771Y-9825892D02*
X19501834Y-9800047D01*
X19124088Y-11978931D02*
X19124113Y-11978925D01*
X9855652Y-2841178D02*
X9855649Y-2841204D01*
X9918899Y-2572527D02*
X9918890Y-2572550D01*
X19770259Y-6544969D02*
X19768616Y-6541279D01*
X19481595Y-8182441D02*
X19481575Y-8182426D01*
X10319446Y-7890218D02*
X10324732Y-7896061D01*
X9863383Y-9232928D02*
X9864047Y-9236907D01*
X10113454Y-9725782D02*
X10113472Y-9725800D01*
X10323055Y-6105410D02*
X10317676Y-6111167D01*
X10222292Y-7820480D02*
X10222312Y-7820495D01*
X10023192Y-3618475D02*
X10023207Y-3618496D01*
X10274322Y-8143243D02*
X10274300Y-8143257D01*
X10182285Y-3789110D02*
X10182305Y-3789127D01*
X10308039Y-7879353D02*
X10313877Y-7884644D01*
X9903865Y-4612581D02*
X9903856Y-4612605D01*
X19616432Y-10306227D02*
X19616415Y-10306208D01*
X9920425Y-8568758D02*
X9920415Y-8568782D01*
X19816028Y-4673454D02*
X19816021Y-4673429D01*
X10601539Y-11985140D02*
X10605507Y-11985861D01*
X19616432Y-8306227D02*
X19616415Y-8306208D01*
X19728030Y-4461392D02*
X19728017Y-4461370D01*
X18959055Y-2000108D02*
X18954936Y-2000000D01*
X9996886Y-11579791D02*
X9996899Y-11579812D01*
X19443365Y-10155319D02*
X19440006Y-10153074D01*
X19635542Y-3669157D02*
X19638118Y-3666046D01*
X19409070Y-8133520D02*
X19402508Y-8129142D01*
X10035427Y-2365427D02*
X10033014Y-2368667D01*
X19846856Y-4858298D02*
X19846854Y-4858276D01*
X19677474Y-4382543D02*
X19677459Y-4382522D01*
X19728030Y-10461392D02*
X19728017Y-10461370D01*
X10286879Y-4135600D02*
X10274322Y-4143244D01*
X19844658Y-3152580D02*
X19844660Y-3152554D01*
X19718873Y-9551138D02*
X19739841Y-9513874D01*
X19619114Y-2309249D02*
X19616432Y-2306227D01*
X19380562Y-7887708D02*
X19386217Y-7882227D01*
X19443386Y-6155334D02*
X19443365Y-6155319D01*
X19839409Y-11203194D02*
X19839929Y-11199188D01*
X10363130Y-6004990D02*
X10362677Y-6012856D01*
X10363130Y-4004990D02*
X10362677Y-4012856D01*
X19481595Y-2182441D02*
X19481575Y-2182426D01*
X10116303Y-5728673D02*
X10116321Y-5728691D01*
X19770269Y-6544992D02*
X19770259Y-6544969D01*
X10125066Y-4262627D02*
X10125048Y-4262645D01*
X9853154Y-7143768D02*
X9856963Y-7186564D01*
X10301945Y-3874358D02*
X10308039Y-3879353D01*
X9872152Y-9278854D02*
X9872157Y-9278879D01*
X19677459Y-10382521D02*
X19675100Y-10379242D01*
X19078078Y-11987615D02*
X19082064Y-11986958D01*
X19140538Y-2023631D02*
X19098680Y-2014901D01*
X10348790Y-10065954D02*
X10345334Y-10073035D01*
X10159209Y-2230588D02*
X10127964Y-2259777D01*
X19666995Y-5629124D02*
X19691658Y-5594195D01*
X9884339Y-9328237D02*
X9896673Y-9369115D01*
D12*
X9552997Y-5999000D02*
X20147003Y-5999000D01*
D11*
X10095336Y-8293393D02*
X10095318Y-8293412D01*
X9974615Y-5543331D02*
X9974628Y-5543353D01*
X9920415Y-4568782D02*
X9918899Y-4572526D01*
X19832094Y-7249493D02*
X19832099Y-7249468D01*
X9888426Y-8661122D02*
X9877567Y-8702478D01*
X10084250Y-11694598D02*
X10084267Y-11694617D01*
X9873024Y-3282819D02*
X9873029Y-3282844D01*
X10025567Y-5621767D02*
X10025582Y-5621787D01*
X10358991Y-6036185D02*
X10356998Y-6043808D01*
X19144495Y-2024562D02*
X19140563Y-2023636D01*
X19501854Y-9800031D02*
X19505008Y-9797508D01*
X9913822Y-3416974D02*
X9913831Y-3416997D01*
X19464450Y-9828281D02*
X19464471Y-9828266D01*
X19803751Y-6632469D02*
X19803743Y-6632445D01*
X19429111Y-5852352D02*
X19464450Y-5828281D01*
X19748378Y-4499028D02*
X19748366Y-4499005D01*
X10198140Y-8197780D02*
X10194985Y-8200303D01*
X10084250Y-3694598D02*
X10084267Y-3694617D01*
X9855336Y-8845231D02*
X9855334Y-8845256D01*
X19370098Y-7899476D02*
X19375184Y-7893462D01*
X10006076Y-2406995D02*
X10006062Y-2407016D01*
X9856965Y-3186590D02*
X9857425Y-3190597D01*
X9860065Y-10798622D02*
X9860062Y-10798648D01*
X9903856Y-8612605D02*
X9902533Y-8616422D01*
X9852997Y-9140224D02*
X9852997Y-9140247D01*
X19515217Y-6208858D02*
X19481595Y-6182441D01*
X19185901Y-2035433D02*
X19185876Y-2035427D01*
X10061876Y-8331765D02*
X10061859Y-8331785D01*
X19389148Y-11876799D02*
X19425672Y-11854567D01*
X9902525Y-6616447D02*
X9889566Y-6657193D01*
X9950374Y-7498673D02*
X9952207Y-7502266D01*
X19693918Y-5590816D02*
X19693931Y-5590795D01*
X9996886Y-3579791D02*
X9996899Y-3579813D01*
X10337391Y-10086640D02*
X10332925Y-10093131D01*
X10185414Y-3791696D02*
X10185434Y-3791712D01*
X9999103Y-3583221D02*
X10023192Y-3618475D01*
X9930278Y-3456428D02*
X9931925Y-3460110D01*
X10162269Y-10227873D02*
X10162250Y-10227889D01*
X19553609Y-10242334D02*
X19553590Y-10242316D01*
X10270904Y-4145445D02*
X10270883Y-4145459D01*
X19128060Y-11978066D02*
X19128085Y-11978060D01*
X19666995Y-3629124D02*
X19691658Y-3594195D01*
X19467751Y-11825907D02*
X19467771Y-11825892D01*
X19616432Y-2306227D02*
X19616415Y-2306208D01*
X10338766Y-7915058D02*
X10342798Y-7921828D01*
X19537744Y-11769921D02*
X19540765Y-11767240D01*
X19701559Y-4417903D02*
X19701545Y-4417882D01*
X9864051Y-5236932D02*
X9872152Y-5278855D01*
X9918899Y-10572526D02*
X9918890Y-10572550D01*
X19478335Y-2180012D02*
X19478315Y-2179997D01*
X10113472Y-7725800D02*
X10116303Y-7728673D01*
X19467751Y-3825908D02*
X19467771Y-3825893D01*
X19368436Y-4096641D02*
X19363761Y-4090303D01*
X10349831Y-9935924D02*
X10352816Y-9943216D01*
X19762506Y-3468286D02*
X19762516Y-3468263D01*
X19716790Y-7554629D02*
X19718860Y-7551160D01*
X19411347Y-3863287D02*
X19425672Y-3854567D01*
X19836152Y-6764931D02*
X19836147Y-6764906D01*
X10053978Y-3658932D02*
X10053995Y-3658951D01*
X19550595Y-4239568D02*
X19518368Y-4211467D01*
X19537744Y-3769921D02*
X19540765Y-3767240D01*
X10317676Y-10111167D02*
X10312018Y-10116651D01*
X19550614Y-2239585D02*
X19550595Y-2239568D01*
X9918899Y-6572526D02*
X9918890Y-6572550D01*
X19779579Y-9429029D02*
X19781094Y-9425284D01*
X19811560Y-9336713D02*
X19811567Y-9336688D01*
X19839409Y-9203194D02*
X19839929Y-9199188D01*
X19847003Y-2861707D02*
X19846967Y-2860023D01*
X10257214Y-9845091D02*
X10257235Y-9845105D01*
X19797460Y-9381388D02*
X19797468Y-9381364D01*
X19390094Y-8119453D02*
X19384262Y-8114159D01*
X10310867Y-2120998D02*
X10310845Y-2121011D01*
X19828119Y-10722882D02*
X19827260Y-10718935D01*
X19817088Y-8677352D02*
X19816028Y-8673454D01*
X19718860Y-9551160D02*
X19718873Y-9551138D01*
X10257235Y-9845105D02*
X10260590Y-9847344D01*
X10308039Y-9879353D02*
X10313877Y-9884644D01*
X10194966Y-8200319D02*
X10162269Y-8227873D01*
X10425974Y-11934287D02*
X10465957Y-11949271D01*
X9999089Y-11583199D02*
X9999103Y-11583221D01*
X18988715Y-11997662D02*
X19031634Y-11993941D01*
X9864047Y-11236907D02*
X9864051Y-11236932D01*
X19741755Y-5510259D02*
X19760789Y-5471971D01*
X10125048Y-10262645D02*
X10095336Y-10293393D01*
X9877567Y-2702479D02*
X9877561Y-2702504D01*
X19828124Y-8722907D02*
X19828119Y-8722882D01*
X10033014Y-10368666D02*
X10032999Y-10368687D01*
X9981121Y-4446672D02*
X9960153Y-4483937D01*
X10740929Y-11999891D02*
X10745067Y-11999998D01*
X19822432Y-7295307D02*
X19823358Y-7291375D01*
X9981121Y-2446673D02*
X9960153Y-2483937D01*
X9937488Y-4529525D02*
X9937477Y-4529548D01*
X19124113Y-11978925D02*
X19128060Y-11978066D01*
X19664551Y-5632404D02*
X19664566Y-5632384D01*
X9937477Y-4529548D02*
X9920425Y-4568758D01*
X19843134Y-4815362D02*
X19843132Y-4815337D01*
X10530376Y-2029910D02*
X10530351Y-2029917D01*
X19691658Y-11594195D02*
X19691673Y-11594174D01*
X19846856Y-2858298D02*
X19846854Y-2858276D01*
X9958239Y-2487552D02*
X9939204Y-2525840D01*
X19518348Y-6211450D02*
X19515237Y-6208874D01*
X9889566Y-6657193D02*
X9889559Y-6657218D01*
X9860588Y-4794591D02*
X9860584Y-4794617D01*
X19726006Y-4457867D02*
X19725993Y-4457845D01*
X19786658Y-4584485D02*
X19770269Y-4544993D01*
X19550595Y-8239567D02*
X19518368Y-8211466D01*
X9853154Y-5143768D02*
X9856963Y-5186564D01*
X19335098Y-7993832D02*
X19335554Y-7985969D01*
X19518348Y-4211450D02*
X19515237Y-4208874D01*
X19836152Y-8764931D02*
X19836147Y-8764906D01*
X10664320Y-2004324D02*
X10664295Y-2004327D01*
X9860588Y-2794591D02*
X9860584Y-2794617D01*
X19842677Y-2811297D02*
X19836812Y-2768943D01*
X19828124Y-6722907D02*
X19828119Y-6722882D01*
X9972601Y-11539837D02*
X9974615Y-11543331D01*
X19786667Y-4584509D02*
X19786658Y-4584485D01*
X9996899Y-3579813D02*
X9999089Y-3583200D01*
X19779569Y-11429052D02*
X19779579Y-11429028D01*
X19604658Y-11704417D02*
X19604676Y-11704398D01*
X19638118Y-9666045D02*
X19638134Y-9666026D01*
X10092569Y-10296407D02*
X10064468Y-10328634D01*
X10023207Y-7618496D02*
X10025567Y-7621766D01*
X19839409Y-7203194D02*
X19839929Y-7199188D01*
X19803743Y-10632445D02*
X19802485Y-10628606D01*
X10308039Y-5879353D02*
X10313877Y-5884645D01*
X19843134Y-8815362D02*
X19843132Y-8815337D01*
X19836808Y-10768917D02*
X19836152Y-10764931D01*
X19572029Y-11738033D02*
X19572048Y-11738016D01*
X9918890Y-8572550D02*
X9903865Y-8612581D01*
X19823364Y-9291350D02*
X19832094Y-9249493D01*
X10694270Y-11997353D02*
X10698291Y-11997666D01*
X19094655Y-2014168D02*
X19052406Y-2007590D01*
X19363761Y-6090302D02*
X19359405Y-6083741D01*
X19398308Y-3872137D02*
X19404713Y-3867554D01*
X10394279Y-2078389D02*
X10394255Y-2078399D01*
X10360605Y-8028473D02*
X10358991Y-8036185D01*
X10397992Y-2076735D02*
X10397969Y-2076745D01*
X9872152Y-3278855D02*
X9872157Y-3278880D01*
X19802477Y-4628582D02*
X19788129Y-4588303D01*
X9855652Y-4841178D02*
X9855649Y-4841204D01*
X19356711Y-3918923D02*
X19360851Y-3912222D01*
X10127946Y-6259795D02*
X10125066Y-6262627D01*
X19373420Y-4102739D02*
X19368436Y-4096641D01*
X19646684Y-6341964D02*
X19619130Y-6309268D01*
X10092586Y-10296388D02*
X10092569Y-10296407D01*
X19234418Y-2050864D02*
X19234394Y-2050856D01*
X19739841Y-11513874D02*
X19739853Y-11513851D01*
X19082089Y-11986954D02*
X19124088Y-11978931D01*
X9867167Y-8752342D02*
X9860588Y-8794591D01*
X19359448Y-2105238D02*
X19321160Y-2086203D01*
X19646700Y-8341984D02*
X19646684Y-8341964D01*
X10025567Y-7621766D02*
X10025582Y-7621787D01*
X19693931Y-9590794D02*
X19716777Y-9554651D01*
X10422187Y-11932757D02*
X10422211Y-11932767D01*
X9974628Y-9543353D02*
X9996886Y-9579791D01*
X19501854Y-11800031D02*
X19505008Y-11797507D01*
X19384262Y-6114159D02*
X19378700Y-6108584D01*
X19741743Y-11510281D02*
X19741755Y-11510259D01*
X19846997Y-11105724D02*
X19847003Y-10861729D01*
X9960141Y-10483959D02*
X9958251Y-10487529D01*
X19481595Y-6182441D02*
X19481575Y-6182426D01*
X19356711Y-9918923D02*
X19360851Y-9912222D01*
X10485468Y-2043254D02*
X10485444Y-2043261D01*
X10324732Y-5896061D02*
X10329722Y-5902159D01*
X9918890Y-6572550D02*
X9903865Y-6612581D01*
X9877561Y-8702503D02*
X9876636Y-8706435D01*
X10092586Y-4296388D02*
X10092569Y-4296407D01*
X10361045Y-7973590D02*
X10362149Y-7981391D01*
X19467771Y-7825892D02*
X19501834Y-7800047D01*
X10113472Y-3725800D02*
X10116303Y-3728673D01*
X9930268Y-7456405D02*
X9930278Y-7456428D01*
X10698317Y-11997667D02*
X10740903Y-11999890D01*
X19635525Y-11669176D02*
X19635542Y-11669157D01*
X10006076Y-10406995D02*
X10006062Y-10407016D01*
X10113454Y-7725782D02*
X10113472Y-7725800D01*
X19360851Y-5912222D02*
X19365317Y-5905735D01*
X19363064Y-2107152D02*
X19363041Y-2107140D01*
X19739853Y-9513852D02*
X19741743Y-9510281D01*
X19718860Y-5551161D02*
X19718873Y-5551138D01*
X19701559Y-2417904D02*
X19701545Y-2417882D01*
X19262509Y-11937464D02*
X19302001Y-11921075D01*
X9897952Y-9372994D02*
X9912356Y-9413189D01*
X19760801Y-7471948D02*
X19762506Y-7468286D01*
X19481595Y-4182441D02*
X19481575Y-4182426D01*
X19352909Y-5925820D02*
X19356711Y-5918923D01*
X19572029Y-9738034D02*
X19572048Y-9738016D01*
X19842680Y-8811322D02*
X19842677Y-8811297D01*
X10357684Y-5958199D02*
X10359555Y-5965853D01*
X19346351Y-3940137D02*
X19349453Y-3932897D01*
X9931925Y-5460110D02*
X9931936Y-5460133D01*
X19587208Y-6274944D02*
X19584376Y-6272064D01*
X9889566Y-8657193D02*
X9889559Y-8657218D01*
X9883266Y-11324322D02*
X9884332Y-11328212D01*
X9856965Y-7186590D02*
X9857425Y-7190597D01*
X10362149Y-7981391D02*
X10362866Y-7989238D01*
X19258692Y-11938935D02*
X19258716Y-11938926D01*
X19786658Y-2584486D02*
X19770269Y-2544993D01*
X19817088Y-4677352D02*
X19816028Y-4673454D01*
X10357684Y-9958199D02*
X10359555Y-9965853D01*
X19649239Y-10345159D02*
X19649224Y-10345139D01*
X10346489Y-7928789D02*
X10349831Y-7935924D01*
X10219055Y-11818073D02*
X10222292Y-11820479D01*
X19768605Y-8541255D02*
X19750219Y-8502652D01*
X19762506Y-7468286D02*
X19762516Y-7468263D01*
X19725993Y-8457845D02*
X19703760Y-8421321D01*
X19725993Y-6457845D02*
X19703760Y-6421321D01*
X9972601Y-5539837D02*
X9974615Y-5543331D01*
D12*
X9552997Y-7999000D02*
X20147003Y-7999000D01*
D11*
X19584376Y-8272064D02*
X19584358Y-8272046D01*
X19839932Y-5199163D02*
X19844342Y-5156633D01*
X10095318Y-10293412D02*
X10092586Y-10296388D01*
X10222292Y-11820479D02*
X10222312Y-11820494D01*
X19359405Y-8083741D02*
X19355379Y-8076971D01*
X9863379Y-11232903D02*
X9863383Y-11232928D01*
X19553590Y-8242316D02*
X19550614Y-8239584D01*
X9876636Y-10706435D02*
X9876630Y-10706460D01*
X19701545Y-10417882D02*
X19677474Y-10382542D01*
X19762516Y-7468263D02*
X19779569Y-7429052D01*
X19781094Y-5425284D02*
X19781104Y-5425261D01*
X19425694Y-7854554D02*
X19429090Y-7852366D01*
D12*
X9552997Y-10000000D02*
X20147003Y-10000000D01*
D11*
X19439985Y-2153061D02*
X19403841Y-2130216D01*
X19343612Y-7947521D02*
X19346351Y-7940137D01*
X10617930Y-2010852D02*
X10617905Y-2010857D01*
X19664551Y-3632404D02*
X19664566Y-3632384D01*
X9912365Y-11413212D02*
X9913822Y-11416973D01*
X10342798Y-3921828D02*
X10346489Y-3928789D01*
X19786667Y-2584509D02*
X19786658Y-2584486D01*
X10194966Y-6200319D02*
X10162269Y-6227873D01*
X19832827Y-7245468D02*
X19839406Y-7203219D01*
X10081569Y-3691585D02*
X10084250Y-3694598D01*
X19816028Y-10673454D02*
X19816021Y-10673429D01*
X9856963Y-5186564D02*
X9856965Y-5186590D01*
X9888433Y-2661098D02*
X9888426Y-2661123D01*
X19675100Y-8379242D02*
X19675085Y-8379221D01*
X9855649Y-6841203D02*
X9855336Y-6845231D01*
X19827254Y-6718910D02*
X19817094Y-6677376D01*
X19587226Y-4274963D02*
X19587208Y-4274945D01*
X19822432Y-9295307D02*
X19823358Y-9291375D01*
X9960141Y-8483959D02*
X9958251Y-8487529D01*
X19748366Y-8499005D02*
X19728030Y-8461392D01*
X9872152Y-7278854D02*
X9872157Y-7278879D01*
X19701545Y-2417882D02*
X19677474Y-2382543D01*
X9981121Y-10446672D02*
X9960153Y-10483936D01*
X9974628Y-5543353D02*
X9996886Y-5579791D01*
X10530351Y-2029917D02*
X10526453Y-2030977D01*
X19604676Y-5704399D02*
X19607407Y-5701423D01*
X19349453Y-7932897D02*
X19352909Y-7925820D01*
X19464450Y-5828281D02*
X19464471Y-5828266D01*
X10023192Y-7618475D02*
X10023207Y-7618496D01*
X19464471Y-11828266D02*
X19467751Y-11825907D01*
X9852997Y-5140247D02*
X9853036Y-5141976D01*
X10362677Y-10012856D02*
X10361835Y-10020690D01*
X10341531Y-4079936D02*
X10337391Y-4086640D01*
X19828119Y-4722883D02*
X19827260Y-4718935D01*
X19370098Y-5899476D02*
X19375184Y-5893463D01*
X19788120Y-4588279D02*
X19786667Y-4584509D01*
X10352028Y-2098627D02*
X10352005Y-2098639D01*
X9860588Y-6794591D02*
X9860584Y-6794616D01*
X10698291Y-11997666D02*
X10698317Y-11997667D01*
X10337391Y-8086640D02*
X10332925Y-8093131D01*
X10352816Y-7943216D02*
X10355435Y-7950647D01*
X9863379Y-7232903D02*
X9863383Y-7232928D01*
X19375184Y-3893463D02*
X19380562Y-3887708D01*
X19638118Y-3666046D02*
X19638134Y-3666026D01*
X10349831Y-7935924D02*
X10352816Y-7943216D01*
X10127946Y-8259795D02*
X10125066Y-8262627D01*
X10116321Y-3728691D02*
X10147061Y-3758325D01*
X19675100Y-10379242D02*
X19675085Y-10379221D01*
X10260612Y-5847358D02*
X10289044Y-5865295D01*
X10312018Y-6116651D02*
X10306096Y-6121848D01*
X19173541Y-11966834D02*
X19173566Y-11966827D01*
X9896680Y-9369139D02*
X9897944Y-9372969D01*
X19846965Y-4859979D02*
X19846856Y-4858298D01*
X10293516Y-4131331D02*
X10286879Y-4135600D01*
X9852997Y-2892061D02*
X9852997Y-2892087D01*
X10162269Y-6227873D02*
X10162250Y-6227889D01*
X19365317Y-5905735D02*
X19370098Y-5899476D01*
X19839932Y-3199163D02*
X19844342Y-3156633D01*
X10555762Y-11975500D02*
X10559688Y-11976423D01*
X19781104Y-11425260D02*
X19796129Y-11385229D01*
X19429090Y-7852366D02*
X19429111Y-7852351D01*
X19768616Y-10541278D02*
X19768605Y-10541255D01*
X19440006Y-6153074D02*
X19439985Y-6153061D01*
X9896680Y-5369139D02*
X9897944Y-5372970D01*
X19843132Y-10815337D02*
X19842680Y-10811322D01*
X9860065Y-4798623D02*
X9860062Y-4798648D01*
X19836147Y-8764906D02*
X19828124Y-8722907D01*
X10051439Y-3655765D02*
X10051455Y-3655786D01*
X19604676Y-7704398D02*
X19607407Y-7701423D01*
X19796129Y-7385229D02*
X19796138Y-7385205D01*
X9855649Y-2841204D02*
X9855336Y-2845231D01*
X19481575Y-8182426D02*
X19478335Y-8180012D01*
X10286879Y-10135600D02*
X10274322Y-10143243D01*
X19762516Y-11468263D02*
X19779569Y-11429052D01*
X19335355Y-4009577D02*
X19335031Y-4001708D01*
D12*
X9552997Y-9999000D02*
X20147003Y-9999000D01*
D11*
X19464471Y-7828266D02*
X19467751Y-7825908D01*
X9930278Y-9456428D02*
X9931925Y-9460110D01*
X19781094Y-11425284D02*
X19781104Y-11425260D01*
X19128085Y-11978060D02*
X19169618Y-11967900D01*
X19425694Y-9854554D02*
X19429090Y-9852366D01*
X19584376Y-10272064D02*
X19584358Y-10272046D01*
X10081553Y-3691566D02*
X10081569Y-3691585D01*
X10362677Y-6012856D02*
X10361835Y-6020690D01*
X19587208Y-10274944D02*
X19584376Y-10272064D01*
X19788129Y-8588302D02*
X19788120Y-8588278D01*
X19649224Y-2345139D02*
X19646700Y-2341984D01*
X10510537Y-11963536D02*
X10514411Y-11964659D01*
X9952207Y-9502266D02*
X9952219Y-9502288D01*
X19443365Y-8155319D02*
X19440006Y-8153074D01*
X19302025Y-11921065D02*
X19305715Y-11919422D01*
X19335355Y-8009577D02*
X19335031Y-8001708D01*
X10095336Y-4293394D02*
X10095318Y-4293412D01*
X19335031Y-4001708D02*
X19335098Y-3993832D01*
X10008336Y-6403615D02*
X10008321Y-6403636D01*
X19843132Y-2815337D02*
X19842680Y-2811322D01*
X19619130Y-6309268D02*
X19619114Y-6309248D01*
X10355435Y-9950647D02*
X10357684Y-9958199D01*
X10053978Y-9658932D02*
X10053995Y-9658951D01*
X9972588Y-3539815D02*
X9972601Y-3539837D01*
X19347988Y-11899172D02*
X19385601Y-11878836D01*
X9855334Y-2845257D02*
X9853106Y-2887915D01*
X10362149Y-9981391D02*
X10362866Y-9989238D01*
X10232223Y-10171918D02*
X10198160Y-10197764D01*
X19725993Y-4457845D02*
X19703760Y-4421321D01*
X10147080Y-9758342D02*
X10150054Y-9761067D01*
X19846965Y-2859979D02*
X19846856Y-2858298D01*
X19574946Y-11735165D02*
X19604658Y-11704417D01*
X9937477Y-2529548D02*
X9920425Y-2568759D01*
X19515237Y-8208874D02*
X19515217Y-8208858D01*
X19846997Y-3105725D02*
X19847003Y-2861729D01*
X19718860Y-3551161D02*
X19718873Y-3551138D01*
X10147061Y-9758325D02*
X10147080Y-9758342D01*
X10317676Y-8111167D02*
X10312018Y-8116651D01*
X18954936Y-2000000D02*
X18954910Y-2000000D01*
X19400328Y-2128119D02*
X19363064Y-2107152D01*
X10232223Y-2171919D02*
X10198160Y-2197764D01*
X19345378Y-4055586D02*
X19342764Y-4048156D01*
X10162250Y-10227889D02*
X10159228Y-10230571D01*
X19553609Y-2242334D02*
X19553590Y-2242317D01*
X19832822Y-5245494D02*
X19832827Y-5245468D01*
X19770269Y-2544993D02*
X19770259Y-2544969D01*
X19402508Y-10129142D02*
X19396181Y-10124451D01*
X10356998Y-6043808D02*
X10354629Y-6051323D01*
X10337460Y-11893140D02*
X10337483Y-11893152D01*
X19810427Y-7340617D02*
X19810435Y-7340593D01*
X9939193Y-4525863D02*
X9937488Y-4529525D01*
X10605533Y-11985866D02*
X10647724Y-11992427D01*
X19553590Y-10242316D02*
X19550614Y-10239584D01*
X19832099Y-9249468D02*
X19832822Y-9245493D01*
X10362866Y-9989238D02*
X10363194Y-9997111D01*
X9996899Y-5579813D02*
X9999089Y-5583200D01*
X19846889Y-7109869D02*
X19846997Y-7105751D01*
X19616432Y-4306227D02*
X19616415Y-4306208D01*
X10270904Y-2145445D02*
X10270883Y-2145459D01*
X19587208Y-8274944D02*
X19584376Y-8272064D01*
X10360605Y-6028473D02*
X10358991Y-6036185D01*
X9857425Y-9190597D02*
X9857428Y-9190622D01*
X19677459Y-2382522D02*
X19675100Y-2379242D01*
X19540784Y-11767222D02*
X19572029Y-11738033D01*
X19464471Y-9828266D02*
X19467751Y-9825908D01*
X19363761Y-4090303D02*
X19359405Y-4083741D01*
X19396181Y-10124451D02*
X19390094Y-10119453D01*
X9883260Y-3324298D02*
X9883266Y-3324323D01*
X19321137Y-2086192D02*
X19317475Y-2084487D01*
X19802477Y-6628582D02*
X19788129Y-6588302D01*
X9884339Y-11328237D02*
X9896673Y-11369115D01*
X10274300Y-4143257D02*
X10270904Y-4145445D01*
X10185434Y-7791712D02*
X10219035Y-7818057D01*
X10362677Y-8012856D02*
X10361835Y-8020690D01*
X19701559Y-8417903D02*
X19701545Y-8417882D01*
X19370098Y-9899476D02*
X19375184Y-9893462D01*
X19739841Y-9513874D02*
X19739853Y-9513852D01*
X19386217Y-5882227D02*
X19392138Y-5877032D01*
X10295612Y-5869670D02*
X10301945Y-5874358D01*
X19664551Y-9632404D02*
X19664566Y-9632383D01*
X9872157Y-9278879D02*
X9873024Y-9282819D01*
X9855652Y-10841178D02*
X9855649Y-10841203D01*
X9897944Y-9372969D02*
X9897952Y-9372994D01*
X19701545Y-4417882D02*
X19677474Y-4382543D01*
X9930268Y-11456405D02*
X9930278Y-11456428D01*
X19770269Y-8544992D02*
X19770259Y-8544969D01*
X10084267Y-11694617D02*
X10113454Y-11725781D01*
X19802477Y-2628582D02*
X19788129Y-2588303D01*
X9952207Y-11502265D02*
X9952219Y-11502288D01*
X19574946Y-3735166D02*
X19604658Y-3704417D01*
X10008321Y-2403637D02*
X10006076Y-2406995D01*
X9852997Y-11140224D02*
X9852997Y-11140246D01*
X19368436Y-10096640D02*
X19363761Y-10090302D01*
X19550595Y-6239568D02*
X19518368Y-6211467D01*
X9857425Y-5190597D02*
X9857428Y-5190622D01*
X9902533Y-4616422D02*
X9902525Y-4616447D01*
X19048349Y-2007064D02*
X19005819Y-2002654D01*
X9939193Y-8525862D02*
X9937488Y-8529524D01*
X19607407Y-11701422D02*
X19607424Y-11701403D01*
X10035443Y-10365407D02*
X10035427Y-10365427D01*
X19373420Y-8102739D02*
X19368436Y-8096640D01*
X19846967Y-4860023D02*
X19846965Y-4859979D01*
X9863383Y-7232928D02*
X9864047Y-7236907D01*
X19078053Y-11987618D02*
X19078078Y-11987615D01*
X19553609Y-8242334D02*
X19553590Y-8242316D01*
X9884332Y-5328212D02*
X9884339Y-5328237D01*
X9873024Y-7282819D02*
X9873029Y-7282843D01*
X10270904Y-2145445D02*
X10270904Y-2145445D01*
X19341242Y-9955032D02*
X19343612Y-9947521D01*
X10437509Y-2060337D02*
X10437485Y-2060346D01*
X19797460Y-3381388D02*
X19797468Y-3381364D01*
X9952219Y-9502288D02*
X9972588Y-9539814D01*
X9939193Y-2525863D02*
X9937488Y-2529525D01*
X19739853Y-11513851D02*
X19741743Y-11510281D01*
X9931925Y-11460110D02*
X9931936Y-11460133D01*
X19584358Y-4272046D02*
X19553609Y-4242334D01*
X10361045Y-3973590D02*
X10362149Y-3981392D01*
X9960141Y-6483959D02*
X9958251Y-6487529D01*
X9853106Y-4887915D02*
X9853105Y-4887941D01*
X10334404Y-3908497D02*
X10338766Y-3915058D01*
X10359555Y-9965853D02*
X10361045Y-9973590D01*
X19844344Y-11156607D02*
X19844658Y-11152580D01*
X10481605Y-2044519D02*
X10481581Y-2044527D01*
X19839929Y-3199188D02*
X19839932Y-3199163D01*
X19797468Y-9381364D02*
X19810427Y-9340617D01*
X10095318Y-8293412D02*
X10092586Y-8296388D01*
X10286879Y-6135600D02*
X10274322Y-6143243D01*
X9867167Y-2752343D02*
X9860588Y-2794591D01*
X19553590Y-6242316D02*
X19550614Y-6239585D01*
X19796138Y-7385205D02*
X19797460Y-7381388D01*
X10299923Y-8126745D02*
X10293516Y-8131331D01*
X19739853Y-5513852D02*
X19741743Y-5510282D01*
X19616415Y-4306208D02*
X19587226Y-4274963D01*
X19839406Y-3203220D02*
X19839409Y-3203194D01*
X10357684Y-3958199D02*
X10359555Y-3965853D01*
X10182305Y-7789127D02*
X10185414Y-7791696D01*
X9860062Y-4798648D02*
X9855652Y-4841178D01*
X19762516Y-3468263D02*
X19779569Y-3429052D01*
X9972588Y-9539814D02*
X9972601Y-9539837D01*
X19515217Y-4208858D02*
X19481595Y-4182441D01*
X9950363Y-7498650D02*
X9950374Y-7498673D01*
X9981133Y-10446650D02*
X9981121Y-10446672D01*
X19750219Y-8502652D02*
X19750207Y-8502629D01*
X19823364Y-5291350D02*
X19832094Y-5249493D01*
X10313877Y-3884645D02*
X10319446Y-3890219D01*
X9867171Y-4752317D02*
X9867167Y-4752342D01*
X19788120Y-2588279D02*
X19786667Y-2584509D01*
X19098680Y-2014901D02*
X19098655Y-2014896D01*
X9855334Y-6845256D02*
X9853106Y-6887915D01*
X19666980Y-9629144D02*
X19666995Y-9629124D01*
X9888426Y-10661122D02*
X9877567Y-10702478D01*
X19810427Y-5340617D02*
X19810435Y-5340593D01*
X19768616Y-2541279D02*
X19768605Y-2541256D01*
X19693931Y-3590795D02*
X19716777Y-3554651D01*
X9876636Y-6706435D02*
X9876630Y-6706460D01*
X10274322Y-10143243D02*
X10274300Y-10143257D01*
X10081569Y-7691585D02*
X10084250Y-7694598D01*
X9939204Y-6525839D02*
X9939193Y-6525862D01*
X19574946Y-5735166D02*
X19604658Y-5704417D01*
X19828119Y-2722883D02*
X19827260Y-2718935D01*
X19847003Y-2861729D02*
X19847003Y-2861707D01*
X9872157Y-7278879D02*
X9873024Y-7282819D01*
X19337631Y-5970360D02*
X19339247Y-5962651D01*
X19337169Y-10025220D02*
X19336068Y-10017421D01*
X9856965Y-11186589D02*
X9857425Y-11190596D01*
X10033014Y-2368667D02*
X10032999Y-2368687D01*
X10351891Y-8058711D02*
X10348790Y-8065954D01*
X10260612Y-7847358D02*
X10289044Y-7865295D01*
X19741743Y-7510281D02*
X19741755Y-7510259D01*
X9960153Y-4483937D02*
X9960141Y-4483959D01*
X10361835Y-10020690D02*
X10360605Y-10028473D01*
X9960153Y-8483937D02*
X9960141Y-8483959D01*
X10300233Y-11872230D02*
X10337460Y-11893140D01*
X10360605Y-4028473D02*
X10358991Y-4036185D01*
X10023192Y-11618474D02*
X10023207Y-11618495D01*
X10312018Y-10116651D02*
X10306096Y-10121848D01*
X19537725Y-7769938D02*
X19537744Y-7769921D01*
X9889559Y-8657218D02*
X9888433Y-8661098D01*
X9855336Y-2845231D02*
X9855334Y-2845257D01*
X9903856Y-2612606D02*
X9902533Y-2616423D01*
X10006062Y-10407016D02*
X9983217Y-10443160D01*
X9912356Y-11413189D02*
X9912365Y-11413212D01*
X19363761Y-8090302D02*
X19359405Y-8083741D01*
X19607407Y-3701423D02*
X19607424Y-3701404D01*
X19550614Y-10239584D02*
X19550595Y-10239567D01*
X19703760Y-2421321D02*
X19703747Y-2421299D01*
X19832827Y-11245468D02*
X19839406Y-11203219D01*
X10127964Y-6259777D02*
X10127946Y-6259795D01*
X10293516Y-6131331D02*
X10286879Y-6135600D01*
X10008336Y-4403615D02*
X10008321Y-4403636D01*
X19847003Y-4861707D02*
X19846967Y-4860023D01*
X10437485Y-2060346D02*
X10397992Y-2076735D01*
X9864047Y-7236907D02*
X9864051Y-7236932D01*
X10342798Y-5921828D02*
X10346489Y-5928789D01*
X19481595Y-10182441D02*
X19481575Y-10182426D01*
X9950374Y-3498673D02*
X9952207Y-3502266D01*
X10312018Y-4116651D02*
X10306096Y-4121848D01*
X19646684Y-2341965D02*
X19619130Y-2309268D01*
X10159209Y-8230588D02*
X10127964Y-8259777D01*
X9852997Y-7140247D02*
X9853036Y-7141976D01*
X10006062Y-2407016D02*
X9983217Y-2443160D01*
X19587208Y-2274945D02*
X19584376Y-2272064D01*
X10033014Y-4368666D02*
X10032999Y-4368687D01*
X19844660Y-3152554D02*
X19846888Y-3109895D01*
X19839406Y-11203219D02*
X19839409Y-11203194D01*
X10064452Y-6328654D02*
X10061876Y-6331765D01*
X19802485Y-2628606D02*
X19802477Y-2628582D01*
X19718873Y-11551138D02*
X19739841Y-11513874D01*
X9856963Y-9186564D02*
X9856965Y-9186590D01*
X19274473Y-2065899D02*
X19274449Y-2065889D01*
X19786667Y-8584509D02*
X19786658Y-8584485D01*
X9999103Y-7583221D02*
X10023192Y-7618475D01*
X19675100Y-4379242D02*
X19675085Y-4379222D01*
X19574928Y-11735183D02*
X19574946Y-11735165D01*
X9888426Y-2661123D02*
X9877567Y-2702479D01*
X19844342Y-11156632D02*
X19844344Y-11156607D01*
X9930278Y-11456428D02*
X9931925Y-11460110D01*
X19728017Y-8461370D02*
X19726006Y-8457867D01*
X19346351Y-5940137D02*
X19349453Y-5932897D01*
X19827260Y-4718935D02*
X19827254Y-4718910D01*
X9960153Y-2483937D02*
X9960141Y-2483959D01*
X19760789Y-3471971D02*
X19760801Y-3471948D01*
X19341242Y-7955032D02*
X19343612Y-7947521D01*
X9896680Y-7369139D02*
X9897944Y-7372969D01*
X10127946Y-10259795D02*
X10125066Y-10262627D01*
X19540784Y-5767223D02*
X19572029Y-5738034D01*
X10095336Y-6293393D02*
X10095318Y-6293412D01*
X19619114Y-6309248D02*
X19616432Y-6306227D01*
X9872157Y-11278879D02*
X9873024Y-11282818D01*
X10301945Y-9874358D02*
X10308039Y-9879353D01*
X9855334Y-8845256D02*
X9853106Y-8887915D01*
X19827254Y-10718910D02*
X19817094Y-10677376D01*
X9852997Y-10892061D02*
X9852997Y-10892087D01*
X10194985Y-2200303D02*
X10194966Y-2200320D01*
X9877561Y-4702503D02*
X9876636Y-4706436D01*
X19550614Y-8239584D02*
X19550595Y-8239567D01*
X10182305Y-9789127D02*
X10185414Y-9791696D01*
X19843132Y-4815337D02*
X19842680Y-4811322D01*
X10061859Y-4331785D02*
X10035443Y-4365407D01*
X10219035Y-5818057D02*
X10219055Y-5818073D01*
X19439985Y-10153060D02*
X19409070Y-10133520D01*
X18987017Y-11997772D02*
X18988693Y-11997663D01*
X19352909Y-3925820D02*
X19356711Y-3918923D01*
X9972601Y-3539837D02*
X9974615Y-3543331D01*
X9939204Y-2525840D02*
X9939193Y-2525863D01*
X10081553Y-11691565D02*
X10081569Y-11691584D01*
X10694245Y-11997350D02*
X10694270Y-11997353D01*
X10008336Y-10403615D02*
X10008321Y-10403636D01*
X9855649Y-10841203D02*
X9855336Y-10845231D01*
X10235544Y-4169530D02*
X10235523Y-4169544D01*
X10312018Y-8116651D02*
X10306096Y-8121848D01*
X10064468Y-6328634D02*
X10064452Y-6328654D01*
X10006062Y-8407016D02*
X9983217Y-8443160D01*
X9873029Y-11282843D02*
X9883260Y-11324297D01*
X19429090Y-11852365D02*
X19429111Y-11852351D01*
X19638118Y-7666045D02*
X19638134Y-7666026D01*
X10053995Y-3658951D02*
X10081553Y-3691566D01*
X9853106Y-6887915D02*
X9853105Y-6887941D01*
X10116321Y-7728691D02*
X10147061Y-7758325D01*
X19337631Y-9970360D02*
X19339247Y-9962651D01*
X10185434Y-11791711D02*
X10219035Y-11818057D01*
X9876636Y-4706436D02*
X9876630Y-4706461D01*
X19082064Y-11986958D02*
X19082089Y-11986954D01*
X19846997Y-7105751D02*
X19846997Y-7105724D01*
X19501834Y-3800047D02*
X19501854Y-3800031D01*
X19748366Y-10499005D02*
X19728030Y-10461392D01*
X19832099Y-7249468D02*
X19832822Y-7245493D01*
X19540784Y-9767223D02*
X19572029Y-9738034D01*
X9958251Y-8487529D02*
X9958239Y-8487552D01*
X10035443Y-8365407D02*
X10035427Y-8365427D01*
X10323055Y-8105409D02*
X10317676Y-8111167D01*
X9864051Y-9236932D02*
X9872152Y-9278854D01*
X19664551Y-11632404D02*
X19664566Y-11632383D01*
X10332925Y-8093131D02*
X10328142Y-8099393D01*
X19343612Y-9947521D02*
X19346351Y-9940137D01*
X19351693Y-4070011D02*
X19348357Y-4062876D01*
X19425694Y-3854554D02*
X19429090Y-3852366D01*
X19352909Y-9925820D02*
X19356711Y-9918923D01*
X10345334Y-8073035D02*
X10341531Y-8079936D01*
X19649224Y-6345139D02*
X19646700Y-6341984D01*
X9853036Y-7141976D02*
X9853037Y-7142020D01*
X19359471Y-2105250D02*
X19359448Y-2105238D01*
X9867900Y-6748318D02*
X9867895Y-6748343D01*
X19343612Y-5947521D02*
X19346351Y-5940137D01*
X9931925Y-7460110D02*
X9931936Y-7460133D01*
X10363194Y-3997111D02*
X10363130Y-4004990D01*
X9931936Y-11460133D02*
X9950363Y-11498650D01*
X10006062Y-6407016D02*
X9983217Y-6443160D01*
X19796138Y-9385205D02*
X19797460Y-9381388D01*
X19443386Y-10155334D02*
X19443365Y-10155319D01*
X19796138Y-3385205D02*
X19797460Y-3381388D01*
X10232223Y-6171918D02*
X10198160Y-6197764D01*
X19664566Y-7632383D02*
X19666980Y-7629144D01*
X10334404Y-7908497D02*
X10338766Y-7915058D01*
X9888433Y-4661098D02*
X9888426Y-4661122D01*
X10194966Y-2200320D02*
X10162269Y-2227873D01*
X19728030Y-2461392D02*
X19728017Y-2461370D01*
X19839406Y-5203220D02*
X19839409Y-5203194D01*
X19335554Y-9985969D02*
X19336399Y-9978139D01*
X19616432Y-6306227D02*
X19616415Y-6306208D01*
X19649239Y-4345159D02*
X19649224Y-4345139D01*
X10346489Y-3928789D02*
X10349831Y-3935924D01*
X19846854Y-10858276D02*
X19843134Y-10815362D01*
X9860065Y-2798623D02*
X9860062Y-2798648D01*
X10617905Y-2010857D02*
X10575906Y-2018880D01*
X10008321Y-4403636D02*
X10006076Y-4406995D01*
X19336399Y-9978139D02*
X19337631Y-9970360D01*
X10061876Y-10331765D02*
X10061859Y-10331785D01*
X19501854Y-3800031D02*
X19505008Y-3797508D01*
X19356711Y-7918923D02*
X19360851Y-7912222D01*
X19741743Y-3510282D02*
X19741755Y-3510259D01*
X10295612Y-3869670D02*
X10301945Y-3874358D01*
X9937488Y-2529525D02*
X9937477Y-2529548D01*
X19781104Y-5425261D02*
X19796129Y-5385230D01*
X10219055Y-5818073D02*
X10222292Y-5820480D01*
X19846997Y-9105751D02*
X19846997Y-9105724D01*
X10113472Y-9725800D02*
X10116303Y-9728673D01*
X19728017Y-10461370D02*
X19726006Y-10457866D01*
X10668360Y-2003869D02*
X10668335Y-2003872D01*
X19846888Y-5109895D02*
X19846889Y-5109869D01*
X19788120Y-8588278D02*
X19786667Y-8584509D01*
X19770269Y-10544992D02*
X19770259Y-10544969D01*
X10274300Y-6143257D02*
X10270904Y-6145445D01*
X19553609Y-4242334D02*
X19553590Y-4242317D01*
X19429111Y-7852351D02*
X19464450Y-7828281D01*
X10270883Y-4145459D02*
X10235544Y-4169530D01*
X9918890Y-10572550D02*
X9903865Y-10612581D01*
X19352909Y-7925820D02*
X19356711Y-7918923D01*
X19811567Y-11336688D02*
X19822426Y-11295332D01*
X9952219Y-7502288D02*
X9972588Y-7539814D01*
X19390094Y-4119453D02*
X19384262Y-4114159D01*
X19823358Y-5291375D02*
X19823364Y-5291350D01*
X19817094Y-6677376D02*
X19817088Y-6677352D01*
X19343612Y-3947521D02*
X19346351Y-3940137D01*
X19786667Y-10584509D02*
X19786658Y-10584485D01*
X9860588Y-10794591D02*
X9860584Y-10794616D01*
X9937488Y-6529524D02*
X9937477Y-6529548D01*
X9860584Y-10794616D02*
X9860065Y-10798622D01*
X10032999Y-4368687D02*
X10008336Y-4403615D01*
X10341049Y-11895037D02*
X10341071Y-11895048D01*
X19553590Y-2242317D02*
X19550614Y-2239585D01*
X19827260Y-2718935D02*
X19827254Y-2718911D01*
X19572048Y-9738016D02*
X19574928Y-9735184D01*
X9860584Y-6794616D02*
X9860065Y-6798623D01*
X19349453Y-5932897D02*
X19352909Y-5925820D01*
X10354629Y-8051322D02*
X10351891Y-8058711D01*
X9884332Y-7328212D02*
X9884339Y-7328237D01*
X10324732Y-9896061D02*
X10329722Y-9902159D01*
X10270883Y-6145459D02*
X10235544Y-6169530D01*
X10352816Y-3943217D02*
X10355435Y-3950648D01*
X19846965Y-10859979D02*
X19846856Y-10858297D01*
X19675100Y-6379242D02*
X19675085Y-6379221D01*
X10383022Y-11915752D02*
X10422187Y-11932757D01*
X10185414Y-9791696D02*
X10185434Y-9791712D01*
X19816028Y-2673454D02*
X19816021Y-2673429D01*
X19336399Y-5978139D02*
X19337631Y-5970360D01*
X10362677Y-4012856D02*
X10361835Y-4020690D01*
X10354629Y-6051323D02*
X10351891Y-6058711D01*
X10270904Y-10145445D02*
X10270883Y-10145459D01*
X19839932Y-7199163D02*
X19844342Y-7156632D01*
X9852997Y-7140224D02*
X9852997Y-7140247D01*
X9860588Y-8794591D02*
X9860584Y-8794616D01*
X19770259Y-4544969D02*
X19768616Y-4541279D01*
X10113454Y-11725781D02*
X10113472Y-11725800D01*
X10357684Y-7958199D02*
X10359555Y-7965853D01*
X19802485Y-10628606D02*
X19802477Y-10628581D01*
X19505028Y-11797491D02*
X19537725Y-11769938D01*
X10361835Y-8020690D02*
X10360605Y-8028473D01*
X9883260Y-11324297D02*
X9883266Y-11324322D01*
X9853154Y-9143768D02*
X9856963Y-9186564D01*
X9889559Y-2657218D02*
X9888433Y-2661098D01*
X19843134Y-2815362D02*
X19843132Y-2815337D01*
X19832099Y-5249468D02*
X19832822Y-5245494D01*
X10035427Y-6365427D02*
X10033014Y-6368666D01*
X19802485Y-8628606D02*
X19802477Y-8628582D01*
X10510512Y-11963529D02*
X10510537Y-11963536D01*
X9972588Y-11539814D02*
X9972601Y-11539837D01*
X19779579Y-7429029D02*
X19781094Y-7425284D01*
X10025567Y-11621766D02*
X10025582Y-11621787D01*
X10125048Y-4262645D02*
X10095336Y-4293394D01*
X19739841Y-5513874D02*
X19739853Y-5513852D01*
X19693918Y-9590816D02*
X19693931Y-9590794D01*
X9958239Y-10487552D02*
X9939204Y-10525839D01*
X10198160Y-10197764D02*
X10198140Y-10197780D01*
X10025582Y-11621787D02*
X10051439Y-11655765D01*
X10257235Y-7845105D02*
X10260590Y-7847344D01*
X10035443Y-6365407D02*
X10035427Y-6365427D01*
X19797468Y-11381364D02*
X19810427Y-11340617D01*
X10296745Y-11870153D02*
X10300210Y-11872218D01*
X9920425Y-6568758D02*
X9920415Y-6568782D01*
X9852997Y-4892087D02*
X9852997Y-5140225D01*
X19823358Y-7291375D02*
X19823364Y-7291350D01*
X19716790Y-3554629D02*
X19718860Y-3551161D01*
X10064452Y-8328653D02*
X10061876Y-8331765D01*
X19635525Y-9669176D02*
X19635542Y-9669157D01*
X9972588Y-7539814D02*
X9972601Y-7539837D01*
X10571934Y-2019745D02*
X10571909Y-2019750D01*
X19335098Y-3993832D02*
X19335554Y-3985970D01*
X19728017Y-4461370D02*
X19726006Y-4457867D01*
X10008336Y-8403615D02*
X10008321Y-8403636D01*
X19553590Y-4242317D02*
X19550614Y-4239585D01*
X19341242Y-5955032D02*
X19343612Y-5947521D01*
X10113454Y-5725782D02*
X10113472Y-5725800D01*
X10345334Y-6073035D02*
X10341531Y-6079936D01*
X10348790Y-6065954D02*
X10345334Y-6073035D01*
X19716777Y-11554651D02*
X19716790Y-11554629D01*
X10260590Y-5847344D02*
X10260612Y-5847358D01*
X9863379Y-5232903D02*
X9863383Y-5232929D01*
X9939204Y-10525839D02*
X9939193Y-10525862D01*
X10351891Y-6058711D02*
X10348790Y-6065954D01*
X19481575Y-6182426D02*
X19478335Y-6180012D01*
X10356998Y-8043808D02*
X10354629Y-8051322D01*
X10363194Y-7997111D02*
X10363130Y-8004990D01*
X9930268Y-5456405D02*
X9930278Y-5456428D01*
X19400350Y-2128132D02*
X19400328Y-2128119D01*
X19675100Y-2379242D02*
X19675085Y-2379222D01*
X19836812Y-6768943D02*
X19836808Y-6768917D01*
X9864051Y-7236932D02*
X9872152Y-7278854D01*
X10116303Y-7728673D02*
X10116321Y-7728691D01*
X10232243Y-4171903D02*
X10232223Y-4171918D01*
X19443386Y-2155334D02*
X19443365Y-2155320D01*
X19584376Y-2272064D02*
X19584358Y-2272046D01*
X19098655Y-2014896D02*
X19094680Y-2014172D01*
X19828124Y-10722907D02*
X19828119Y-10722882D01*
X19822426Y-9295332D02*
X19822432Y-9295307D01*
X19335031Y-6001708D02*
X19335098Y-5993832D01*
X9863383Y-3232929D02*
X9864047Y-3236907D01*
X9913822Y-11416973D02*
X9913831Y-11416997D01*
X19380562Y-3887708D02*
X19386217Y-3882227D01*
X19355379Y-6076971D02*
X19351693Y-6070011D01*
X9873024Y-5282819D02*
X9873029Y-5282844D01*
X9958251Y-10487529D02*
X9958239Y-10487552D01*
X10127964Y-10259777D02*
X10127946Y-10259795D01*
X10332925Y-10093131D02*
X10328142Y-10099393D01*
X19811567Y-7336688D02*
X19822426Y-7295332D01*
X9903865Y-2612581D02*
X9903856Y-2612606D01*
X19691658Y-7594195D02*
X19691673Y-7594174D01*
X10358991Y-10036185D02*
X10356998Y-10043808D01*
X10147080Y-3758343D02*
X10150054Y-3761067D01*
X19348357Y-4062876D02*
X19345378Y-4055586D01*
X9918899Y-8572526D02*
X9918890Y-8572550D01*
X9996886Y-5579791D02*
X9996899Y-5579813D01*
X10295612Y-9869670D02*
X10301945Y-9874358D01*
X10185434Y-9791712D02*
X10219035Y-9818057D01*
X10274322Y-4143244D02*
X10274300Y-4143257D01*
X9897952Y-7372994D02*
X9912356Y-7413189D01*
X19481575Y-2182426D02*
X19478335Y-2180012D01*
X9958239Y-4487552D02*
X9939204Y-4525839D01*
X19803743Y-4632445D02*
X19802485Y-4628606D01*
X10162250Y-6227889D02*
X10159228Y-6230571D01*
X9853154Y-11143768D02*
X9856963Y-11186564D01*
X19828124Y-4722908D02*
X19828119Y-4722883D01*
X19796138Y-11385205D02*
X19797460Y-11381388D01*
X19619130Y-8309268D02*
X19619114Y-8309248D01*
X10295612Y-7869670D02*
X10301945Y-7874358D01*
X10345334Y-4073035D02*
X10341531Y-4079936D01*
X9857425Y-7190597D02*
X9857428Y-7190622D01*
X19646684Y-4341964D02*
X19619130Y-4309268D01*
X9853153Y-9143746D02*
X9853154Y-9143768D01*
X19846854Y-4858276D02*
X19843134Y-4815362D01*
X9958251Y-2487529D02*
X9958239Y-2487552D01*
X19822432Y-3295307D02*
X19823358Y-3291375D01*
X19404713Y-5867554D02*
X19411347Y-5863287D01*
X19810427Y-9340617D02*
X19810435Y-9340593D01*
X10147061Y-7758325D02*
X10147080Y-7758342D01*
X10053995Y-7658951D02*
X10081553Y-7691565D01*
X19728030Y-8461392D02*
X19728017Y-8461370D01*
X10035443Y-2365407D02*
X10035427Y-2365427D01*
X9950363Y-5498650D02*
X9950374Y-5498673D01*
X10159228Y-2230571D02*
X10159209Y-2230588D01*
D12*
X9552997Y-8000000D02*
X20147003Y-8000000D01*
D11*
X19363761Y-10090302D02*
X19359405Y-10083741D01*
X19677459Y-4382522D02*
X19675100Y-4379242D01*
X10260590Y-9847344D02*
X10260612Y-9847358D01*
X9883266Y-9324322D02*
X9884332Y-9328212D01*
X9902525Y-4616447D02*
X9889566Y-4657194D01*
X9913831Y-9416997D02*
X9930268Y-9456405D01*
X10469793Y-11950598D02*
X10469817Y-11950606D01*
X19501854Y-5800031D02*
X19505008Y-5797508D01*
X19741755Y-3510259D02*
X19760789Y-3471971D01*
X10182285Y-9789110D02*
X10182305Y-9789127D01*
X19664566Y-9632383D02*
X19666980Y-9629144D01*
X19341242Y-3955032D02*
X19343612Y-3947521D01*
X10668335Y-2003872D02*
X10664320Y-2004324D01*
X10346489Y-5928789D02*
X10349831Y-5935924D01*
X19675085Y-8379221D02*
X19649239Y-8345159D01*
X10194985Y-4200303D02*
X10194966Y-4200319D01*
X9867171Y-6752317D02*
X9867167Y-6752342D01*
X19846854Y-6858276D02*
X19843134Y-6815362D01*
X19518368Y-8211466D02*
X19518348Y-8211450D01*
X10061859Y-6331785D02*
X10035443Y-6365407D01*
X10084250Y-7694598D02*
X10084267Y-7694617D01*
X9855649Y-4841204D02*
X9855336Y-4845231D01*
X19355379Y-10076971D02*
X19351693Y-10070011D01*
X10346489Y-9928789D02*
X10349831Y-9935924D01*
X19443365Y-4155320D02*
X19440006Y-4153075D01*
X9873024Y-11282818D02*
X9873029Y-11282843D01*
X19425672Y-3854567D02*
X19425694Y-3854554D01*
X9853036Y-11141975D02*
X9853037Y-11142020D01*
X9983204Y-10443181D02*
X9981133Y-10446650D01*
X19817088Y-6677352D02*
X19816028Y-6673454D01*
X19666980Y-3629144D02*
X19666995Y-3629124D01*
X10379341Y-11914041D02*
X10382998Y-11915742D01*
X19467771Y-5825892D02*
X19501834Y-5800047D01*
X10601514Y-11985135D02*
X10601539Y-11985140D01*
X19779569Y-5429052D02*
X19779579Y-5429029D01*
X10324732Y-3896062D02*
X10329722Y-3902159D01*
X19572048Y-3738016D02*
X19574928Y-3735184D01*
X19169618Y-11967900D02*
X19169643Y-11967894D01*
X10274300Y-10143257D02*
X10270904Y-10145445D01*
X19750219Y-4502652D02*
X19750207Y-4502629D01*
X19816021Y-2673429D02*
X19803751Y-2632469D01*
X9873029Y-5282844D02*
X9883260Y-5324298D01*
X19348357Y-6062876D02*
X19345378Y-6055585D01*
X9996899Y-9579812D02*
X9999089Y-9583199D01*
X10260590Y-11847344D02*
X10260612Y-11847357D01*
X19380562Y-5887708D02*
X19386217Y-5882227D01*
X10260590Y-3847344D02*
X10260612Y-3847358D01*
X10162250Y-4227890D02*
X10159228Y-4230571D01*
X10006062Y-4407016D02*
X9983217Y-4443160D01*
X9852997Y-10892087D02*
X9852997Y-11140224D01*
X9889566Y-2657194D02*
X9889559Y-2657218D01*
X19031634Y-11993941D02*
X19031659Y-11993939D01*
X19781094Y-9425284D02*
X19781104Y-9425260D01*
X9877567Y-10702478D02*
X9877561Y-10702503D01*
X19398308Y-7872137D02*
X19404713Y-7867554D01*
X19846889Y-3109869D02*
X19846997Y-3105751D01*
X19574928Y-5735184D02*
X19574946Y-5735166D01*
X9920415Y-2568782D02*
X9918899Y-2572527D01*
X10127964Y-4259777D02*
X10127946Y-4259795D01*
X19827254Y-4718910D02*
X19817094Y-4677377D01*
X9999103Y-5583221D02*
X10023192Y-5618475D01*
X19750219Y-2502652D02*
X19750207Y-2502629D01*
X9999089Y-3583200D02*
X9999103Y-3583221D01*
X19646684Y-8341964D02*
X19619130Y-8309268D01*
X9902533Y-2616423D02*
X9902525Y-2616447D01*
X19844342Y-9156632D02*
X19844344Y-9156607D01*
X10354629Y-4051323D02*
X10351891Y-4058711D01*
X19378700Y-6108584D02*
X19373420Y-6102739D01*
X19518348Y-10211450D02*
X19515237Y-10208874D01*
X10379318Y-11914030D02*
X10379341Y-11914041D01*
X9872152Y-11278854D02*
X9872157Y-11278879D01*
X19827260Y-10718935D02*
X19827254Y-10718910D01*
X10159228Y-4230571D02*
X10159209Y-4230588D01*
X10064468Y-2328634D02*
X10064452Y-2328654D01*
X19478315Y-4179997D02*
X19443386Y-4155334D01*
X9912365Y-3413213D02*
X9913822Y-3416974D01*
X19429090Y-3852366D02*
X19429111Y-3852352D01*
X18985294Y-11997811D02*
X18986974Y-11997774D01*
X9867900Y-10748318D02*
X9867895Y-10748343D01*
X10740903Y-11999890D02*
X10740929Y-11999891D01*
X10361045Y-9973590D02*
X10362149Y-9981391D01*
X9863383Y-11232928D02*
X9864047Y-11236907D01*
X10125066Y-10262627D02*
X10125048Y-10262645D01*
X19189805Y-2036566D02*
X19189780Y-2036559D01*
X10127946Y-2259795D02*
X10125066Y-2262627D01*
X19351693Y-8070011D02*
X19348357Y-8062876D01*
X10260590Y-7847344D02*
X10260612Y-7847358D01*
X18985273Y-11997811D02*
X18985294Y-11997811D01*
X9950363Y-3498650D02*
X9950374Y-3498673D01*
X10274300Y-2143257D02*
X10270904Y-2145445D01*
X19846997Y-5105751D02*
X19846997Y-5105725D01*
X19691673Y-9594174D02*
X19693918Y-9590816D01*
X9897944Y-3372970D02*
X9897952Y-3372994D01*
X19810435Y-7340593D02*
X19811560Y-7336713D01*
X19638134Y-5666026D02*
X19664551Y-5632404D01*
X19797460Y-5381388D02*
X19797468Y-5381364D01*
X9903856Y-4612605D02*
X9902533Y-4616422D01*
X9918890Y-4572550D02*
X9903865Y-4612581D01*
X19810427Y-3340617D02*
X19810435Y-3340593D01*
X10147061Y-3758325D02*
X10147080Y-3758343D01*
X19768616Y-8541279D02*
X19768605Y-8541255D01*
X9873029Y-3282844D02*
X9883260Y-3324298D01*
X19836808Y-8768917D02*
X19836152Y-8764931D01*
X19718860Y-7551160D02*
X19718873Y-7551138D01*
X19584358Y-2272046D02*
X19553609Y-2242334D01*
X19368436Y-6096640D02*
X19363761Y-6090302D01*
X19817094Y-10677376D02*
X19817088Y-10677352D01*
X19342764Y-4048156D02*
X19340521Y-4040606D01*
X19537725Y-11769938D02*
X19537744Y-11769921D01*
X19823358Y-11291375D02*
X19823364Y-11291350D01*
X19839409Y-3203194D02*
X19839929Y-3199188D01*
X19646700Y-2341984D02*
X19646684Y-2341965D01*
X19844344Y-5156607D02*
X19844658Y-5152580D01*
X19005819Y-2002654D02*
X19005793Y-2002652D01*
X19616415Y-10306208D02*
X19587226Y-10274963D01*
X10712977Y-2000039D02*
X10711295Y-2000148D01*
X9896680Y-11369139D02*
X9897944Y-11372969D01*
X9902533Y-10616422D02*
X9902525Y-10616446D01*
X19817094Y-8677376D02*
X19817088Y-8677352D01*
X19359405Y-4083741D02*
X19355379Y-4076971D01*
X10356998Y-4043808D02*
X10354629Y-4051323D01*
X19173566Y-11966827D02*
X19214525Y-11954557D01*
X19832099Y-3249468D02*
X19832822Y-3245494D01*
X10328142Y-6099393D02*
X10323055Y-6105410D01*
X10219055Y-7818073D02*
X10222292Y-7820480D01*
X9860062Y-6798648D02*
X9855652Y-6841178D01*
X10159209Y-6230588D02*
X10127964Y-6259777D01*
X10025582Y-3621787D02*
X10051439Y-3655765D01*
X19335554Y-3985970D02*
X19336399Y-3978139D01*
X10342798Y-7921828D02*
X10346489Y-7928789D01*
X19515237Y-10208874D02*
X19515217Y-10208858D01*
X19335355Y-10009577D02*
X19335031Y-10001708D01*
X19762506Y-5468286D02*
X19762516Y-5468263D01*
X9972601Y-9539837D02*
X9974615Y-9543331D01*
X10081569Y-9691585D02*
X10084250Y-9694598D01*
X19342764Y-8048156D02*
X19340521Y-8040606D01*
X10061876Y-6331765D02*
X10061859Y-6331785D01*
X19846965Y-8859979D02*
X19846856Y-8858297D01*
X10084250Y-5694598D02*
X10084267Y-5694617D01*
X19741743Y-5510282D02*
X19741755Y-5510259D01*
X9889566Y-4657194D02*
X9889559Y-4657218D01*
X9981121Y-6446672D02*
X9960153Y-6483937D01*
X10296724Y-11870140D02*
X10296745Y-11870153D01*
X19349453Y-3932897D02*
X19352909Y-3925820D01*
X9937488Y-10529524D02*
X9937477Y-10529548D01*
X19537744Y-9769921D02*
X19540765Y-9767240D01*
X19803751Y-2632469D02*
X19803743Y-2632445D01*
X10332925Y-6093131D02*
X10328142Y-6099393D01*
X10338766Y-5915058D02*
X10342798Y-5921828D01*
X10222312Y-3820495D02*
X10257214Y-3845091D01*
X19716790Y-11554629D02*
X19718860Y-11551160D01*
X19355379Y-8076971D02*
X19351693Y-8070011D01*
X10198160Y-2197764D02*
X10198140Y-2197780D01*
X10235544Y-8169530D02*
X10235523Y-8169544D01*
X19481575Y-10182426D02*
X19478335Y-10180012D01*
X19842677Y-6811297D02*
X19836812Y-6768943D01*
X10362149Y-3981392D02*
X10362866Y-3989238D01*
X19258716Y-11938926D02*
X19262485Y-11937474D01*
X18988693Y-11997663D02*
X18988715Y-11997662D01*
X19385623Y-11878824D02*
X19389126Y-11876812D01*
X19390094Y-10119453D02*
X19384262Y-10114159D01*
X19553609Y-6242334D02*
X19553590Y-6242316D01*
X10651749Y-11992948D02*
X10651774Y-11992951D01*
X10159228Y-6230571D02*
X10159209Y-6230588D01*
X19396181Y-8124451D02*
X19390094Y-8119453D01*
X9903856Y-10612605D02*
X9902533Y-10616422D01*
X9999089Y-9583199D02*
X9999103Y-9583221D01*
X19803743Y-6632445D02*
X19802485Y-6628606D01*
X9960153Y-10483936D02*
X9960141Y-10483959D01*
X19691673Y-3594174D02*
X19693918Y-3590816D01*
X19703760Y-8421321D02*
X19703747Y-8421299D01*
X10084267Y-7694617D02*
X10113454Y-7725782D01*
X9853037Y-7142020D02*
X9853153Y-7143746D01*
X10329722Y-9902159D02*
X10334404Y-9908497D01*
X9853106Y-8887915D02*
X9853105Y-8887941D01*
X9853153Y-7143746D02*
X9853154Y-7143768D01*
X9873029Y-7282843D02*
X9883260Y-7324298D01*
X19843134Y-6815362D02*
X19843132Y-6815337D01*
X19760789Y-5471971D02*
X19760801Y-5471948D01*
X19411347Y-5863287D02*
X19425672Y-5854567D01*
X9952219Y-3502288D02*
X9972588Y-3539815D01*
X9852997Y-6892087D02*
X9852997Y-7140224D01*
X19788129Y-2588303D02*
X19788120Y-2588279D01*
X19338654Y-4032955D02*
X19337169Y-4025220D01*
X9952207Y-7502266D02*
X9952219Y-7502288D01*
X10465981Y-11949280D02*
X10469793Y-11950598D01*
X10182305Y-3789127D02*
X10185414Y-3791696D01*
X10334404Y-5908497D02*
X10338766Y-5915058D01*
X9983217Y-10443160D02*
X9983204Y-10443181D01*
X19844344Y-9156607D02*
X19844658Y-9152580D01*
X9883260Y-9324298D02*
X9883266Y-9324322D01*
X19664566Y-5632384D02*
X19666980Y-5629144D01*
X19811567Y-9336688D02*
X19822426Y-9295332D01*
X19844660Y-5152554D02*
X19846888Y-5109895D01*
X10150054Y-7761067D02*
X10150073Y-7761084D01*
X19846856Y-6858297D02*
X19846854Y-6858276D01*
X19365317Y-9905735D02*
X19370098Y-9899476D01*
X9884332Y-9328212D02*
X9884339Y-9328237D01*
X19817094Y-2677377D02*
X19817088Y-2677352D01*
X19846967Y-8860022D02*
X19846965Y-8859979D01*
X10147080Y-5758342D02*
X10150054Y-5761067D01*
X19347966Y-11899184D02*
X19347988Y-11899172D01*
X19572048Y-11738016D02*
X19574928Y-11735183D01*
X10064468Y-10328634D02*
X10064452Y-10328653D01*
X19540765Y-7767240D02*
X19540784Y-7767223D01*
X19515217Y-8208858D02*
X19481595Y-8182441D01*
X9903865Y-6612581D02*
X9903856Y-6612605D01*
X19302001Y-11921075D02*
X19302025Y-11921065D01*
X19816021Y-4673429D02*
X19803751Y-4632469D01*
X9918899Y-4572526D02*
X9918890Y-4572550D01*
X19635542Y-9669157D02*
X19638118Y-9666045D01*
X19842677Y-8811297D02*
X19836812Y-8768943D01*
X19574928Y-7735184D02*
X19574946Y-7735165D01*
X9873024Y-9282819D02*
X9873029Y-9282843D01*
X9857428Y-5190622D02*
X9863379Y-5232903D01*
X9952219Y-11502288D02*
X9972588Y-11539814D01*
X19340521Y-8040606D02*
X19338654Y-8032954D01*
X10323055Y-10105409D02*
X10317676Y-10111167D01*
X19336068Y-8017421D02*
X19335355Y-8009577D01*
X19646700Y-10341984D02*
X19646684Y-10341964D01*
X10182285Y-11789110D02*
X10182305Y-11789127D01*
X10182285Y-7789110D02*
X10182305Y-7789127D01*
X9867900Y-8748318D02*
X9867895Y-8748343D01*
X19664551Y-7632404D02*
X19664566Y-7632383D01*
X9931925Y-3460110D02*
X9931936Y-3460133D01*
X19726006Y-2457867D02*
X19725993Y-2457845D01*
X10274322Y-6143243D02*
X10274300Y-6143257D01*
X10362866Y-7989238D02*
X10363194Y-7997111D01*
X10194985Y-8200303D02*
X10194966Y-8200319D01*
X10032999Y-6368687D02*
X10008336Y-6403615D01*
X10006076Y-4406995D02*
X10006062Y-4407016D01*
X10198140Y-6197780D02*
X10194985Y-6200303D01*
X19440006Y-2153075D02*
X19439985Y-2153061D01*
X10147061Y-5758325D02*
X10147080Y-5758342D01*
X19540765Y-5767240D02*
X19540784Y-5767223D01*
X19847003Y-10861707D02*
X19846967Y-10860022D01*
X19619130Y-4309268D02*
X19619114Y-4309249D01*
X19230577Y-2049533D02*
X19230552Y-2049525D01*
X10023207Y-11618495D02*
X10025567Y-11621766D01*
X10159228Y-10230571D02*
X10159209Y-10230588D01*
X19339247Y-7962651D02*
X19341242Y-7955032D01*
X19378700Y-8108583D02*
X19373420Y-8102739D01*
X10349831Y-3935924D02*
X10352816Y-3943217D01*
X19846856Y-10858297D02*
X19846854Y-10858276D01*
X19846889Y-11109869D02*
X19846997Y-11105750D01*
X10329722Y-7902159D02*
X10334404Y-7908497D01*
X9983204Y-6443181D02*
X9981133Y-6446650D01*
X9902533Y-8616422D02*
X9902525Y-8616447D01*
X9958239Y-6487552D02*
X9939204Y-6525839D01*
X19701545Y-6417882D02*
X19677474Y-6382542D01*
X19748366Y-2499005D02*
X19728030Y-2461392D01*
X19375184Y-9893462D02*
X19380562Y-9887708D01*
X19768605Y-10541255D02*
X19750219Y-10502652D01*
X9912365Y-9413213D02*
X9913822Y-9416974D01*
X19344364Y-11901014D02*
X19347966Y-11899184D01*
X9983217Y-6443160D02*
X9983204Y-6443181D01*
X10222312Y-7820495D02*
X10257214Y-7845091D01*
X10235523Y-10169544D02*
X10232243Y-10171903D01*
X9867167Y-6752342D02*
X9860588Y-6794591D01*
X9872157Y-3278880D02*
X9873024Y-3282819D01*
X19844342Y-7156632D02*
X19844344Y-7156607D01*
X10274322Y-2143244D02*
X10274300Y-2143257D01*
X9974628Y-11543353D02*
X9996886Y-11579791D01*
X19359405Y-6083741D02*
X19355379Y-6076971D01*
X19750219Y-10502652D02*
X19750207Y-10502629D01*
X10194985Y-10200303D02*
X10194966Y-10200319D01*
X10051455Y-5655785D02*
X10053978Y-5658932D01*
X9912356Y-7413189D02*
X9912365Y-7413213D01*
X19501854Y-7800031D02*
X19505008Y-7797508D01*
X10394255Y-2078399D02*
X10355652Y-2096786D01*
X19832094Y-3249493D02*
X19832099Y-3249468D01*
X9897952Y-11372993D02*
X9912356Y-11413189D01*
X19351693Y-10070011D02*
X19348357Y-10062876D01*
X19843132Y-8815337D02*
X19842680Y-8811322D01*
X10032999Y-2368687D02*
X10008336Y-2403616D01*
X19748378Y-2499028D02*
X19748366Y-2499005D01*
X10355435Y-5950647D02*
X10357684Y-5958199D01*
X10714705Y-2000000D02*
X10713020Y-2000037D01*
X19572048Y-7738016D02*
X19574928Y-7735184D01*
X10095336Y-2293394D02*
X10095318Y-2293412D01*
X10035427Y-10365427D02*
X10033014Y-10368666D01*
X10348790Y-8065954D02*
X10345334Y-8073035D01*
X10159209Y-10230588D02*
X10127964Y-10259777D01*
X19842680Y-10811322D02*
X19842677Y-10811297D01*
X9913831Y-7416997D02*
X9930268Y-7456405D01*
X9852997Y-8892061D02*
X9852997Y-8892087D01*
X10025567Y-3621767D02*
X10025582Y-3621787D01*
X19345378Y-6055585D02*
X19342764Y-6048156D01*
X19384262Y-4114159D02*
X19378700Y-4108584D01*
X19716777Y-7554651D02*
X19716790Y-7554629D01*
X19836808Y-6768917D02*
X19836152Y-6764931D01*
X19604658Y-7704417D02*
X19604676Y-7704398D01*
X19646700Y-4341984D02*
X19646684Y-4341964D01*
X19584358Y-10272046D02*
X19553609Y-10242334D01*
X19822432Y-5295307D02*
X19823358Y-5291375D01*
X9884332Y-3328212D02*
X9884339Y-3328237D01*
X19262485Y-11937474D02*
X19262509Y-11937464D01*
X19218413Y-11953283D02*
X19258692Y-11938935D01*
X10025582Y-9621787D02*
X10051439Y-9655765D01*
X19278217Y-2067414D02*
X19274473Y-2065899D01*
X9864047Y-5236907D02*
X9864051Y-5236932D01*
X19604676Y-3704399D02*
X19607407Y-3701423D01*
X19716790Y-9554629D02*
X19718860Y-9551160D01*
X9853153Y-3143746D02*
X9853154Y-3143768D01*
X19846997Y-11105750D02*
X19846997Y-11105724D01*
X9912356Y-3413189D02*
X9912365Y-3413213D01*
X10222292Y-9820480D02*
X10222312Y-9820495D01*
X10352816Y-9943216D02*
X10355435Y-9950647D01*
X10222312Y-9820495D02*
X10257214Y-9845091D01*
X9853037Y-3142020D02*
X9853153Y-3143746D01*
X9931925Y-9460110D02*
X9931936Y-9460133D01*
X19844342Y-5156633D02*
X19844344Y-5156607D01*
X19666995Y-11629123D02*
X19691658Y-11594195D01*
X9912365Y-5413213D02*
X9913822Y-5416974D01*
X19832822Y-11245493D02*
X19832827Y-11245468D01*
X10257235Y-11845105D02*
X10260590Y-11847344D01*
X10033014Y-6368666D02*
X10032999Y-6368687D01*
X10061859Y-10331785D02*
X10035443Y-10365407D01*
X18954910Y-2000000D02*
X10714726Y-2000000D01*
X19501834Y-9800047D02*
X19501854Y-9800031D01*
X9884339Y-5328237D02*
X9896673Y-5369115D01*
X19646684Y-10341964D02*
X19619130Y-10309268D01*
X9857428Y-9190622D02*
X9863379Y-9232903D01*
X19348357Y-10062876D02*
X19345378Y-10055585D01*
X9856963Y-3186564D02*
X9856965Y-3186590D01*
X10219055Y-9818073D02*
X10222292Y-9820480D01*
X19607424Y-9701404D02*
X19635525Y-9669176D01*
X19828119Y-6722882D02*
X19827260Y-6718935D01*
X19635525Y-7669176D02*
X19635542Y-7669157D01*
X19832827Y-5245468D02*
X19839406Y-5203220D01*
X9883266Y-3324323D02*
X9884332Y-3328212D01*
X19337631Y-3970360D02*
X19339247Y-3962651D01*
X19584376Y-6272064D02*
X19584358Y-6272046D01*
X10235523Y-4169544D02*
X10232243Y-4171903D01*
X19691658Y-9594195D02*
X19691673Y-9594174D01*
X9853105Y-10887941D02*
X9852997Y-10892061D01*
X19359405Y-10083741D02*
X19355379Y-10076971D01*
X10355629Y-2096797D02*
X10352028Y-2098627D01*
X9877561Y-2702504D02*
X9876636Y-2706436D01*
X19335554Y-5985969D02*
X19336399Y-5978139D01*
X10362866Y-3989238D02*
X10363194Y-3997111D01*
X9852997Y-3140247D02*
X9853036Y-3141976D01*
X19048375Y-2007067D02*
X19048349Y-2007064D01*
X19390094Y-6119453D02*
X19384262Y-6114159D01*
X10351891Y-4058711D02*
X10348790Y-4065954D01*
X9913831Y-11416997D02*
X9930268Y-11456405D01*
X19443386Y-8155334D02*
X19443365Y-8155319D01*
X19443365Y-2155320D02*
X19440006Y-2153075D01*
X19823364Y-11291350D02*
X19832094Y-11249493D01*
X9855652Y-6841178D02*
X9855649Y-6841203D01*
X19337169Y-8025220D02*
X19336068Y-8017421D01*
X19540765Y-9767240D02*
X19540784Y-9767223D01*
X19703747Y-6421299D02*
X19701559Y-6417903D01*
X19675085Y-10379221D02*
X19649239Y-10345159D01*
X9855336Y-10845231D02*
X9855334Y-10845256D01*
X19701559Y-6417903D02*
X19701545Y-6417882D01*
X19846967Y-10860022D02*
X19846965Y-10859979D01*
X19822426Y-7295332D02*
X19822432Y-7295307D01*
X19505028Y-5797491D02*
X19537725Y-5769938D01*
X9931936Y-5460133D02*
X9950363Y-5498650D01*
X10113472Y-11725800D02*
X10116303Y-11728672D01*
X19703747Y-4421299D02*
X19701559Y-4417903D01*
X10051439Y-11655765D02*
X10051455Y-11655785D01*
X19691673Y-5594174D02*
X19693918Y-5590816D01*
X19550595Y-2239568D02*
X19518368Y-2211467D01*
X19847003Y-6861707D02*
X19846967Y-6860022D01*
X19836812Y-8768943D02*
X19836808Y-8768917D01*
X9981133Y-6446650D02*
X9981121Y-6446672D01*
X9918890Y-2572550D02*
X9903865Y-2612581D01*
X9920415Y-6568782D02*
X9918899Y-6572526D01*
X19797468Y-3381364D02*
X19810427Y-3340617D01*
X10162250Y-8227889D02*
X10159228Y-8230571D01*
X19305715Y-11919422D02*
X19305738Y-11919411D01*
X19779579Y-11429028D02*
X19781094Y-11425284D01*
X9877561Y-10702503D02*
X9876636Y-10706435D01*
X19842680Y-4811322D02*
X19842677Y-4811297D01*
X19368436Y-8096640D02*
X19363761Y-8090302D01*
X19846997Y-5105725D02*
X19847003Y-4861729D01*
X10359555Y-7965853D02*
X10361045Y-7973590D01*
X9999089Y-5583200D02*
X9999103Y-5583221D01*
X10025582Y-7621787D02*
X10051439Y-7655765D01*
X10219035Y-3818058D02*
X10219055Y-3818073D01*
X10575906Y-2018880D02*
X10575881Y-2018885D01*
X10359555Y-5965853D02*
X10361045Y-5973590D01*
X19035673Y-11993487D02*
X19035699Y-11993484D01*
X19384262Y-10114159D02*
X19378700Y-10108583D01*
X19052381Y-2007586D02*
X19048375Y-2007067D01*
X10319446Y-3890219D02*
X10324732Y-3896062D01*
X10084267Y-9694617D02*
X10113454Y-9725782D01*
X19189780Y-2036559D02*
X19185901Y-2035433D01*
X9983217Y-4443160D02*
X9983204Y-4443182D01*
D13*
D14*
X10076997Y-2940000D02*
X10206997Y-3070000D01*
X10206997Y-2940000D02*
X10076997Y-3070000D01*
X10076997Y-4940000D02*
X10206997Y-5070000D01*
X10206997Y-4940000D02*
X10076997Y-5070000D01*
X10076997Y-6940000D02*
X10206997Y-7070000D01*
X10206997Y-6940000D02*
X10076997Y-7070000D01*
X10076997Y-8940000D02*
X10206997Y-9070000D01*
X10206997Y-8940000D02*
X10076997Y-9070000D01*
X10076997Y-10939999D02*
X10206997Y-11069999D01*
X10206997Y-10939999D02*
X10076997Y-11069999D01*
D13*
X9790616Y-12315475D02*
X9790616Y-12115475D01*
X9838235Y-12115475D01*
X9866806Y-12124999D01*
X9885854Y-12144046D01*
X9895378Y-12163094D01*
X9904902Y-12201189D01*
X9904902Y-12229761D01*
X9895378Y-12267856D01*
X9885854Y-12286903D01*
X9866806Y-12305951D01*
X9838235Y-12315475D01*
X9790616Y-12315475D01*
X9990616Y-12315475D02*
X9990616Y-12182141D01*
X9990616Y-12220237D02*
X10000140Y-12201189D01*
X10009663Y-12191665D01*
X10028711Y-12182141D01*
X10047759Y-12182141D01*
X10114425Y-12315475D02*
X10114425Y-12182141D01*
X10114425Y-12115475D02*
X10104902Y-12124999D01*
X10114425Y-12134522D01*
X10123949Y-12124999D01*
X10114425Y-12115475D01*
X10114425Y-12134522D01*
X10238235Y-12315475D02*
X10219187Y-12305951D01*
X10209663Y-12286903D01*
X10209663Y-12115475D01*
X10342997Y-12315475D02*
X10323949Y-12305951D01*
X10314425Y-12286903D01*
X10314425Y-12115475D01*
X10571568Y-12315475D02*
X10571568Y-12115475D01*
X10638235Y-12258332D01*
X10704902Y-12115475D01*
X10704902Y-12315475D01*
X10885854Y-12315475D02*
X10885854Y-12210713D01*
X10876330Y-12191665D01*
X10857283Y-12182141D01*
X10819187Y-12182141D01*
X10800140Y-12191665D01*
X10885854Y-12305951D02*
X10866806Y-12315475D01*
X10819187Y-12315475D01*
X10800140Y-12305951D01*
X10790616Y-12286903D01*
X10790616Y-12267856D01*
X10800140Y-12248808D01*
X10819187Y-12239284D01*
X10866806Y-12239284D01*
X10885854Y-12229761D01*
X10981092Y-12182141D02*
X10981092Y-12382141D01*
X10981092Y-12191665D02*
X11000140Y-12182141D01*
X11038235Y-12182141D01*
X11057283Y-12191665D01*
X11066806Y-12201189D01*
X11076330Y-12220237D01*
X11076330Y-12277380D01*
X11066806Y-12296427D01*
X11057283Y-12305951D01*
X11038235Y-12315475D01*
X11000140Y-12315475D01*
X10981092Y-12305951D01*
X11162044Y-12296427D02*
X11171568Y-12305951D01*
X11162044Y-12315475D01*
X11152521Y-12305951D01*
X11162044Y-12296427D01*
X11162044Y-12315475D01*
X11162044Y-12191665D02*
X11171568Y-12201189D01*
X11162044Y-12210713D01*
X11152521Y-12201189D01*
X11162044Y-12191665D01*
X11162044Y-12210713D01*
D14*
X9402997Y-12579999D02*
X9532997Y-12709999D01*
X9532997Y-12579999D02*
X9402997Y-12709999D01*
D13*
X9895378Y-12735475D02*
X9781092Y-12735475D01*
X9838235Y-12735475D02*
X9838235Y-12535475D01*
X9819187Y-12564046D01*
X9800140Y-12583094D01*
X9781092Y-12592618D01*
X9981092Y-12716427D02*
X9990616Y-12725951D01*
X9981092Y-12735475D01*
X9971568Y-12725951D01*
X9981092Y-12716427D01*
X9981092Y-12735475D01*
X10057283Y-12535475D02*
X10181092Y-12535475D01*
X10114425Y-12611665D01*
X10142997Y-12611665D01*
X10162044Y-12621189D01*
X10171568Y-12630713D01*
X10181092Y-12649761D01*
X10181092Y-12697380D01*
X10171568Y-12716427D01*
X10162044Y-12725951D01*
X10142997Y-12735475D01*
X10085854Y-12735475D01*
X10066806Y-12725951D01*
X10057283Y-12716427D01*
X10304902Y-12535475D02*
X10323949Y-12535475D01*
X10342997Y-12544999D01*
X10352521Y-12554522D01*
X10362044Y-12573570D01*
X10371568Y-12611665D01*
X10371568Y-12659284D01*
X10362044Y-12697380D01*
X10352521Y-12716427D01*
X10342997Y-12725951D01*
X10323949Y-12735475D01*
X10304902Y-12735475D01*
X10285854Y-12725951D01*
X10276330Y-12716427D01*
X10266806Y-12697380D01*
X10257283Y-12659284D01*
X10257283Y-12611665D01*
X10266806Y-12573570D01*
X10276330Y-12554522D01*
X10285854Y-12544999D01*
X10304902Y-12535475D01*
X10495378Y-12535475D02*
X10514425Y-12535475D01*
X10533473Y-12544999D01*
X10542997Y-12554522D01*
X10552521Y-12573570D01*
X10562044Y-12611665D01*
X10562044Y-12659284D01*
X10552521Y-12697380D01*
X10542997Y-12716427D01*
X10533473Y-12725951D01*
X10514425Y-12735475D01*
X10495378Y-12735475D01*
X10476330Y-12725951D01*
X10466806Y-12716427D01*
X10457283Y-12697380D01*
X10447759Y-12659284D01*
X10447759Y-12611665D01*
X10457283Y-12573570D01*
X10466806Y-12554522D01*
X10476330Y-12544999D01*
X10495378Y-12535475D01*
X10647759Y-12735475D02*
X10647759Y-12602141D01*
X10647759Y-12621189D02*
X10657283Y-12611665D01*
X10676330Y-12602141D01*
X10704902Y-12602141D01*
X10723949Y-12611665D01*
X10733473Y-12630713D01*
X10733473Y-12735475D01*
X10733473Y-12630713D02*
X10742997Y-12611665D01*
X10762044Y-12602141D01*
X10790616Y-12602141D01*
X10809663Y-12611665D01*
X10819187Y-12630713D01*
X10819187Y-12735475D01*
X10914425Y-12735475D02*
X10914425Y-12602141D01*
X10914425Y-12621189D02*
X10923949Y-12611665D01*
X10942997Y-12602141D01*
X10971568Y-12602141D01*
X10990616Y-12611665D01*
X11000140Y-12630713D01*
X11000140Y-12735475D01*
X11000140Y-12630713D02*
X11009663Y-12611665D01*
X11028711Y-12602141D01*
X11057283Y-12602141D01*
X11076330Y-12611665D01*
X11085854Y-12630713D01*
X11085854Y-12735475D01*
X11476330Y-12525951D02*
X11304901Y-12783094D01*
X11733473Y-12535475D02*
X11752521Y-12535475D01*
X11771568Y-12544999D01*
X11781092Y-12554522D01*
X11790616Y-12573570D01*
X11800140Y-12611665D01*
X11800140Y-12659284D01*
X11790616Y-12697380D01*
X11781092Y-12716427D01*
X11771568Y-12725951D01*
X11752521Y-12735475D01*
X11733473Y-12735475D01*
X11714425Y-12725951D01*
X11704901Y-12716427D01*
X11695378Y-12697380D01*
X11685854Y-12659284D01*
X11685854Y-12611665D01*
X11695378Y-12573570D01*
X11704901Y-12554522D01*
X11714425Y-12544999D01*
X11733473Y-12535475D01*
X11885854Y-12716427D02*
X11895378Y-12725951D01*
X11885854Y-12735475D01*
X11876330Y-12725951D01*
X11885854Y-12716427D01*
X11885854Y-12735475D01*
X12019187Y-12535475D02*
X12038235Y-12535475D01*
X12057282Y-12544999D01*
X12066806Y-12554522D01*
X12076330Y-12573570D01*
X12085854Y-12611665D01*
X12085854Y-12659284D01*
X12076330Y-12697380D01*
X12066806Y-12716427D01*
X12057282Y-12725951D01*
X12038235Y-12735475D01*
X12019187Y-12735475D01*
X12000140Y-12725951D01*
X11990616Y-12716427D01*
X11981092Y-12697380D01*
X11971568Y-12659284D01*
X11971568Y-12611665D01*
X11981092Y-12573570D01*
X11990616Y-12554522D01*
X12000140Y-12544999D01*
X12019187Y-12535475D01*
X12266806Y-12535475D02*
X12171568Y-12535475D01*
X12162044Y-12630713D01*
X12171568Y-12621189D01*
X12190616Y-12611665D01*
X12238235Y-12611665D01*
X12257282Y-12621189D01*
X12266806Y-12630713D01*
X12276330Y-12649761D01*
X12276330Y-12697380D01*
X12266806Y-12716427D01*
X12257282Y-12725951D01*
X12238235Y-12735475D01*
X12190616Y-12735475D01*
X12171568Y-12725951D01*
X12162044Y-12716427D01*
X12466806Y-12735475D02*
X12352521Y-12735475D01*
X12409663Y-12735475D02*
X12409663Y-12535475D01*
X12390616Y-12564046D01*
X12371568Y-12583094D01*
X12352521Y-12592618D01*
X12542997Y-12554522D02*
X12552521Y-12544999D01*
X12571568Y-12535475D01*
X12619187Y-12535475D01*
X12638235Y-12544999D01*
X12647759Y-12554522D01*
X12657282Y-12573570D01*
X12657282Y-12592618D01*
X12647759Y-12621189D01*
X12533473Y-12735475D01*
X12657282Y-12735475D01*
X12733473Y-12535475D02*
X12733473Y-12573570D01*
X12809663Y-12535475D02*
X12809663Y-12573570D01*
X13104901Y-12811665D02*
X13095378Y-12802141D01*
X13076330Y-12773570D01*
X13066806Y-12754522D01*
X13057282Y-12725951D01*
X13047759Y-12678332D01*
X13047759Y-12640237D01*
X13057282Y-12592618D01*
X13066806Y-12564046D01*
X13076330Y-12544999D01*
X13095378Y-12516427D01*
X13104901Y-12506903D01*
X13276330Y-12535475D02*
X13181092Y-12535475D01*
X13171568Y-12630713D01*
X13181092Y-12621189D01*
X13200140Y-12611665D01*
X13247759Y-12611665D01*
X13266806Y-12621189D01*
X13276330Y-12630713D01*
X13285854Y-12649761D01*
X13285854Y-12697380D01*
X13276330Y-12716427D01*
X13266806Y-12725951D01*
X13247759Y-12735475D01*
X13200140Y-12735475D01*
X13181092Y-12725951D01*
X13171568Y-12716427D01*
X13523949Y-12735475D02*
X13523949Y-12535475D01*
X13609663Y-12735475D02*
X13609663Y-12630713D01*
X13600140Y-12611665D01*
X13581092Y-12602141D01*
X13552521Y-12602141D01*
X13533473Y-12611665D01*
X13523949Y-12621189D01*
X13733473Y-12735475D02*
X13714425Y-12725951D01*
X13704901Y-12716427D01*
X13695378Y-12697380D01*
X13695378Y-12640237D01*
X13704901Y-12621189D01*
X13714425Y-12611665D01*
X13733473Y-12602141D01*
X13762044Y-12602141D01*
X13781092Y-12611665D01*
X13790616Y-12621189D01*
X13800140Y-12640237D01*
X13800140Y-12697380D01*
X13790616Y-12716427D01*
X13781092Y-12725951D01*
X13762044Y-12735475D01*
X13733473Y-12735475D01*
X13914425Y-12735475D02*
X13895378Y-12725951D01*
X13885854Y-12706903D01*
X13885854Y-12535475D01*
X14066806Y-12725951D02*
X14047759Y-12735475D01*
X14009663Y-12735475D01*
X13990616Y-12725951D01*
X13981092Y-12706903D01*
X13981092Y-12630713D01*
X13990616Y-12611665D01*
X14009663Y-12602141D01*
X14047759Y-12602141D01*
X14066806Y-12611665D01*
X14076330Y-12630713D01*
X14076330Y-12649761D01*
X13981092Y-12668808D01*
X14152521Y-12725951D02*
X14171568Y-12735475D01*
X14209663Y-12735475D01*
X14228711Y-12725951D01*
X14238235Y-12706903D01*
X14238235Y-12697380D01*
X14228711Y-12678332D01*
X14209663Y-12668808D01*
X14181092Y-12668808D01*
X14162044Y-12659284D01*
X14152521Y-12640237D01*
X14152521Y-12630713D01*
X14162044Y-12611665D01*
X14181092Y-12602141D01*
X14209663Y-12602141D01*
X14228711Y-12611665D01*
X14304901Y-12811665D02*
X14314425Y-12802141D01*
X14333473Y-12773570D01*
X14342997Y-12754522D01*
X14352521Y-12725951D01*
X14362044Y-12678332D01*
X14362044Y-12640237D01*
X14352521Y-12592618D01*
X14342997Y-12564046D01*
X14333473Y-12544999D01*
X14314425Y-12516427D01*
X14304901Y-12506903D01*
M02*
