G04 #@! TF.GenerationSoftware,KiCad,Pcbnew,(6.0.5)*
G04 #@! TF.CreationDate,2023-06-23T17:04:20+08:00*
G04 #@! TF.ProjectId,panel,70616e65-6c2e-46b6-9963-61645f706362,rev?*
G04 #@! TF.SameCoordinates,Original*
G04 #@! TF.FileFunction,Soldermask,Top*
G04 #@! TF.FilePolarity,Negative*
%FSLAX46Y46*%
G04 Gerber Fmt 4.6, Leading zero omitted, Abs format (unit mm)*
G04 Created by KiCad (PCBNEW (6.0.5)) date 2023-06-23 17:04:20*
%MOMM*%
%LPD*%
G01*
G04 APERTURE LIST*
G04 Aperture macros list*
%AMRoundRect*
0 Rectangle with rounded corners*
0 $1 Rounding radius*
0 $2 $3 $4 $5 $6 $7 $8 $9 X,Y pos of 4 corners*
0 Add a 4 corners polygon primitive as box body*
4,1,4,$2,$3,$4,$5,$6,$7,$8,$9,$2,$3,0*
0 Add four circle primitives for the rounded corners*
1,1,$1+$1,$2,$3*
1,1,$1+$1,$4,$5*
1,1,$1+$1,$6,$7*
1,1,$1+$1,$8,$9*
0 Add four rect primitives between the rounded corners*
20,1,$1+$1,$2,$3,$4,$5,0*
20,1,$1+$1,$4,$5,$6,$7,0*
20,1,$1+$1,$6,$7,$8,$9,0*
20,1,$1+$1,$8,$9,$2,$3,0*%
G04 Aperture macros list end*
%ADD10R,1.220000X2.200000*%
%ADD11R,2.170000X2.200000*%
%ADD12R,3.300000X3.500000*%
%ADD13R,0.650000X0.400000*%
%ADD14RoundRect,0.140000X-0.170000X0.140000X-0.170000X-0.140000X0.170000X-0.140000X0.170000X0.140000X0*%
%ADD15R,0.250000X0.360000*%
%ADD16RoundRect,0.135000X-0.135000X-0.185000X0.135000X-0.185000X0.135000X0.185000X-0.135000X0.185000X0*%
%ADD17RoundRect,0.150000X-0.512500X-0.150000X0.512500X-0.150000X0.512500X0.150000X-0.512500X0.150000X0*%
%ADD18C,2.100000*%
%ADD19RoundRect,0.200000X0.275000X-0.200000X0.275000X0.200000X-0.275000X0.200000X-0.275000X-0.200000X0*%
%ADD20RoundRect,0.250000X-0.450000X0.262500X-0.450000X-0.262500X0.450000X-0.262500X0.450000X0.262500X0*%
%ADD21RoundRect,0.250000X-0.625000X0.312500X-0.625000X-0.312500X0.625000X-0.312500X0.625000X0.312500X0*%
%ADD22RoundRect,0.135000X0.185000X-0.135000X0.185000X0.135000X-0.185000X0.135000X-0.185000X-0.135000X0*%
%ADD23R,0.600000X0.800000*%
%ADD24C,2.300000*%
%ADD25R,5.000000X2.600000*%
%ADD26RoundRect,0.140000X0.140000X0.170000X-0.140000X0.170000X-0.140000X-0.170000X0.140000X-0.170000X0*%
%ADD27RoundRect,0.150000X0.825000X0.150000X-0.825000X0.150000X-0.825000X-0.150000X0.825000X-0.150000X0*%
%ADD28R,1.500000X1.000000*%
%ADD29RoundRect,0.225000X-0.225000X-0.250000X0.225000X-0.250000X0.225000X0.250000X-0.225000X0.250000X0*%
%ADD30R,1.800000X2.500000*%
G04 APERTURE END LIST*
D10*
X112229969Y-95899995D03*
D11*
X114534969Y-95899995D03*
D10*
X159979969Y-75899996D03*
D11*
X162284969Y-75899996D03*
D10*
X140879969Y-35899998D03*
D11*
X143184969Y-35899998D03*
D12*
X193294969Y-85899995D03*
X188894969Y-85899995D03*
D13*
X190029969Y-37009998D03*
X190029969Y-36359998D03*
X190029969Y-35709998D03*
X188129969Y-35709998D03*
X188129969Y-37009998D03*
D10*
X121779969Y-62799996D03*
D11*
X124084969Y-62799996D03*
D10*
X169529969Y-107199994D03*
D11*
X171834969Y-107199994D03*
D10*
X159979969Y-31499998D03*
D11*
X162284969Y-31499998D03*
D10*
X121779969Y-111499994D03*
D11*
X124084969Y-111499994D03*
D14*
X191189969Y-29889998D03*
X191189969Y-30849998D03*
D10*
X131329969Y-71499996D03*
D11*
X133634969Y-71499996D03*
D10*
X131329969Y-51499997D03*
D11*
X133634969Y-51499997D03*
D10*
X179079969Y-22799998D03*
D11*
X181384969Y-22799998D03*
D14*
X110259969Y-30429998D03*
X110259969Y-31389998D03*
D10*
X131329969Y-42799997D03*
D11*
X133634969Y-42799997D03*
D10*
X140879969Y-67199996D03*
D11*
X143184969Y-67199996D03*
D15*
X196639969Y-32004998D03*
X196639969Y-32844998D03*
D16*
X188639969Y-33929998D03*
X189659969Y-33929998D03*
D10*
X121779969Y-27199998D03*
D11*
X124084969Y-27199998D03*
D15*
X196639969Y-72004996D03*
X196639969Y-72844996D03*
D17*
X187542469Y-49839997D03*
X187542469Y-50789997D03*
X187542469Y-51739997D03*
X189817469Y-51739997D03*
X189817469Y-50789997D03*
X189817469Y-49839997D03*
D18*
X107639969Y-50049997D03*
D19*
X186299969Y-57874997D03*
X186299969Y-56224997D03*
D10*
X112229969Y-62799996D03*
D11*
X114534969Y-62799996D03*
D20*
X184039969Y-114239994D03*
D21*
X184039969Y-113712494D03*
D20*
X184039969Y-116064994D03*
D21*
X184039969Y-116637494D03*
D13*
X190029969Y-117009994D03*
X190029969Y-116359994D03*
X190029969Y-115709994D03*
X188129969Y-115709994D03*
X188129969Y-117009994D03*
D10*
X159979969Y-27199998D03*
D11*
X162284969Y-27199998D03*
D10*
X179079969Y-102799994D03*
D11*
X181384969Y-102799994D03*
D10*
X179079969Y-91499995D03*
D11*
X181384969Y-91499995D03*
D10*
X179079969Y-71499996D03*
D11*
X181384969Y-71499996D03*
D16*
X103559969Y-51339997D03*
X104579969Y-51339997D03*
D10*
X140879969Y-55899997D03*
D11*
X143184969Y-55899997D03*
D10*
X169529969Y-55899997D03*
D11*
X171834969Y-55899997D03*
D22*
X186069969Y-114889994D03*
X186069969Y-113869994D03*
D10*
X140879969Y-107199994D03*
D11*
X143184969Y-107199994D03*
D23*
X191709969Y-71939996D03*
X191709969Y-74339996D03*
D10*
X112229969Y-35899998D03*
D11*
X114534969Y-35899998D03*
D10*
X112229969Y-111499994D03*
D11*
X114534969Y-111499994D03*
D10*
X179079969Y-62799996D03*
D11*
X181384969Y-62799996D03*
D20*
X184039969Y-54239997D03*
D21*
X184039969Y-53712497D03*
D20*
X184039969Y-56064997D03*
D21*
X184039969Y-56637497D03*
D16*
X188639969Y-53929997D03*
X189659969Y-53929997D03*
D10*
X112229969Y-115899994D03*
D11*
X114534969Y-115899994D03*
D24*
X101419969Y-110049994D03*
D25*
X102344969Y-108749994D03*
D10*
X131329969Y-95899995D03*
D11*
X133634969Y-95899995D03*
D19*
X186299969Y-37874998D03*
X186299969Y-36224998D03*
D10*
X131329969Y-87199995D03*
D11*
X133634969Y-87199995D03*
D10*
X150429969Y-107199994D03*
D11*
X152734969Y-107199994D03*
D14*
X187009969Y-53879997D03*
X187009969Y-54839997D03*
D10*
X112229969Y-31499998D03*
D11*
X114534969Y-31499998D03*
D26*
X189599969Y-112959994D03*
X188639969Y-112959994D03*
D16*
X103559969Y-71339996D03*
X104579969Y-71339996D03*
D14*
X187009969Y-93879995D03*
X187009969Y-94839995D03*
D18*
X194339969Y-30049998D03*
D14*
X191189969Y-69889996D03*
X191189969Y-70849996D03*
D10*
X121779969Y-107199994D03*
D11*
X124084969Y-107199994D03*
D10*
X159979969Y-62799996D03*
D11*
X162284969Y-62799996D03*
D10*
X159979969Y-55899997D03*
D11*
X162284969Y-55899997D03*
D26*
X109739969Y-97779995D03*
X108779969Y-97779995D03*
D10*
X140879969Y-51499997D03*
D11*
X143184969Y-51499997D03*
D26*
X109739969Y-37779998D03*
X108779969Y-37779998D03*
D17*
X187542469Y-69839996D03*
X187542469Y-70789996D03*
X187542469Y-71739996D03*
X189817469Y-71739996D03*
X189817469Y-70789996D03*
X189817469Y-69839996D03*
D27*
X108944969Y-36504998D03*
X108944969Y-35234998D03*
X108944969Y-33964998D03*
X108944969Y-32694998D03*
X103994969Y-32694998D03*
X103994969Y-33964998D03*
X103994969Y-35234998D03*
X103994969Y-36504998D03*
D10*
X179079969Y-55899997D03*
D11*
X181384969Y-55899997D03*
D10*
X150429969Y-42799997D03*
D11*
X152734969Y-42799997D03*
D10*
X131329969Y-107199994D03*
D11*
X133634969Y-107199994D03*
D25*
X102344969Y-48749997D03*
D24*
X101419969Y-50049997D03*
D27*
X108944969Y-96504995D03*
X108944969Y-95234995D03*
X108944969Y-93964995D03*
X108944969Y-92694995D03*
X103994969Y-92694995D03*
X103994969Y-93964995D03*
X103994969Y-95234995D03*
X103994969Y-96504995D03*
D10*
X159979969Y-71499996D03*
D11*
X162284969Y-71499996D03*
D10*
X159979969Y-35899998D03*
D11*
X162284969Y-35899998D03*
D14*
X110259969Y-50429997D03*
X110259969Y-51389997D03*
D10*
X179079969Y-35899998D03*
D11*
X181384969Y-35899998D03*
D10*
X121779969Y-95899995D03*
D11*
X124084969Y-95899995D03*
D10*
X140879969Y-42799997D03*
D11*
X143184969Y-42799997D03*
D26*
X109739969Y-57779997D03*
X108779969Y-57779997D03*
D10*
X121779969Y-82799995D03*
D11*
X124084969Y-82799995D03*
D13*
X190029969Y-57009997D03*
X190029969Y-56359997D03*
X190029969Y-55709997D03*
X188129969Y-55709997D03*
X188129969Y-57009997D03*
D26*
X109739969Y-77779996D03*
X108779969Y-77779996D03*
D10*
X179079969Y-107199994D03*
D11*
X181384969Y-107199994D03*
D10*
X179079969Y-42799997D03*
D11*
X181384969Y-42799997D03*
D28*
X105089969Y-45649997D03*
X105089969Y-44349997D03*
X105089969Y-43049997D03*
D16*
X186039969Y-92959995D03*
X187059969Y-92959995D03*
D18*
X107639969Y-30049998D03*
D10*
X140879969Y-91499995D03*
D11*
X143184969Y-91499995D03*
D10*
X159979969Y-111499994D03*
D11*
X162284969Y-111499994D03*
D15*
X196639969Y-112004994D03*
X196639969Y-112844994D03*
D26*
X189599969Y-32959998D03*
X188639969Y-32959998D03*
D22*
X186069969Y-94889995D03*
X186069969Y-93869995D03*
D10*
X140879969Y-71499996D03*
D11*
X143184969Y-71499996D03*
D10*
X131329969Y-115899994D03*
D11*
X133634969Y-115899994D03*
D15*
X196639969Y-52004997D03*
X196639969Y-52844997D03*
D10*
X169529969Y-35899998D03*
D11*
X171834969Y-35899998D03*
D10*
X131329969Y-55899997D03*
D11*
X133634969Y-55899997D03*
D23*
X191709969Y-51939997D03*
X191709969Y-54339997D03*
D10*
X121779969Y-91499995D03*
D11*
X124084969Y-91499995D03*
D10*
X112229969Y-55899997D03*
D11*
X114534969Y-55899997D03*
D18*
X107639969Y-90049995D03*
D10*
X150429969Y-27199998D03*
D11*
X152734969Y-27199998D03*
D29*
X184334969Y-91539995D03*
X185884969Y-91539995D03*
D10*
X169529969Y-51499997D03*
D11*
X171834969Y-51499997D03*
D12*
X193294969Y-45899997D03*
X188894969Y-45899997D03*
D10*
X179079969Y-47199997D03*
D11*
X181384969Y-47199997D03*
D10*
X159979969Y-51499997D03*
D11*
X162284969Y-51499997D03*
D10*
X140879969Y-31499998D03*
D11*
X143184969Y-31499998D03*
D10*
X169529969Y-87199995D03*
D11*
X171834969Y-87199995D03*
D25*
X102344969Y-68749996D03*
D24*
X101419969Y-70049996D03*
D10*
X112229969Y-51499997D03*
D11*
X114534969Y-51499997D03*
D10*
X169529969Y-115899994D03*
D11*
X171834969Y-115899994D03*
D10*
X179079969Y-67199996D03*
D11*
X181384969Y-67199996D03*
D10*
X140879969Y-62799996D03*
D11*
X143184969Y-62799996D03*
D10*
X150429969Y-35899998D03*
D11*
X152734969Y-35899998D03*
D14*
X110259969Y-90429995D03*
X110259969Y-91389995D03*
D10*
X121779969Y-47199997D03*
D11*
X124084969Y-47199997D03*
D10*
X131329969Y-102799994D03*
D11*
X133634969Y-102799994D03*
D10*
X150429969Y-47199997D03*
D11*
X152734969Y-47199997D03*
D10*
X179079969Y-31499998D03*
D11*
X181384969Y-31499998D03*
D10*
X169529969Y-82799995D03*
D11*
X171834969Y-82799995D03*
D10*
X169529969Y-91499995D03*
D11*
X171834969Y-91499995D03*
D10*
X159979969Y-102799994D03*
D11*
X162284969Y-102799994D03*
D10*
X112229969Y-67199996D03*
D11*
X114534969Y-67199996D03*
D10*
X169529969Y-111499994D03*
D11*
X171834969Y-111499994D03*
D14*
X187009969Y-33879998D03*
X187009969Y-34839998D03*
D10*
X121779969Y-55899997D03*
D11*
X124084969Y-55899997D03*
D15*
X196639969Y-92004995D03*
X196639969Y-92844995D03*
D18*
X194339969Y-90049995D03*
X194339969Y-70049996D03*
D10*
X121779969Y-35899998D03*
D11*
X124084969Y-35899998D03*
D18*
X194339969Y-110049994D03*
D16*
X186039969Y-72959996D03*
X187059969Y-72959996D03*
D10*
X179079969Y-51499997D03*
D11*
X181384969Y-51499997D03*
D10*
X121779969Y-22799998D03*
D11*
X124084969Y-22799998D03*
D28*
X108464969Y-103049994D03*
X108464969Y-104349994D03*
X108464969Y-105649994D03*
D10*
X169529969Y-22799998D03*
D11*
X171834969Y-22799998D03*
D10*
X169529969Y-27199998D03*
D11*
X171834969Y-27199998D03*
D12*
X193294969Y-25899998D03*
X188894969Y-25899998D03*
D16*
X103559969Y-91339995D03*
X104579969Y-91339995D03*
D29*
X184334969Y-71539996D03*
X185884969Y-71539996D03*
D10*
X112229969Y-107199994D03*
D11*
X114534969Y-107199994D03*
D23*
X191709969Y-111939994D03*
X191709969Y-114339994D03*
D20*
X184039969Y-94239995D03*
D21*
X184039969Y-93712495D03*
X184039969Y-96637495D03*
D20*
X184039969Y-96064995D03*
D10*
X159979969Y-87199995D03*
D11*
X162284969Y-87199995D03*
D16*
X186039969Y-52959997D03*
X187059969Y-52959997D03*
D10*
X159979969Y-42799997D03*
D11*
X162284969Y-42799997D03*
D10*
X140879969Y-102799994D03*
D11*
X143184969Y-102799994D03*
D26*
X189599969Y-72959996D03*
X188639969Y-72959996D03*
D24*
X101419969Y-90049995D03*
D25*
X102344969Y-88749995D03*
D17*
X187542469Y-109839994D03*
X187542469Y-110789994D03*
X187542469Y-111739994D03*
X189817469Y-111739994D03*
X189817469Y-110789994D03*
X189817469Y-109839994D03*
D10*
X150429969Y-22799998D03*
D11*
X152734969Y-22799998D03*
D16*
X188639969Y-113929994D03*
X189659969Y-113929994D03*
D26*
X109739969Y-117779994D03*
X108779969Y-117779994D03*
D14*
X187009969Y-73879996D03*
X187009969Y-74839996D03*
D10*
X169529969Y-75899996D03*
D11*
X171834969Y-75899996D03*
D16*
X188639969Y-73929996D03*
X189659969Y-73929996D03*
D10*
X179079969Y-75899996D03*
D11*
X181384969Y-75899996D03*
D10*
X150429969Y-111499994D03*
D11*
X152734969Y-111499994D03*
D10*
X169529969Y-47199997D03*
D11*
X171834969Y-47199997D03*
D10*
X112229969Y-102799994D03*
D11*
X114534969Y-102799994D03*
D28*
X105089969Y-65649996D03*
X105089969Y-64349996D03*
X105089969Y-63049996D03*
X108464969Y-63049996D03*
X108464969Y-64349996D03*
X108464969Y-65649996D03*
X108464969Y-83049995D03*
X108464969Y-84349995D03*
X108464969Y-85649995D03*
D10*
X169529969Y-67199996D03*
D11*
X171834969Y-67199996D03*
D13*
X190029969Y-77009996D03*
X190029969Y-76359996D03*
X190029969Y-75709996D03*
X188129969Y-75709996D03*
X188129969Y-77009996D03*
D10*
X140879969Y-27199998D03*
D11*
X143184969Y-27199998D03*
D10*
X121779969Y-31499998D03*
D11*
X124084969Y-31499998D03*
D14*
X187009969Y-113879994D03*
X187009969Y-114839994D03*
D10*
X140879969Y-22799998D03*
D11*
X143184969Y-22799998D03*
D10*
X140879969Y-95899995D03*
D11*
X143184969Y-95899995D03*
D10*
X150429969Y-62799996D03*
D11*
X152734969Y-62799996D03*
D10*
X140879969Y-82799995D03*
D11*
X143184969Y-82799995D03*
D10*
X179079969Y-95899995D03*
D11*
X181384969Y-95899995D03*
D10*
X140879969Y-111499994D03*
D11*
X143184969Y-111499994D03*
D10*
X140879969Y-47199997D03*
D11*
X143184969Y-47199997D03*
D18*
X107639969Y-110049994D03*
D10*
X112229969Y-87199995D03*
D11*
X114534969Y-87199995D03*
D10*
X140879969Y-87199995D03*
D11*
X143184969Y-87199995D03*
D10*
X131329969Y-35899998D03*
D11*
X133634969Y-35899998D03*
D10*
X159979969Y-91499995D03*
D11*
X162284969Y-91499995D03*
D10*
X150429969Y-87199995D03*
D11*
X152734969Y-87199995D03*
D14*
X191189969Y-109889994D03*
X191189969Y-110849994D03*
D23*
X191709969Y-91939995D03*
X191709969Y-94339995D03*
D20*
X184039969Y-34239998D03*
D21*
X184039969Y-33712498D03*
X184039969Y-36637498D03*
D20*
X184039969Y-36064998D03*
D16*
X188639969Y-93929995D03*
X189659969Y-93929995D03*
D19*
X186299969Y-77874996D03*
X186299969Y-76224996D03*
D30*
X184539969Y-89299995D03*
X184539969Y-85299995D03*
D10*
X150429969Y-82799995D03*
D11*
X152734969Y-82799995D03*
D10*
X121779969Y-102799994D03*
D11*
X124084969Y-102799994D03*
D10*
X159979969Y-47199997D03*
D11*
X162284969Y-47199997D03*
D27*
X108944969Y-56504997D03*
X108944969Y-55234997D03*
X108944969Y-53964997D03*
X108944969Y-52694997D03*
X103994969Y-52694997D03*
X103994969Y-53964997D03*
X103994969Y-55234997D03*
X103994969Y-56504997D03*
D10*
X150429969Y-55899997D03*
D11*
X152734969Y-55899997D03*
D10*
X159979969Y-107199994D03*
D11*
X162284969Y-107199994D03*
D10*
X169529969Y-71499996D03*
D11*
X171834969Y-71499996D03*
D10*
X112229969Y-75899996D03*
D11*
X114534969Y-75899996D03*
D10*
X150429969Y-71499996D03*
D11*
X152734969Y-71499996D03*
D29*
X184334969Y-111539994D03*
X185884969Y-111539994D03*
D14*
X191189969Y-49889997D03*
X191189969Y-50849997D03*
D10*
X150429969Y-95899995D03*
D11*
X152734969Y-95899995D03*
D10*
X150429969Y-75899996D03*
D11*
X152734969Y-75899996D03*
D23*
X191709969Y-31939998D03*
X191709969Y-34339998D03*
D28*
X108464969Y-23049998D03*
X108464969Y-24349998D03*
X108464969Y-25649998D03*
D10*
X121779969Y-42799997D03*
D11*
X124084969Y-42799997D03*
D10*
X112229969Y-91499995D03*
D11*
X114534969Y-91499995D03*
D27*
X108944969Y-116504994D03*
X108944969Y-115234994D03*
X108944969Y-113964994D03*
X108944969Y-112694994D03*
X103994969Y-112694994D03*
X103994969Y-113964994D03*
X103994969Y-115234994D03*
X103994969Y-116504994D03*
D17*
X187542469Y-89839995D03*
X187542469Y-90789995D03*
X187542469Y-91739995D03*
X189817469Y-91739995D03*
X189817469Y-90789995D03*
X189817469Y-89839995D03*
D10*
X131329969Y-22799998D03*
D11*
X133634969Y-22799998D03*
D19*
X186299969Y-97874995D03*
X186299969Y-96224995D03*
D10*
X159979969Y-115899994D03*
D11*
X162284969Y-115899994D03*
D10*
X112229969Y-47199997D03*
D11*
X114534969Y-47199997D03*
D10*
X121779969Y-115899994D03*
D11*
X124084969Y-115899994D03*
D10*
X169529969Y-42799997D03*
D11*
X171834969Y-42799997D03*
D30*
X184539969Y-69299996D03*
X184539969Y-65299996D03*
D18*
X107639969Y-70049996D03*
D10*
X169529969Y-31499998D03*
D11*
X171834969Y-31499998D03*
D14*
X110259969Y-70429996D03*
X110259969Y-71389996D03*
D10*
X169529969Y-102799994D03*
D11*
X171834969Y-102799994D03*
D10*
X179079969Y-87199995D03*
D11*
X181384969Y-87199995D03*
D10*
X121779969Y-51499997D03*
D11*
X124084969Y-51499997D03*
D13*
X190029969Y-97009995D03*
X190029969Y-96359995D03*
X190029969Y-95709995D03*
X188129969Y-95709995D03*
X188129969Y-97009995D03*
D22*
X186069969Y-74889996D03*
X186069969Y-73869996D03*
D10*
X159979969Y-67199996D03*
D11*
X162284969Y-67199996D03*
D10*
X179079969Y-111499994D03*
D11*
X181384969Y-111499994D03*
D10*
X121779969Y-71499996D03*
D11*
X124084969Y-71499996D03*
D10*
X131329969Y-91499995D03*
D11*
X133634969Y-91499995D03*
D30*
X184539969Y-29299998D03*
X184539969Y-25299998D03*
D10*
X131329969Y-27199998D03*
D11*
X133634969Y-27199998D03*
D16*
X186039969Y-32959998D03*
X187059969Y-32959998D03*
D10*
X112229969Y-42799997D03*
D11*
X114534969Y-42799997D03*
D10*
X159979969Y-22799998D03*
D11*
X162284969Y-22799998D03*
D10*
X169529969Y-62799996D03*
D11*
X171834969Y-62799996D03*
D20*
X184039969Y-74239996D03*
D21*
X184039969Y-73712496D03*
D20*
X184039969Y-76064996D03*
D21*
X184039969Y-76637496D03*
D10*
X150429969Y-67199996D03*
D11*
X152734969Y-67199996D03*
D10*
X131329969Y-47199997D03*
D11*
X133634969Y-47199997D03*
D10*
X150429969Y-51499997D03*
D11*
X152734969Y-51499997D03*
D12*
X193294969Y-65899996D03*
X188894969Y-65899996D03*
D30*
X184539969Y-109299994D03*
X184539969Y-105299994D03*
D10*
X150429969Y-115899994D03*
D11*
X152734969Y-115899994D03*
D10*
X131329969Y-31499998D03*
D11*
X133634969Y-31499998D03*
D10*
X150429969Y-102799994D03*
D11*
X152734969Y-102799994D03*
D25*
X102344969Y-28749998D03*
D24*
X101419969Y-30049998D03*
D10*
X112229969Y-71499996D03*
D11*
X114534969Y-71499996D03*
D29*
X184334969Y-31539998D03*
X185884969Y-31539998D03*
D17*
X187542469Y-29839998D03*
X187542469Y-30789998D03*
X187542469Y-31739998D03*
X189817469Y-31739998D03*
X189817469Y-30789998D03*
X189817469Y-29839998D03*
D27*
X108944969Y-76504996D03*
X108944969Y-75234996D03*
X108944969Y-73964996D03*
X108944969Y-72694996D03*
X103994969Y-72694996D03*
X103994969Y-73964996D03*
X103994969Y-75234996D03*
X103994969Y-76504996D03*
D10*
X131329969Y-67199996D03*
D11*
X133634969Y-67199996D03*
D19*
X186299969Y-117874994D03*
X186299969Y-116224994D03*
D10*
X169529969Y-95899995D03*
D11*
X171834969Y-95899995D03*
D10*
X179079969Y-82799995D03*
D11*
X181384969Y-82799995D03*
D28*
X105089969Y-85649995D03*
X105089969Y-84349995D03*
X105089969Y-83049995D03*
D10*
X140879969Y-75899996D03*
D11*
X143184969Y-75899996D03*
D26*
X189599969Y-52959997D03*
X188639969Y-52959997D03*
D28*
X105089969Y-105649994D03*
X105089969Y-104349994D03*
X105089969Y-103049994D03*
D26*
X189599969Y-92959995D03*
X188639969Y-92959995D03*
D10*
X131329969Y-111499994D03*
D11*
X133634969Y-111499994D03*
D14*
X191189969Y-89889995D03*
X191189969Y-90849995D03*
D10*
X131329969Y-82799995D03*
D11*
X133634969Y-82799995D03*
D10*
X150429969Y-31499998D03*
D11*
X152734969Y-31499998D03*
D18*
X194339969Y-50049997D03*
D10*
X121779969Y-67199996D03*
D11*
X124084969Y-67199996D03*
D16*
X186039969Y-112959994D03*
X187059969Y-112959994D03*
D14*
X110259969Y-110429994D03*
X110259969Y-111389994D03*
D16*
X103559969Y-31339998D03*
X104579969Y-31339998D03*
D28*
X105089969Y-25649998D03*
X105089969Y-24349998D03*
X105089969Y-23049998D03*
D30*
X184539969Y-49299997D03*
X184539969Y-45299997D03*
D10*
X150429969Y-91499995D03*
D11*
X152734969Y-91499995D03*
D10*
X159979969Y-95899995D03*
D11*
X162284969Y-95899995D03*
D16*
X103559969Y-111339994D03*
X104579969Y-111339994D03*
D10*
X179079969Y-27199998D03*
D11*
X181384969Y-27199998D03*
D10*
X131329969Y-62799996D03*
D11*
X133634969Y-62799996D03*
D10*
X159979969Y-82799995D03*
D11*
X162284969Y-82799995D03*
D10*
X131329969Y-75899996D03*
D11*
X133634969Y-75899996D03*
D22*
X186069969Y-54889997D03*
X186069969Y-53869997D03*
D10*
X179079969Y-115899994D03*
D11*
X181384969Y-115899994D03*
D29*
X184334969Y-51539997D03*
X185884969Y-51539997D03*
D10*
X112229969Y-27199998D03*
D11*
X114534969Y-27199998D03*
D12*
X193294969Y-105899994D03*
X188894969Y-105899994D03*
D10*
X112229969Y-22799998D03*
D11*
X114534969Y-22799998D03*
D28*
X108464969Y-43049997D03*
X108464969Y-44349997D03*
X108464969Y-45649997D03*
D10*
X121779969Y-75899996D03*
D11*
X124084969Y-75899996D03*
D10*
X112229969Y-82799995D03*
D11*
X114534969Y-82799995D03*
D10*
X121779969Y-87199995D03*
D11*
X124084969Y-87199995D03*
D10*
X140879969Y-115899994D03*
D11*
X143184969Y-115899994D03*
D22*
X186069969Y-34889998D03*
X186069969Y-33869998D03*
G36*
X191809528Y-80616411D02*
G01*
X192233418Y-80772581D01*
X192246208Y-80778114D01*
X193136018Y-81223020D01*
X193143769Y-81227241D01*
X194231896Y-81870225D01*
X194247251Y-81880912D01*
X195039213Y-82524381D01*
X195040727Y-82525631D01*
X195802895Y-83164868D01*
X195824179Y-83187786D01*
X196262098Y-83796007D01*
X196267515Y-83804183D01*
X197034030Y-85065225D01*
X197044051Y-85085672D01*
X197685669Y-86763750D01*
X197692061Y-86786852D01*
X197988052Y-88464132D01*
X197989969Y-88486029D01*
X197989969Y-91395662D01*
X197989670Y-91404331D01*
X197940170Y-92122082D01*
X197939639Y-92127856D01*
X197866208Y-92764259D01*
X197861918Y-92785369D01*
X197494057Y-94036094D01*
X197482829Y-94062608D01*
X196744134Y-95367637D01*
X196734865Y-95381723D01*
X195647858Y-96814595D01*
X195630115Y-96833556D01*
X194128153Y-98138540D01*
X194099163Y-98157433D01*
X192424656Y-98945436D01*
X192404654Y-98952853D01*
X190499617Y-99480755D01*
X190428628Y-99479671D01*
X190369495Y-99440379D01*
X190340992Y-99375356D01*
X190339969Y-99359331D01*
X190339969Y-98471966D01*
X190359971Y-98403845D01*
X190401963Y-98363434D01*
X191299365Y-97834197D01*
X191312643Y-97820012D01*
X191314969Y-97810225D01*
X191314969Y-96855422D01*
X191334971Y-96787301D01*
X191355828Y-96762541D01*
X193101613Y-95162238D01*
X193114969Y-95140120D01*
X193114969Y-90993110D01*
X193107048Y-90966135D01*
X191672031Y-89360861D01*
X191641544Y-89296743D01*
X191639969Y-89276886D01*
X191639969Y-80734642D01*
X191659971Y-80666521D01*
X191713627Y-80620028D01*
X191783901Y-80609924D01*
X191809528Y-80616411D01*
G37*
G36*
X191809528Y-60616412D02*
G01*
X192233418Y-60772582D01*
X192246208Y-60778115D01*
X193136018Y-61223021D01*
X193143769Y-61227242D01*
X194231896Y-61870226D01*
X194247251Y-61880913D01*
X195039213Y-62524382D01*
X195040727Y-62525632D01*
X195802895Y-63164869D01*
X195824179Y-63187787D01*
X196262098Y-63796008D01*
X196267515Y-63804184D01*
X197034030Y-65065226D01*
X197044051Y-65085673D01*
X197685669Y-66763751D01*
X197692061Y-66786853D01*
X197988052Y-68464133D01*
X197989969Y-68486030D01*
X197989969Y-71395663D01*
X197989670Y-71404332D01*
X197940170Y-72122083D01*
X197939639Y-72127857D01*
X197866208Y-72764260D01*
X197861918Y-72785370D01*
X197494057Y-74036095D01*
X197482829Y-74062609D01*
X196744134Y-75367638D01*
X196734865Y-75381724D01*
X195647858Y-76814596D01*
X195630115Y-76833557D01*
X194128153Y-78138541D01*
X194099163Y-78157434D01*
X192424656Y-78945437D01*
X192404654Y-78952854D01*
X190499617Y-79480756D01*
X190428628Y-79479672D01*
X190369495Y-79440380D01*
X190340992Y-79375357D01*
X190339969Y-79359332D01*
X190339969Y-78471967D01*
X190359971Y-78403846D01*
X190401963Y-78363435D01*
X191299365Y-77834198D01*
X191312643Y-77820013D01*
X191314969Y-77810226D01*
X191314969Y-76855423D01*
X191334971Y-76787302D01*
X191355828Y-76762542D01*
X193101613Y-75162239D01*
X193114969Y-75140121D01*
X193114969Y-70993111D01*
X193107048Y-70966136D01*
X191672031Y-69360862D01*
X191641544Y-69296744D01*
X191639969Y-69276887D01*
X191639969Y-60734643D01*
X191659971Y-60666522D01*
X191713627Y-60620029D01*
X191783901Y-60609925D01*
X191809528Y-60616412D01*
G37*
G36*
X191809528Y-40616413D02*
G01*
X192233418Y-40772583D01*
X192246208Y-40778116D01*
X193136019Y-41223022D01*
X193143770Y-41227243D01*
X194231896Y-41870226D01*
X194247251Y-41880913D01*
X195039213Y-42524383D01*
X195040727Y-42525633D01*
X195802895Y-43164870D01*
X195824179Y-43187788D01*
X196262098Y-43796009D01*
X196267515Y-43804185D01*
X197034030Y-45065227D01*
X197044051Y-45085674D01*
X197685669Y-46763752D01*
X197692061Y-46786854D01*
X197988052Y-48464134D01*
X197989969Y-48486031D01*
X197989969Y-51395664D01*
X197989670Y-51404333D01*
X197940170Y-52122084D01*
X197939639Y-52127858D01*
X197866208Y-52764261D01*
X197861918Y-52785371D01*
X197494057Y-54036096D01*
X197482829Y-54062610D01*
X196744134Y-55367639D01*
X196734865Y-55381725D01*
X195647858Y-56814597D01*
X195630115Y-56833558D01*
X194128153Y-58138542D01*
X194099163Y-58157435D01*
X192424656Y-58945438D01*
X192404654Y-58952855D01*
X190499617Y-59480757D01*
X190428628Y-59479673D01*
X190369495Y-59440381D01*
X190340992Y-59375358D01*
X190339969Y-59359333D01*
X190339969Y-58471968D01*
X190359971Y-58403847D01*
X190401963Y-58363436D01*
X191299365Y-57834199D01*
X191312643Y-57820014D01*
X191314969Y-57810227D01*
X191314969Y-56855424D01*
X191334971Y-56787303D01*
X191355828Y-56762543D01*
X193101613Y-55162240D01*
X193114969Y-55140122D01*
X193114969Y-50993112D01*
X193107048Y-50966137D01*
X191672031Y-49360863D01*
X191641544Y-49296745D01*
X191639969Y-49276888D01*
X191639969Y-40734644D01*
X191659971Y-40666523D01*
X191713627Y-40620030D01*
X191783901Y-40609926D01*
X191809528Y-40616413D01*
G37*
G36*
X191809528Y-20616414D02*
G01*
X192233418Y-20772584D01*
X192246208Y-20778117D01*
X193136018Y-21223023D01*
X193143769Y-21227244D01*
X194231896Y-21870228D01*
X194247251Y-21880915D01*
X195039213Y-22524384D01*
X195040727Y-22525634D01*
X195802895Y-23164871D01*
X195824179Y-23187789D01*
X196262098Y-23796010D01*
X196267515Y-23804186D01*
X197034030Y-25065228D01*
X197044051Y-25085675D01*
X197685669Y-26763753D01*
X197692061Y-26786855D01*
X197988052Y-28464135D01*
X197989969Y-28486032D01*
X197989969Y-31395665D01*
X197989670Y-31404334D01*
X197940170Y-32122085D01*
X197939639Y-32127859D01*
X197866208Y-32764262D01*
X197861918Y-32785372D01*
X197494057Y-34036097D01*
X197482829Y-34062611D01*
X196744134Y-35367640D01*
X196734865Y-35381726D01*
X195647858Y-36814598D01*
X195630115Y-36833559D01*
X194128153Y-38138543D01*
X194099163Y-38157436D01*
X192424656Y-38945439D01*
X192404654Y-38952856D01*
X190499617Y-39480758D01*
X190428628Y-39479674D01*
X190369495Y-39440382D01*
X190340992Y-39375359D01*
X190339969Y-39359334D01*
X190339969Y-38471969D01*
X190359971Y-38403848D01*
X190401963Y-38363437D01*
X191299365Y-37834200D01*
X191312643Y-37820015D01*
X191314969Y-37810228D01*
X191314969Y-36855425D01*
X191334971Y-36787304D01*
X191355828Y-36762544D01*
X193101613Y-35162241D01*
X193114969Y-35140123D01*
X193114969Y-30993113D01*
X193107048Y-30966138D01*
X191672031Y-29360864D01*
X191641544Y-29296746D01*
X191639969Y-29276889D01*
X191639969Y-20734645D01*
X191659971Y-20666524D01*
X191713627Y-20620031D01*
X191783901Y-20609927D01*
X191809528Y-20616414D01*
G37*
G36*
X191809528Y-100616410D02*
G01*
X192233418Y-100772580D01*
X192246208Y-100778113D01*
X193136018Y-101223019D01*
X193143769Y-101227240D01*
X194231896Y-101870224D01*
X194247251Y-101880911D01*
X195039213Y-102524380D01*
X195040727Y-102525630D01*
X195802895Y-103164867D01*
X195824179Y-103187785D01*
X196262098Y-103796006D01*
X196267515Y-103804182D01*
X197034030Y-105065224D01*
X197044051Y-105085671D01*
X197685669Y-106763749D01*
X197692061Y-106786851D01*
X197988052Y-108464131D01*
X197989969Y-108486028D01*
X197989969Y-111395661D01*
X197989670Y-111404330D01*
X197940170Y-112122081D01*
X197939639Y-112127855D01*
X197866208Y-112764258D01*
X197861918Y-112785368D01*
X197494057Y-114036093D01*
X197482829Y-114062607D01*
X196744134Y-115367636D01*
X196734865Y-115381722D01*
X195647858Y-116814594D01*
X195630115Y-116833555D01*
X194128153Y-118138539D01*
X194099163Y-118157432D01*
X192424656Y-118945435D01*
X192404654Y-118952852D01*
X190499617Y-119480754D01*
X190428628Y-119479670D01*
X190369495Y-119440378D01*
X190340992Y-119375355D01*
X190339969Y-119359330D01*
X190339969Y-118471965D01*
X190359971Y-118403844D01*
X190401963Y-118363433D01*
X191299365Y-117834196D01*
X191312643Y-117820011D01*
X191314969Y-117810224D01*
X191314969Y-116855421D01*
X191334971Y-116787300D01*
X191355828Y-116762540D01*
X193101613Y-115162237D01*
X193114969Y-115140119D01*
X193114969Y-110993109D01*
X193107048Y-110966134D01*
X191672031Y-109360860D01*
X191641544Y-109296742D01*
X191639969Y-109276885D01*
X191639969Y-100734641D01*
X191659971Y-100666520D01*
X191713627Y-100620027D01*
X191783901Y-100609923D01*
X191809528Y-100616410D01*
G37*
G36*
X190487090Y-81719997D02*
G01*
X190533583Y-81773653D01*
X190544969Y-81825995D01*
X190544969Y-88523995D01*
X190524967Y-88592116D01*
X190471311Y-88638609D01*
X190418969Y-88649995D01*
X186570969Y-88649995D01*
X186502848Y-88629993D01*
X186456355Y-88576337D01*
X186444969Y-88523995D01*
X186444969Y-81825995D01*
X186464971Y-81757874D01*
X186518627Y-81711381D01*
X186570969Y-81699995D01*
X190418969Y-81699995D01*
X190487090Y-81719997D01*
G37*
G36*
X190487090Y-41719999D02*
G01*
X190533583Y-41773655D01*
X190544969Y-41825997D01*
X190544969Y-48523997D01*
X190524967Y-48592118D01*
X190471311Y-48638611D01*
X190418969Y-48649997D01*
X186570969Y-48649997D01*
X186502848Y-48629995D01*
X186456355Y-48576339D01*
X186444969Y-48523997D01*
X186444969Y-41825997D01*
X186464971Y-41757876D01*
X186518627Y-41711383D01*
X186570969Y-41699997D01*
X190418969Y-41699997D01*
X190487090Y-41719999D01*
G37*
G36*
X190487090Y-61719998D02*
G01*
X190533583Y-61773654D01*
X190544969Y-61825996D01*
X190544969Y-68523996D01*
X190524967Y-68592117D01*
X190471311Y-68638610D01*
X190418969Y-68649996D01*
X186570969Y-68649996D01*
X186502848Y-68629994D01*
X186456355Y-68576338D01*
X186444969Y-68523996D01*
X186444969Y-61825996D01*
X186464971Y-61757875D01*
X186518627Y-61711382D01*
X186570969Y-61699996D01*
X190418969Y-61699996D01*
X190487090Y-61719998D01*
G37*
G36*
X190487090Y-21720000D02*
G01*
X190533583Y-21773656D01*
X190544969Y-21825998D01*
X190544969Y-28523998D01*
X190524967Y-28592119D01*
X190471311Y-28638612D01*
X190418969Y-28649998D01*
X186570969Y-28649998D01*
X186502848Y-28629996D01*
X186456355Y-28576340D01*
X186444969Y-28523998D01*
X186444969Y-21825998D01*
X186464971Y-21757877D01*
X186518627Y-21711384D01*
X186570969Y-21699998D01*
X190418969Y-21699998D01*
X190487090Y-21720000D01*
G37*
G36*
X190487090Y-101719996D02*
G01*
X190533583Y-101773652D01*
X190544969Y-101825994D01*
X190544969Y-108523994D01*
X190524967Y-108592115D01*
X190471311Y-108638608D01*
X190418969Y-108649994D01*
X186570969Y-108649994D01*
X186502848Y-108629992D01*
X186456355Y-108576336D01*
X186444969Y-108523994D01*
X186444969Y-101825994D01*
X186464971Y-101757873D01*
X186518627Y-101711380D01*
X186570969Y-101699994D01*
X190418969Y-101699994D01*
X190487090Y-101719996D01*
G37*
M02*
