G04 #@! TF.GenerationSoftware,KiCad,Pcbnew,(6.0.5)*
G04 #@! TF.CreationDate,2023-06-23T17:04:20+08:00*
G04 #@! TF.ProjectId,panel,70616e65-6c2e-46b6-9963-61645f706362,rev?*
G04 #@! TF.SameCoordinates,Original*
G04 #@! TF.FileFunction,Paste,Top*
G04 #@! TF.FilePolarity,Positive*
%FSLAX46Y46*%
G04 Gerber Fmt 4.6, Leading zero omitted, Abs format (unit mm)*
G04 Created by KiCad (PCBNEW (6.0.5)) date 2023-06-23 17:04:20*
%MOMM*%
%LPD*%
G01*
G04 APERTURE LIST*
G04 Aperture macros list*
%AMRoundRect*
0 Rectangle with rounded corners*
0 $1 Rounding radius*
0 $2 $3 $4 $5 $6 $7 $8 $9 X,Y pos of 4 corners*
0 Add a 4 corners polygon primitive as box body*
4,1,4,$2,$3,$4,$5,$6,$7,$8,$9,$2,$3,0*
0 Add four circle primitives for the rounded corners*
1,1,$1+$1,$2,$3*
1,1,$1+$1,$4,$5*
1,1,$1+$1,$6,$7*
1,1,$1+$1,$8,$9*
0 Add four rect primitives between the rounded corners*
20,1,$1+$1,$2,$3,$4,$5,0*
20,1,$1+$1,$4,$5,$6,$7,0*
20,1,$1+$1,$6,$7,$8,$9,0*
20,1,$1+$1,$8,$9,$2,$3,0*%
G04 Aperture macros list end*
%ADD10R,1.220000X2.200000*%
%ADD11R,2.170000X2.200000*%
%ADD12R,3.300000X3.500000*%
%ADD13R,0.650000X0.400000*%
%ADD14RoundRect,0.140000X-0.170000X0.140000X-0.170000X-0.140000X0.170000X-0.140000X0.170000X0.140000X0*%
%ADD15R,0.250000X0.360000*%
%ADD16RoundRect,0.135000X-0.135000X-0.185000X0.135000X-0.185000X0.135000X0.185000X-0.135000X0.185000X0*%
%ADD17RoundRect,0.150000X-0.512500X-0.150000X0.512500X-0.150000X0.512500X0.150000X-0.512500X0.150000X0*%
%ADD18RoundRect,0.200000X0.275000X-0.200000X0.275000X0.200000X-0.275000X0.200000X-0.275000X-0.200000X0*%
%ADD19RoundRect,0.250000X-0.450000X0.262500X-0.450000X-0.262500X0.450000X-0.262500X0.450000X0.262500X0*%
%ADD20RoundRect,0.250000X-0.625000X0.312500X-0.625000X-0.312500X0.625000X-0.312500X0.625000X0.312500X0*%
%ADD21RoundRect,0.135000X0.185000X-0.135000X0.185000X0.135000X-0.185000X0.135000X-0.185000X-0.135000X0*%
%ADD22R,0.600000X0.800000*%
%ADD23R,5.000000X2.600000*%
%ADD24RoundRect,0.140000X0.140000X0.170000X-0.140000X0.170000X-0.140000X-0.170000X0.140000X-0.170000X0*%
%ADD25RoundRect,0.150000X0.825000X0.150000X-0.825000X0.150000X-0.825000X-0.150000X0.825000X-0.150000X0*%
%ADD26RoundRect,0.225000X-0.225000X-0.250000X0.225000X-0.250000X0.225000X0.250000X-0.225000X0.250000X0*%
%ADD27R,1.800000X2.500000*%
G04 APERTURE END LIST*
D10*
X112229969Y-95899995D03*
D11*
X114534969Y-95899995D03*
D10*
X159979969Y-75899996D03*
D11*
X162284969Y-75899996D03*
D10*
X140879969Y-35899998D03*
D11*
X143184969Y-35899998D03*
D12*
X193294969Y-85899995D03*
X188894969Y-85899995D03*
D13*
X190029969Y-37009998D03*
X190029969Y-36359998D03*
X190029969Y-35709998D03*
X188129969Y-35709998D03*
X188129969Y-37009998D03*
D10*
X121779969Y-62799996D03*
D11*
X124084969Y-62799996D03*
D10*
X169529969Y-107199994D03*
D11*
X171834969Y-107199994D03*
D10*
X159979969Y-31499998D03*
D11*
X162284969Y-31499998D03*
D10*
X121779969Y-111499994D03*
D11*
X124084969Y-111499994D03*
D14*
X191189969Y-29889998D03*
X191189969Y-30849998D03*
D10*
X131329969Y-71499996D03*
D11*
X133634969Y-71499996D03*
D10*
X131329969Y-51499997D03*
D11*
X133634969Y-51499997D03*
D10*
X179079969Y-22799998D03*
D11*
X181384969Y-22799998D03*
D14*
X110259969Y-30429998D03*
X110259969Y-31389998D03*
D10*
X131329969Y-42799997D03*
D11*
X133634969Y-42799997D03*
D10*
X140879969Y-67199996D03*
D11*
X143184969Y-67199996D03*
D15*
X196639969Y-32004998D03*
X196639969Y-32844998D03*
D16*
X188639969Y-33929998D03*
X189659969Y-33929998D03*
D10*
X121779969Y-27199998D03*
D11*
X124084969Y-27199998D03*
D15*
X196639969Y-72004996D03*
X196639969Y-72844996D03*
D17*
X187542469Y-49839997D03*
X187542469Y-50789997D03*
X187542469Y-51739997D03*
X189817469Y-51739997D03*
X189817469Y-50789997D03*
X189817469Y-49839997D03*
D18*
X186299969Y-57874997D03*
X186299969Y-56224997D03*
D10*
X112229969Y-62799996D03*
D11*
X114534969Y-62799996D03*
D19*
X184039969Y-114239994D03*
D20*
X184039969Y-113712494D03*
D19*
X184039969Y-116064994D03*
D20*
X184039969Y-116637494D03*
D13*
X190029969Y-117009994D03*
X190029969Y-116359994D03*
X190029969Y-115709994D03*
X188129969Y-115709994D03*
X188129969Y-117009994D03*
D10*
X159979969Y-27199998D03*
D11*
X162284969Y-27199998D03*
D10*
X179079969Y-102799994D03*
D11*
X181384969Y-102799994D03*
D10*
X179079969Y-91499995D03*
D11*
X181384969Y-91499995D03*
D10*
X179079969Y-71499996D03*
D11*
X181384969Y-71499996D03*
D16*
X103559969Y-51339997D03*
X104579969Y-51339997D03*
D10*
X140879969Y-55899997D03*
D11*
X143184969Y-55899997D03*
D10*
X169529969Y-55899997D03*
D11*
X171834969Y-55899997D03*
D21*
X186069969Y-114889994D03*
X186069969Y-113869994D03*
D10*
X140879969Y-107199994D03*
D11*
X143184969Y-107199994D03*
D22*
X191709969Y-71939996D03*
X191709969Y-74339996D03*
D10*
X112229969Y-35899998D03*
D11*
X114534969Y-35899998D03*
D10*
X112229969Y-111499994D03*
D11*
X114534969Y-111499994D03*
D10*
X179079969Y-62799996D03*
D11*
X181384969Y-62799996D03*
D19*
X184039969Y-54239997D03*
D20*
X184039969Y-53712497D03*
D19*
X184039969Y-56064997D03*
D20*
X184039969Y-56637497D03*
D16*
X188639969Y-53929997D03*
X189659969Y-53929997D03*
D10*
X112229969Y-115899994D03*
D11*
X114534969Y-115899994D03*
D23*
X102344969Y-108749994D03*
D10*
X131329969Y-95899995D03*
D11*
X133634969Y-95899995D03*
D18*
X186299969Y-37874998D03*
X186299969Y-36224998D03*
D10*
X131329969Y-87199995D03*
D11*
X133634969Y-87199995D03*
D10*
X150429969Y-107199994D03*
D11*
X152734969Y-107199994D03*
D14*
X187009969Y-53879997D03*
X187009969Y-54839997D03*
D10*
X112229969Y-31499998D03*
D11*
X114534969Y-31499998D03*
D24*
X189599969Y-112959994D03*
X188639969Y-112959994D03*
D16*
X103559969Y-71339996D03*
X104579969Y-71339996D03*
D14*
X187009969Y-93879995D03*
X187009969Y-94839995D03*
X191189969Y-69889996D03*
X191189969Y-70849996D03*
D10*
X121779969Y-107199994D03*
D11*
X124084969Y-107199994D03*
D10*
X159979969Y-62799996D03*
D11*
X162284969Y-62799996D03*
D10*
X159979969Y-55899997D03*
D11*
X162284969Y-55899997D03*
D24*
X109739969Y-97779995D03*
X108779969Y-97779995D03*
D10*
X140879969Y-51499997D03*
D11*
X143184969Y-51499997D03*
D24*
X109739969Y-37779998D03*
X108779969Y-37779998D03*
D17*
X187542469Y-69839996D03*
X187542469Y-70789996D03*
X187542469Y-71739996D03*
X189817469Y-71739996D03*
X189817469Y-70789996D03*
X189817469Y-69839996D03*
D25*
X108944969Y-36504998D03*
X108944969Y-35234998D03*
X108944969Y-33964998D03*
X108944969Y-32694998D03*
X103994969Y-32694998D03*
X103994969Y-33964998D03*
X103994969Y-35234998D03*
X103994969Y-36504998D03*
D10*
X179079969Y-55899997D03*
D11*
X181384969Y-55899997D03*
D10*
X150429969Y-42799997D03*
D11*
X152734969Y-42799997D03*
D10*
X131329969Y-107199994D03*
D11*
X133634969Y-107199994D03*
D23*
X102344969Y-48749997D03*
D25*
X108944969Y-96504995D03*
X108944969Y-95234995D03*
X108944969Y-93964995D03*
X108944969Y-92694995D03*
X103994969Y-92694995D03*
X103994969Y-93964995D03*
X103994969Y-95234995D03*
X103994969Y-96504995D03*
D10*
X159979969Y-71499996D03*
D11*
X162284969Y-71499996D03*
D10*
X159979969Y-35899998D03*
D11*
X162284969Y-35899998D03*
D14*
X110259969Y-50429997D03*
X110259969Y-51389997D03*
D10*
X179079969Y-35899998D03*
D11*
X181384969Y-35899998D03*
D10*
X121779969Y-95899995D03*
D11*
X124084969Y-95899995D03*
D10*
X140879969Y-42799997D03*
D11*
X143184969Y-42799997D03*
D24*
X109739969Y-57779997D03*
X108779969Y-57779997D03*
D10*
X121779969Y-82799995D03*
D11*
X124084969Y-82799995D03*
D13*
X190029969Y-57009997D03*
X190029969Y-56359997D03*
X190029969Y-55709997D03*
X188129969Y-55709997D03*
X188129969Y-57009997D03*
D24*
X109739969Y-77779996D03*
X108779969Y-77779996D03*
D10*
X179079969Y-107199994D03*
D11*
X181384969Y-107199994D03*
D10*
X179079969Y-42799997D03*
D11*
X181384969Y-42799997D03*
D16*
X186039969Y-92959995D03*
X187059969Y-92959995D03*
D10*
X140879969Y-91499995D03*
D11*
X143184969Y-91499995D03*
D10*
X159979969Y-111499994D03*
D11*
X162284969Y-111499994D03*
D15*
X196639969Y-112004994D03*
X196639969Y-112844994D03*
D24*
X189599969Y-32959998D03*
X188639969Y-32959998D03*
D21*
X186069969Y-94889995D03*
X186069969Y-93869995D03*
D10*
X140879969Y-71499996D03*
D11*
X143184969Y-71499996D03*
D10*
X131329969Y-115899994D03*
D11*
X133634969Y-115899994D03*
D15*
X196639969Y-52004997D03*
X196639969Y-52844997D03*
D10*
X169529969Y-35899998D03*
D11*
X171834969Y-35899998D03*
D10*
X131329969Y-55899997D03*
D11*
X133634969Y-55899997D03*
D22*
X191709969Y-51939997D03*
X191709969Y-54339997D03*
D10*
X121779969Y-91499995D03*
D11*
X124084969Y-91499995D03*
D10*
X112229969Y-55899997D03*
D11*
X114534969Y-55899997D03*
D10*
X150429969Y-27199998D03*
D11*
X152734969Y-27199998D03*
D26*
X184334969Y-91539995D03*
X185884969Y-91539995D03*
D10*
X169529969Y-51499997D03*
D11*
X171834969Y-51499997D03*
D12*
X193294969Y-45899997D03*
X188894969Y-45899997D03*
D10*
X179079969Y-47199997D03*
D11*
X181384969Y-47199997D03*
D10*
X159979969Y-51499997D03*
D11*
X162284969Y-51499997D03*
D10*
X140879969Y-31499998D03*
D11*
X143184969Y-31499998D03*
D10*
X169529969Y-87199995D03*
D11*
X171834969Y-87199995D03*
D23*
X102344969Y-68749996D03*
D10*
X112229969Y-51499997D03*
D11*
X114534969Y-51499997D03*
D10*
X169529969Y-115899994D03*
D11*
X171834969Y-115899994D03*
D10*
X179079969Y-67199996D03*
D11*
X181384969Y-67199996D03*
D10*
X140879969Y-62799996D03*
D11*
X143184969Y-62799996D03*
D10*
X150429969Y-35899998D03*
D11*
X152734969Y-35899998D03*
D14*
X110259969Y-90429995D03*
X110259969Y-91389995D03*
D10*
X121779969Y-47199997D03*
D11*
X124084969Y-47199997D03*
D10*
X131329969Y-102799994D03*
D11*
X133634969Y-102799994D03*
D10*
X150429969Y-47199997D03*
D11*
X152734969Y-47199997D03*
D10*
X179079969Y-31499998D03*
D11*
X181384969Y-31499998D03*
D10*
X169529969Y-82799995D03*
D11*
X171834969Y-82799995D03*
D10*
X169529969Y-91499995D03*
D11*
X171834969Y-91499995D03*
D10*
X159979969Y-102799994D03*
D11*
X162284969Y-102799994D03*
D10*
X112229969Y-67199996D03*
D11*
X114534969Y-67199996D03*
D10*
X169529969Y-111499994D03*
D11*
X171834969Y-111499994D03*
D14*
X187009969Y-33879998D03*
X187009969Y-34839998D03*
D10*
X121779969Y-55899997D03*
D11*
X124084969Y-55899997D03*
D15*
X196639969Y-92004995D03*
X196639969Y-92844995D03*
D10*
X121779969Y-35899998D03*
D11*
X124084969Y-35899998D03*
D16*
X186039969Y-72959996D03*
X187059969Y-72959996D03*
D10*
X179079969Y-51499997D03*
D11*
X181384969Y-51499997D03*
D10*
X121779969Y-22799998D03*
D11*
X124084969Y-22799998D03*
D10*
X169529969Y-22799998D03*
D11*
X171834969Y-22799998D03*
D10*
X169529969Y-27199998D03*
D11*
X171834969Y-27199998D03*
D12*
X193294969Y-25899998D03*
X188894969Y-25899998D03*
D16*
X103559969Y-91339995D03*
X104579969Y-91339995D03*
D26*
X184334969Y-71539996D03*
X185884969Y-71539996D03*
D10*
X112229969Y-107199994D03*
D11*
X114534969Y-107199994D03*
D22*
X191709969Y-111939994D03*
X191709969Y-114339994D03*
D19*
X184039969Y-94239995D03*
D20*
X184039969Y-93712495D03*
X184039969Y-96637495D03*
D19*
X184039969Y-96064995D03*
D10*
X159979969Y-87199995D03*
D11*
X162284969Y-87199995D03*
D16*
X186039969Y-52959997D03*
X187059969Y-52959997D03*
D10*
X159979969Y-42799997D03*
D11*
X162284969Y-42799997D03*
D10*
X140879969Y-102799994D03*
D11*
X143184969Y-102799994D03*
D24*
X189599969Y-72959996D03*
X188639969Y-72959996D03*
D23*
X102344969Y-88749995D03*
D17*
X187542469Y-109839994D03*
X187542469Y-110789994D03*
X187542469Y-111739994D03*
X189817469Y-111739994D03*
X189817469Y-110789994D03*
X189817469Y-109839994D03*
D10*
X150429969Y-22799998D03*
D11*
X152734969Y-22799998D03*
D16*
X188639969Y-113929994D03*
X189659969Y-113929994D03*
D24*
X109739969Y-117779994D03*
X108779969Y-117779994D03*
D14*
X187009969Y-73879996D03*
X187009969Y-74839996D03*
D10*
X169529969Y-75899996D03*
D11*
X171834969Y-75899996D03*
D16*
X188639969Y-73929996D03*
X189659969Y-73929996D03*
D10*
X179079969Y-75899996D03*
D11*
X181384969Y-75899996D03*
D10*
X150429969Y-111499994D03*
D11*
X152734969Y-111499994D03*
D10*
X169529969Y-47199997D03*
D11*
X171834969Y-47199997D03*
D10*
X112229969Y-102799994D03*
D11*
X114534969Y-102799994D03*
D10*
X169529969Y-67199996D03*
D11*
X171834969Y-67199996D03*
D13*
X190029969Y-77009996D03*
X190029969Y-76359996D03*
X190029969Y-75709996D03*
X188129969Y-75709996D03*
X188129969Y-77009996D03*
D10*
X140879969Y-27199998D03*
D11*
X143184969Y-27199998D03*
D10*
X121779969Y-31499998D03*
D11*
X124084969Y-31499998D03*
D14*
X187009969Y-113879994D03*
X187009969Y-114839994D03*
D10*
X140879969Y-22799998D03*
D11*
X143184969Y-22799998D03*
D10*
X140879969Y-95899995D03*
D11*
X143184969Y-95899995D03*
D10*
X150429969Y-62799996D03*
D11*
X152734969Y-62799996D03*
D10*
X140879969Y-82799995D03*
D11*
X143184969Y-82799995D03*
D10*
X179079969Y-95899995D03*
D11*
X181384969Y-95899995D03*
D10*
X140879969Y-111499994D03*
D11*
X143184969Y-111499994D03*
D10*
X140879969Y-47199997D03*
D11*
X143184969Y-47199997D03*
D10*
X112229969Y-87199995D03*
D11*
X114534969Y-87199995D03*
D10*
X140879969Y-87199995D03*
D11*
X143184969Y-87199995D03*
D10*
X131329969Y-35899998D03*
D11*
X133634969Y-35899998D03*
D10*
X159979969Y-91499995D03*
D11*
X162284969Y-91499995D03*
D10*
X150429969Y-87199995D03*
D11*
X152734969Y-87199995D03*
D14*
X191189969Y-109889994D03*
X191189969Y-110849994D03*
D22*
X191709969Y-91939995D03*
X191709969Y-94339995D03*
D19*
X184039969Y-34239998D03*
D20*
X184039969Y-33712498D03*
X184039969Y-36637498D03*
D19*
X184039969Y-36064998D03*
D16*
X188639969Y-93929995D03*
X189659969Y-93929995D03*
D18*
X186299969Y-77874996D03*
X186299969Y-76224996D03*
D27*
X184539969Y-89299995D03*
X184539969Y-85299995D03*
D10*
X150429969Y-82799995D03*
D11*
X152734969Y-82799995D03*
D10*
X121779969Y-102799994D03*
D11*
X124084969Y-102799994D03*
D10*
X159979969Y-47199997D03*
D11*
X162284969Y-47199997D03*
D25*
X108944969Y-56504997D03*
X108944969Y-55234997D03*
X108944969Y-53964997D03*
X108944969Y-52694997D03*
X103994969Y-52694997D03*
X103994969Y-53964997D03*
X103994969Y-55234997D03*
X103994969Y-56504997D03*
D10*
X150429969Y-55899997D03*
D11*
X152734969Y-55899997D03*
D10*
X159979969Y-107199994D03*
D11*
X162284969Y-107199994D03*
D10*
X169529969Y-71499996D03*
D11*
X171834969Y-71499996D03*
D10*
X112229969Y-75899996D03*
D11*
X114534969Y-75899996D03*
D10*
X150429969Y-71499996D03*
D11*
X152734969Y-71499996D03*
D26*
X184334969Y-111539994D03*
X185884969Y-111539994D03*
D14*
X191189969Y-49889997D03*
X191189969Y-50849997D03*
D10*
X150429969Y-95899995D03*
D11*
X152734969Y-95899995D03*
D10*
X150429969Y-75899996D03*
D11*
X152734969Y-75899996D03*
D22*
X191709969Y-31939998D03*
X191709969Y-34339998D03*
D10*
X121779969Y-42799997D03*
D11*
X124084969Y-42799997D03*
D10*
X112229969Y-91499995D03*
D11*
X114534969Y-91499995D03*
D25*
X108944969Y-116504994D03*
X108944969Y-115234994D03*
X108944969Y-113964994D03*
X108944969Y-112694994D03*
X103994969Y-112694994D03*
X103994969Y-113964994D03*
X103994969Y-115234994D03*
X103994969Y-116504994D03*
D17*
X187542469Y-89839995D03*
X187542469Y-90789995D03*
X187542469Y-91739995D03*
X189817469Y-91739995D03*
X189817469Y-90789995D03*
X189817469Y-89839995D03*
D10*
X131329969Y-22799998D03*
D11*
X133634969Y-22799998D03*
D18*
X186299969Y-97874995D03*
X186299969Y-96224995D03*
D10*
X159979969Y-115899994D03*
D11*
X162284969Y-115899994D03*
D10*
X112229969Y-47199997D03*
D11*
X114534969Y-47199997D03*
D10*
X121779969Y-115899994D03*
D11*
X124084969Y-115899994D03*
D10*
X169529969Y-42799997D03*
D11*
X171834969Y-42799997D03*
D27*
X184539969Y-69299996D03*
X184539969Y-65299996D03*
D10*
X169529969Y-31499998D03*
D11*
X171834969Y-31499998D03*
D14*
X110259969Y-70429996D03*
X110259969Y-71389996D03*
D10*
X169529969Y-102799994D03*
D11*
X171834969Y-102799994D03*
D10*
X179079969Y-87199995D03*
D11*
X181384969Y-87199995D03*
D10*
X121779969Y-51499997D03*
D11*
X124084969Y-51499997D03*
D13*
X190029969Y-97009995D03*
X190029969Y-96359995D03*
X190029969Y-95709995D03*
X188129969Y-95709995D03*
X188129969Y-97009995D03*
D21*
X186069969Y-74889996D03*
X186069969Y-73869996D03*
D10*
X159979969Y-67199996D03*
D11*
X162284969Y-67199996D03*
D10*
X179079969Y-111499994D03*
D11*
X181384969Y-111499994D03*
D10*
X121779969Y-71499996D03*
D11*
X124084969Y-71499996D03*
D10*
X131329969Y-91499995D03*
D11*
X133634969Y-91499995D03*
D27*
X184539969Y-29299998D03*
X184539969Y-25299998D03*
D10*
X131329969Y-27199998D03*
D11*
X133634969Y-27199998D03*
D16*
X186039969Y-32959998D03*
X187059969Y-32959998D03*
D10*
X112229969Y-42799997D03*
D11*
X114534969Y-42799997D03*
D10*
X159979969Y-22799998D03*
D11*
X162284969Y-22799998D03*
D10*
X169529969Y-62799996D03*
D11*
X171834969Y-62799996D03*
D19*
X184039969Y-74239996D03*
D20*
X184039969Y-73712496D03*
D19*
X184039969Y-76064996D03*
D20*
X184039969Y-76637496D03*
D10*
X150429969Y-67199996D03*
D11*
X152734969Y-67199996D03*
D10*
X131329969Y-47199997D03*
D11*
X133634969Y-47199997D03*
D10*
X150429969Y-51499997D03*
D11*
X152734969Y-51499997D03*
D12*
X193294969Y-65899996D03*
X188894969Y-65899996D03*
D27*
X184539969Y-109299994D03*
X184539969Y-105299994D03*
D10*
X150429969Y-115899994D03*
D11*
X152734969Y-115899994D03*
D10*
X131329969Y-31499998D03*
D11*
X133634969Y-31499998D03*
D10*
X150429969Y-102799994D03*
D11*
X152734969Y-102799994D03*
D23*
X102344969Y-28749998D03*
D10*
X112229969Y-71499996D03*
D11*
X114534969Y-71499996D03*
D26*
X184334969Y-31539998D03*
X185884969Y-31539998D03*
D17*
X187542469Y-29839998D03*
X187542469Y-30789998D03*
X187542469Y-31739998D03*
X189817469Y-31739998D03*
X189817469Y-30789998D03*
X189817469Y-29839998D03*
D25*
X108944969Y-76504996D03*
X108944969Y-75234996D03*
X108944969Y-73964996D03*
X108944969Y-72694996D03*
X103994969Y-72694996D03*
X103994969Y-73964996D03*
X103994969Y-75234996D03*
X103994969Y-76504996D03*
D10*
X131329969Y-67199996D03*
D11*
X133634969Y-67199996D03*
D18*
X186299969Y-117874994D03*
X186299969Y-116224994D03*
D10*
X169529969Y-95899995D03*
D11*
X171834969Y-95899995D03*
D10*
X179079969Y-82799995D03*
D11*
X181384969Y-82799995D03*
D10*
X140879969Y-75899996D03*
D11*
X143184969Y-75899996D03*
D24*
X189599969Y-52959997D03*
X188639969Y-52959997D03*
X189599969Y-92959995D03*
X188639969Y-92959995D03*
D10*
X131329969Y-111499994D03*
D11*
X133634969Y-111499994D03*
D14*
X191189969Y-89889995D03*
X191189969Y-90849995D03*
D10*
X131329969Y-82799995D03*
D11*
X133634969Y-82799995D03*
D10*
X150429969Y-31499998D03*
D11*
X152734969Y-31499998D03*
D10*
X121779969Y-67199996D03*
D11*
X124084969Y-67199996D03*
D16*
X186039969Y-112959994D03*
X187059969Y-112959994D03*
D14*
X110259969Y-110429994D03*
X110259969Y-111389994D03*
D16*
X103559969Y-31339998D03*
X104579969Y-31339998D03*
D27*
X184539969Y-49299997D03*
X184539969Y-45299997D03*
D10*
X150429969Y-91499995D03*
D11*
X152734969Y-91499995D03*
D10*
X159979969Y-95899995D03*
D11*
X162284969Y-95899995D03*
D16*
X103559969Y-111339994D03*
X104579969Y-111339994D03*
D10*
X179079969Y-27199998D03*
D11*
X181384969Y-27199998D03*
D10*
X131329969Y-62799996D03*
D11*
X133634969Y-62799996D03*
D10*
X159979969Y-82799995D03*
D11*
X162284969Y-82799995D03*
D10*
X131329969Y-75899996D03*
D11*
X133634969Y-75899996D03*
D21*
X186069969Y-54889997D03*
X186069969Y-53869997D03*
D10*
X179079969Y-115899994D03*
D11*
X181384969Y-115899994D03*
D26*
X184334969Y-51539997D03*
X185884969Y-51539997D03*
D10*
X112229969Y-27199998D03*
D11*
X114534969Y-27199998D03*
D12*
X193294969Y-105899994D03*
X188894969Y-105899994D03*
D10*
X112229969Y-22799998D03*
D11*
X114534969Y-22799998D03*
D10*
X121779969Y-75899996D03*
D11*
X124084969Y-75899996D03*
D10*
X112229969Y-82799995D03*
D11*
X114534969Y-82799995D03*
D10*
X121779969Y-87199995D03*
D11*
X124084969Y-87199995D03*
D10*
X140879969Y-115899994D03*
D11*
X143184969Y-115899994D03*
D21*
X186069969Y-34889998D03*
X186069969Y-33869998D03*
M02*
